<svg width="3039" height="950" viewBox="0 0 3039 950" fill="none" xmlns="http://www.w3.org/2000/svg">
<g filter="url(#filter0_d_76_5378)">
<mask id="mask0_76_5378" style="mask-type:alpha" maskUnits="userSpaceOnUse" x="1612" y="744" width="197" height="196">
<circle cx="1711" cy="842" r="98" fill="#D9D9D9"/>
<circle cx="1711" cy="842" r="98" stroke="#224564"/>
</mask>
<g mask="url(#mask0_76_5378)">
<circle cx="1711" cy="839.565" r="92" fill="#21415E" stroke="#132D44" stroke-width="12"/>
</g>
</g>
<g filter="url(#filter1_d_76_5378)">
<mask id="mask1_76_5378" style="mask-type:alpha" maskUnits="userSpaceOnUse" x="2080" y="683" width="245" height="245">
<circle cx="2202.5" cy="805.5" r="122.5" fill="#D9D9D9"/>
<circle cx="2202.5" cy="805.5" r="122.5" stroke="#224564"/>
</mask>
<g mask="url(#mask1_76_5378)">
<circle cx="2202.5" cy="802.457" r="116.5" fill="#21415E" stroke="#132D44" stroke-width="12"/>
</g>
</g>
<g filter="url(#filter2_d_76_5378)">
<mask id="mask2_76_5378" style="mask-type:alpha" maskUnits="userSpaceOnUse" x="1243" y="766" width="152" height="151">
<circle cx="1319.5" cy="841.5" r="75.5" fill="#D9D9D9"/>
<circle cx="1319.5" cy="841.5" r="75.5" stroke="#224564"/>
</mask>
<g mask="url(#mask2_76_5378)">
<circle cx="1319.5" cy="839.624" r="69.5" fill="#21415E" stroke="#132D44" stroke-width="12"/>
</g>
</g>
<g filter="url(#filter3_d_76_5378)">
<path d="M1430.05 0C1414.18 0 1404.08 17.0176 1411.26 31.162C1527.56 260.088 1524.13 397.874 1411.6 615.708C1404.29 629.86 1414.4 647 1430.32 647H1531.88C1539.77 647 1547.05 642.494 1550.59 635.444C1666.56 404.333 1670.4 264.131 1550.48 11.9767C1547.02 4.70643 1539.62 0 1531.57 0L1430.05 0Z" fill="#588F9C"/>
<path d="M1926.22 13C1910.19 13 1900.1 30.3473 1907.59 44.5203C2023.23 263.349 2019.85 395.692 1907.95 603.93C1900.33 618.108 1910.42 635.578 1926.51 635.578H2028.17C2035.92 635.578 2043.11 631.218 2046.7 624.346C2163.05 402.066 2166.91 267.17 2046.61 24.6584C2043.09 17.5604 2035.77 13 2027.85 13L1926.22 13Z" fill="#BF6F8F"/>
<path d="M1675.19 12C1659.06 12 1648.98 29.5346 1656.65 43.7172C1775.02 262.528 1771.56 394.933 1657.02 603.155C1649.22 617.341 1659.3 635 1675.49 635H1780.57C1788.25 635 1795.38 630.721 1799.01 623.951C1918.35 401.35 1922.32 266.342 1798.92 23.4795C1795.36 16.4806 1788.1 12 1780.25 12L1675.19 12Z" fill="#A7BD41"/>
<rect x="2754" y="82" width="483" height="2754" transform="rotate(90 2754 82)" fill="#E7C5C5"/>
<path d="M2029.62 13C2034.2 13 2037.04 18.0271 2034.83 22.0401C1902.55 262.514 1906.8 397.799 2034.73 626.509C2036.98 630.523 2034.14 635.578 2029.54 635.578H1893.13C1890.91 635.578 1888.85 634.311 1887.81 632.353C1766.01 402.725 1761.85 267.043 1887.84 16.3479C1888.86 14.3252 1890.96 13 1893.22 13L2029.62 13Z" fill="#E68DB1"/>
<path d="M1533.98 0C1538.52 0 1541.36 4.93592 1539.25 8.94491C1407.15 259.292 1411.4 399.929 1539.15 638.027C1541.3 642.038 1538.46 647 1533.91 647H1397.94C1395.68 647 1393.59 645.691 1392.57 643.683C1271.22 405.014 1267.07 264.006 1392.6 3.43917C1393.6 1.36693 1395.73 0 1398.03 0L1533.98 0Z" fill="#75B5C5"/>
<path d="M1784.66 13C1789.27 13 1792.1 18.081 1789.84 22.0951C1654.32 262.685 1658.68 398.056 1789.74 626.877C1792.03 630.891 1789.2 636 1784.57 636H1644.53C1642.33 636 1640.29 634.757 1639.24 632.828C1514.39 402.994 1510.12 267.216 1639.27 16.2963C1640.29 14.3019 1642.38 13 1644.62 13L1784.66 13Z" fill="#C4DB5B"/>
<ellipse cx="2709.5" cy="308" rx="303" ry="307.5" transform="rotate(90 2709.5 308)" fill="#E7C5C5"/>
</g>
<defs>
<filter id="filter0_d_76_5378" x="1613" y="744" width="205" height="205.565" filterUnits="userSpaceOnUse" color-interpolation-filters="sRGB">
<feFlood flood-opacity="0" result="BackgroundImageFix"/>
<feColorMatrix in="SourceAlpha" type="matrix" values="0 0 0 0 0 0 0 0 0 0 0 0 0 0 0 0 0 0 127 0" result="hardAlpha"/>
<feOffset dx="9" dy="12"/>
<feComposite in2="hardAlpha" operator="out"/>
<feColorMatrix type="matrix" values="0 0 0 0 0.0583545 0 0 0 0 0.150095 0 0 0 0 0.23125 0 0 0 1 0"/>
<feBlend mode="normal" in2="BackgroundImageFix" result="effect1_dropShadow_76_5378"/>
<feBlend mode="normal" in="SourceGraphic" in2="effect1_dropShadow_76_5378" result="shape"/>
</filter>
<filter id="filter1_d_76_5378" x="2080" y="683" width="254" height="253.957" filterUnits="userSpaceOnUse" color-interpolation-filters="sRGB">
<feFlood flood-opacity="0" result="BackgroundImageFix"/>
<feColorMatrix in="SourceAlpha" type="matrix" values="0 0 0 0 0 0 0 0 0 0 0 0 0 0 0 0 0 0 127 0" result="hardAlpha"/>
<feOffset dx="9" dy="12"/>
<feComposite in2="hardAlpha" operator="out"/>
<feColorMatrix type="matrix" values="0 0 0 0 0.0583545 0 0 0 0 0.150095 0 0 0 0 0.23125 0 0 0 1 0"/>
<feBlend mode="normal" in2="BackgroundImageFix" result="effect1_dropShadow_76_5378"/>
<feBlend mode="normal" in="SourceGraphic" in2="effect1_dropShadow_76_5378" result="shape"/>
</filter>
<filter id="filter2_d_76_5378" x="1244" y="766" width="160" height="161.124" filterUnits="userSpaceOnUse" color-interpolation-filters="sRGB">
<feFlood flood-opacity="0" result="BackgroundImageFix"/>
<feColorMatrix in="SourceAlpha" type="matrix" values="0 0 0 0 0 0 0 0 0 0 0 0 0 0 0 0 0 0 127 0" result="hardAlpha"/>
<feOffset dx="9" dy="12"/>
<feComposite in2="hardAlpha" operator="out"/>
<feColorMatrix type="matrix" values="0 0 0 0 0.0583545 0 0 0 0 0.150095 0 0 0 0 0.23125 0 0 0 1 0"/>
<feBlend mode="normal" in2="BackgroundImageFix" result="effect1_dropShadow_76_5378"/>
<feBlend mode="normal" in="SourceGraphic" in2="effect1_dropShadow_76_5378" result="shape"/>
</filter>
<filter id="filter3_d_76_5378" x="0" y="0" width="3039" height="678" filterUnits="userSpaceOnUse" color-interpolation-filters="sRGB">
<feFlood flood-opacity="0" result="BackgroundImageFix"/>
<feColorMatrix in="SourceAlpha" type="matrix" values="0 0 0 0 0 0 0 0 0 0 0 0 0 0 0 0 0 0 127 0" result="hardAlpha"/>
<feOffset dx="22" dy="31"/>
<feComposite in2="hardAlpha" operator="out"/>
<feColorMatrix type="matrix" values="0 0 0 0 0.0745098 0 0 0 0 0.176471 0 0 0 0 0.266667 0 0 0 1 0"/>
<feBlend mode="normal" in2="BackgroundImageFix" result="effect1_dropShadow_76_5378"/>
<feBlend mode="normal" in="SourceGraphic" in2="effect1_dropShadow_76_5378" result="shape"/>
</filter>
</defs>
</svg>
