<svg width="1401" height="1069" viewBox="0 0 1401 1069" fill="none" xmlns="http://www.w3.org/2000/svg">
<g filter="url(#filter0_d_75_5270)">
<rect x="670.528" y="350.036" width="98.4163" height="15.6109" transform="rotate(16.9575 670.528 350.036)" fill="#E9B6B6"/>
<rect x="669.11" y="349.716" width="47.276" height="15.6109" transform="rotate(16.9575 669.11 349.716)" fill="#94A934"/>
<path d="M725.488 224.313C732.14 213.395 746.447 226.199 752.588 233.853C740.875 237.286 732.692 239.481 713.805 244.133C705.525 246.558 690.61 240.387 684.367 229.437C678.174 218.572 699.762 206.373 696.916 210.864C690.147 221.548 713.543 243.918 725.488 224.313Z" fill="#E68DB1"/>
<path d="M721.157 234.478C727.809 223.56 742.117 236.364 748.257 244.018C736.545 247.451 728.362 249.646 709.475 254.298C701.195 256.723 686.279 250.552 680.037 239.602C673.843 228.737 695.431 216.538 692.586 221.029C685.816 231.713 709.212 254.083 721.157 234.478Z" fill="#E57AA5"/>
<path d="M745.392 294.002C760.803 297.221 776.124 286.296 779.611 269.601L745.392 294.002Z" fill="#E57AA5"/>
<rect x="728.989" y="278.267" width="16.2896" height="8.14479" transform="rotate(33.6952 728.989 278.267)" fill="#E9B6B6"/>
<circle cx="749.697" cy="261.891" r="28.5068" transform="rotate(33.6952 749.697 261.891)" fill="#E7C5C5"/>
<path d="M724.792 296.795L790.243 304.572C792.912 304.889 794.818 307.309 794.501 309.978V309.978C794.184 312.647 791.763 314.553 789.095 314.236L723.644 306.459L724.792 296.795Z" fill="#E9B6B6"/>
<path d="M768.241 238.362C754.051 228.9 735.467 231.848 726.733 244.947L778.121 279.213C786.855 266.114 782.432 247.824 768.241 238.362Z" fill="#E68DB1"/>
<path d="M723.181 280.823C714.284 267.834 718.479 249.491 732.551 239.853L723.181 280.823Z" fill="#E68DB1"/>
<path d="M709.283 282.128C711.121 279.371 714.846 278.626 717.603 280.465L744.325 298.283C747.082 300.121 747.827 303.846 745.989 306.603L705.638 367.117L668.932 342.642L709.283 282.128Z" fill="#E7C5C5"/>
<path d="M721.08 289.481L688.738 232.05C687.419 229.708 684.452 228.879 682.11 230.198V230.198C679.769 231.516 678.939 234.484 680.258 236.825L712.6 294.256L721.08 289.481Z" fill="#E7C5C5"/>
<rect x="666.108" y="340.759" width="48.8688" height="7.46606" transform="rotate(33.6952 666.108 340.759)" fill="#DFF480"/>
<rect x="663.661" y="348.101" width="98.4163" height="15.6109" transform="rotate(33.6952 663.661 348.101)" fill="#E7C5C5"/>
<rect x="663.661" y="348.101" width="45.4751" height="15.6109" transform="rotate(33.6952 663.661 348.101)" fill="#A8C03C"/>
<rect x="707.716" y="284.477" width="44.1176" height="21.7194" transform="rotate(33.6952 707.716 284.477)" fill="#A8C03C"/>
<path d="M762.676 377.005C763.819 375.29 766.137 374.826 767.852 375.97V375.97C769.568 377.114 770.031 379.432 768.887 381.147L760.415 393.853L754.203 389.711L762.676 377.005Z" fill="#E9B6B6"/>
<path d="M741.402 395.452C742.546 393.736 744.864 393.273 746.579 394.417V394.417C748.294 395.56 748.758 397.878 747.614 399.594L739.142 412.299L732.93 408.157L741.402 395.452Z" fill="#E7C5C5"/>
<ellipse cx="791.763" cy="309.245" rx="4.41176" ry="7.46606" transform="rotate(10.771 791.763 309.245)" fill="#E9B6B6"/>
<ellipse cx="682.931" cy="232.241" rx="4.41176" ry="7.46606" transform="rotate(47.4012 682.931 232.241)" fill="#E7C5C5"/>
</g>
<mask id="mask0_75_5270" style="mask-type:alpha" maskUnits="userSpaceOnUse" x="955" y="279" width="161" height="161">
<circle cx="1035.5" cy="359.5" r="80.5" fill="#D9D9D9"/>
<circle cx="1035.5" cy="359.5" r="80.5" stroke="#224564"/>
</mask>
<g mask="url(#mask0_75_5270)">
<path d="M975.4 350.4V260H1010.4V350.4C1010.4 357.733 1012.6 363.4 1017 367.4C1021.53 371.4 1027.6 373.4 1035.2 373.4C1042.8 373.4 1048.8 371.4 1053.2 367.4C1057.73 363.4 1060 357.733 1060 350.4V260H1095V350.4C1095 366.667 1089.53 379.933 1078.6 390.2C1067.67 400.333 1053.27 405.4 1035.4 405.4C1017.4 405.4 1002.87 400.333 991.8 390.2C980.867 379.933 975.4 366.667 975.4 350.4Z" fill="#183956"/>
<circle cx="1035.5" cy="357.5" r="77" stroke="#224564" stroke-width="7"/>
</g>
<mask id="mask1_75_5270" style="mask-type:alpha" maskUnits="userSpaceOnUse" x="1137" y="96" width="264" height="264">
<circle cx="1269" cy="228" r="132" fill="#D9D9D9"/>
<circle cx="1269" cy="228" r="132" stroke="#224564"/>
</mask>
<g mask="url(#mask1_75_5270)">
<path d="M1151 408V122H1252.6C1297.93 122 1333.8 134.667 1360.2 160C1386.87 185.067 1400.2 219.867 1400.2 264.4C1400.2 309.2 1386.87 344.4 1360.2 370C1333.8 395.333 1297.93 408 1252.6 408H1151ZM1221 348H1249.8C1274.33 348 1293.4 340.8 1307 326.4C1320.87 312 1327.8 291.333 1327.8 264.4C1327.8 237.733 1320.87 217.333 1307 203.2C1293.13 189.067 1274.07 182 1249.8 182H1221V348Z" fill="#183956"/>
<circle cx="1269" cy="224.72" r="128.5" stroke="#224564" stroke-width="7"/>
</g>
<mask id="mask2_75_5270" style="mask-type:alpha" maskUnits="userSpaceOnUse" x="1137" y="445" width="126" height="126">
<circle cx="1200" cy="508" r="63" fill="#D9D9D9"/>
<circle cx="1200" cy="508" r="63" stroke="#224564"/>
</mask>
<g mask="url(#mask2_75_5270)">
<path d="M1151.6 507V496.6H1186.6V504.2C1186.6 515.667 1190.93 521.4 1199.6 521.4C1203.6 521.4 1206.73 520.133 1209 517.6C1211.27 515.067 1212.4 511.267 1212.4 506.2V438H1174V408H1247.4V507C1247.4 521.8 1242.67 533.267 1233.2 541.4C1223.73 549.4 1212.53 553.4 1199.6 553.4C1186.53 553.4 1175.27 549.333 1165.8 541.2C1156.33 533.067 1151.6 521.667 1151.6 507Z" fill="#183956"/>
<circle cx="1200" cy="506.435" r="59.5" stroke="#224564" stroke-width="7"/>
</g>
<g filter="url(#filter1_d_75_5270)">
<path d="M659.524 390.441C665.333 359.753 578.221 304.385 533.939 280.538C529.764 297.432 525.768 331.904 543.178 334.641C564.942 338.063 644.354 409.451 640.079 443.733C635.805 478.014 641.216 542.052 710.098 540.996C778.98 539.941 652.263 428.802 659.524 390.441Z" fill="#B0ECFB" stroke="#B0ECFB" stroke-width="3"/>
<path d="M662.483 388.83C667.228 358.323 587.597 301.678 547.189 277.169C543.694 293.947 540.65 328.256 556.429 331.272C576.152 335.043 649.087 407.537 645.789 441.652C642.49 475.767 648.434 539.713 710.662 539.794C772.89 539.875 656.553 426.964 662.483 388.83Z" fill="#C4F3FF" stroke="#B0ECFB" stroke-width="3"/>
<path d="M13 906.702L113.5 740C143.413 766.333 198.15 783.189 239.5 802.5C280.85 821.811 322.687 829.02 361.398 829.02C392.19 829.02 415.945 822.876 432.661 810.587C450.257 798.299 459.055 782.499 459.055 763.188C459.055 743 448.497 724.567 427.382 707.889C407.147 690.334 381.633 675.851 350.84 664.44C325.151 643.709 290.333 631.757 250.544 620.991C214.472 602.558 181.04 583.247 150.248 563.058C119.455 542.87 93.501 515.22 72.386 480.11C52.1507 444.121 42.0331 402.867 42.0331 356.345C42.0331 270.324 73.7057 200.981 137.051 148.315C201.276 94.7718 283.536 68 383.832 68C500.845 68 535.939 88.9012 616 160L545 321.5C517.726 297.8 521.96 319.479 484.129 303.679C446.298 287.88 409.346 279.98 373.275 279.98C339.843 279.98 314.769 286.124 298.053 298.413C281.337 310.701 272.979 326.94 272.979 347.129C272.979 367.317 283.096 385.75 303.331 402.428C324.446 419.105 350.4 433.149 381.193 444.56C411.986 455.093 445.418 469.138 481.489 486.693C517.561 503.37 550.993 521.803 581.786 541.992C612.578 561.303 638.092 588.952 658.328 624.94C679.443 660.051 690 700.867 690 747.388C690 830.776 660.087 900.558 600.261 956.735C541.315 1012.91 459.495 1041 354.799 1041C291.454 1041 229.429 1029.59 168.723 1006.77C108.897 983.945 56.9896 950.591 13 906.702Z" fill="#A8C03C"/>
<path d="M0 902.702L121.411 727.589C151.324 753.922 186.956 776.743 228.306 796.054C269.656 815.365 309.687 825.02 348.398 825.02C379.19 825.02 402.945 818.876 419.661 806.587C437.257 794.299 446.055 778.499 446.055 759.188C446.055 739 435.497 720.567 414.382 703.889C394.147 686.334 368.633 671.851 337.84 660.44C307.047 649.029 273.615 634.546 237.544 616.991C201.472 598.557 168.04 579.247 137.248 559.058C106.455 538.87 80.501 511.22 59.386 476.11C39.1507 440.121 29.0331 398.866 29.0331 352.345C29.0331 266.324 60.7057 196.981 124.051 144.315C188.276 90.7718 270.536 64 370.832 64C487.845 64 586.381 99.5494 666.442 170.648L568.786 358.928C541.512 335.229 508.96 315.479 471.129 299.679C433.298 283.88 396.346 275.98 360.275 275.98C326.843 275.98 301.769 282.124 285.053 294.413C268.337 306.701 259.979 322.94 259.979 343.129C259.979 363.317 270.096 381.75 290.331 398.428C311.446 415.105 337.4 429.149 368.193 440.56C398.986 451.093 432.418 465.138 468.489 482.693C504.561 499.37 537.993 517.803 568.786 537.992C599.578 557.303 625.092 584.952 645.328 620.94C666.443 656.051 677 696.867 677 743.388C677 826.776 647.087 896.558 587.261 952.735C528.315 1008.91 446.495 1037 341.799 1037C278.454 1037 216.429 1025.59 155.723 1002.77C95.8973 979.945 43.9896 946.59 0 902.702Z" fill="#DFF480"/>
<ellipse cx="709.242" cy="510.493" rx="11" ry="22" transform="rotate(-21.3079 709.242 510.493)" fill="#D6F7FF"/>
</g>
<ellipse cx="891" cy="85" rx="93" ry="85" fill="#18344D"/>
<ellipse cx="1230" cy="946" rx="93" ry="85" fill="#18344D"/>
<ellipse cx="1036" cy="169.5" rx="52" ry="47.5" fill="#18344D"/>
<ellipse cx="108" cy="84.5" rx="52" ry="47.5" fill="#18344D"/>
<defs>
<filter id="filter0_d_75_5270" x="655" y="203.908" width="150.318" height="211.779" filterUnits="userSpaceOnUse" color-interpolation-filters="sRGB">
<feFlood flood-opacity="0" result="BackgroundImageFix"/>
<feColorMatrix in="SourceAlpha" type="matrix" values="0 0 0 0 0 0 0 0 0 0 0 0 0 0 0 0 0 0 127 0" result="hardAlpha"/>
<feOffset dx="9" dy="-6"/>
<feComposite in2="hardAlpha" operator="out"/>
<feColorMatrix type="matrix" values="0 0 0 0 0.0941176 0 0 0 0 0.223529 0 0 0 0 0.337255 0 0 0 1 0"/>
<feBlend mode="normal" in2="BackgroundImageFix" result="effect1_dropShadow_75_5270"/>
<feBlend mode="normal" in="SourceGraphic" in2="effect1_dropShadow_75_5270" result="shape"/>
</filter>
<filter id="filter1_d_75_5270" x="0" y="64" width="752.176" height="1005" filterUnits="userSpaceOnUse" color-interpolation-filters="sRGB">
<feFlood flood-opacity="0" result="BackgroundImageFix"/>
<feColorMatrix in="SourceAlpha" type="matrix" values="0 0 0 0 0 0 0 0 0 0 0 0 0 0 0 0 0 0 127 0" result="hardAlpha"/>
<feOffset dx="20" dy="28"/>
<feComposite in2="hardAlpha" operator="out"/>
<feColorMatrix type="matrix" values="0 0 0 0 0.0941176 0 0 0 0 0.223529 0 0 0 0 0.337255 0 0 0 1 0"/>
<feBlend mode="normal" in2="BackgroundImageFix" result="effect1_dropShadow_75_5270"/>
<feBlend mode="normal" in="SourceGraphic" in2="effect1_dropShadow_75_5270" result="shape"/>
</filter>
</defs>
</svg>
