<svg width="1337" height="1182" viewBox="0 0 1337 1182" fill="none" xmlns="http://www.w3.org/2000/svg">
<g filter="url(#filter0_d_83_7613)">
<path d="M783.5 548.922H544.5L516.748 1007.53C514.174 1050.08 547.986 1086 590.613 1086H737.387C780.014 1086 813.826 1050.08 811.252 1007.53L783.5 548.922Z" fill="#C4DB5B" fill-opacity="0.2"/>
<path d="M752.839 617.811H575.161L555.748 938.641C553.174 981.19 586.986 1017.11 629.613 1017.11H698.387C741.014 1017.11 774.826 981.19 772.252 938.641L752.839 617.811Z" fill="#C4DB5B"/>
<path d="M575.242 617.811H752.919L765 817.461H563.161L575.242 617.811Z" fill="#E8FF80"/>
<rect width="39.525" height="42.9297" transform="matrix(-0.746987 -0.664838 -0.479816 0.877369 757 948.985)" fill="#ECF5FF"/>
<rect width="23.1589" height="25.1538" transform="matrix(-0.746987 -0.664838 -0.479816 0.877369 686 880.697)" fill="#ECF5FF"/>
<rect width="50.5647" height="54.9204" transform="matrix(0.746987 -0.664838 0.479816 0.877369 578.877 956.325)" fill="#ECF5FF"/>
<rect width="19.7625" height="21.4649" transform="matrix(-0.746987 -0.664838 -0.479816 0.877369 755.035 950.348)" fill="white"/>
<rect width="25.2823" height="27.4602" transform="matrix(0.746987 -0.664838 0.479816 0.877369 581.391 958.068)" fill="white"/>
<ellipse cx="14" cy="17.8601" rx="14" ry="17.8601" transform="matrix(-1 0 0 1 765 805.342)" fill="#E8FF80"/>
<ellipse cx="7" cy="8.93004" rx="7" ry="8.93004" transform="matrix(-1 0 0 1 709 571.885)" fill="#E8FF80"/>
<ellipse cx="16" cy="20.4115" rx="16" ry="20.4115" transform="matrix(-1 0 0 1 645 805.342)" fill="#E8FF80"/>
<ellipse cx="9.5" cy="12.1193" rx="9.5" ry="12.1193" transform="matrix(-1 0 0 1 624 827.029)" fill="#E8FF80"/>
<ellipse cx="9.5" cy="12.1193" rx="9.5" ry="12.1193" transform="matrix(-1 0 0 1 709 857.646)" fill="#E8FF80"/>
<ellipse cx="6.5" cy="8.29218" rx="6.5" ry="8.29218" transform="matrix(-1 0 0 1 712 872.955)" fill="#E8FF80"/>
<ellipse cx="5" cy="6.3786" rx="5" ry="6.3786" transform="matrix(-1 0 0 1 706 858.922)" fill="#F1FFB3"/>
<ellipse cx="3.5" cy="4.46502" rx="3.5" ry="4.46502" transform="matrix(-1 0 0 1 711 876.782)" fill="#F1FFB3"/>
<ellipse cx="5.5" cy="7.01646" rx="5.5" ry="7.01646" transform="matrix(-1 0 0 1 752 820.65)" fill="#F1FFB3"/>
<ellipse cx="8" cy="10.2058" rx="8" ry="10.2058" transform="matrix(-1 0 0 1 642 816.823)" fill="#F1FFB3"/>
<ellipse cx="4" cy="5.10288" rx="4" ry="5.10288" transform="matrix(-1 0 0 1 616 835.959)" fill="#F1FFB3"/>
<ellipse cx="4" cy="5.10288" rx="4" ry="5.10288" transform="matrix(-1 0 0 1 724 779.827)" fill="#C4DB5B"/>
<ellipse cx="7.5" cy="9.5679" rx="7.5" ry="9.5679" transform="matrix(-1 0 0 1 711 795.136)" fill="#C4DB5B"/>
<ellipse cx="5" cy="6.3786" rx="5" ry="6.3786" transform="matrix(-1 0 0 1 601 598.675)" fill="#C4DB5B"/>
<ellipse cx="3" cy="3.82716" rx="3" ry="3.82716" transform="matrix(-1 0 0 1 645 736.452)" fill="#C4DB5B"/>
<ellipse cx="3" cy="3.82716" rx="3" ry="3.82716" transform="matrix(-1 0 0 1 677 598.675)" fill="#C4DB5B"/>
<ellipse cx="3" cy="3.82716" rx="3" ry="3.82716" transform="matrix(-1 0 0 1 601 802.79)" fill="#C4DB5B"/>
<ellipse cx="1.5" cy="1.91358" rx="1.5" ry="1.91358" transform="matrix(-1 0 0 1 615 776)" fill="#C4DB5B"/>
<ellipse cx="3" cy="3.82716" rx="3" ry="3.82716" transform="matrix(-1 0 0 1 660 798.963)" fill="#C4DB5B"/>
<ellipse cx="3" cy="3.82716" rx="3" ry="3.82716" transform="matrix(-1 0 0 1 749 598.675)" fill="#C4DB5B"/>
<ellipse cx="3" cy="3.82716" rx="3" ry="3.82716" transform="matrix(-1 0 0 1 735 622.914)" fill="#C4DB5B"/>
<path d="M604.498 547.916C604.442 533.893 601.209 520.19 595.189 508.458C589.169 496.725 580.618 487.464 570.566 481.789C560.514 476.114 549.391 474.268 538.535 476.473C527.68 478.678 517.556 484.84 509.383 494.217C501.21 503.594 495.337 515.786 492.47 529.323C489.604 542.861 489.867 557.167 493.228 570.518C496.589 583.869 502.905 595.696 511.414 604.574C519.923 613.451 530.262 619 541.186 620.553L547.499 548.284L604.498 547.916Z" fill="#B9CC60"/>
<path d="M599.187 548.054C599.136 535.318 596.2 522.873 590.732 512.217C585.264 501.561 577.498 493.149 568.368 487.995C559.239 482.841 549.136 481.164 539.277 483.167C529.418 485.17 520.223 490.766 512.8 499.283C505.377 507.799 500.042 518.872 497.439 531.168C494.836 543.463 495.075 556.456 498.128 568.582C501.18 580.708 506.916 591.45 514.644 599.513C522.372 607.575 531.763 612.615 541.685 614.026L547.418 548.389L599.187 548.054Z" fill="#EFFFA8"/>
<path d="M597.444 546.513C597.396 534.259 594.571 522.285 589.31 512.032C584.049 501.78 576.577 493.686 567.793 488.727C559.009 483.768 549.289 482.155 539.803 484.082C530.317 486.009 521.47 491.394 514.328 499.588C507.186 507.782 502.054 518.436 499.549 530.266C497.044 542.095 497.274 554.597 500.211 566.264C503.148 577.931 508.667 588.266 516.103 596.023C523.538 603.781 532.573 608.63 542.12 609.987L547.635 546.835L597.444 546.513Z" fill="#E8FF80"/>
</g>
<g filter="url(#filter1_d_83_7613)">
<rect width="40" height="407" transform="matrix(-1 0 0 1 1087 649)" fill="#414661"/>
<path d="M1176 1082C1176 1058.8 1157.2 1040 1134 1040H1001C977.804 1040 959 1058.8 959 1082V1082H1176V1082Z" fill="#414661"/>
<path d="M1212 92H923V549C923 604.228 967.772 649 1023 649H1112C1167.23 649 1212 604.228 1212 549V92Z" fill="#E68DB1" fill-opacity="0.2"/>
<path d="M1159 262H975V524C975 574.81 1016.19 616 1067 616V616C1117.81 616 1159 574.81 1159 524V262Z" fill="#E58DB1"/>
<rect width="31" height="31" transform="matrix(-0.869374 0.494154 0.494154 0.869374 1125.32 532.365)" fill="#ECF5FF"/>
<rect width="15.5" height="15.5" transform="matrix(-0.869374 0.494154 0.494154 0.869374 1125.16 534.595)" fill="white"/>
<rect x="1053.55" y="556" width="40.7808" height="40.7808" transform="rotate(29.614 1053.55 556)" fill="#ECF5FF"/>
<rect x="1053.76" y="558.934" width="20.3904" height="20.3904" transform="rotate(29.614 1053.76 558.934)" fill="white"/>
<rect width="48.3489" height="48.3489" transform="matrix(-0.48022 -0.877148 -0.877148 0.48022 1047 557.409)" fill="#ECF5FF"/>
<rect width="24.1744" height="24.1744" transform="matrix(-0.48022 -0.877148 -0.877148 0.48022 1043.53 557.105)" fill="white"/>
<rect width="184" height="55" transform="matrix(-1 0 0 1 1159 262)" fill="#FFB2D2"/>
<rect width="184" height="7" transform="matrix(-1 0 0 1 1159 262)" fill="#FFE3EF"/>
<ellipse cx="21" cy="16" rx="21" ry="16" transform="matrix(-1 0 0 1 1046 301)" fill="#FFB2D2"/>
<ellipse cx="13" cy="12" rx="13" ry="12" transform="matrix(-1 0 0 1 1055 323)" fill="#FFB2D2"/>
<ellipse cx="12" cy="10.5" rx="12" ry="10.5" transform="matrix(-1 0 0 1 1137 340)" fill="#FFB2D2"/>
<ellipse cx="8.5" cy="7.5" rx="8.5" ry="7.5" transform="matrix(-1 0 0 1 998 296)" fill="#E58DB1"/>
<ellipse cx="6" cy="5.5" rx="6" ry="5.5" transform="matrix(-1 0 0 1 1031 249)" fill="#E58DB1"/>
<ellipse cx="3" cy="2.5" rx="3" ry="2.5" transform="matrix(-1 0 0 1 1047 246)" fill="#E58DB1"/>
<ellipse cx="3" cy="2.5" rx="3" ry="2.5" transform="matrix(-1 0 0 1 1010 218)" fill="#E58DB1"/>
<ellipse cx="4.5" cy="4" rx="4.5" ry="4" transform="matrix(-1 0 0 1 1129 282)" fill="#E58DB1"/>
<ellipse cx="4.5" cy="4" rx="4.5" ry="4" transform="matrix(-1 0 0 1 1113 266)" fill="#FFE3EF"/>
<ellipse cx="8" cy="7" rx="8" ry="7" transform="matrix(-1 0 0 1 1005 263)" fill="#FFE3EF"/>
<ellipse cx="8" cy="7" rx="8" ry="7" transform="matrix(-1 0 0 1 1125 347)" fill="#FFE3EF"/>
<ellipse cx="4" cy="3.5" rx="4" ry="3.5" transform="matrix(-1 0 0 1 1048 323)" fill="#FFE3EF"/>
<ellipse cx="4.5" cy="4" rx="4.5" ry="4" transform="matrix(-1 0 0 1 1141 246)" fill="#E58DB1"/>
<ellipse cx="7.5" cy="6.5" rx="7.5" ry="6.5" transform="matrix(-1 0 0 1 1126 224)" fill="#E58DB1"/>
<ellipse cx="12" cy="10.5" rx="12" ry="10.5" transform="matrix(-1 0 0 1 1152 328)" fill="#FFB2D2"/>
<path d="M1121.76 92.0858C1121.84 76.3224 1126.47 60.9182 1135.11 47.7292C1143.74 34.5401 1156 24.1287 1170.42 17.7493C1184.83 11.3699 1200.79 9.29458 1216.35 11.7734C1231.92 14.2522 1246.44 21.1794 1258.16 31.7204C1269.88 42.2614 1278.31 55.9666 1282.42 71.185C1286.53 86.4033 1286.15 102.485 1281.33 117.494C1276.51 132.503 1267.45 145.798 1255.25 155.777C1243.05 165.757 1228.22 171.995 1212.55 173.741L1203.5 92.4999L1121.76 92.0858Z" fill="#FF6E1F"/>
<path d="M1129.38 92.2404C1129.45 77.9234 1133.66 63.9328 1141.5 51.954C1149.34 39.9752 1160.48 30.5192 1173.57 24.7252C1186.66 18.9312 1201.15 17.0463 1215.29 19.2976C1229.43 21.549 1242.62 27.8405 1253.26 37.4143C1263.91 46.988 1271.56 59.4356 1275.29 73.2574C1279.02 87.0793 1278.68 101.686 1274.3 115.317C1269.93 128.949 1261.7 141.024 1250.62 150.087C1239.53 159.151 1226.07 164.817 1211.84 166.402L1203.62 92.6165L1129.38 92.2404Z" fill="#FFA06D"/>
<path d="M1131.88 92.1949C1131.63 78.3299 1135.41 64.6897 1142.77 52.9389C1150.14 41.1881 1160.76 31.8348 1173.35 26.0203C1185.94 20.2057 1199.95 18.1815 1213.67 20.1945C1227.39 22.2076 1240.23 28.1708 1250.62 37.3566C1261.01 46.5424 1268.5 58.5535 1272.18 71.9243C1275.85 85.2951 1275.56 99.4474 1271.33 112.654C1267.1 125.861 1259.12 137.551 1248.36 146.299C1237.6 155.046 1224.53 160.472 1210.73 161.914L1203.3 90.8697L1131.88 92.1949Z" fill="#FF9257"/>
</g>
<g filter="url(#filter2_d_83_7613)">
<rect width="37.0115" height="245" transform="matrix(-1 0 0 1 260.006 824)" fill="#2B4E65"/>
<path d="M342.355 1100C342.355 1076.8 323.551 1058 300.355 1058H183.568C160.372 1058 141.568 1076.8 141.568 1100V1100H342.355V1100Z" fill="#2B4E65"/>
<path d="M241.5 864L32.3549 624.75H450.645L241.5 864Z" fill="#2B4E65"/>
<path d="M261.84 812.701C251.081 825.026 231.92 825.026 221.161 812.701L80.4348 651.5H402.566L261.84 812.701Z" fill="#75B5C5"/>
<rect width="31.1391" height="29.865" transform="matrix(-0.4519 -0.892068 -0.860634 0.509225 285.914 780.778)" fill="#ECF5FF"/>
<rect width="15.5695" height="14.9325" transform="matrix(-0.4519 -0.892068 -0.860634 0.509225 283.809 780.579)" fill="white"/>
<rect width="17.4805" height="16.7653" transform="matrix(0.4519 -0.892068 0.860634 0.509225 181.234 759.594)" fill="#ECF5FF"/>
<rect width="8.74027" height="8.38265" transform="matrix(0.4519 -0.892068 0.860634 0.509225 182.416 759.481)" fill="white"/>
<rect width="26.3929" height="25.313" transform="matrix(-0.4519 0.892068 -0.860634 -0.509225 246.127 790.89)" fill="#ECF5FF"/>
<rect width="13.1964" height="12.6565" transform="matrix(-0.4519 0.892068 -0.860634 -0.509225 244.342 791.06)" fill="white"/>
<path d="M81.8879 652H402.5L349.296 713.5H134.629L81.8879 652Z" fill="#9FD7E5"/>
<ellipse cx="13.4167" cy="14.5" rx="13.4167" ry="14.5" transform="matrix(-1 0 0 1 328.477 703)" fill="#9FD7E5"/>
<ellipse cx="7.4023" cy="8" rx="7.4023" ry="8" transform="matrix(-1 0 0 1 241.5 744)" fill="#9FD7E5"/>
<ellipse cx="4.16379" cy="4.5" rx="4.16379" ry="4.5" transform="matrix(-1 0 0 1 277.586 694)" fill="#75B5C5"/>
<ellipse cx="2.77586" cy="3" rx="2.77586" ry="3" transform="matrix(-1 0 0 1 168.402 688)" fill="#75B5C5"/>
<ellipse cx="7.4023" cy="8" rx="7.4023" ry="8" transform="matrix(-1 0 0 1 343.281 675)" fill="#75B5C5"/>
<ellipse cx="7.4023" cy="8" rx="7.4023" ry="8" transform="matrix(-1 0 0 1 231.322 706)" fill="#75B5C5"/>
<ellipse cx="4.62644" cy="5" rx="4.62644" ry="5" transform="matrix(-1 0 0 1 333.104 665)" fill="#75B5C5"/>
<ellipse cx="7.4023" cy="8" rx="7.4023" ry="8" transform="matrix(-1 0 0 1 168.402 706)" fill="#9FD7E5"/>
<ellipse cx="6.01437" cy="6.5" rx="6.01437" ry="6.5" transform="matrix(-1 0 0 1 174.879 714)" fill="#9FD7E5"/>
<ellipse cx="3.70115" cy="4" rx="3.70115" ry="4" transform="matrix(-1 0 0 1 220.219 766)" fill="#9FD7E5"/>
<ellipse cx="6.01437" cy="6.5" rx="6.01437" ry="6.5" transform="matrix(-1 0 0 1 301.645 719)" fill="#9FD7E5"/>
<ellipse cx="6.93966" cy="7.5" rx="6.93966" ry="7.5" transform="matrix(-1 0 0 1 323.85 709)" fill="#C4F3FF"/>
<ellipse cx="4.16379" cy="4.5" rx="4.16379" ry="4.5" transform="matrix(-1 0 0 1 340.506 678)" fill="#C4F3FF"/>
<ellipse cx="3.23851" cy="3.5" rx="3.23851" ry="3.5" transform="matrix(-1 0 0 1 238.725 749)" fill="#C4F3FF"/>
<ellipse cx="2.31322" cy="2.5" rx="2.31322" ry="2.5" transform="matrix(-1 0 0 1 219.293 767)" fill="#C4F3FF"/>
<ellipse cx="3.23851" cy="3.5" rx="3.23851" ry="3.5" transform="matrix(-1 0 0 1 226.695 712)" fill="#C4F3FF"/>
<ellipse cx="3.23851" cy="3.5" rx="3.23851" ry="3.5" transform="matrix(-1 0 0 1 129.541 661)" fill="#C4F3FF"/>
<ellipse cx="3.23851" cy="3.5" rx="3.23851" ry="3.5" transform="matrix(-1 0 0 1 162.852 710)" fill="#C4F3FF"/>
<path d="M253.772 745.141C236.27 751.525 198.518 748.977 193.677 733.471C188.835 717.964 218.736 695.371 236.238 688.988C253.74 682.605 265.582 692.731 270.424 708.237C275.266 723.743 271.274 738.758 253.772 745.141Z" fill="#EC4846" fill-opacity="0.7"/>
<path d="M249.899 732.16C232.397 738.543 198.145 745.731 193.304 730.225C188.462 714.718 218.363 692.125 235.865 685.742C253.367 679.359 265.209 689.485 270.051 704.991C274.893 720.497 267.401 725.777 249.899 732.16Z" fill="#E06361" fill-opacity="0.7"/>
<ellipse cx="11.2199" cy="3.2023" rx="11.2199" ry="3.2023" transform="matrix(0.248688 1.00366 -0.926887 0.26825 267.881 695.378)" fill="#EC4846" fill-opacity="0.7"/>
<path d="M274.045 701.195C270.991 704.42 266.567 708.295 266.111 707.79C265.654 707.286 269.889 697.191 272.942 693.965C275.996 690.74 283.919 687.992 284.375 688.497C284.831 689.001 277.098 697.97 274.045 701.195Z" fill="#B4CB4B" fill-opacity="0.7"/>
<path d="M276.347 707.164C272.271 708.538 266.7 709.816 266.506 709.143C266.311 708.469 274.328 701.556 278.404 700.182C282.481 698.809 290.693 700.252 290.888 700.926C291.082 701.599 280.423 705.79 276.347 707.164Z" fill="#B4CB4B" fill-opacity="0.7"/>
<path d="M276.602 713.541C272.662 711.762 267.226 709.928 266.975 710.579C266.723 711.23 274.108 718.921 278.048 720.7C281.988 722.478 290.289 721.869 290.541 721.218C290.793 720.568 280.542 715.32 276.602 713.541Z" fill="#B4CB4B" fill-opacity="0.7"/>
<path d="M276.951 705.731C272.725 706.383 267.186 707.815 267.278 708.513C267.37 709.211 277.358 711.732 281.585 711.081C285.811 710.429 292.654 705.313 292.562 704.614C292.47 703.916 281.178 705.08 276.951 705.731Z" fill="#B4CB4B" fill-opacity="0.7"/>
<path d="M270.841 700.872C269.35 705.196 266.873 710.738 266.261 710.491C265.649 710.245 265.503 699.162 266.995 694.838C268.487 690.514 274.573 684.382 275.185 684.629C275.797 684.875 272.333 696.549 270.841 700.872Z" fill="#A8C03C" fill-opacity="0.7"/>
<path d="M275.223 705.631C271.469 707.83 266.232 710.248 265.921 709.627C265.61 709.007 272.24 700.55 275.994 698.351C279.748 696.152 288.064 695.854 288.375 696.474C288.686 697.094 278.977 703.432 275.223 705.631Z" fill="#A8C03C" fill-opacity="0.7"/>
<path d="M275.35 714.952C271.803 712.384 266.797 709.45 266.434 710.036C266.071 710.622 271.942 719.71 275.489 722.278C279.037 724.846 287.291 725.982 287.654 725.396C288.017 724.81 278.898 717.52 275.35 714.952Z" fill="#A8C03C" fill-opacity="0.7"/>
<path d="M275.843 709.058C271.579 708.815 265.889 709.063 265.855 709.768C265.82 710.472 275.169 715.031 279.433 715.274C283.696 715.518 291.325 711.927 291.359 711.222C291.394 710.518 280.107 709.301 275.843 709.058Z" fill="#A8C03C" fill-opacity="0.7"/>
<ellipse cx="1.17322" cy="2.39912" rx="1.17322" ry="2.39912" transform="matrix(0.518097 0.887415 -0.803748 0.548089 237.936 690.77)" fill="#FFEFAE" fill-opacity="0.7"/>
<ellipse cx="1.07905" cy="2.35601" rx="1.07905" ry="2.35601" transform="matrix(0.480824 0.910037 -0.781313 0.582805 221.535 699.662)" fill="#FFEFAE" fill-opacity="0.7"/>
<ellipse cx="1.17688" cy="2.39194" rx="1.17688" ry="2.39194" transform="matrix(0.429589 0.937359 -0.854189 0.457244 245.125 706.959)" fill="#FFEFAE" fill-opacity="0.7"/>
<ellipse cx="1.09359" cy="2.32898" rx="1.09359" ry="2.32898" transform="matrix(0.385454 0.957667 -0.832039 0.499672 227.508 715.043)" fill="#FFEFAE" fill-opacity="0.7"/>
<ellipse cx="1.09359" cy="2.32898" rx="1.09359" ry="2.32898" transform="matrix(0.385454 0.957667 -0.832039 0.499672 210.162 713.095)" fill="#FFEFAE" fill-opacity="0.7"/>
<ellipse cx="1.18224" cy="2.38132" rx="1.18224" ry="2.38132" transform="matrix(0.306948 0.987041 -0.907585 0.329659 253.025 725.477)" fill="#FFEFAE" fill-opacity="0.7"/>
<ellipse cx="1.18224" cy="2.38132" rx="1.18224" ry="2.38132" transform="matrix(0.306948 0.987041 -0.907585 0.329659 256.686 737.72)" fill="#D8C578" fill-opacity="0.7"/>
<ellipse cx="1.19227" cy="2.36121" rx="1.19227" ry="2.36121" transform="matrix(0.0755316 1.02931 -0.962608 0.0825051 237.051 743.563)" fill="#D8C578" fill-opacity="0.7"/>
<ellipse cx="1.19476" cy="2.35615" rx="1.19476" ry="2.35615" transform="matrix(0.0133856 1.03028 -0.967607 0.0146835 218.023 743.211)" fill="#D8C578" fill-opacity="0.7"/>
<ellipse cx="1.11464" cy="2.28865" rx="1.11464" ry="2.28865" transform="matrix(0.257242 1.00149 -0.888781 0.379932 234.041 732.652)" fill="#FFEFAE" fill-opacity="0.7"/>
<ellipse cx="1.11464" cy="2.28865" rx="1.11464" ry="2.28865" transform="matrix(0.257242 1.00149 -0.888781 0.379932 216.693 730.703)" fill="#FFEFAE" fill-opacity="0.7"/>
<ellipse cx="1.11464" cy="2.28865" rx="1.11464" ry="2.28865" transform="matrix(0.257242 1.00149 -0.888781 0.379932 201.891 727.092)" fill="#FFEFAE" fill-opacity="0.7"/>
</g>
<path d="M718.52 703.52C718.52 701.013 719.36 698.867 721.04 697.08C722.747 695.293 725.04 694.4 727.92 694.4C728.667 694.4 729.373 694.507 730.04 694.72C730.733 694.907 731.24 695.093 731.56 695.28L732 695.56H732.08C731.36 693.88 730.107 692.467 728.32 691.32L720.92 694.52L720.68 691.52L725.12 689.56C723.813 688.92 722.28 688.387 720.52 687.96L721.92 683.96C725.227 684.68 728.12 685.787 730.6 687.28L736.48 684.76L736.72 687.72L733.2 689.28C736.853 692.48 738.68 696.68 738.68 701.88C738.68 703.32 738.48 704.707 738.08 706.04C737.707 707.347 737.12 708.573 736.32 709.72C735.547 710.867 734.467 711.787 733.08 712.48C731.693 713.147 730.093 713.48 728.28 713.48C725.32 713.48 722.947 712.493 721.16 710.52C719.4 708.547 718.52 706.213 718.52 703.52ZM723.68 703.64C723.68 705.16 724.08 706.467 724.88 707.56C725.707 708.653 726.88 709.2 728.4 709.2C730.107 709.2 731.387 708.56 732.24 707.28C733.12 706 733.56 704.507 733.56 702.8C733.56 701.493 733.133 700.427 732.28 699.6C731.427 698.773 730.28 698.36 728.84 698.36C727.187 698.36 725.907 698.88 725 699.92C724.12 700.933 723.68 702.173 723.68 703.64Z" fill="#98AF32"/>
<path d="M994.72 486.2V480.12L989.68 477.24V466.12L994.72 463.28V457.24L1005.32 451.56L1010.68 454.4L1015.96 451.56L1026.56 457.24V463.28L1031.52 466.12V477.24L1026.56 480.12V486.2L1015.96 491.84L1010.68 489L1005.32 491.84L994.72 486.2ZM996.32 484.8L1005.84 489.84L1010.68 487.2L1015.4 489.84L1024.92 484.8V479.24L1029.48 476.68V466.72L1024.92 464.08V458.64L1015.4 453.6L1010.68 456.16L1005.84 453.6L996.32 458.64V464.08L991.76 466.72V476.68L996.32 479.24V484.8ZM997.68 483.44V478.6L993.72 476.2V467.2L997.68 464.88V459.96L1006.28 455.4L1010.68 457.76L1014.96 455.4L1023.52 459.96V464.88L1027.52 467.2V476.2L1023.52 478.6V483.44L1014.96 488L1010.68 485.68L1006.28 488L997.68 483.44ZM1005.88 482.36H1007.6V473.24H1016.72V471.64H1007.6V463.96H1015.56C1016.01 463.96 1016.32 464.053 1016.48 464.24C1016.64 464.4 1016.72 464.693 1016.72 465.12V466.8H1018.4V464.64C1018.4 463.84 1018.23 463.267 1017.88 462.92C1017.53 462.547 1016.93 462.36 1016.08 462.36H1003.28V463.96H1005.88V482.36Z" fill="#FFB9D6"/>
<path d="M1003.2 364.64C1003.41 365.947 1003.52 367.053 1003.52 367.96V373H999.12V344.6H1004.2V356.68C1004.2 358.04 1004.43 359.08 1004.88 359.8C1005.33 360.493 1006.15 360.84 1007.32 360.84C1009.11 360.84 1010.51 360.173 1011.52 358.84C1012.53 357.507 1013.04 355.88 1013.04 353.96V344.6H1018.12V365H1013.24V362.52L1013.32 361.24H1013.2C1013.15 361.347 1013.07 361.507 1012.96 361.72C1012.88 361.907 1012.64 362.24 1012.24 362.72C1011.84 363.2 1011.4 363.627 1010.92 364C1010.44 364.373 1009.77 364.707 1008.92 365C1008.07 365.32 1007.15 365.48 1006.16 365.48C1004.91 365.48 1003.95 365.2 1003.28 364.64H1003.2Z" fill="#FFB9D6"/>
<path d="M1073.76 538.24V533.52C1075.89 533.333 1077.41 532.08 1078.32 529.76C1079.25 527.413 1079.72 523.667 1079.72 518.52V509.6H1096.56V520.76H1101.8C1104.49 520.76 1106.67 521.56 1108.32 523.16C1110 524.733 1110.84 526.813 1110.84 529.4C1110.84 531.96 1110 534.04 1108.32 535.64C1106.64 537.213 1104.49 538 1101.88 538H1091.44V514.04H1084.92V518.52C1084.92 521.693 1084.76 524.387 1084.44 526.6C1084.15 528.813 1083.6 530.827 1082.8 532.64C1082 534.427 1080.85 535.787 1079.36 536.72C1077.87 537.627 1076 538.133 1073.76 538.24ZM1096.56 533.56H1101C1102.41 533.56 1103.53 533.187 1104.36 532.44C1105.19 531.693 1105.6 530.68 1105.6 529.4C1105.6 528.12 1105.17 527.107 1104.32 526.36C1103.49 525.587 1102.36 525.2 1100.92 525.2H1096.56V533.56Z" fill="#FFB9D6"/>
<path d="M1049.08 409.4C1049.08 405.24 1050.52 401.72 1053.4 398.84C1056.31 395.933 1059.88 394.48 1064.12 394.48C1067.93 394.48 1070.72 395.293 1072.48 396.92C1074.24 398.547 1075.12 400.64 1075.12 403.2V413.2H1078.04V416.84H1066.96C1064.37 416.84 1062.29 416.107 1060.72 414.64C1059.15 413.173 1058.36 411.427 1058.36 409.4C1058.36 407.4 1059.13 405.68 1060.68 404.24C1062.25 402.8 1064.35 402.08 1066.96 402.08H1070.36C1070.33 401.04 1069.75 400.2 1068.6 399.56C1067.48 398.893 1066.04 398.56 1064.28 398.56C1061.43 398.56 1059.01 399.64 1057.04 401.8C1055.07 403.96 1054.08 406.493 1054.08 409.4C1054.08 412.413 1055.07 414.96 1057.04 417.04C1059.04 419.093 1061.68 420.12 1064.96 420.12V424.08C1060.27 424.08 1056.44 422.68 1053.48 419.88C1050.55 417.08 1049.08 413.587 1049.08 409.4ZM1064.52 406.52C1063.8 407.267 1063.44 408.187 1063.44 409.28C1063.44 410.373 1063.79 411.307 1064.48 412.08C1065.2 412.827 1066.13 413.2 1067.28 413.2H1070.36V405.36H1067.36C1066.19 405.36 1065.24 405.747 1064.52 406.52Z" fill="#FFB9D6"/>
<path d="M1074.56 300.56V297.48H1081.08V296.16L1080.08 294.24H1074.56V291.2H1078.52L1072.36 279.6H1078.24L1081.96 287.2L1083.68 291.76H1083.76C1084.29 290.187 1084.87 288.667 1085.48 287.2L1089.2 279.6H1095.08L1088.92 291.2H1092.84V294.24H1087.36L1086.32 296.16V297.48H1092.84V300.56H1086.32V308H1081.08V300.56H1074.56Z" fill="#DF85AA"/>
<path d="M1012.08 319.168C1012.08 317.984 1012.26 316.888 1012.61 315.88C1012.98 314.856 1013.46 314.008 1014.05 313.336C1014.64 312.664 1015.24 312.112 1015.85 311.68C1016.47 311.248 1017.1 310.912 1017.74 310.672L1019.02 313.456C1017.98 313.904 1017.08 314.624 1016.33 315.616C1015.58 316.592 1015.2 317.816 1015.2 319.288C1015.2 321 1015.7 322.456 1016.71 323.656C1017.72 324.856 1019.16 325.456 1021.03 325.456C1021.66 325.456 1022.31 325.376 1023 325.216C1020.79 323.328 1019.69 320.968 1019.69 318.136C1019.69 315.992 1020.3 314.264 1021.51 312.952C1022.73 311.624 1024.24 310.96 1026.05 310.96C1027.92 310.96 1029.42 311.608 1030.56 312.904C1031.7 314.184 1032.26 315.84 1032.26 317.872C1032.26 319.216 1031.94 320.536 1031.3 321.832C1030.66 323.112 1029.78 324.256 1028.66 325.264C1029.34 325.408 1030.06 325.48 1030.85 325.48H1032.07V328H1030.8C1029.12 328 1027.53 327.688 1026.02 327.064C1024.39 327.88 1022.71 328.288 1020.98 328.288C1018.39 328.288 1016.26 327.456 1014.58 325.792C1012.91 324.112 1012.08 321.904 1012.08 319.168ZM1022.88 318.088C1022.88 320.648 1023.82 322.608 1025.71 323.968C1026.74 323.248 1027.55 322.352 1028.16 321.28C1028.77 320.192 1029.07 319.064 1029.07 317.896C1029.07 316.632 1028.79 315.632 1028.23 314.896C1027.67 314.16 1026.94 313.792 1026.02 313.792C1025.16 313.792 1024.42 314.16 1023.79 314.896C1023.18 315.632 1022.88 316.696 1022.88 318.088Z" fill="#DF85AA"/>
<path d="M1146.26 312.288V310.224C1144.74 309.968 1143.51 309.216 1142.57 307.968C1141.64 306.72 1141.18 305.224 1141.18 303.48C1141.18 301.736 1141.64 300.24 1142.57 298.992C1143.51 297.728 1144.74 296.968 1146.26 296.712V294.696H1148.33V296.712C1149.38 296.904 1150.31 297.344 1151.11 298.032C1151.91 298.72 1152.5 299.576 1152.89 300.6L1150.15 301.656C1149.58 300.232 1148.65 299.52 1147.37 299.52C1146.44 299.52 1145.69 299.896 1145.11 300.648C1144.54 301.384 1144.25 302.328 1144.25 303.48C1144.25 304.68 1144.53 305.64 1145.09 306.36C1145.65 307.08 1146.41 307.44 1147.37 307.44C1148.65 307.44 1149.58 306.728 1150.15 305.304L1152.89 306.36C1152.49 307.336 1151.9 308.192 1151.11 308.928C1150.34 309.664 1149.42 310.096 1148.33 310.224V312.288H1146.26Z" fill="#DF85AA"/>
<path d="M1116 591.68C1114.85 591.68 1113.85 591.333 1113 590.64C1112.15 589.92 1111.72 588.96 1111.72 587.76C1111.72 584.827 1114.19 583.36 1119.12 583.36H1119.48V583.08C1119.48 581.693 1118.71 581 1117.16 581C1116.12 581 1115.03 581.36 1113.88 582.08L1112.6 579.72C1113.93 578.707 1115.64 578.2 1117.72 578.2C1119.45 578.2 1120.77 578.667 1121.68 579.6C1122.61 580.507 1123.08 581.773 1123.08 583.4V591.44H1119.72V589.68H1119.64C1119.35 590.267 1118.87 590.747 1118.2 591.12C1117.56 591.493 1116.83 591.68 1116 591.68ZM1116.92 588.88C1117.64 588.88 1118.24 588.587 1118.72 588C1119.2 587.413 1119.44 586.747 1119.44 586V585.72H1119C1116.55 585.72 1115.32 586.32 1115.32 587.52C1115.32 587.92 1115.47 588.253 1115.76 588.52C1116.05 588.76 1116.44 588.88 1116.92 588.88ZM1111.76 596.36V593.64H1123.2V596.36H1111.76Z" fill="#FFB9D6"/>
<path d="M1125.48 439.44V435.52H1145.04V447.28H1140.92V439.44H1125.48Z" fill="#FFB9D6"/>
<path d="M582.8 789.16L584.32 787C581.76 784.973 580.48 782.24 580.48 778.8C580.48 775.707 581.56 773.16 583.72 771.16C585.88 769.133 588.533 768.12 591.68 768.12C593.573 768.12 595.347 768.533 597 769.36L598.64 767.12L600.84 768.64L599.24 770.8C601.693 772.853 602.92 775.52 602.92 778.8C602.92 781.893 601.84 784.453 599.68 786.48C597.52 788.48 594.853 789.48 591.68 789.48C589.84 789.48 588.16 789.12 586.64 788.4L585 790.72L582.8 789.16ZM587.16 783.04L594.36 773.08C593.507 772.653 592.613 772.44 591.68 772.44C590 772.44 588.573 773.04 587.4 774.24C586.227 775.44 585.64 776.96 585.64 778.8C585.64 780.48 586.147 781.893 587.16 783.04ZM589.32 784.68C590.04 785 590.827 785.16 591.68 785.16C593.387 785.16 594.827 784.573 596 783.4C597.173 782.2 597.76 780.667 597.76 778.8C597.76 777.28 597.307 775.96 596.4 774.84L589.32 784.68Z" fill="#98AF32"/>
<path d="M593.16 677.12C593.16 672.507 597.187 670.2 605.24 670.2H605.92V669.92C605.92 667.52 604.6 666.32 601.96 666.32C600.093 666.32 598.227 666.973 596.36 668.28L594.48 664.68C595.36 663.933 596.52 663.32 597.96 662.84C599.427 662.36 600.88 662.12 602.32 662.12C605.493 662.12 607.707 663.12 608.96 665.12H609.04C610.667 663.12 612.933 662.12 615.84 662.12C618.613 662.12 620.8 663.04 622.4 664.88C624.027 666.72 624.84 669.04 624.84 671.84C624.84 672.08 624.813 672.427 624.76 672.88C624.733 673.333 624.72 673.613 624.72 673.72H610.76C610.92 675.48 611.547 676.827 612.64 677.76C613.76 678.693 615.133 679.16 616.76 679.16C618.893 679.16 620.853 678.427 622.64 676.96L624.6 680.56C623.64 681.44 622.4 682.147 620.88 682.68C619.36 683.213 617.867 683.48 616.4 683.48C612.507 683.48 609.667 681.987 607.88 679H607.8C607.64 679.347 607.4 679.72 607.08 680.12C606.787 680.52 606.333 681 605.72 681.56C605.133 682.093 604.347 682.547 603.36 682.92C602.373 683.267 601.293 683.44 600.12 683.44C598.173 683.44 596.52 682.867 595.16 681.72C593.827 680.573 593.16 679.04 593.16 677.12ZM610.92 670.2H619.72C619.693 668.947 619.293 667.947 618.52 667.2C617.773 666.453 616.867 666.08 615.8 666.08C614.493 666.08 613.413 666.44 612.56 667.16C611.733 667.88 611.187 668.893 610.92 670.2ZM598.28 676.88C598.28 677.627 598.547 678.253 599.08 678.76C599.613 679.267 600.387 679.52 601.4 679.52C602.707 679.52 603.8 678.96 604.68 677.84C605.56 676.693 606 675.453 606 674.12V673.72H604.56C603.493 673.72 602.533 673.8 601.68 673.96C600.827 674.093 600.04 674.413 599.32 674.92C598.627 675.427 598.28 676.08 598.28 676.88Z" fill="#98AF32"/>
<path d="M131.12 694.24L139 685.56L131.12 676.92L133.92 674.12L141.68 682.64L149.48 674.12L152.28 676.92L144.36 685.56L152.28 694.24L149.48 697L141.68 688.48L133.92 697L131.12 694.24Z" fill="#68ADBE"/>
<path d="M202.148 681.032L199.52 668.648C199.352 668 199.268 667.316 199.268 666.596C199.268 664.652 199.916 663.068 201.212 661.844C202.532 660.62 204.344 660.008 206.648 660.008C209.048 660.008 211.052 660.752 212.66 662.24L210.608 665.156C209.48 664.22 208.172 663.752 206.684 663.752C205.58 663.752 204.68 664.028 203.984 664.58C203.312 665.132 202.976 665.984 202.976 667.136C202.976 667.688 203.06 668.288 203.228 668.936L205.712 681.032H202.148ZM198.584 686.036L200.528 682.94C201.728 683.996 203.084 684.524 204.596 684.524C205.676 684.524 206.564 684.224 207.26 683.624C207.956 683 208.304 682.088 208.304 680.888C208.304 680.312 208.196 679.628 207.98 678.836L205.568 667.208H209.168L211.724 679.592C211.892 680.264 211.976 680.948 211.976 681.644C211.976 683.588 211.316 685.172 209.996 686.396C208.7 687.62 206.9 688.232 204.596 688.232C202.196 688.232 200.192 687.5 198.584 686.036Z" fill="#68ADBE"/>
<path d="M292.88 703V685.144C292.88 682.888 293.612 681.04 295.076 679.6C296.54 678.16 298.424 677.44 300.728 677.44H312.104V680.644L307.784 687.16L306.956 688.276V688.348L307.64 688.384C309.296 688.6 310.628 689.404 311.636 690.796C312.668 692.188 313.184 693.736 313.184 695.44C313.184 697.552 312.416 699.34 310.88 700.804C309.368 702.268 307.532 703 305.372 703H300.44V699.004H305.012C306.044 699.004 306.872 698.656 307.496 697.96C308.12 697.264 308.432 696.424 308.432 695.44C308.432 694.456 308.12 693.628 307.496 692.956C306.896 692.284 306.08 691.948 305.048 691.948H302.024V688.744L305.228 683.668C305.516 683.188 305.792 682.768 306.056 682.408C306.344 682.024 306.548 681.76 306.668 681.616L306.848 681.436V681.364C306.656 681.412 306.128 681.436 305.264 681.436H300.836C299.9 681.436 299.12 681.784 298.496 682.48C297.896 683.176 297.596 684.04 297.596 685.072V703H292.88Z" fill="#68ADBE"/>
<path d="M171.376 742V730.64H180.576V740.224H182.24V744.24H180.4V742H178.512V732.416H173.44V742H171.376Z" fill="#9FD7E5"/>
<path d="M301.207 738.721L307.146 735.917L311.517 738.507L311.943 745.084L308.33 742.942L308.261 739.135L308.193 739.095L304.82 740.862L301.207 738.721ZM285.681 754.953L286.517 753.542L290.922 756.153L290.249 757.288C289.596 758.389 289.316 759.463 289.409 760.51C289.501 761.557 290.086 762.4 291.165 763.039C292.105 763.596 293.05 763.754 294 763.511C294.95 763.268 295.792 762.527 296.527 761.288L304.419 747.971L298.088 744.219L300.352 740.399L311.088 746.762L300.89 763.967C299.408 766.468 297.523 767.923 295.234 768.333C292.981 768.734 290.823 768.323 288.758 767.099C286.671 765.862 285.269 764.148 284.553 761.956C283.837 759.765 284.213 757.431 285.681 754.953Z" fill="#9FD7E5"/>
<path d="M244.794 808.807C245.283 807.981 246.046 807.348 247.082 806.908C248.14 806.481 249.065 806.255 249.856 806.227L251.098 806.173L253.31 808.089C253.045 808.117 252.707 808.165 252.296 808.231C251.907 808.311 251.332 808.497 250.57 808.789C249.808 809.082 249.318 809.411 249.1 809.778C248.91 810.099 248.891 810.445 249.044 810.814C249.22 811.198 249.432 811.494 249.68 811.703L250.052 812.016L247.068 814.619C246.954 814.551 246.807 814.433 246.627 814.264C246.457 814.133 246.179 813.844 245.793 813.398C245.392 812.974 245.077 812.539 244.846 812.092C244.601 811.668 244.447 811.143 244.385 810.517C244.331 809.927 244.467 809.357 244.794 808.807Z" fill="#9FD7E5"/>
<path d="M356.16 677.48V673.56H361.12V667.56H356.16V663.6H361.12V655.6H366V663.6H371.04V667.56H366V673.56H371.04V677.48H366V686H361.12V677.48H356.16Z" fill="#68ADBE"/>
<path d="M660.48 757.12L658.48 754.16C660.507 752.133 662.6 751.12 664.76 751.12C666.093 751.12 667.52 751.587 669.04 752.52C670.587 753.453 671.8 753.92 672.68 753.92C674.227 753.92 675.653 753.187 676.96 751.72L678.92 754.72C676.947 756.747 674.867 757.76 672.68 757.76C671.347 757.76 669.907 757.293 668.36 756.36C666.84 755.427 665.64 754.96 664.76 754.96C663.293 754.96 661.867 755.68 660.48 757.12ZM660.48 765.32L658.48 762.32C660.533 760.32 662.627 759.32 664.76 759.32C666.093 759.32 667.52 759.787 669.04 760.72C670.587 761.653 671.8 762.12 672.68 762.12C674.227 762.12 675.653 761.387 676.96 759.92L678.92 762.92C676.92 764.92 674.84 765.92 672.68 765.92C671.347 765.92 669.907 765.453 668.36 764.52C666.84 763.587 665.64 763.12 664.76 763.12C663.32 763.12 661.893 763.853 660.48 765.32Z" fill="#98AF32"/>
<path d="M588.84 906V894.36C586.253 894.36 584.04 893.453 582.2 891.64C580.36 889.8 579.44 887.573 579.44 884.96C579.44 882.347 580.36 880.133 582.2 878.32C584.04 876.507 586.253 875.6 588.84 875.6H601.04V880.04H592.52V906H588.84ZM595 906V882.24H598.72V906H595Z" fill="#EFFFA6"/>
<path d="M669.68 990.24V985.28L672.24 983.84V971.6H677.28V980.92L680.4 979.12V984.08L677.28 985.88V992.88C677.28 993.947 677.44 994.68 677.76 995.08C678.107 995.48 678.64 995.68 679.36 995.68L680.12 995.64V1000.08C679.64 1000.16 679.107 1000.2 678.52 1000.2C677.693 1000.2 676.96 1000.13 676.32 1000C675.68 999.84 675.027 999.56 674.36 999.16C673.693 998.733 673.173 998.053 672.8 997.12C672.427 996.187 672.24 995.027 672.24 993.64V988.8L669.68 990.24Z" fill="#EFFFA6"/>
<path d="M747.6 906.72C746.24 908 744.573 908.64 742.6 908.64C740.627 908.64 738.96 908 737.6 906.72C736.24 905.44 735.56 903.827 735.56 901.88C735.56 899.96 736.24 898.373 737.6 897.12C738.96 895.84 740.613 895.2 742.56 895.2C744.56 895.2 746.24 895.827 747.6 897.08C748.96 898.333 749.64 899.933 749.64 901.88C749.64 903.827 748.96 905.44 747.6 906.72ZM742.6 905.44C743.533 905.44 744.32 905.107 744.96 904.44C745.627 903.773 745.96 902.92 745.96 901.88C745.96 900.867 745.627 900.027 744.96 899.36C744.32 898.693 743.533 898.36 742.6 898.36C741.64 898.36 740.827 898.693 740.16 899.36C739.52 900.027 739.2 900.867 739.2 901.88C739.2 902.92 739.52 903.773 740.16 904.44C740.827 905.107 741.64 905.44 742.6 905.44ZM736.16 913.36V910.64H749.08V913.36H736.16Z" fill="#EFFFA6"/>
<defs>
<filter id="filter0_d_83_7613" x="490.498" y="475.568" width="371.891" height="634.432" filterUnits="userSpaceOnUse" color-interpolation-filters="sRGB">
<feFlood flood-opacity="0" result="BackgroundImageFix"/>
<feColorMatrix in="SourceAlpha" type="matrix" values="0 0 0 0 0 0 0 0 0 0 0 0 0 0 0 0 0 0 127 0" result="hardAlpha"/>
<feOffset dx="51" dy="24"/>
<feComposite in2="hardAlpha" operator="out"/>
<feColorMatrix type="matrix" values="0 0 0 0 0.0745098 0 0 0 0 0.176471 0 0 0 0 0.266667 0 0 0 1 0"/>
<feBlend mode="normal" in2="BackgroundImageFix" result="effect1_dropShadow_83_7613"/>
<feBlend mode="normal" in="SourceGraphic" in2="effect1_dropShadow_83_7613" result="shape"/>
</filter>
<filter id="filter1_d_83_7613" x="923" y="10.7568" width="413.244" height="1095.24" filterUnits="userSpaceOnUse" color-interpolation-filters="sRGB">
<feFlood flood-opacity="0" result="BackgroundImageFix"/>
<feColorMatrix in="SourceAlpha" type="matrix" values="0 0 0 0 0 0 0 0 0 0 0 0 0 0 0 0 0 0 127 0" result="hardAlpha"/>
<feOffset dx="51" dy="24"/>
<feComposite in2="hardAlpha" operator="out"/>
<feColorMatrix type="matrix" values="0 0 0 0 0.0745098 0 0 0 0 0.176471 0 0 0 0 0.266667 0 0 0 1 0"/>
<feBlend mode="normal" in2="BackgroundImageFix" result="effect1_dropShadow_83_7613"/>
<feBlend mode="normal" in="SourceGraphic" in2="effect1_dropShadow_83_7613" result="shape"/>
</filter>
<filter id="filter2_d_83_7613" x="32.3555" y="624.75" width="469.289" height="499.25" filterUnits="userSpaceOnUse" color-interpolation-filters="sRGB">
<feFlood flood-opacity="0" result="BackgroundImageFix"/>
<feColorMatrix in="SourceAlpha" type="matrix" values="0 0 0 0 0 0 0 0 0 0 0 0 0 0 0 0 0 0 127 0" result="hardAlpha"/>
<feOffset dx="51" dy="24"/>
<feComposite in2="hardAlpha" operator="out"/>
<feColorMatrix type="matrix" values="0 0 0 0 0.0745098 0 0 0 0 0.176471 0 0 0 0 0.266667 0 0 0 1 0"/>
<feBlend mode="normal" in2="BackgroundImageFix" result="effect1_dropShadow_83_7613"/>
<feBlend mode="normal" in="SourceGraphic" in2="effect1_dropShadow_83_7613" result="shape"/>
</filter>
</defs>
</svg>
