<svg width="261" height="261" viewBox="0 0 261 261" fill="none" xmlns="http://www.w3.org/2000/svg">
<g clip-path="url(#clip0_95_17406)">
<rect width="261" height="261" fill="#18344D"/>
<g clip-path="url(#clip1_95_17406)" filter="url(#filter0_d_95_17406)">
<path d="M234.591 108.139C202.297 110.446 175.443 134.877 151.706 171.969C124.288 209.432 124.964 246.558 155.88 283.325C166.711 300.324 192.738 317.003 224.686 333.551C192.115 290.296 187.91 246.494 217.631 202.033C244.62 167.722 257.734 135.369 234.594 108.134L234.591 108.139Z" fill="#B4738E"/>
<path d="M232.153 97.1157C199.859 99.4223 173.006 123.853 149.268 160.946C121.851 198.409 122.526 235.535 153.442 272.301C164.274 289.301 190.301 305.979 222.249 322.528C189.678 279.272 185.472 235.47 215.194 191.009C242.183 156.699 255.297 124.345 232.157 97.111L232.153 97.1157Z" fill="#B4738E"/>
<path d="M151.411 152.545C119.285 156.56 93.7687 182.383 72.0317 220.687C46.6416 259.554 49.2887 296.593 82.1113 331.663C93.8275 348.063 120.709 363.333 153.484 378.171C118.662 336.707 112.138 293.187 139.455 247.215C164.585 211.519 175.962 178.517 151.407 152.55L151.411 152.545Z" fill="#B4738E"/>
<path d="M151.411 152.545C119.285 156.56 93.7687 182.383 72.0317 220.687C46.6416 259.554 49.2887 296.593 82.1113 331.663C93.8275 348.063 120.709 363.333 153.484 378.171C118.662 336.707 112.138 293.187 139.455 247.215C164.585 211.519 175.962 178.517 151.407 152.55L151.411 152.545Z" fill="#B4738E"/>
<path d="M186.831 66.2586C181.951 88.6169 164.929 102.194 155.216 100.075C145.507 97.9566 135.987 77.1331 140.862 54.7754C145.742 32.4172 165.593 5.88352 175.306 8.00174C185.015 10.1206 191.707 43.901 186.831 66.2586Z" fill="white"/>
<path d="M185.181 59.883C181.968 74.6025 170.76 83.5427 164.369 82.144C157.978 80.7495 151.71 67.0417 154.919 52.3228C158.133 37.6033 171.2 20.1368 177.594 21.5307C183.985 22.9252 188.394 45.1635 185.181 59.883Z" fill="#CBCEE6"/>
<path d="M-162.742 290.705C-297.183 310.003 -396.585 392.408 -384.764 474.762C-372.943 557.117 -254.375 608.234 -119.935 588.937C14.5055 569.639 113.908 487.235 102.087 404.88C90.2661 322.526 -28.3022 271.408 -162.742 290.705ZM-134.264 489.108C-206.582 499.488 -270.363 471.991 -276.722 427.693C-283.08 383.396 -229.608 339.068 -157.29 328.687C-84.9728 318.307 -21.1912 345.804 -14.8328 390.102C-8.47438 434.399 -61.9462 478.727 -134.264 489.108Z" fill="#CBCEE6"/>
<path d="M-33.3388 313.557C-22.3567 251.67 -1.25397 198.951 35.9807 160.858C76.9003 155.674 114.138 162.655 148.477 179.196C115.159 249.084 102.023 329.716 102.868 417.793L6.38766 382.518C-21.8215 372.203 -38.5918 343.134 -33.343 313.558L-33.3388 313.557Z" fill="#CBCEE6"/>
<path d="M-166.469 264.739C-300.909 284.036 -400.312 366.441 -388.491 448.795C-376.67 531.15 -258.101 582.267 -123.661 562.97C10.779 543.673 110.182 461.268 98.3606 378.913C86.5395 296.559 -32.0287 245.441 -166.469 264.739ZM-137.991 463.141C-210.308 473.521 -274.09 446.024 -280.448 401.726C-286.807 357.429 -233.335 313.101 -161.017 302.721C-88.6994 292.34 -24.9178 319.838 -18.5593 364.135C-12.2009 408.433 -65.6728 452.761 -137.991 463.141Z" fill="white"/>
<path d="M-83.334 305.514C-70.3237 220.502 -40.4915 149.701 21.256 105.842C73.2015 105.219 119.992 116.558 162.739 137.3C117.758 204.655 97.858 285.241 95.3296 374.998L-83.3298 305.513L-83.334 305.514Z" fill="white"/>
<path d="M243.432 155.215C246.123 108.992 193.418 68.3265 125.712 64.3851C58.0057 60.4437 0.937858 94.7192 -1.75292 140.942C-4.44369 187.164 48.2616 227.83 115.968 231.771C183.674 235.713 240.741 201.437 243.432 155.215Z" fill="white"/>
<path d="M143.375 -57.7062L158.309 85.5177C158.497 87.3043 157.003 88.8173 155.217 88.6564L100.115 83.7167C98.3248 83.5564 97.1281 81.8038 97.63 80.0798L137.799 -58.2043C138.674 -61.2122 143.052 -60.8188 143.376 -57.702L143.375 -57.7062Z" fill="#CBCEE6"/>
<path d="M240.007 165.44C251.068 163.852 258.38 151.034 256.338 136.81C254.296 122.586 243.674 112.342 232.613 113.93C221.553 115.518 214.241 128.336 216.283 142.56C218.324 156.784 228.946 167.028 240.007 165.44Z" fill="#CBCEE6"/>
<path d="M238.288 159.455C248.036 158.056 254.479 146.758 252.679 134.221C250.879 121.683 241.519 112.653 231.771 114.053C222.023 115.452 215.58 126.75 217.38 139.287C219.179 151.825 228.54 160.855 238.288 159.455Z" fill="white"/>
<path d="M234.842 151.414C241.779 150.418 246.364 142.379 245.084 133.458C243.804 124.538 237.142 118.113 230.205 119.109C223.268 120.105 218.683 128.144 219.963 137.064C221.243 145.985 227.905 152.409 234.842 151.414Z" fill="#DA91B0"/>
<path d="M97.0103 75.902C116.675 50.1826 151.842 41.1668 195.878 41.7089C242.244 39.3792 272.897 60.3412 286.635 106.368C294.89 124.755 294.525 155.67 290.81 191.455C272.56 140.477 238.267 112.902 184.788 113.311C141.289 117.017 107.055 110.202 97.0103 75.902Z" fill="#B4738E"/>
<path d="M95.6587 66.4781C115.324 40.7587 150.491 31.7429 194.527 32.2851C240.893 29.9554 271.545 50.9174 285.283 96.9443C293.538 115.331 293.173 146.246 289.458 182.031C271.208 131.053 236.915 103.478 183.436 103.887C139.937 107.593 105.704 100.778 95.6587 66.4781Z" fill="#DA91B0"/>
<path d="M74.0431 68.7935C83.2867 99.8236 69.909 133.573 43.5904 168.877C18.2194 207.758 -16.7533 220.233 -62.0675 204.292C-81.794 200.158 -106.591 181.698 -133.357 157.653C-81.3879 172.852 -38.923 161.32 -7.81628 117.818C14.7534 80.4502 40.3931 56.7597 74.0431 68.7935Z" fill="#B4738E"/>
<path d="M82.461 73.2389C91.7047 104.269 78.327 138.018 52.0084 173.322C26.6374 212.203 -8.33534 224.678 -53.6496 208.737C-73.3761 204.603 -98.1732 186.143 -124.939 162.098C-72.9699 177.297 -30.505 165.765 0.601686 122.263C23.1713 84.8955 48.8111 61.205 82.461 73.2389Z" fill="#DA91B0"/>
<path d="M46.3522 165.191C44.469 197.511 20.3889 224.682 -16.389 248.903C-53.4893 276.81 -90.6249 276.618 -127.789 246.185C-144.927 235.579 -161.945 209.769 -178.914 178.043C-135.237 210.044 -91.3828 213.678 -47.3158 183.379C-13.3627 155.94 18.8141 142.407 46.3522 165.191Z" fill="#B4738E"/>
<path d="M57.4069 167.482C55.5237 199.802 31.4436 226.973 -5.33433 251.194C-42.4346 279.101 -79.5703 278.909 -116.734 248.476C-133.873 237.87 -150.891 212.06 -167.859 180.334C-124.182 212.335 -80.3281 215.969 -36.2611 185.67C-2.30798 158.231 29.8689 144.698 57.4069 167.482Z" fill="#DA91B0"/>
<path d="M108.95 61.9648C112.201 84.6163 101.002 103.292 91.1617 104.704C81.321 106.117 65.1196 89.9395 61.8682 67.2881C58.6169 44.6366 67.9312 12.8331 77.7718 11.4206C87.6125 10.0081 105.698 39.3134 108.95 61.9648Z" fill="white"/>
<path d="M105.174 56.5675C107.315 71.4807 99.9428 83.7744 93.4644 84.7043C86.986 85.6342 76.3208 74.9844 74.1802 60.0712C72.0396 45.158 78.1709 24.2209 84.6492 23.291C91.1276 22.3611 103.034 41.6543 105.174 56.5675Z" fill="#CBCEE6"/>
<path d="M147.659 188.877C166.783 186.132 180.061 168.403 177.316 149.279C174.571 130.154 156.842 116.876 137.718 119.621C118.593 122.366 105.315 140.095 108.06 159.22C110.805 178.344 128.534 191.622 147.659 188.877Z" fill="#CBCEE6"/>
<path d="M147.925 180.45C164.78 178.031 176.482 162.406 174.063 145.551C171.644 128.695 156.019 116.993 139.163 119.412C122.308 121.832 110.606 137.457 113.025 154.312C115.445 171.167 131.07 182.87 147.925 180.45Z" fill="white"/>
<path d="M150.201 168.651C162.195 166.929 170.523 155.81 168.801 143.817C167.08 131.823 155.961 123.495 143.967 125.217C131.973 126.938 123.646 138.057 125.367 150.051C127.089 162.045 138.207 170.372 150.201 168.651Z" fill="#DA91B0"/>
</g>
</g>
<defs>
<filter id="filter0_d_95_17406" x="-487" y="-145" width="867.637" height="763.826" filterUnits="userSpaceOnUse" color-interpolation-filters="sRGB">
<feFlood flood-opacity="0" result="BackgroundImageFix"/>
<feColorMatrix in="SourceAlpha" type="matrix" values="0 0 0 0 0 0 0 0 0 0 0 0 0 0 0 0 0 0 127 0" result="hardAlpha"/>
<feOffset dy="4"/>
<feGaussianBlur stdDeviation="2"/>
<feComposite in2="hardAlpha" operator="out"/>
<feColorMatrix type="matrix" values="0 0 0 0 0 0 0 0 0 0 0 0 0 0 0 0 0 0 0.25 0"/>
<feBlend mode="normal" in2="BackgroundImageFix" result="effect1_dropShadow_95_17406"/>
<feBlend mode="normal" in="SourceGraphic" in2="effect1_dropShadow_95_17406" result="shape"/>
</filter>
<clipPath id="clip0_95_17406">
<rect width="261" height="261" fill="white"/>
</clipPath>
<clipPath id="clip1_95_17406">
<rect width="774.809" height="652.359" fill="white" transform="translate(-483 -34.9141) rotate(-8.16837)"/>
</clipPath>
</defs>
</svg>
