<svg width="1280" height="1452" viewBox="0 0 1280 1452" fill="none" xmlns="http://www.w3.org/2000/svg">
<rect width="1283" height="1281" fill="#132D44"/>
<rect width="1101" height="858" transform="translate(94 135)" fill="#E68DB1"/>
<line x1="68" y1="392.5" x2="1222" y2="392.5" stroke="#132D44" stroke-width="3"/>
<line x1="68" y1="542.5" x2="1222" y2="542.5" stroke="#132D44" stroke-width="3"/>
<line x1="68" y1="542.5" x2="1222" y2="542.5" stroke="#132D44" stroke-width="3"/>
<line x1="68" y1="692.5" x2="1222" y2="692.5" stroke="#132D44" stroke-width="3"/>
<line x1="68" y1="844.5" x2="1222" y2="844.5" stroke="#132D44" stroke-width="3"/>
<line x1="68" y1="992.5" x2="1222" y2="992.5" stroke="#132D44" stroke-width="3"/>
<line x1="640" y1="1221" x2="640" y2="242" stroke="#132D44" stroke-width="4"/>
<rect x="50" y="42" width="1183" height="202" fill="#132D44"/>
<rect x="94.5" y="97.5" width="1099" height="143" stroke="#E68DB1" stroke-width="3"/>
<line x1="640" y1="242" x2="640" y2="96" stroke="#E68DB1" stroke-width="4"/>
<ellipse cx="1186.5" cy="1221" rx="151.5" ry="154" fill="#18344D"/>
<ellipse cx="962.5" cy="1324.5" rx="125.5" ry="127.5" fill="#18344D"/>
<ellipse cx="17.5" cy="1155.5" rx="61.5" ry="62.5" fill="#18344D"/>
<ellipse cx="109" cy="1197.5" rx="35" ry="35.5" fill="#18344D"/>
</svg>
