<svg width="1226" height="1081" viewBox="0 0 1226 1081" fill="none" xmlns="http://www.w3.org/2000/svg">
<rect width="1226" height="1081" fill="#0E253A"/>
<g clip-path="url(#clip0_91_17374)">
<rect width="1101" height="858" transform="translate(62 123)" fill="#E68DB1"/>
<path d="M91.05 379L130.35 274H137.25L176.55 379H169.65L156 342.7H111.45L97.95 379H91.05ZM113.7 336.7H153.75L137.85 294.1L133.95 281.5H133.65C132.15 286.9 130.85 291.1 129.75 294.1L113.7 336.7ZM186.021 359.05C186.021 355.55 186.671 352.4 187.971 349.6C189.271 346.8 190.871 344.55 192.771 342.85C194.671 341.05 197.121 339.5 200.121 338.2C203.221 336.9 206.021 335.95 208.521 335.35C211.021 334.75 214.021 334.3 217.521 334C221.021 333.6 223.721 333.4 225.621 333.4C227.521 333.3 229.821 333.25 232.521 333.25H237.471V330.7C237.471 315.8 230.621 308.35 216.921 308.35C208.921 308.35 201.771 310.75 195.471 315.55L191.871 310.45C194.771 307.95 198.521 305.95 203.121 304.45C207.721 302.95 212.421 302.2 217.221 302.2C225.921 302.2 232.521 304.6 237.021 309.4C241.521 314.2 243.771 321.25 243.771 330.55V379H237.471V369.1L238.071 362.35H237.771C235.771 367.55 232.421 371.95 227.721 375.55C223.121 379.05 217.721 380.8 211.521 380.8C204.721 380.8 198.771 378.95 193.671 375.25C188.571 371.45 186.021 366.05 186.021 359.05ZM192.621 358.6C192.621 362.9 194.321 366.7 197.721 370C201.121 373.3 205.821 374.95 211.821 374.95C219.521 374.95 225.721 371.7 230.421 365.2C235.121 358.6 237.471 351.25 237.471 343.15V339.1H232.671C229.571 339.1 227.021 339.15 225.021 339.25C223.121 339.25 220.321 339.45 216.621 339.85C213.021 340.15 210.021 340.75 207.621 341.65C205.321 342.45 202.871 343.55 200.271 344.95C197.771 346.25 195.871 348.1 194.571 350.5C193.271 352.8 192.621 355.5 192.621 358.6Z" fill="#132D44"/>
<path d="M634.25 379L693.8 274H700.55L719.6 379H713L706.55 342.7H662L641.45 379H634.25ZM665.3 336.7H705.35L697.85 294.1L696.05 281.5H695.75C693.25 286.9 691.15 291.1 689.45 294.1L665.3 336.7ZM738.518 375.7C734.218 372.3 732.068 367.75 732.068 362.05C732.068 356.35 733.668 351.5 736.868 347.5C740.068 343.4 744.368 340.4 749.768 338.5C755.268 336.6 760.668 335.25 765.968 334.45C771.368 333.65 777.068 333.25 783.068 333.25H788.918C789.618 329.35 789.968 326.15 789.968 323.65C789.968 313.45 784.368 308.35 773.168 308.35C764.968 308.35 757.368 310.75 750.368 315.55L747.668 309.85C754.768 304.75 763.268 302.2 773.168 302.2C788.768 302.2 796.568 309.05 796.568 322.75C796.568 325.25 796.268 328.1 795.668 331.3L786.368 379H780.068L782.018 369.25L783.818 362.35H783.518C781.218 366.85 777.468 371.05 772.268 374.95C767.168 378.85 761.268 380.8 754.568 380.8C748.168 380.8 742.818 379.1 738.518 375.7ZM738.668 361.45C738.668 365.25 740.068 368.45 742.868 371.05C745.668 373.65 749.768 374.95 755.168 374.95C762.668 374.95 769.418 371.6 775.418 364.9C781.418 358.2 785.318 350.75 787.118 342.55L787.868 339.1H783.068C753.468 339.1 738.668 346.55 738.668 361.45Z" fill="#132D44"/>
<path d="M90.15 529L128.85 423.55H139.95L178.65 529H167.7L155.55 495.4H113.1L101.1 529H90.15ZM116.25 486.4H152.4L138.6 448.15L134.55 434.35H134.25C132.75 440.25 131.4 444.85 130.2 448.15L116.25 486.4ZM187.325 508.75C187.325 491.25 202.625 482.5 233.225 482.5H237.725V480.4C237.725 467.4 231.525 460.9 219.125 460.9C211.425 460.9 204.275 463.3 197.675 468.1L193.025 460.3C196.025 457.7 199.975 455.65 204.875 454.15C209.775 452.55 214.725 451.75 219.725 451.75C228.825 451.75 235.775 454.25 240.575 459.25C245.475 464.15 247.925 471.3 247.925 480.7V529H238.175V520.15L238.625 513.85H238.325C236.225 518.65 232.875 522.7 228.275 526C223.775 529.2 218.625 530.8 212.825 530.8C205.925 530.8 199.925 528.85 194.825 524.95C189.825 521.05 187.325 515.65 187.325 508.75ZM197.675 507.85C197.675 511.65 199.175 515 202.175 517.9C205.175 520.8 209.325 522.25 214.625 522.25C221.525 522.25 227.075 519.35 231.275 513.55C235.575 507.75 237.725 501.25 237.725 494.05V490.6H233.375C230.175 490.6 227.375 490.65 224.975 490.75C222.675 490.85 219.625 491.25 215.825 491.95C212.125 492.55 209.075 493.4 206.675 494.5C204.275 495.6 202.175 497.3 200.375 499.6C198.575 501.9 197.675 504.65 197.675 507.85Z" fill="#132D44"/>
<path d="M633.35 529L692.15 423.55H703.55L721.7 529H711.2L705.65 495.4H663.2L644.6 529H633.35ZM667.85 486.4H704.15L697.85 448.15L696.2 434.35H695.9C693.3 440.25 691.1 444.85 689.3 448.15L667.85 486.4ZM732.936 511.75C732.936 506.05 734.536 501.15 737.736 497.05C740.936 492.95 745.236 489.9 750.636 487.9C756.036 485.9 761.386 484.5 766.686 483.7C772.086 482.9 777.736 482.5 783.636 482.5H788.586C789.086 479.8 789.336 477.1 789.336 474.4C789.336 465.4 784.236 460.9 774.036 460.9C765.936 460.9 758.336 463.3 751.236 468.1L748.086 459.55C751.186 457.45 755.186 455.65 760.086 454.15C765.086 452.55 770.036 451.75 774.936 451.75C782.636 451.75 788.686 453.5 793.086 457C797.586 460.5 799.836 465.85 799.836 473.05C799.836 475.65 799.536 478.45 798.936 481.45L789.786 529H779.886L781.686 520.3L783.336 513.85H783.036C780.836 517.95 777.286 521.8 772.386 525.4C767.486 529 761.836 530.8 755.436 530.8C749.136 530.8 743.786 529.1 739.386 525.7C735.086 522.2 732.936 517.55 732.936 511.75ZM743.286 510.4C743.286 513.8 744.486 516.65 746.886 518.95C749.386 521.15 753.036 522.25 757.836 522.25C764.436 522.25 770.436 519.3 775.836 513.4C781.336 507.4 784.886 500.8 786.486 493.6L787.086 490.6H782.736C756.436 490.6 743.286 497.2 743.286 510.4Z" fill="#132D44"/>
<path d="M89.25 680L127.2 574.1H142.95L180.9 680H165.6L154.95 649.55H115.05L104.4 680H89.25ZM118.95 637.25H151.05L139.35 603.8L135.15 588.65H134.85C133.35 595.05 132 600.1 130.8 603.8L118.95 637.25ZM188.044 659.3C188.044 653.7 189.594 649 192.694 645.2C195.794 641.4 199.894 638.7 204.994 637.1C210.194 635.4 214.994 634.25 219.394 633.65C223.794 633.05 228.444 632.75 233.344 632.75H237.244V631.25C237.244 620.15 231.694 614.6 220.594 614.6C213.294 614.6 206.194 617.05 199.294 621.95L193.444 611.3C196.544 608.7 200.744 606.55 206.044 604.85C211.344 603.15 216.594 602.3 221.794 602.3C231.394 602.3 238.794 604.85 243.994 609.95C249.194 615.05 251.794 622.4 251.794 632V680H238.144V672.35L238.594 666.35H238.294C235.994 670.85 232.594 674.55 228.094 677.45C223.694 680.35 218.794 681.8 213.394 681.8C206.494 681.8 200.544 679.75 195.544 675.65C190.544 671.55 188.044 666.1 188.044 659.3ZM202.594 658.1C202.594 661.4 203.844 664.25 206.344 666.65C208.844 669.05 212.344 670.25 216.844 670.25C222.844 670.25 227.744 667.75 231.544 662.75C235.344 657.75 237.244 652.2 237.244 646.1V643.25H233.494C212.894 643.25 202.594 648.2 202.594 658.1Z" fill="#132D44"/>
<path d="M632.15 680L690.2 574.1H706.7L724.1 680H709.25L704.45 649.55H664.55L648.2 680H632.15ZM670.85 637.25H702.95L697.7 603.8L696.35 588.65H696.05C693.35 595.05 691.05 600.1 689.15 603.8L670.85 637.25ZM734.537 662.3C734.537 657.7 735.637 653.65 737.837 650.15C740.037 646.55 742.837 643.7 746.237 641.6C749.637 639.4 753.637 637.65 758.237 636.35C762.837 634.95 767.287 634 771.587 633.5C775.887 633 780.287 632.75 784.787 632.75H788.687C789.087 630.55 789.287 628.4 789.287 626.3C789.287 618.5 784.687 614.6 775.487 614.6C767.887 614.6 760.337 617 752.837 621.8L748.937 610.25C752.037 608.15 756.237 606.3 761.537 604.7C766.937 603.1 772.287 602.3 777.587 602.3C785.387 602.3 791.737 604.1 796.637 607.7C801.537 611.3 803.987 616.9 803.987 624.5C803.987 626.6 803.737 629.3 803.237 632.6L794.087 680H780.437L781.937 672.35L783.437 666.35H783.137C781.037 670.05 777.637 673.55 772.937 676.85C768.237 680.15 762.887 681.8 756.887 681.8C750.587 681.8 745.287 680.05 740.987 676.55C736.687 673.05 734.537 668.3 734.537 662.3ZM748.937 660.2C748.937 663.1 749.937 665.5 751.937 667.4C754.037 669.3 757.137 670.25 761.237 670.25C766.937 670.25 772.187 667.75 776.987 662.75C781.787 657.65 784.887 652.05 786.287 645.95L786.737 643.25H782.987C760.287 643.25 748.937 648.9 748.937 660.2Z" fill="#132D44"/>
<path d="M88.2 831L125.55 724.5H145.95L183.3 831H163.5L154.35 803.7H117L108 831H88.2ZM121.8 787.95H149.55L140.1 759.45L135.9 742.95H135.6C134 749.95 132.6 755.45 131.4 759.45L121.8 787.95ZM188.909 809.85C188.909 804.45 190.359 799.85 193.259 796.05C196.259 792.25 200.159 789.5 204.959 787.8C209.859 786 214.559 784.75 219.059 784.05C223.659 783.35 228.459 783 233.459 783H236.759V781.95C236.759 772.95 231.959 768.45 222.359 768.45C215.359 768.45 208.259 770.9 201.059 775.8L194.009 762.15C197.309 759.55 201.759 757.35 207.359 755.55C212.959 753.65 218.509 752.7 224.009 752.7C234.009 752.7 241.809 755.4 247.409 760.8C253.009 766.1 255.809 773.55 255.809 783.15V831H238.109V824.55L238.559 819H238.259C235.859 823.1 232.509 826.45 228.209 829.05C223.909 831.55 219.209 832.8 214.109 832.8C207.009 832.8 201.009 830.7 196.109 826.5C191.309 822.2 188.909 816.65 188.909 809.85ZM207.809 808.2C207.809 810.9 208.809 813.25 210.809 815.25C212.909 817.25 215.759 818.25 219.359 818.25C224.459 818.25 228.659 816.15 231.959 811.95C235.259 807.75 236.909 803.15 236.909 798.15V796.05H233.609C216.409 796.05 207.809 800.1 207.809 808.2Z" fill="#132D44"/>
<path d="M631.1 831L688.25 724.5H710.15L726.5 831H707.15L703.4 803.7H666.05L651.8 831H631.1ZM673.85 787.95H701.6L697.7 759.45L696.5 742.95H696.2C693.4 749.95 691 755.45 689 759.45L673.85 787.95ZM735.548 813C735.548 808.4 736.648 804.3 738.848 800.7C741.048 797.1 743.848 794.25 747.248 792.15C750.648 789.95 754.598 788.15 759.098 786.75C763.698 785.25 768.148 784.25 772.448 783.75C776.748 783.25 781.098 783 785.498 783H788.348C788.648 781.4 788.798 779.8 788.798 778.2C788.798 771.7 784.698 768.45 776.498 768.45C769.498 768.45 761.998 770.85 753.998 775.65L749.498 760.95C752.598 758.95 757.048 757.1 762.848 755.4C768.648 753.6 774.298 752.7 779.798 752.7C787.698 752.7 794.348 754.55 799.748 758.25C805.148 761.95 807.848 767.85 807.848 775.95C807.848 777.95 807.598 780.55 807.098 783.75L797.948 831H780.398L781.598 824.55L783.098 819H782.798C780.698 822.4 777.398 825.55 772.898 828.45C768.498 831.35 763.498 832.8 757.898 832.8C751.698 832.8 746.398 831.05 741.998 827.55C737.698 823.95 735.548 819.1 735.548 813ZM754.298 810C754.298 812.4 755.098 814.4 756.698 816C758.398 817.5 760.948 818.25 764.348 818.25C769.048 818.25 773.498 816.15 777.698 811.95C781.898 807.65 784.498 803.05 785.498 798.15L785.948 796.05H782.648C779.848 796.05 777.098 796.2 774.398 796.5C771.698 796.8 768.698 797.4 765.398 798.3C762.098 799.1 759.398 800.55 757.298 802.65C755.298 804.65 754.298 807.1 754.298 810Z" fill="#132D44"/>
<path d="M86.55 981L123 873.75H150.6L187.05 981H160.05L153.45 958.5H120L113.55 981H86.55ZM126.15 937.5H147.3L141.3 916.65L136.95 898.2H136.65C135.05 906 133.6 912.15 132.3 916.65L126.15 937.5ZM189.909 959.25C189.909 954.35 191.259 950.1 193.959 946.5C196.659 942.9 200.209 940.15 204.609 938.25C209.109 936.35 213.759 935 218.559 934.2C223.359 933.3 228.359 932.85 233.559 932.85H235.809V931.5C235.809 925.8 232.159 922.95 224.859 922.95C218.059 922.95 210.959 925.4 203.559 930.3L194.559 912C198.059 909.3 202.859 906.95 208.959 904.95C215.159 902.95 221.259 901.95 227.259 901.95C237.959 901.95 246.359 904.75 252.459 910.35C258.659 915.95 261.759 923.65 261.759 933.45V981H238.059V976.35L238.359 971.55H238.059C235.559 975.05 232.209 977.8 228.009 979.8C223.909 981.8 219.609 982.8 215.109 982.8C207.709 982.8 201.659 980.55 196.959 976.05C192.259 971.55 189.909 965.95 189.909 959.25ZM215.559 956.85C215.559 958.75 216.209 960.35 217.509 961.65C218.809 962.85 220.609 963.45 222.909 963.45C226.509 963.45 229.609 962 232.209 959.1C234.809 956.2 236.109 953.1 236.109 949.8V947.7H233.709C228.909 947.7 224.659 948.45 220.959 949.95C217.359 951.35 215.559 953.65 215.559 956.85Z" fill="#132D44"/>
<path d="M629.45 981L685.25 873.75H715.4L730.25 981H704L701.75 958.5H668.3L657.5 981H629.45ZM678.5 937.5H699.65L697.55 916.65L696.65 898.2H696.35C693.45 906 690.9 912.15 688.7 916.65L678.5 937.5ZM736.995 962.4C736.995 957 738.545 952.3 741.645 948.3C744.845 944.2 748.995 941.1 754.095 939C759.295 936.9 764.545 935.35 769.845 934.35C775.245 933.35 780.645 932.85 786.045 932.85H787.245C787.545 931.45 787.695 930.4 787.695 929.7C787.695 925.2 784.395 922.95 777.795 922.95C772.295 922.95 764.845 925.3 755.445 930L749.895 910.5C753.295 908.6 758.145 906.7 764.445 904.8C770.845 902.9 776.995 901.95 782.895 901.95C786.495 901.95 789.945 902.35 793.245 903.15C796.545 903.95 799.795 905.2 802.995 906.9C806.195 908.6 808.745 911.15 810.645 914.55C812.545 917.95 813.495 921.95 813.495 926.55C813.495 928.55 813.245 931.05 812.745 934.05L803.745 981H780.045L780.945 976.35L782.295 971.55H781.995C779.795 974.35 776.695 976.95 772.695 979.35C768.795 981.65 764.295 982.8 759.195 982.8C753.095 982.8 747.845 981 743.445 977.4C739.145 973.7 736.995 968.7 736.995 962.4ZM762.345 958.05C762.345 961.65 764.495 963.45 768.795 963.45C772.095 963.45 775.295 962.05 778.395 959.25C781.595 956.35 783.495 953.3 784.095 950.1L784.545 947.7H781.845C780.045 947.7 778.195 947.85 776.295 948.15C774.495 948.35 772.445 948.8 770.145 949.5C767.845 950.1 765.945 951.15 764.445 952.65C763.045 954.15 762.345 955.95 762.345 958.05Z" fill="#132D44"/>
</g>
<line x1="62" y1="380.5" x2="1163" y2="380.5" stroke="#132D44" stroke-width="3"/>
<line x1="36" y1="530.5" x2="1190" y2="530.5" stroke="#132D44" stroke-width="3"/>
<line x1="62" y1="530.5" x2="1163" y2="530.5" stroke="#132D44" stroke-width="3"/>
<line x1="62" y1="680.5" x2="1163" y2="680.5" stroke="#132D44" stroke-width="3"/>
<line x1="62" y1="832.5" x2="1163" y2="832.5" stroke="#132D44" stroke-width="3"/>
<line x1="62" y1="980.5" x2="1163" y2="980.5" stroke="#132D44" stroke-width="3"/>
<line x1="608" y1="981" x2="608" y2="230" stroke="#132D44" stroke-width="4"/>
<rect x="61" y="84" width="1102" height="148" fill="#132D44"/>
<path d="M94.352 189V141H98.384V150.12L98 154.056H98.192C99.472 150.152 101.456 146.952 104.144 144.456C106.832 141.896 109.968 140.616 113.552 140.616C114.512 140.616 115.44 140.712 116.336 140.904V144.936C115.952 144.808 115.216 144.744 114.128 144.744C110.608 144.744 107.6 146.056 105.104 148.68C102.608 151.304 100.848 154.344 99.824 157.8C98.864 161.192 98.384 164.68 98.384 168.264V189H94.352ZM121.555 165.096C121.555 157.288 123.827 151.144 128.371 146.664C132.915 142.12 138.419 139.848 144.883 139.848C151.091 139.848 155.891 141.96 159.283 146.184C162.739 150.344 164.467 155.528 164.467 161.736C164.467 162.312 164.403 163.176 164.275 164.328H125.779C125.779 171.048 127.731 176.392 131.635 180.36C135.603 184.264 140.499 186.216 146.323 186.216C152.211 186.216 157.171 184.2 161.203 180.168L163.411 183.528C161.299 185.512 158.675 187.112 155.539 188.328C152.467 189.544 149.395 190.152 146.323 190.152C139.347 190.152 133.459 187.848 128.659 183.24C123.923 178.568 121.555 172.52 121.555 165.096ZM126.067 160.584H160.243C159.987 155.016 158.419 150.792 155.539 147.912C152.659 145.032 149.075 143.592 144.786 143.592C140.115 143.592 136.019 145.096 132.499 148.104C129.043 151.048 126.899 155.208 126.067 160.584ZM180.578 201.864C184.738 204.104 189.026 205.224 193.442 205.224C198.882 205.224 203.266 203.848 206.594 201.096C209.986 198.408 211.682 194.28 211.682 188.712V183.144L212.066 179.208H211.874C208.674 185.736 203.298 189 195.746 189C189.474 189 184.354 186.728 180.386 182.184C176.418 177.64 174.434 171.656 174.434 164.232C174.434 156.744 176.29 150.824 180.002 146.472C183.778 142.056 188.802 139.848 195.074 139.848C198.786 139.848 202.146 140.648 205.154 142.248C208.226 143.784 210.434 146.12 211.778 149.256H211.97C211.778 148.808 211.682 148.2 211.682 147.432V141H215.714V188.712C215.714 195.624 213.602 200.744 209.378 204.072C205.218 207.464 200.002 209.16 193.73 209.16C188.546 209.16 183.522 207.912 178.658 205.416L180.578 201.864ZM178.658 164.232C178.658 170.632 180.258 175.72 183.458 179.496C186.658 183.208 190.85 185.064 196.034 185.064C200.706 185.064 204.482 183.432 207.362 180.168C210.306 176.84 211.778 171.528 211.778 164.232C211.778 150.6 206.21 143.784 195.074 143.784C189.89 143.784 185.858 145.576 182.978 149.16C180.098 152.744 178.658 157.768 178.658 164.232ZM231.87 171.432V141H235.902V169.992C235.902 171.912 235.966 173.576 236.094 174.984C236.222 176.328 236.51 177.768 236.958 179.304C237.406 180.776 238.046 181.992 238.878 182.952C239.71 183.912 240.862 184.712 242.334 185.352C243.87 185.928 245.662 186.216 247.71 186.216C253.47 186.216 258.174 184.072 261.822 179.784C265.534 175.432 267.39 170.312 267.39 164.424V141H271.422V189H267.39V180.552L267.774 176.616H267.582C266.494 179.688 264.19 182.728 260.67 185.736C257.15 188.68 252.83 190.152 247.71 190.152C242.014 190.152 237.95 188.616 235.518 185.544C233.086 182.472 231.87 177.768 231.87 171.432ZM288.133 179.304V121.8H292.165V178.056C292.165 183.048 294.053 185.544 297.829 185.544C298.405 185.544 298.885 185.512 299.269 185.448V189.192C298.757 189.32 298.181 189.384 297.541 189.384C296.645 189.384 295.749 189.256 294.853 189C293.957 188.808 292.933 188.392 291.781 187.752C290.693 187.112 289.797 186.088 289.093 184.68C288.453 183.208 288.133 181.416 288.133 179.304ZM305.467 176.232C305.467 173.992 305.883 171.976 306.715 170.184C307.547 168.392 308.571 166.952 309.787 165.864C311.003 164.712 312.571 163.72 314.491 162.888C316.475 162.056 318.267 161.448 319.867 161.064C321.467 160.68 323.387 160.392 325.627 160.2C327.867 159.944 329.595 159.816 330.811 159.816C332.027 159.752 333.499 159.72 335.227 159.72H338.395V158.088C338.395 148.552 334.011 143.784 325.243 143.784C320.123 143.784 315.547 145.32 311.515 148.392L309.211 145.128C311.067 143.528 313.467 142.248 316.411 141.288C319.355 140.328 322.363 139.848 325.435 139.848C331.003 139.848 335.227 141.384 338.107 144.456C340.987 147.528 342.427 152.04 342.427 157.992V189H338.395V182.664L338.779 178.344H338.587C337.307 181.672 335.163 184.488 332.155 186.792C329.211 189.032 325.755 190.152 321.787 190.152C317.435 190.152 313.627 188.968 310.363 186.6C307.099 184.168 305.467 180.712 305.467 176.232ZM309.691 175.944C309.691 178.696 310.779 181.128 312.955 183.24C315.131 185.352 318.139 186.408 321.979 186.408C326.907 186.408 330.875 184.328 333.883 180.168C336.891 175.944 338.395 171.24 338.395 166.056V163.464H335.323C333.339 163.464 331.707 163.496 330.427 163.56C329.211 163.56 327.419 163.688 325.051 163.944C322.747 164.136 320.827 164.52 319.291 165.096C317.819 165.608 316.251 166.312 314.587 167.208C312.987 168.04 311.771 169.224 310.939 170.76C310.107 172.232 309.691 173.96 309.691 175.944ZM358.633 189V141H362.665V150.12L362.281 154.056H362.473C363.753 150.152 365.737 146.952 368.425 144.456C371.113 141.896 374.249 140.616 377.833 140.616C378.793 140.616 379.721 140.712 380.617 140.904V144.936C380.233 144.808 379.497 144.744 378.409 144.744C374.889 144.744 371.881 146.056 369.385 148.68C366.889 151.304 365.129 154.344 364.105 157.8C363.145 161.192 362.665 164.68 362.665 168.264V189H358.633Z" fill="#E68DB1"/>
<path d="M642.968 128.808V121.8H647.768V128.808H642.968ZM643.352 189V141H647.384V189H643.352ZM665.511 171.624V144.936H659.175V141.288H665.511V127.656H669.543V141.288H682.119V144.936H669.543V171.336C669.543 174.28 669.927 176.776 670.695 178.824C671.527 180.872 672.583 182.376 673.863 183.336C675.143 184.232 676.327 184.84 677.415 185.16C678.567 185.48 679.751 185.64 680.967 185.64C681.927 185.64 682.663 185.576 683.175 185.448V189.192C682.663 189.32 681.863 189.384 680.775 189.384C679.559 189.384 678.375 189.288 677.223 189.096C676.071 188.904 674.759 188.456 673.287 187.752C671.815 186.984 670.535 185.992 669.447 184.776C668.359 183.56 667.431 181.832 666.663 179.592C665.895 177.288 665.511 174.632 665.511 171.624ZM688.811 176.232C688.811 173.992 689.227 171.976 690.059 170.184C690.891 168.392 691.915 166.952 693.131 165.864C694.347 164.712 695.915 163.72 697.835 162.888C699.819 162.056 701.611 161.448 703.211 161.064C704.811 160.68 706.731 160.392 708.971 160.2C711.211 159.944 712.939 159.816 714.155 159.816C715.371 159.752 716.843 159.72 718.571 159.72H721.739V158.088C721.739 148.552 717.355 143.784 708.587 143.784C703.467 143.784 698.891 145.32 694.859 148.392L692.555 145.128C694.411 143.528 696.811 142.248 699.755 141.288C702.699 140.328 705.707 139.848 708.779 139.848C714.347 139.848 718.571 141.384 721.451 144.456C724.331 147.528 725.771 152.04 725.771 157.992V189H721.739V182.664L722.123 178.344H721.931C720.651 181.672 718.507 184.488 715.499 186.792C712.555 189.032 709.099 190.152 705.131 190.152C700.779 190.152 696.971 188.968 693.707 186.6C690.443 184.168 688.811 180.712 688.811 176.232ZM693.035 175.944C693.035 178.696 694.123 181.128 696.299 183.24C698.475 185.352 701.483 186.408 705.323 186.408C710.251 186.408 714.219 184.328 717.227 180.168C720.235 175.944 721.739 171.24 721.739 166.056V163.464H718.667C716.683 163.464 715.051 163.496 713.771 163.56C712.555 163.56 710.763 163.688 708.395 163.944C706.091 164.136 704.171 164.52 702.635 165.096C701.163 165.608 699.595 166.312 697.931 167.208C696.331 168.04 695.115 169.224 694.283 170.76C693.451 172.232 693.035 173.96 693.035 175.944ZM741.977 179.304V121.8H746.009V178.056C746.009 183.048 747.897 185.544 751.673 185.544C752.249 185.544 752.729 185.512 753.113 185.448V189.192C752.601 189.32 752.025 189.384 751.385 189.384C750.489 189.384 749.593 189.256 748.697 189C747.801 188.808 746.777 188.392 745.625 187.752C744.537 187.112 743.641 186.088 742.937 184.68C742.297 183.208 741.977 181.416 741.977 179.304ZM763.343 128.808V121.8H768.143V128.808H763.343ZM763.727 189V141H767.759V189H763.727ZM788.19 183.24C783.454 178.568 781.086 172.52 781.086 165.096C781.086 157.672 783.486 151.624 788.286 146.952C793.15 142.216 799.006 139.848 805.854 139.848C809.054 139.848 812.19 140.424 815.262 141.576C818.398 142.728 820.99 144.424 823.038 146.664L820.542 149.928C818.814 148.072 816.606 146.6 813.918 145.512C811.294 144.36 808.606 143.784 805.854 143.784C800.094 143.784 795.23 145.768 791.262 149.736C787.294 153.64 785.31 158.76 785.31 165.096C785.31 171.368 787.294 176.456 791.262 180.36C795.23 184.264 800.094 186.216 805.854 186.216C808.862 186.216 811.806 185.608 814.686 184.392C817.566 183.176 819.966 181.48 821.886 179.304L823.998 182.664C821.95 184.968 819.294 186.792 816.03 188.136C812.83 189.48 809.438 190.152 805.854 190.152C798.878 190.152 792.99 187.848 788.19 183.24Z" fill="#E68DB1"/>
<rect x="62.5" y="85.5" width="1099" height="143" stroke="#E68DB1" stroke-width="3"/>
<line x1="608" y1="230" x2="608" y2="84" stroke="#E68DB1" stroke-width="4"/>
<defs>
<clipPath id="clip0_91_17374">
<rect width="1101" height="858" fill="white" transform="translate(62 123)"/>
</clipPath>
</defs>
</svg>
