<svg width="1258" height="825" viewBox="0 0 1258 825" fill="none" xmlns="http://www.w3.org/2000/svg">
<path d="M339.776 95.9534C339.897 94.8554 340.884 94.0629 341.982 94.1832V94.1832C343.08 94.3035 343.873 95.2911 343.753 96.3891L339.196 137.978L335.22 137.542L339.776 95.9534Z" fill="#C86A91"/>
<path d="M405.194 96.9881C405.074 95.8901 404.086 95.0975 402.988 95.2178V95.2178C401.89 95.3381 401.098 96.3258 401.218 97.4238L405.775 139.013L409.751 138.577L405.194 96.9881Z" fill="#C86A91"/>
<g filter="url(#filter0_d_91_17373)">
<rect x="224" y="146" width="806" height="646" rx="63" fill="#5599AA"/>
<rect x="225.5" y="147.5" width="803" height="643" rx="61.5" stroke="#BAD1D7" stroke-width="3"/>
</g>
<rect x="246" y="159" width="762" height="610.802" rx="63" fill="#75B5C5"/>
<path d="M340 95.8889C340 94.2934 341.293 93 342.889 93V93C344.484 93 345.778 94.2934 345.778 95.8889V183.526H340V95.8889Z" fill="#E68CB1"/>
<path d="M399.223 95.8889C399.223 94.2934 400.516 93 402.112 93V93C403.707 93 405 94.2934 405 95.8889V183.526H399.223V95.8889Z" fill="#E68CB1"/>
<g filter="url(#filter1_d_91_17373)">
<line x1="343.334" y1="317" x2="343.334" y2="183.526" stroke="white" stroke-width="2"/>
</g>
<g filter="url(#filter2_d_91_17373)">
<line x1="342.889" y1="193.472" x2="403.555" y2="193.472" stroke="white"/>
</g>
<g filter="url(#filter3_d_91_17373)">
<line x1="342.889" y1="207.399" x2="403.555" y2="207.399" stroke="white"/>
</g>
<g filter="url(#filter4_d_91_17373)">
<line x1="342.889" y1="221.326" x2="403.555" y2="221.326" stroke="white"/>
</g>
<g filter="url(#filter5_d_91_17373)">
<line x1="342.889" y1="235.253" x2="403.555" y2="235.253" stroke="white"/>
</g>
<g filter="url(#filter6_d_91_17373)">
<line x1="342.889" y1="249.18" x2="403.555" y2="249.18" stroke="white"/>
</g>
<g filter="url(#filter7_d_91_17373)">
<line x1="342.889" y1="263.107" x2="403.555" y2="263.107" stroke="white"/>
</g>
<g filter="url(#filter8_d_91_17373)">
<line x1="342.889" y1="277.035" x2="403.555" y2="277.035" stroke="white"/>
</g>
<g filter="url(#filter9_d_91_17373)">
<line x1="342.889" y1="290.962" x2="403.555" y2="290.962" stroke="white"/>
</g>
<g filter="url(#filter10_d_91_17373)">
<line x1="342.889" y1="304.889" x2="403.555" y2="304.889" stroke="white"/>
</g>
<g filter="url(#filter11_d_91_17373)">
<line x1="402.555" y1="317" x2="402.555" y2="183.526" stroke="white" stroke-width="2"/>
</g>
<path d="M342 550.361C342.5 539.695 353.9 532.261 369.5 543.861C389 558.361 394 525.861 404.5 539.361C415 552.861 430 533.361 432 543.861" stroke="#B0ECFB" stroke-width="2"/>
<path d="M672 303.361C672.5 292.695 683.9 285.261 699.5 296.861C719 311.361 724 278.861 734.5 292.361C745 305.861 760 286.361 762 296.861" stroke="#B0ECFB" stroke-width="2"/>
<path d="M348.771 264.172C335.951 259.062 335.683 281.923 325 281.923L329.273 302L420.083 299.311C425.247 290.166 434.399 271.878 429.698 271.878C423.822 271.878 421.151 263.271 406.996 260.582C392.84 257.892 386.964 265.248 381.622 267.938C370.405 273.585 361.591 269.282 348.771 264.172Z" fill="#75B5C5" stroke="#B0ECFB" stroke-width="2"/>
<path d="M322 278.05L378.318 286.209L433.295 264L440 327H322V278.05Z" fill="#75B5C5"/>
<g filter="url(#filter12_d_91_17373)">
<path fill-rule="evenodd" clip-rule="evenodd" d="M876.797 701.189C900.985 724.241 939.28 723.321 962.333 699.133C985.385 674.945 984.464 636.65 960.276 613.598C936.088 590.546 897.793 591.466 874.741 615.654C851.689 639.842 852.61 678.137 876.797 701.189ZM891.406 685.416C906.877 700.159 931.37 699.571 946.114 684.1C960.858 668.63 960.269 644.137 944.799 629.393C929.329 614.649 904.835 615.237 890.091 630.708C875.347 646.178 875.936 670.672 891.406 685.416Z" fill="#C4DB5A"/>
<circle cx="877.628" cy="691.621" r="4.5" transform="rotate(43.6229 877.628 691.621)" fill="#B4CB4B"/>
<circle cx="4.5" cy="4.5" r="4.5" transform="matrix(-0.414933 -0.909852 -0.909852 0.414933 876.227 681.791)" fill="#B4CB4B"/>
<circle cx="894.006" cy="696.179" r="4.5" transform="rotate(43.6229 894.006 696.179)" fill="#B4CB4B"/>
<circle cx="4.5" cy="4.5" r="4.5" transform="matrix(-0.414933 -0.909852 -0.909852 0.414933 880.141 669.54)" fill="#B4CB4B"/>
<circle cx="902.104" cy="709.423" r="4.5" transform="rotate(43.6229 902.104 709.423)" fill="#B4CB4B"/>
<circle cx="4.5" cy="4.5" r="4.5" transform="matrix(-0.414933 -0.909852 -0.909852 0.414933 870.277 657.552)" fill="#B4CB4B"/>
<circle cx="917.52" cy="703.393" r="4.5" transform="rotate(43.6229 917.52 703.393)" fill="#B4CB4B"/>
<circle cx="4.5" cy="4.5" r="4.5" transform="matrix(-0.414933 -0.909852 -0.909852 0.414933 881.021 644.959)" fill="#B4CB4B"/>
<circle cx="931.829" cy="710.123" r="4.5" transform="rotate(43.6229 931.829 710.123)" fill="#B4CB4B"/>
<circle cx="4.5" cy="4.5" r="4.5" transform="matrix(-0.414933 -0.909852 -0.909852 0.414933 879.346 629.236)" fill="#B4CB4B"/>
<circle cx="938.592" cy="697.228" r="4.5" transform="rotate(43.6229 938.592 697.228)" fill="#B4CB4B"/>
<circle cx="4.5" cy="4.5" r="4.5" transform="matrix(-0.414933 -0.909852 -0.909852 0.414933 893.744 627.067)" fill="#B4CB4B"/>
<circle cx="956.214" cy="694.682" r="4.5" transform="rotate(43.6229 956.214 694.682)" fill="#B4CB4B"/>
<circle cx="4.5" cy="4.5" r="4.5" transform="matrix(-0.414933 -0.909852 -0.909852 0.414933 901.918 611.25)" fill="#B4CB4B"/>
<circle cx="956.598" cy="681.235" r="4.5" transform="rotate(43.6229 956.598 681.235)" fill="#B4CB4B"/>
<circle cx="4.5" cy="4.5" r="4.5" transform="matrix(-0.414933 -0.909852 -0.909852 0.414933 914.75 615.289)" fill="#B4CB4B"/>
<circle cx="969.909" cy="675.964" r="4.5" transform="rotate(43.6229 969.909 675.964)" fill="#B4CB4B"/>
<circle cx="4.5" cy="4.5" r="4.5" transform="matrix(-0.414933 -0.909852 -0.909852 0.414933 924.09 604.436)" fill="#B4CB4B"/>
<circle cx="962.501" cy="661.996" r="4.5" transform="rotate(43.6229 962.501 661.996)" fill="#B4CB4B"/>
<circle cx="4.5" cy="4.5" r="4.5" transform="matrix(-0.414933 -0.909852 -0.909852 0.414933 934.861 616.009)" fill="#B4CB4B"/>
<circle cx="973.641" cy="654.654" r="4.5" transform="rotate(43.6229 973.641 654.654)" fill="#B4CB4B"/>
<circle cx="4.5" cy="4.5" r="4.5" transform="matrix(-0.414933 -0.909852 -0.909852 0.414933 947.355 610.058)" fill="#B4CB4B"/>
<circle cx="962.128" cy="646.443" r="4.5" transform="rotate(43.6229 962.128 646.443)" fill="#B4CB4B"/>
<circle cx="4.5" cy="4.5" r="4.5" transform="matrix(-0.414933 -0.909852 -0.909852 0.414933 951.938 624.094)" fill="#B4CB4B"/>
<circle cx="4.5" cy="4.5" r="4.5" transform="matrix(-0.414933 -0.909852 -0.909852 0.414933 964.006 625.926)" fill="#B4CB4B"/>
<circle cx="4.5" cy="4.5" r="4.5" transform="matrix(-0.414933 -0.909852 -0.909852 0.414933 974.207 638.412)" fill="#B4CB4B"/>
<circle cx="962.834" cy="646.426" r="3" transform="rotate(43.6229 962.834 646.426)" fill="#9AAF37"/>
<circle cx="962.485" cy="661.288" r="3" transform="rotate(43.6229 962.485 661.288)" fill="#9AAF37"/>
<circle cx="974.348" cy="654.637" r="3" transform="rotate(43.6229 974.348 654.637)" fill="#9AAF37"/>
<circle cx="969.893" cy="675.256" r="3" transform="rotate(43.6229 969.893 675.256)" fill="#9AAF37"/>
<circle cx="955.166" cy="680.562" r="3" transform="rotate(43.6229 955.166 680.562)" fill="#9AAF37"/>
<circle cx="955.541" cy="696.113" r="3" transform="rotate(43.6229 955.541 696.113)" fill="#9AAF37"/>
<circle cx="939.299" cy="697.211" r="3" transform="rotate(43.6229 939.299 697.211)" fill="#9AAF37"/>
<circle cx="931.813" cy="709.415" r="3" transform="rotate(43.6229 931.813 709.415)" fill="#9AAF37"/>
<circle cx="917.504" cy="702.686" r="3" transform="rotate(43.6229 917.504 702.686)" fill="#9AAF37"/>
<circle cx="902.122" cy="710.129" r="3" transform="rotate(43.6229 902.122 710.129)" fill="#9AAF37"/>
<circle cx="893.299" cy="696.195" r="3" transform="rotate(43.6229 893.299 696.195)" fill="#9AAF37"/>
<circle cx="878.336" cy="691.604" r="3" transform="rotate(43.6229 878.336 691.604)" fill="#9AAF37"/>
<circle cx="870.27" cy="679.773" r="3" transform="rotate(43.6229 870.27 679.773)" fill="#9AAF37"/>
<circle cx="874.206" cy="666.946" r="3" transform="rotate(43.6229 874.206 666.946)" fill="#9AAF37"/>
<circle cx="864.004" cy="654.46" r="3" transform="rotate(43.6229 864.004 654.46)" fill="#9AAF37"/>
<circle cx="875.041" cy="642.878" r="3" transform="rotate(43.6229 875.041 642.878)" fill="#9AAF37"/>
<circle cx="873.221" cy="625.946" r="3" transform="rotate(43.6229 873.221 625.946)" fill="#9AAF37"/>
<circle cx="888.772" cy="625.572" r="3" transform="rotate(43.6229 888.772 625.572)" fill="#9AAF37"/>
<circle cx="894.745" cy="609.161" r="3" transform="rotate(43.6229 894.745 609.161)" fill="#9AAF37"/>
<circle cx="909.674" cy="612.339" r="3" transform="rotate(43.6229 909.674 612.339)" fill="#9AAF37"/>
<circle cx="918.608" cy="601.514" r="3" transform="rotate(43.6229 918.608 601.514)" fill="#9AAF37"/>
<circle cx="929.536" cy="614.69" r="3" transform="rotate(43.6229 929.536 614.69)" fill="#9AAF37"/>
<circle cx="967.528" cy="635.704" r="3" transform="rotate(43.6229 967.528 635.704)" fill="#9AAF37"/>
<circle cx="957.36" cy="624.631" r="3" transform="rotate(43.6229 957.36 624.631)" fill="#9AAF37"/>
<circle cx="945.946" cy="620.661" r="3" transform="rotate(43.6229 945.946 620.661)" fill="#9AAF37"/>
<circle cx="941.366" cy="606.626" r="3" transform="rotate(43.6229 941.366 606.626)" fill="#9AAF37"/>
<circle cx="919.315" cy="601.498" r="1.5" transform="rotate(43.6229 919.315 601.498)" fill="#FFE888"/>
<circle cx="928.862" cy="616.122" r="1.5" transform="rotate(43.6229 928.862 616.122)" fill="#FFE888"/>
<circle cx="909.69" cy="613.046" r="1.5" transform="rotate(43.6229 909.69 613.046)" fill="#FFE888"/>
<circle cx="894.037" cy="609.178" r="1.5" transform="rotate(43.6229 894.037 609.178)" fill="#FFE888"/>
<circle cx="888.789" cy="626.28" r="1.5" transform="rotate(43.6229 888.789 626.28)" fill="#FFE888"/>
<circle cx="872.514" cy="625.964" r="1.5" transform="rotate(43.6229 872.514 625.964)" fill="#FFE888"/>
<circle cx="875.783" cy="644.275" r="1.5" transform="rotate(43.6229 875.783 644.275)" fill="#FFE888"/>
<circle cx="863.297" cy="654.478" r="1.5" transform="rotate(43.6229 863.297 654.478)" fill="#FFE888"/>
<circle cx="874.947" cy="668.344" r="1.5" transform="rotate(43.6229 874.947 668.344)" fill="#FFE888"/>
<circle cx="870.977" cy="679.756" r="1.5" transform="rotate(43.6229 870.977 679.756)" fill="#FFE888"/>
<circle cx="877.662" cy="693.035" r="1.5" transform="rotate(43.6229 877.662 693.035)" fill="#FFE888"/>
<circle cx="894.695" cy="695.455" r="1.5" transform="rotate(43.6229 894.695 695.455)" fill="#FFE888"/>
<circle cx="902.139" cy="710.837" r="1.5" transform="rotate(43.6229 902.139 710.837)" fill="#FFE888"/>
<circle cx="917.522" cy="703.393" r="1.5" transform="rotate(43.6229 917.522 703.393)" fill="#FFE888"/>
<circle cx="931.828" cy="710.123" r="1.5" transform="rotate(43.6229 931.828 710.123)" fill="#FFE888"/>
<circle cx="939.281" cy="696.505" r="1.5" transform="rotate(43.6229 939.281 696.505)" fill="#FFE888"/>
<circle cx="954.834" cy="696.13" r="1.5" transform="rotate(43.6229 954.834 696.13)" fill="#FFE888"/>
<circle cx="955.184" cy="681.269" r="1.5" transform="rotate(43.6229 955.184 681.269)" fill="#FFE888"/>
<circle cx="962.467" cy="660.582" r="1.5" transform="rotate(43.6229 962.467 660.582)" fill="#FFE888"/>
<circle cx="973.641" cy="654.655" r="1.5" transform="rotate(43.6229 973.641 654.655)" fill="#FFE888"/>
<circle cx="962.127" cy="646.444" r="1.5" transform="rotate(43.6229 962.127 646.444)" fill="#FFE888"/>
<circle cx="966.82" cy="635.721" r="1.5" transform="rotate(43.6229 966.82 635.721)" fill="#FFE888"/>
<circle cx="970.6" cy="675.24" r="1.5" transform="rotate(43.6229 970.6 675.24)" fill="#FFE888"/>
<circle cx="940.658" cy="606.643" r="1.5" transform="rotate(43.6229 940.658 606.643)" fill="#FFE888"/>
<circle cx="946.688" cy="622.059" r="1.5" transform="rotate(43.6229 946.688 622.059)" fill="#FFE888"/>
<circle cx="956.686" cy="626.063" r="1.5" transform="rotate(43.6229 956.686 626.063)" fill="#FFE888"/>
<g filter="url(#filter13_d_91_17373)">
<ellipse cx="957.155" cy="616.149" rx="21" ry="17" transform="rotate(43.6229 957.155 616.149)" fill="#9AAF37"/>
<ellipse cx="951.849" cy="601.423" rx="10" ry="8" transform="rotate(43.6229 951.849 601.423)" fill="#8C9E3A"/>
<ellipse cx="973.565" cy="622.12" rx="10" ry="8" transform="rotate(43.6229 973.565 622.12)" fill="#8C9E3A"/>
<ellipse cx="952.506" cy="599.285" rx="11" ry="9" transform="rotate(43.6229 952.506 599.285)" fill="#9AAF37"/>
<ellipse cx="953.952" cy="600.665" rx="10" ry="8" transform="rotate(43.6229 953.952 600.665)" fill="#FFE888"/>
<ellipse cx="974.945" cy="620.672" rx="11" ry="9" transform="rotate(43.6229 974.945 620.672)" fill="#9AAF37"/>
<ellipse cx="974.222" cy="619.982" rx="10" ry="8" transform="rotate(43.6229 974.222 619.982)" fill="#FFE888"/>
<circle cx="955.434" cy="603.458" r="3" transform="rotate(43.6229 955.434 603.458)" fill="#8C9E3A"/>
<circle cx="971.36" cy="618.636" r="3" transform="rotate(43.6229 971.36 618.636)" fill="#8C9E3A"/>
<path d="M960.128 592.736C955.73 588.545 948.353 587.698 944.542 591.696L961.192 607.564C965.002 603.566 964.526 596.927 960.128 592.736Z" fill="#8C9E3A"/>
<path d="M982.57 614.123C978.172 609.932 970.794 609.085 966.984 613.083L983.633 628.951C987.444 624.953 986.967 618.314 982.57 614.123Z" fill="#8C9E3A"/>
<path d="M954.326 616.217L957.946 619.666L955.876 621.838C955.114 622.638 953.848 622.668 953.048 621.906L952.324 621.216C951.525 620.454 951.494 619.188 952.256 618.388L954.326 616.217Z" fill="#D15C5C"/>
<circle cx="944.225" cy="607.972" r="1" transform="rotate(43.6229 944.225 607.972)" fill="#FFE888"/>
<circle cx="942.14" cy="609.436" r="0.5" transform="rotate(43.6229 942.14 609.436)" fill="#FFF5CA"/>
<circle cx="963.857" cy="630.134" r="0.5" transform="rotate(43.6229 963.857 630.134)" fill="#FFF5CA"/>
<circle cx="943.486" cy="606.575" r="0.5" transform="rotate(43.6229 943.486 606.575)" fill="#FFF5CA"/>
<circle cx="965.203" cy="627.272" r="0.5" transform="rotate(43.6229 965.203 627.272)" fill="#FFF5CA"/>
<circle cx="945.691" cy="610.058" r="0.5" transform="rotate(43.6229 945.691 610.058)" fill="#FFF5CA"/>
<circle cx="967.408" cy="630.756" r="0.5" transform="rotate(43.6229 967.408 630.756)" fill="#FFF5CA"/>
<circle cx="965.944" cy="628.669" r="1" transform="rotate(43.6229 965.944 628.669)" fill="#FFE888"/>
<circle cx="941.364" cy="606.626" r="1" transform="rotate(43.6229 941.364 606.626)" fill="#FFE888"/>
<circle cx="963.081" cy="627.323" r="1" transform="rotate(43.6229 963.081 627.323)" fill="#FFE888"/>
<circle cx="944.294" cy="610.8" r="1" transform="rotate(43.6229 944.294 610.8)" fill="#FFE888"/>
<circle cx="966.011" cy="631.497" r="1" transform="rotate(43.6229 966.011 631.497)" fill="#FFE888"/>
</g>
</g>
<g filter="url(#filter14_d_91_17373)">
<rect x="330.719" y="564.467" width="191.973" height="87.5038" rx="8" transform="rotate(17.2363 330.719 564.467)" fill="#FFE888"/>
<path d="M328.348 572.108C329.657 567.888 334.14 565.528 338.359 566.837L506.429 618.98C510.649 620.29 513.009 624.772 511.7 628.992L508.779 638.407L333.068 583.893C328.848 582.584 326.489 578.102 327.798 573.882L328.348 572.108Z" fill="#FFF2BA"/>
<path d="M314.58 616.487L497.931 673.371L490.513 697.284C489.203 701.504 484.721 703.864 480.501 702.554L304.791 648.041L314.58 616.487Z" fill="#FFDF5A"/>
<rect x="311.84" y="553" width="47.3235" height="97.3257" rx="8" transform="rotate(17.2363 311.84 553)" fill="#C579FC"/>
<path d="M291.996 616.96L337.194 630.983L330.569 652.337C329.26 656.557 324.778 658.916 320.558 657.607L290.641 648.326C286.421 647.016 284.062 642.534 285.371 638.314L291.996 616.96Z" fill="#A550E2"/>
<path d="M306.02 571.762L351.218 585.784L354.668 574.663C355.977 570.444 353.618 565.961 349.398 564.652L319.481 555.371C315.261 554.062 310.779 556.421 309.47 560.641L306.02 571.762Z" fill="#DAA6FF"/>
<rect x="379.328" y="579.547" width="14.2863" height="87.5038" transform="rotate(17.2363 379.328 579.547)" fill="#C579FC"/>
<rect x="363.189" y="631.568" width="14.2863" height="33.0372" transform="rotate(17.2363 363.189 631.568)" fill="#A550E2"/>
<rect x="379.328" y="579.547" width="14.2863" height="17.8579" transform="rotate(17.2363 379.328 579.547)" fill="#DAA6FF"/>
<rect x="406.619" y="588.014" width="14.2863" height="87.5038" transform="rotate(17.2363 406.619 588.014)" fill="#C579FC"/>
<rect x="390.479" y="640.034" width="14.2863" height="33.0372" transform="rotate(17.2363 390.479 640.034)" fill="#A550E2"/>
<rect x="406.619" y="588.014" width="14.2863" height="17.8579" transform="rotate(17.2363 406.619 588.014)" fill="#DAA6FF"/>
<rect x="433.908" y="596.48" width="14.2863" height="87.5038" transform="rotate(17.2363 433.908 596.48)" fill="#C579FC"/>
<rect x="417.77" y="648.501" width="14.2863" height="33.0372" transform="rotate(17.2363 417.77 648.501)" fill="#A550E2"/>
<rect x="433.908" y="596.48" width="14.2863" height="17.8579" transform="rotate(17.2363 433.908 596.48)" fill="#DAA6FF"/>
<rect x="461.197" y="604.947" width="14.2863" height="87.5038" transform="rotate(17.2363 461.197 604.947)" fill="#C579FC"/>
<rect x="445.059" y="656.968" width="14.2863" height="33.0372" transform="rotate(17.2363 445.059 656.968)" fill="#A550E2"/>
<rect x="461.197" y="604.947" width="14.2863" height="17.8579" transform="rotate(17.2363 461.197 604.947)" fill="#DAA6FF"/>
<rect x="488.486" y="613.414" width="14.2863" height="87.5038" transform="rotate(17.2363 488.486 613.414)" fill="#C579FC"/>
<rect x="472.348" y="665.434" width="14.2863" height="33.0372" transform="rotate(17.2363 472.348 665.434)" fill="#A550E2"/>
<rect x="488.486" y="613.414" width="14.2863" height="17.8579" transform="rotate(17.2363 488.486 613.414)" fill="#DAA6FF"/>
</g>
<g filter="url(#filter15_d_91_17373)">
<path d="M780.448 655.753C781.557 658.518 780.821 661.705 778.615 663.707C713.872 722.444 668.226 740.346 577.65 744.341C574.62 744.474 571.81 742.671 570.68 739.857V739.857C568.791 735.154 572.259 730.027 577.326 729.925C660.999 728.241 706.368 711.565 768.732 653.225C772.451 649.746 778.55 651.028 780.448 655.753V655.753Z" fill="#5184E3"/>
</g>
<path d="M779.22 652.696C780.263 655.294 779.515 658.291 777.382 660.103C711.364 716.176 665.71 734.12 576.028 740.895C573.192 741.109 570.517 739.455 569.458 736.816V736.816C567.771 732.615 570.761 728.01 575.281 727.775C658.968 723.418 704.443 706.579 768.718 650.233C772.138 647.234 777.525 648.475 779.22 652.696V652.696Z" fill="#79A5F7"/>
<g clip-path="url(#clip0_91_17373)">
<path d="M857.39 377.78C899.027 377.78 932.78 344.027 932.78 302.39C932.78 260.753 899.027 227 857.39 227C815.753 227 782 260.753 782 302.39C782 344.027 815.753 377.78 857.39 377.78Z" fill="#C8DA6D"/>
<path d="M857.39 377.78C899.03 377.78 932.78 344.03 932.78 302.39H782C782 344.03 815.75 377.78 857.39 377.78Z" fill="#A8B85D"/>
<path d="M857.009 370.11C894.739 370.11 925.329 339.52 925.329 301.79H788.689C788.689 339.52 819.279 370.11 857.009 370.11Z" fill="#EBEBEC"/>
<path d="M857.009 233.46C819.279 233.46 788.689 264.05 788.689 301.79H925.339C925.339 264.06 894.749 233.47 857.019 233.47L857.009 233.46Z" fill="white"/>
<path d="M857.39 368.13C894.238 368.13 924.11 338.258 924.11 301.41C924.11 264.562 894.238 234.69 857.39 234.69C820.541 234.69 790.67 264.562 790.67 301.41C790.67 338.258 820.541 368.13 857.39 368.13Z" fill="#DB5E57"/>
<path d="M857.39 369.11C894.24 369.11 924.11 339.24 924.11 302.39H790.67C790.67 339.24 820.54 369.11 857.39 369.11Z" fill="#B84F49"/>
<path d="M790.67 302.39C790.67 339.24 820.54 369.11 857.39 369.11V302.39H790.67Z" fill="#B84F49"/>
<path d="M857.01 302.39V235.67C893.86 235.67 923.73 265.54 923.73 302.39H857.01Z" fill="#E06361"/>
<path d="M893.88 269.45C896.74 265.74 897.58 261.61 895.77 260.21C893.96 258.81 890.17 260.69 887.32 264.39C884.47 268.09 883.22 273.26 884.58 274.34C886.35 275.74 891.02 273.15 893.88 269.44V269.45Z" fill="#2D1311"/>
<path d="M891.719 270.46C893.819 267.73 894.439 264.69 893.109 263.66C891.779 262.63 888.989 264.01 886.889 266.74C884.789 269.47 883.879 273.27 884.879 274.06C886.179 275.09 889.619 273.18 891.719 270.46Z" fill="#3E2220"/>
<path d="M819.94 269.83C817.08 266.12 816.24 261.99 818.05 260.59C819.86 259.19 823.65 261.07 826.5 264.77C829.35 268.47 830.6 273.64 829.24 274.72C827.47 276.12 822.8 273.53 819.94 269.82V269.83Z" fill="#2D1311"/>
<path d="M822.09 270.84C819.99 268.11 819.37 265.07 820.7 264.04C822.03 263.01 824.82 264.39 826.92 267.12C829.02 269.85 829.93 273.65 828.93 274.44C827.63 275.47 824.19 273.56 822.09 270.84Z" fill="#3E2220"/>
<path d="M821.17 336.95C818.31 340.66 817.47 344.79 819.28 346.19C821.09 347.59 824.88 345.71 827.73 342.01C830.58 338.31 831.83 333.14 830.47 332.06C828.7 330.66 824.03 333.25 821.17 336.96V336.95Z" fill="#2D1311"/>
<path d="M823.33 335.95C821.23 338.68 820.61 341.72 821.94 342.75C823.27 343.78 826.06 342.4 828.16 339.67C830.26 336.94 831.17 333.14 830.17 332.35C828.87 331.32 825.43 333.23 823.33 335.95Z" fill="#3E2220"/>
<path d="M898.2 333.74C901.06 337.45 901.9 341.58 900.09 342.98C898.28 344.38 894.49 342.5 891.64 338.8C888.79 335.1 887.54 329.93 888.9 328.85C890.67 327.45 895.34 330.04 898.2 333.75V333.74Z" fill="#2D1311"/>
<path d="M896.04 332.73C898.14 335.46 898.76 338.5 897.43 339.53C896.1 340.56 893.31 339.18 891.21 336.45C889.11 333.72 888.2 329.92 889.2 329.13C890.5 328.1 893.94 330.01 896.04 332.73Z" fill="#3E2220"/>
<path d="M907.339 306.53C912.019 306.43 915.769 304.5 915.719 302.22C915.669 299.94 911.839 298.16 907.169 298.25C902.499 298.34 897.689 300.61 897.699 302.35C897.719 304.61 902.659 306.63 907.339 306.53Z" fill="#2D1311"/>
<path d="M905.199 305.48C908.639 305.41 911.399 303.99 911.369 302.31C911.339 300.63 908.519 299.32 905.079 299.39C901.639 299.46 898.099 301.13 898.109 302.41C898.119 304.07 901.759 305.56 905.199 305.49V305.48Z" fill="#3E2220"/>
<path d="M853.549 254.47C853.859 249.8 855.969 246.14 858.249 246.3C860.529 246.46 862.129 250.36 861.809 255.03C861.489 259.7 859.009 264.39 857.269 264.3C855.009 264.18 853.229 259.14 853.539 254.48L853.549 254.47Z" fill="#2D1311"/>
<path d="M854.501 256.65C854.731 253.22 856.281 250.52 857.961 250.64C859.641 250.76 860.811 253.63 860.581 257.06C860.351 260.49 858.521 263.95 857.241 263.88C855.581 263.79 854.271 260.09 854.501 256.65Z" fill="#3E2220"/>
<path d="M806.689 298.25C802.009 298.35 798.259 300.28 798.309 302.56C798.359 304.84 802.189 306.62 806.859 306.53C811.529 306.44 816.339 304.17 816.329 302.43C816.309 300.17 811.369 298.15 806.689 298.25Z" fill="#2D1311"/>
<path d="M808.83 299.3C805.39 299.37 802.63 300.79 802.66 302.47C802.69 304.15 805.51 305.46 808.95 305.39C812.39 305.32 815.93 303.65 815.92 302.37C815.91 300.71 812.27 299.22 808.83 299.29V299.3Z" fill="#3E2220"/>
<path d="M861.28 351.95C861.28 356.63 859.43 360.42 857.14 360.42C854.85 360.42 853 356.63 853 351.95C853 347.27 855.17 342.42 856.91 342.4C859.17 342.37 861.29 347.27 861.29 351.95H861.28Z" fill="#2D1311"/>
<path d="M860.19 349.83C860.19 353.27 858.83 356.06 857.14 356.06C855.45 356.06 854.09 353.27 854.09 349.83C854.09 346.39 855.69 342.82 856.96 342.8C858.62 342.78 860.18 346.39 860.18 349.83H860.19Z" fill="#3E2220"/>
</g>
<path d="M514 219.288C525.5 215.616 533.094 197.481 542.966 209.534C555.306 224.599 559.425 211.07 566.753 219.288C574.082 227.506 592.131 195.896 604.854 208.491C615.032 218.567 621.836 219.721 630.424 223.075" stroke="#B0ECFB" stroke-width="3"/>
<path d="M292 720.288C303.5 716.616 311.094 698.481 320.966 710.534C333.306 725.599 337.425 712.07 344.753 720.288C352.082 728.506 370.131 696.896 382.854 709.491C393.032 719.567 399.836 720.721 408.424 724.075" stroke="#B0ECFB" stroke-width="3"/>
<path d="M719 606.288C730.5 602.616 738.094 584.481 747.966 596.534C760.306 611.599 764.425 598.07 771.753 606.288C779.082 614.506 797.131 582.896 809.854 595.491C820.032 605.567 826.836 606.721 835.424 610.075" stroke="#B0ECFB" stroke-width="3"/>
<g clip-path="url(#clip1_91_17373)">
<mask id="mask0_91_17373" style="mask-type:luminance" maskUnits="userSpaceOnUse" x="293" y="296" width="103" height="103">
<path d="M344.49 398.98C372.927 398.98 395.98 375.927 395.98 347.49C395.98 319.053 372.927 296 344.49 296C316.053 296 293 319.053 293 347.49C293 375.927 316.053 398.98 344.49 398.98Z" fill="white"/>
</mask>
<g mask="url(#mask0_91_17373)">
<path d="M344.49 399.41C373.165 399.41 396.41 376.164 396.41 347.49C396.41 318.815 373.165 295.57 344.49 295.57C315.816 295.57 292.57 318.815 292.57 347.49C292.57 376.164 315.816 399.41 344.49 399.41Z" fill="#EAF5FD"/>
<path d="M344.49 312.52C322.9 324.89 307.15 344.02 298.17 370.96C306.66 387.85 321.26 397.51 339.95 399.21C329.34 365.63 329.02 336.02 344.49 312.51V312.52Z" fill="#D990B0"/>
<path d="M344.118 312.248C327.208 311.158 311.718 313.448 298.018 323.318C288.748 340.608 291.408 358.058 297.798 370.688C306.488 344.888 319.958 326.908 344.118 312.248Z" fill="#FFDF5A"/>
<path d="M342.58 313.17C322.47 334.45 331.36 372.05 339.95 399.21C359.72 401 375.04 393.55 385.96 378.74C359.63 363.18 342.22 341.74 342.58 313.17Z" fill="#4274D8"/>
<path d="M385.96 378.74C394.71 369.2 397.9 355.99 395.77 339.26C373.94 343.99 356.34 332.28 342.59 313.18C342.5 344.06 360.21 364.33 385.97 378.75L385.96 378.74Z" fill="#FFDF5A"/>
<path d="M343.061 313.84C350.641 334.87 374.841 343.77 395.761 339.26C394.881 327.6 383.781 311.06 381.451 311.48C377.811 328.33 360.581 325.52 343.061 313.84Z" fill="#D990B0"/>
<path d="M342.581 312.27L329.361 297.81C313.191 303.02 304.291 312.44 298.391 323.59C310.191 314.21 328.361 311.41 342.581 312.27Z" fill="#4274D8"/>
<path d="M342.579 312.27C347.129 304.71 355.349 300.98 366.759 300.57C355.239 295.4 342.959 293.65 329.359 297.81C333.649 302.81 338.029 307.67 342.569 312.27H342.579Z" fill="#C47EA0"/>
<path d="M341.99 313.17C353.56 308.29 368.82 306.58 382.03 311.62C380.21 309.12 373.75 304 366.75 300.57C353.76 299.38 343.34 306.18 341.99 313.17Z" fill="#FFDF5A"/>
<path d="M342.58 313.17C356.5 324.99 372.3 326.9 389.49 321.43C386.57 316.26 383.43 311.54 379.31 308.82C363.98 307.38 351.35 308.46 342.58 313.17Z" fill="#4274D8"/>
<path opacity="0.3" d="M292.481 346.45C290.491 378.16 315.891 404.57 345.601 405.76C375.531 406.96 403.591 373.45 397.951 340.95C362.481 379.01 326.661 378.56 292.481 346.45Z" fill="#202B5A"/>
<path d="M342.469 320.47C349.434 320.47 355.079 317.837 355.079 314.59C355.079 311.343 349.434 308.71 342.469 308.71C335.505 308.71 329.859 311.343 329.859 314.59C329.859 317.837 335.505 320.47 342.469 320.47Z" fill="white"/>
</g>
</g>
<path d="M281 377C336.067 371.779 366.815 369.091 415 377L419 411H285L281 377Z" fill="#75B5C5"/>
<path d="M273 381.477C274.667 376.977 280 369.977 288 377.977C298 387.977 305.818 362.812 315.5 370.477C327.5 379.977 352 374.477 355.5 377.977C359 381.477 369.801 378.586 376.5 377.977C382 377.477 385 379.977 391 382.477C397 384.977 399.5 366.977 405 370.477C409.4 373.277 416.167 374.31 419 374.477" stroke="#75B5C5" stroke-width="10"/>
<path d="M273 375C274.667 370.5 280 363.5 288 371.5C298 381.5 305.818 356.335 315.5 364C327.5 373.5 350 370.5 355.5 371.5C360.37 372.386 369.801 372.109 376.5 371.5C382 371 385 373.5 391 376C397 378.5 399.5 360.5 405 364C409.4 366.8 416.167 367.833 419 368" stroke="#B0ECFB" stroke-width="3"/>
<g filter="url(#filter16_d_91_17373)">
<path d="M520.461 291.231C521.981 288.668 524.959 287.315 527.89 287.849C613.89 303.526 655.859 328.877 714.11 398.351C716.059 400.675 716.336 404.003 714.789 406.611V406.611C712.204 410.97 706.025 411.335 702.863 407.375C650.643 341.975 609.816 316.099 525.579 302.068C520.556 301.231 517.864 295.61 520.461 291.231V291.231Z" fill="#FFF1B7"/>
<path d="M518.781 294.064C520.21 291.656 523.043 290.427 525.779 291.018C610.438 309.328 652.446 334.659 712.361 401.733C714.256 403.854 714.569 406.984 713.118 409.429V409.429C710.809 413.323 705.335 413.75 702.4 410.304C648.05 346.519 607.028 320.659 523.212 303.899C518.751 303.007 516.461 297.976 518.781 294.064V294.064Z" fill="#FFDF5A"/>
</g>
<g filter="url(#filter17_d_91_17373)">
<rect x="1082" y="313.177" width="140.636" height="49.1794" rx="23" stroke="white" stroke-width="4"/>
<rect x="1111.34" y="313.177" width="6.03958" height="49.1794" fill="white"/>
<rect x="1120.83" y="313.177" width="6.03958" height="49.1794" fill="white"/>
<rect x="1130.32" y="313.177" width="6.03958" height="49.1794" fill="white"/>
<rect x="1139.81" y="313.177" width="6.03958" height="49.1794" fill="white"/>
<rect x="1149.3" y="313.177" width="6.03958" height="49.1794" fill="white"/>
<rect x="1158.79" y="313.177" width="6.03958" height="49.1794" fill="white"/>
<rect x="1168.28" y="313.177" width="6.03958" height="49.1794" fill="white"/>
<rect x="1177.77" y="313.177" width="6.03958" height="49.1794" fill="white"/>
<rect x="1187.26" y="313.177" width="6.03958" height="49.1794" fill="white"/>
<rect x="1136.36" y="308" width="28.4723" height="5.17678" fill="white"/>
<rect x="1136.36" y="362.356" width="28.4723" height="5.17678" fill="white"/>
</g>
<g filter="url(#filter18_d_91_17373)">
<rect x="34" y="313.177" width="140.636" height="49.1794" rx="23" stroke="white" stroke-width="4"/>
<rect x="63.3359" y="313.177" width="6.03958" height="49.1794" fill="white"/>
<rect x="72.8262" y="313.177" width="6.03958" height="49.1794" fill="white"/>
<rect x="82.3164" y="313.177" width="6.03958" height="49.1794" fill="white"/>
<rect x="91.8066" y="313.177" width="6.03958" height="49.1794" fill="white"/>
<rect x="101.299" y="313.177" width="6.03958" height="49.1794" fill="white"/>
<rect x="110.789" y="313.177" width="6.03958" height="49.1794" fill="white"/>
<rect x="120.279" y="313.177" width="6.03958" height="49.1794" fill="white"/>
<rect x="129.77" y="313.177" width="6.03958" height="49.1794" fill="white"/>
<rect x="139.262" y="313.177" width="6.03958" height="49.1794" fill="white"/>
<rect x="88.3555" y="308" width="28.4723" height="5.17678" fill="white"/>
<rect x="88.3555" y="362.356" width="28.4723" height="5.17678" fill="white"/>
</g>
<g filter="url(#filter19_d_91_17373)">
<rect x="1082" y="446.91" width="140.636" height="49.1794" rx="23" stroke="white" stroke-width="4"/>
<rect x="1111.34" y="446.91" width="6.03958" height="49.1794" fill="white"/>
<rect x="1120.83" y="446.91" width="6.03958" height="49.1794" fill="white"/>
<rect x="1130.32" y="446.91" width="6.03958" height="49.1794" fill="white"/>
<rect x="1139.81" y="446.91" width="6.03958" height="49.1794" fill="white"/>
<rect x="1149.3" y="446.91" width="6.03958" height="49.1794" fill="white"/>
<rect x="1158.79" y="446.91" width="6.03958" height="49.1794" fill="white"/>
<rect x="1168.28" y="446.91" width="6.03958" height="49.1794" fill="white"/>
<rect x="1177.77" y="446.91" width="6.03958" height="49.1794" fill="white"/>
<rect x="1187.26" y="446.91" width="6.03958" height="49.1794" fill="white"/>
<rect x="1136.36" y="441.733" width="28.4723" height="5.17678" fill="white"/>
<rect x="1136.36" y="496.09" width="28.4723" height="5.17678" fill="white"/>
</g>
<g filter="url(#filter20_d_91_17373)">
<rect x="34" y="446.91" width="140.636" height="49.1794" rx="23" stroke="white" stroke-width="4"/>
<rect x="63.3359" y="446.91" width="6.03958" height="49.1794" fill="white"/>
<rect x="72.8262" y="446.91" width="6.03958" height="49.1794" fill="white"/>
<rect x="82.3164" y="446.91" width="6.03958" height="49.1794" fill="white"/>
<rect x="91.8066" y="446.91" width="6.03958" height="49.1794" fill="white"/>
<rect x="101.299" y="446.91" width="6.03958" height="49.1794" fill="white"/>
<rect x="110.789" y="446.91" width="6.03958" height="49.1794" fill="white"/>
<rect x="120.279" y="446.91" width="6.03958" height="49.1794" fill="white"/>
<rect x="129.77" y="446.91" width="6.03958" height="49.1794" fill="white"/>
<rect x="139.262" y="446.91" width="6.03958" height="49.1794" fill="white"/>
<rect x="88.3555" y="441.733" width="28.4723" height="5.17678" fill="white"/>
<rect x="88.3555" y="496.09" width="28.4723" height="5.17678" fill="white"/>
</g>
<g filter="url(#filter21_d_91_17373)">
<rect x="1082" y="580.644" width="140.636" height="49.1794" rx="23" stroke="white" stroke-width="4"/>
<rect x="1111.34" y="580.644" width="6.03958" height="49.1794" fill="white"/>
<rect x="1120.83" y="580.644" width="6.03958" height="49.1794" fill="white"/>
<rect x="1130.32" y="580.644" width="6.03958" height="49.1794" fill="white"/>
<rect x="1139.81" y="580.644" width="6.03958" height="49.1794" fill="white"/>
<rect x="1149.3" y="580.644" width="6.03958" height="49.1794" fill="white"/>
<rect x="1158.79" y="580.644" width="6.03958" height="49.1794" fill="white"/>
<rect x="1168.28" y="580.644" width="6.03958" height="49.1794" fill="white"/>
<rect x="1177.77" y="580.644" width="6.03958" height="49.1794" fill="white"/>
<rect x="1187.26" y="580.644" width="6.03958" height="49.1794" fill="white"/>
<rect x="1136.36" y="575.467" width="28.4723" height="5.17678" fill="white"/>
<rect x="1136.36" y="629.823" width="28.4723" height="5.17678" fill="white"/>
</g>
<g filter="url(#filter22_d_91_17373)">
<rect x="34" y="580.644" width="140.636" height="49.1794" rx="23" stroke="white" stroke-width="4"/>
<rect x="63.3359" y="580.644" width="6.03958" height="49.1794" fill="white"/>
<rect x="72.8262" y="580.644" width="6.03958" height="49.1794" fill="white"/>
<rect x="82.3164" y="580.644" width="6.03958" height="49.1794" fill="white"/>
<rect x="91.8066" y="580.644" width="6.03958" height="49.1794" fill="white"/>
<rect x="101.299" y="580.644" width="6.03958" height="49.1794" fill="white"/>
<rect x="110.789" y="580.644" width="6.03958" height="49.1794" fill="white"/>
<rect x="120.279" y="580.644" width="6.03958" height="49.1794" fill="white"/>
<rect x="129.77" y="580.644" width="6.03958" height="49.1794" fill="white"/>
<rect x="139.262" y="580.644" width="6.03958" height="49.1794" fill="white"/>
<rect x="88.3555" y="575.467" width="28.4723" height="5.17678" fill="white"/>
<rect x="88.3555" y="629.823" width="28.4723" height="5.17678" fill="white"/>
</g>
<g filter="url(#filter23_d_91_17373)">
<path fill-rule="evenodd" clip-rule="evenodd" d="M303.404 116.184C327.082 105.243 337.407 77.1796 326.467 53.5018C315.526 29.824 287.462 19.4985 263.785 30.4392C240.107 41.3799 229.781 69.4437 240.722 93.1214C251.663 116.799 279.726 127.125 303.404 116.184ZM296.147 101.051C311.292 94.0531 317.896 76.1037 310.898 60.9596C303.901 45.8154 285.951 39.2113 270.807 46.2089C255.663 53.2065 249.059 71.1559 256.056 86.3C263.054 101.444 281.003 108.048 296.147 101.051Z" fill="#FFD5E6"/>
<circle cx="296.697" cy="112.834" r="3.51282" transform="rotate(-24.8 296.697 112.834)" fill="#FFB9D6"/>
<circle cx="3.51282" cy="3.51282" r="3.51282" transform="matrix(-0.998686 0.0512543 0.0512543 0.998686 289.16 111.029)" fill="#FFB9D6"/>
<circle cx="304.707" cy="102.253" r="3.51282" transform="rotate(-24.8 304.707 102.253)" fill="#FFB9D6"/>
<circle cx="3.51282" cy="3.51282" r="3.51282" transform="matrix(-0.998686 0.0512543 0.0512543 0.998686 281.389 104.67)" fill="#FFB9D6"/>
<circle cx="316.647" cy="100.176" r="3.51282" transform="rotate(-24.8 316.647 100.176)" fill="#FFB9D6"/>
<circle cx="3.51282" cy="3.51282" r="3.51282" transform="matrix(-0.998686 0.0512543 0.0512543 0.998686 269.855 108.389)" fill="#FFB9D6"/>
<circle cx="316.696" cy="87.2545" r="3.51282" transform="rotate(-24.8 316.696 87.2545)" fill="#FFB9D6"/>
<circle cx="3.51282" cy="3.51282" r="3.51282" transform="matrix(-0.998686 0.0512543 0.0512543 0.998686 263.799 96.9751)" fill="#FFB9D6"/>
<circle cx="325.688" cy="78.7999" r="3.51282" transform="rotate(-24.8 325.688 78.7999)" fill="#FFB9D6"/>
<circle cx="3.51282" cy="3.51282" r="3.51282" transform="matrix(-0.998686 0.0512543 0.0512543 0.998686 251.904 93.6772)" fill="#FFB9D6"/>
<circle cx="318.27" cy="70.1885" r="3.51282" transform="rotate(-24.8 318.27 70.1885)" fill="#FFB9D6"/>
<circle cx="3.51282" cy="3.51282" r="3.51282" transform="matrix(-0.998686 0.0512543 0.0512543 0.998686 254.463 82.603)" fill="#FFB9D6"/>
<circle cx="321.481" cy="56.6661" r="3.51282" transform="rotate(-24.8 321.481 56.6661)" fill="#FFB9D6"/>
<circle cx="3.51282" cy="3.51282" r="3.51282" transform="matrix(-0.998686 0.0512543 0.0512543 0.998686 245.326 72.1289)" fill="#FFB9D6"/>
<circle cx="311.828" cy="52.5264" r="3.51282" transform="rotate(-24.8 311.828 52.5264)" fill="#FFB9D6"/>
<circle cx="3.51282" cy="3.51282" r="3.51282" transform="matrix(-0.998686 0.0512543 0.0512543 0.998686 251.943 63.9727)" fill="#FFB9D6"/>
<circle cx="311.822" cy="41.3497" r="3.51282" transform="rotate(-24.8 311.822 41.3497)" fill="#FFB9D6"/>
<circle cx="3.51282" cy="3.51282" r="3.51282" transform="matrix(-0.998686 0.0512543 0.0512543 0.998686 246.744 54.0781)" fill="#FFB9D6"/>
<circle cx="299.557" cy="42.7183" r="3.51282" transform="rotate(-24.8 299.557 42.7183)" fill="#FFB9D6"/>
<circle cx="3.51282" cy="3.51282" r="3.51282" transform="matrix(-0.998686 0.0512543 0.0512543 0.998686 258.238 49.5796)" fill="#FFB9D6"/>
<circle cx="297.426" cy="32.5235" r="3.51282" transform="rotate(-24.8 297.426 32.5235)" fill="#FFB9D6"/>
<circle cx="3.51282" cy="3.51282" r="3.51282" transform="matrix(-0.998686 0.0512543 0.0512543 0.998686 257.506 38.8022)" fill="#FFB9D6"/>
<circle cx="288.16" cy="38.525" r="3.51282" transform="rotate(-24.8 288.16 38.525)" fill="#FFB9D6"/>
<circle cx="3.51282" cy="3.51282" r="3.51282" transform="matrix(-0.998686 0.0512543 0.0512543 0.998686 269.01 39.5059)" fill="#FFB9D6"/>
<circle cx="3.51282" cy="3.51282" r="3.51282" transform="matrix(-0.998686 0.0512543 0.0512543 0.998686 273.805 31.2715)" fill="#FFB9D6"/>
<circle cx="3.51282" cy="3.51282" r="3.51282" transform="matrix(-0.998686 0.0512543 0.0512543 0.998686 285.797 27.4497)" fill="#FFB9D6"/>
<circle cx="288.35" cy="38.0074" r="2.34188" transform="rotate(-24.8 288.35 38.0074)" fill="#E68CB1"/>
<circle cx="299.038" cy="42.5279" r="2.34188" transform="rotate(-24.8 299.038 42.5279)" fill="#E68CB1"/>
<circle cx="297.616" cy="32.0059" r="2.34188" transform="rotate(-24.8 297.616 32.0059)" fill="#E68CB1"/>
<circle cx="311.305" cy="41.1597" r="2.34188" transform="rotate(-24.8 311.305 41.1597)" fill="#E68CB1"/>
<circle cx="310.929" cy="53.3726" r="2.34188" transform="rotate(-24.8 310.929 53.3726)" fill="#E68CB1"/>
<circle cx="322.325" cy="57.5655" r="2.34188" transform="rotate(-24.8 322.325 57.5655)" fill="#E68CB1"/>
<circle cx="318.46" cy="69.6709" r="2.34188" transform="rotate(-24.8 318.46 69.6709)" fill="#E68CB1"/>
<circle cx="325.169" cy="78.6094" r="2.34188" transform="rotate(-24.8 325.169 78.6094)" fill="#E68CB1"/>
<circle cx="316.177" cy="87.0645" r="2.34188" transform="rotate(-24.8 316.177 87.0645)" fill="#E68CB1"/>
<circle cx="317.165" cy="100.367" r="2.34188" transform="rotate(-24.8 317.165 100.367)" fill="#E68CB1"/>
<circle cx="304.516" cy="102.772" r="2.34188" transform="rotate(-24.8 304.516 102.772)" fill="#E68CB1"/>
<circle cx="296.888" cy="112.316" r="2.34188" transform="rotate(-24.8 296.888 112.316)" fill="#E68CB1"/>
<circle cx="285.985" cy="114.774" r="2.34188" transform="rotate(-24.8 285.985 114.774)" fill="#E68CB1"/>
<circle cx="277.804" cy="108.235" r="2.34188" transform="rotate(-24.8 277.804 108.235)" fill="#E68CB1"/>
<circle cx="265.811" cy="112.057" r="2.34188" transform="rotate(-24.8 265.811 112.057)" fill="#E68CB1"/>
<circle cx="260.571" cy="100.719" r="2.34188" transform="rotate(-24.8 260.571 100.719)" fill="#E68CB1"/>
<circle cx="247.757" cy="97.1802" r="2.34188" transform="rotate(-24.8 247.757 97.1802)" fill="#E68CB1"/>
<circle cx="251.95" cy="85.7837" r="2.34188" transform="rotate(-24.8 251.95 85.7837)" fill="#E68CB1"/>
<circle cx="241.751" cy="76.7374" r="2.34188" transform="rotate(-24.8 241.751 76.7374)" fill="#E68CB1"/>
<circle cx="248.345" cy="66.8116" r="2.34188" transform="rotate(-24.8 248.345 66.8116)" fill="#E68CB1"/>
<circle cx="243.052" cy="57.2183" r="2.34188" transform="rotate(-24.8 243.052 57.2183)" fill="#E68CB1"/>
<circle cx="255.753" cy="53.0694" r="2.34188" transform="rotate(-24.8 255.753 53.0694)" fill="#E68CB1"/>
<circle cx="281.915" cy="31.522" r="2.34188" transform="rotate(-24.8 281.915 31.522)" fill="#E68CB1"/>
<circle cx="270.958" cy="35.7247" r="2.34188" transform="rotate(-24.8 270.958 35.7247)" fill="#E68CB1"/>
<circle cx="264.8" cy="42.8697" r="2.34188" transform="rotate(-24.8 264.8 42.8697)" fill="#E68CB1"/>
<circle cx="253.296" cy="42.1661" r="2.34188" transform="rotate(-24.8 253.296 42.1661)" fill="#E68CB1"/>
<circle cx="243.242" cy="56.7002" r="1.17094" transform="rotate(-24.8 243.242 56.7002)" fill="#FFD5E6"/>
<circle cx="256.599" cy="53.9683" r="1.17094" transform="rotate(-24.8 256.599 53.9683)" fill="#FFD5E6"/>
<circle cx="248.863" cy="67.0025" r="1.17094" transform="rotate(-24.8 248.863 67.0025)" fill="#FFD5E6"/>
<circle cx="241.56" cy="77.2554" r="1.17094" transform="rotate(-24.8 241.56 77.2554)" fill="#FFD5E6"/>
<circle cx="252.468" cy="85.9741" r="1.17094" transform="rotate(-24.8 252.468 85.9741)" fill="#FFD5E6"/>
<circle cx="247.566" cy="97.6983" r="1.17094" transform="rotate(-24.8 247.566 97.6983)" fill="#FFD5E6"/>
<circle cx="261.798" cy="100.582" r="1.17094" transform="rotate(-24.8 261.798 100.582)" fill="#FFD5E6"/>
<circle cx="265.621" cy="112.575" r="1.17094" transform="rotate(-24.8 265.621 112.575)" fill="#FFD5E6"/>
<circle cx="279.031" cy="108.098" r="1.17094" transform="rotate(-24.8 279.031 108.098)" fill="#FFD5E6"/>
<circle cx="286.175" cy="114.256" r="1.17094" transform="rotate(-24.8 286.175 114.256)" fill="#FFD5E6"/>
<circle cx="297.734" cy="113.215" r="1.17094" transform="rotate(-24.8 297.734 113.215)" fill="#FFD5E6"/>
<circle cx="304.38" cy="101.545" r="1.17094" transform="rotate(-24.8 304.38 101.545)" fill="#FFD5E6"/>
<circle cx="317.683" cy="100.558" r="1.17094" transform="rotate(-24.8 317.683 100.558)" fill="#FFD5E6"/>
<circle cx="316.695" cy="87.2549" r="1.17094" transform="rotate(-24.8 316.695 87.2549)" fill="#FFD5E6"/>
<circle cx="325.687" cy="78.8003" r="1.17094" transform="rotate(-24.8 325.687 78.8003)" fill="#FFD5E6"/>
<circle cx="317.941" cy="69.4805" r="1.17094" transform="rotate(-24.8 317.941 69.4805)" fill="#FFD5E6"/>
<circle cx="322.134" cy="58.0835" r="1.17094" transform="rotate(-24.8 322.134 58.0835)" fill="#FFD5E6"/>
<circle cx="311.447" cy="53.563" r="1.17094" transform="rotate(-24.8 311.447 53.563)" fill="#FFD5E6"/>
<circle cx="298.521" cy="42.3369" r="1.17094" transform="rotate(-24.8 298.521 42.3369)" fill="#FFD5E6"/>
<circle cx="297.425" cy="32.5239" r="1.17094" transform="rotate(-24.8 297.425 32.5239)" fill="#FFD5E6"/>
<circle cx="288.16" cy="38.5254" r="1.17094" transform="rotate(-24.8 288.16 38.5254)" fill="#FFD5E6"/>
<circle cx="281.722" cy="32.0401" r="1.17094" transform="rotate(-24.8 281.722 32.0401)" fill="#FFD5E6"/>
<circle cx="311.496" cy="40.6416" r="1.17094" transform="rotate(-24.8 311.496 40.6416)" fill="#FFD5E6"/>
<circle cx="253.105" cy="42.6841" r="1.17094" transform="rotate(-24.8 253.105 42.6841)" fill="#FFD5E6"/>
<circle cx="266.025" cy="42.7329" r="1.17094" transform="rotate(-24.8 266.025 42.7329)" fill="#FFD5E6"/>
<circle cx="271.802" cy="36.624" r="1.17094" transform="rotate(-24.8 271.802 36.624)" fill="#FFD5E6"/>
<g filter="url(#filter24_d_91_17373)">
<ellipse cx="264.739" cy="33.4377" rx="16.3931" ry="13.2706" transform="rotate(-24.8 264.739 33.4377)" fill="#E68CB1"/>
<ellipse cx="252.526" cy="33.0612" rx="7.80626" ry="6.24501" transform="rotate(-24.8 252.526 33.0612)" fill="#BF7292"/>
<ellipse cx="273.786" cy="23.238" rx="7.80626" ry="6.24501" transform="rotate(-24.8 273.786 23.238)" fill="#BF7292"/>
<ellipse cx="251.164" cy="31.9712" rx="8.58689" ry="7.02563" transform="rotate(-24.8 251.164 31.9712)" fill="#E68CB1"/>
<ellipse cx="252.581" cy="31.3166" rx="7.80626" ry="6.24501" transform="rotate(-24.8 252.581 31.3166)" fill="#A7D2DD"/>
<ellipse cx="273.131" cy="21.8208" rx="8.58689" ry="7.02563" transform="rotate(-24.8 273.131 21.8208)" fill="#E68CB1"/>
<ellipse cx="272.423" cy="22.1481" rx="7.80626" ry="6.24501" transform="rotate(-24.8 272.423 22.1481)" fill="#A7D2DD"/>
<circle cx="255.034" cy="31.043" r="2.34188" transform="rotate(-24.8 255.034 31.043)" fill="#BF7292"/>
<circle cx="270.624" cy="23.8394" r="2.34188" transform="rotate(-24.8 270.624 23.8394)" fill="#BF7292"/>
<path d="M248.597 24.5576C244.292 26.5468 241.56 31.6595 243.368 35.5732L259.667 28.0422C257.858 24.1285 252.902 22.5684 248.597 24.5576Z" fill="#BF7292"/>
<path d="M270.564 14.4072C266.259 16.3964 263.527 21.5091 265.335 25.4228L281.633 17.8918C279.825 13.9781 274.869 12.418 270.564 14.4072Z" fill="#BF7292"/>
<path d="M263.977 35.5098L267.52 33.8726L268.338 35.6442C268.79 36.6226 268.364 37.7823 267.385 38.2344V38.2344C266.407 38.6864 265.247 38.2598 264.795 37.2814L263.977 35.5098Z" fill="#A7D2DD"/>
<circle cx="255.093" cy="40.4749" r="0.780626" transform="rotate(-24.8 255.093 40.4749)" fill="#A7D2DD"/>
<circle cx="255.557" cy="42.4103" r="0.390313" transform="rotate(-24.8 255.557 42.4103)" fill="#FFD3E5"/>
<circle cx="276.815" cy="32.5871" r="0.390313" transform="rotate(-24.8 276.815 32.5871)" fill="#FFD3E5"/>
<circle cx="253.866" cy="40.612" r="0.390313" transform="rotate(-24.8 253.866 40.612)" fill="#FFD3E5"/>
<circle cx="275.125" cy="30.7887" r="0.390313" transform="rotate(-24.8 275.125 30.7887)" fill="#FFD3E5"/>
<circle cx="257.028" cy="40.0109" r="0.390313" transform="rotate(-24.8 257.028 40.0109)" fill="#FFD3E5"/>
<circle cx="278.288" cy="30.1877" r="0.390313" transform="rotate(-24.8 278.288 30.1877)" fill="#FFD3E5"/>
<circle cx="276.351" cy="30.6522" r="0.780626" transform="rotate(-24.8 276.351 30.6522)" fill="#A7D2DD"/>
<circle cx="253.294" cy="42.1659" r="0.780626" transform="rotate(-24.8 253.294 42.1659)" fill="#A7D2DD"/>
<circle cx="274.554" cy="32.3431" r="0.780626" transform="rotate(-24.8 274.554 32.3431)" fill="#A7D2DD"/>
<circle cx="257.165" cy="41.2376" r="0.780626" transform="rotate(-24.8 257.165 41.2376)" fill="#A7D2DD"/>
<circle cx="278.423" cy="31.4144" r="0.780626" transform="rotate(-24.8 278.423 31.4144)" fill="#A7D2DD"/>
</g>
</g>
<rect x="1115" y="320" width="74" height="36" fill="#FFDF5A"/>
<rect x="1111" y="321" width="4" height="2" fill="#FFDF5A"/>
<rect width="4" height="2" transform="matrix(-1 0 0 1 1193 321)" fill="#FFDF5A"/>
<rect x="1111" y="325" width="4" height="2" fill="#D990B0"/>
<rect width="4" height="2" transform="matrix(-1 0 0 1 1193 325)" fill="#D990B0"/>
<rect x="1111" y="329" width="4" height="2" fill="#FFDF5A"/>
<rect width="4" height="2" transform="matrix(-1 0 0 1 1193 329)" fill="#FFDF5A"/>
<path d="M1111 333H1115V335H1111V333Z" fill="#D990B0"/>
<rect width="4" height="2" transform="matrix(-1 0 0 1 1193 333)" fill="#D990B0"/>
<rect x="1111" y="337" width="4" height="2" fill="#FFDF5A"/>
<rect width="4" height="2" transform="matrix(-1 0 0 1 1193 337)" fill="#FFDF5A"/>
<rect x="1111" y="341" width="4" height="2" fill="#D990B0"/>
<rect width="4" height="2" transform="matrix(-1 0 0 1 1193 341)" fill="#D990B0"/>
<rect x="1111" y="345" width="4" height="2" fill="#FFDF5A"/>
<rect width="4" height="2" transform="matrix(-1 0 0 1 1193 345)" fill="#FFDF5A"/>
<rect x="1111" y="349" width="4" height="2" fill="#D990B0"/>
<rect width="4" height="2" transform="matrix(-1 0 0 1 1193 349)" fill="#D990B0"/>
<rect x="1111" y="353" width="4" height="2" fill="#FFDF5A"/>
<rect width="4" height="2" transform="matrix(-1 0 0 1 1193 353)" fill="#FFDF5A"/>
<rect x="1119" y="323" width="67" height="30" fill="#D990B0"/>
<circle cx="1153.5" cy="338.5" r="7.5" fill="#FFDF5A"/>
<rect x="74.1699" y="452" width="58.6585" height="40" fill="#C4DC5B"/>
<rect x="71" y="453.111" width="3.17073" height="2.22222" fill="#C4DC5B"/>
<rect width="3.17073" height="2.22222" transform="matrix(-1 0 0 1 136 453.111)" fill="#C4DC5B"/>
<rect x="71" y="457.556" width="3.17073" height="2.22222" fill="#C4DC5B"/>
<rect width="3.17073" height="2.22222" transform="matrix(-1 0 0 1 136 457.556)" fill="#C4DC5B"/>
<rect x="71" y="462" width="3.17073" height="2.22222" fill="#C4DC5B"/>
<rect width="3.17073" height="2.22222" transform="matrix(-1 0 0 1 136 462)" fill="#C4DC5B"/>
<path d="M71 466.444H74.1707V468.667H71V466.444Z" fill="#C4DC5B"/>
<rect width="3.17073" height="2.22222" transform="matrix(-1 0 0 1 136 466.444)" fill="#C4DC5B"/>
<rect x="71" y="470.889" width="3.17073" height="2.22222" fill="#C4DC5B"/>
<rect width="3.17073" height="2.22222" transform="matrix(-1 0 0 1 136 470.889)" fill="#C4DC5B"/>
<rect x="71" y="475.333" width="3.17073" height="2.22222" fill="#C4DC5B"/>
<rect width="3.17073" height="2.22222" transform="matrix(-1 0 0 1 136 475.333)" fill="#C4DC5B"/>
<rect x="71" y="479.778" width="3.17073" height="2.22222" fill="#C4DC5B"/>
<rect width="3.17073" height="2.22222" transform="matrix(-1 0 0 1 136 479.778)" fill="#C4DC5B"/>
<rect x="71" y="484.222" width="3.17073" height="2.22222" fill="#C4DC5B"/>
<rect width="3.17073" height="2.22222" transform="matrix(-1 0 0 1 136 484.222)" fill="#C4DC5B"/>
<rect x="71" y="488.667" width="3.17073" height="2.22222" fill="#C4DC5B"/>
<rect width="3.17073" height="2.22222" transform="matrix(-1 0 0 1 136 488.667)" fill="#C4DC5B"/>
<g filter="url(#filter25_dd_91_17373)">
<path d="M1188.52 655.817L1126.26 630.769C1138.06 622.643 1142.29 616.716 1145.95 603.933L1188.52 655.817Z" fill="#79A5F7"/>
<path d="M1188.15 651.344L1137.23 695.074C1151.02 698.974 1156.93 703.229 1164.5 714.158L1188.15 651.344Z" fill="white"/>
<path d="M1184.57 656.574L1209.08 594.091C1195.06 597.104 1187.85 596.11 1176.05 590L1184.57 656.574Z" fill="#79A5F7"/>
<path d="M1184.16 651.897L1227.45 703.19C1213.21 704.84 1206.7 708.098 1197.48 717.679L1184.16 651.897Z" fill="white"/>
<path d="M1189.55 652.877L1123.3 664.321C1129.19 650.87 1129.73 643.412 1126.24 630.251L1189.55 652.877Z" fill="white"/>
<path d="M1185.04 655.254L1251.06 643.125C1241.11 632.808 1238.15 626.158 1237.11 612.902L1185.04 655.254Z" fill="#79A5F7"/>
<path d="M1185.03 652.994L1251.44 643.267C1245.33 656.234 1244.67 663.482 1247.95 676.367L1185.03 652.994Z" fill="white"/>
<path d="M1187.88 656.031L1175.85 590C1165.52 599.934 1158.86 602.881 1145.61 603.897L1187.88 656.031Z" fill="white"/>
<path d="M1187.46 651.349L1197.3 717.742C1184.32 711.655 1177.07 711.003 1164.19 714.302L1187.46 651.349Z" fill="#79A5F7"/>
<path d="M1184.6 656.225L1236.34 613.468C1222.62 609.307 1216.8 604.941 1209.44 593.87L1184.6 656.225Z" fill="white"/>
<path d="M1184.3 652.217L1247.03 676.08C1235.38 684.428 1231.27 690.434 1227.86 703.284L1184.3 652.217Z" fill="#79A5F7"/>
<path d="M1189.26 652.834L1136.98 695.056C1135.59 680.511 1132.44 673.773 1123 664.053L1189.26 652.834Z" fill="#79A5F7"/>
<circle cx="1186" cy="652.699" r="8.51467" fill="white"/>
</g>
<g filter="url(#filter26_dd_91_17373)">
<path d="M69.5237 258.817L7.25573 233.768C19.0634 225.643 23.2876 219.716 26.9467 206.933L69.5237 258.817Z" fill="#FFDF5A"/>
<path d="M69.1461 254.344L18.2307 298.074C32.0232 301.974 37.9281 306.229 45.501 317.158L69.1461 254.344Z" fill="white"/>
<path d="M65.5709 259.574L90.0778 197.091C76.0649 200.104 68.8547 199.11 57.0455 193L65.5709 259.574Z" fill="#FFDF5A"/>
<path d="M65.1606 254.897L108.447 306.19C94.2091 307.84 87.701 311.098 78.4816 320.679L65.1606 254.897Z" fill="white"/>
<path d="M70.5473 255.877L4.29669 267.321C10.188 253.87 10.7306 246.412 7.23728 233.251L70.5473 255.877Z" fill="white"/>
<path d="M66.0446 258.254L132.057 246.125C122.106 235.809 119.149 229.158 118.112 215.902L66.0446 258.254Z" fill="#FFDF5A"/>
<path d="M66.0334 255.994L132.442 246.266C126.335 259.233 125.671 266.481 128.949 279.367L66.0334 255.994Z" fill="white"/>
<path d="M68.8763 259.031L56.8518 193C46.5193 202.934 39.8642 205.881 26.6069 206.897L68.8763 259.031Z" fill="white"/>
<path d="M68.4634 254.348L78.2966 320.741C65.3198 314.655 58.0706 314.003 45.1902 317.301L68.4634 254.348Z" fill="#FFDF5A"/>
<path d="M65.6041 259.225L117.34 216.468C103.624 212.307 97.8005 207.941 90.4363 196.87L65.6041 259.225Z" fill="white"/>
<path d="M65.3021 255.217L128.034 279.08C116.382 287.428 112.271 293.434 108.855 306.284L65.3021 255.217Z" fill="#FFDF5A"/>
<path d="M70.265 255.834L17.9754 298.056C16.5885 283.511 13.4409 276.773 4.00016 267.053L70.265 255.834Z" fill="#FFDF5A"/>
<circle cx="66.9951" cy="255.699" r="8.51467" fill="white"/>
</g>
<g filter="url(#filter27_dd_91_17373)">
<path d="M1182.52 228.817L1120.26 203.768C1132.06 195.643 1136.29 189.716 1139.95 176.933L1182.52 228.817Z" fill="#DB5E57"/>
<path d="M1182.15 224.344L1131.23 268.074C1145.02 271.974 1150.93 276.229 1158.5 287.158L1182.15 224.344Z" fill="white"/>
<path d="M1178.57 229.574L1203.08 167.091C1189.06 170.104 1181.85 169.11 1170.05 163L1178.57 229.574Z" fill="#DB5E57"/>
<path d="M1178.16 224.897L1221.45 276.19C1207.21 277.84 1200.7 281.098 1191.48 290.679L1178.16 224.897Z" fill="white"/>
<path d="M1183.55 225.877L1117.3 237.321C1123.19 223.87 1123.73 216.412 1120.24 203.251L1183.55 225.877Z" fill="white"/>
<path d="M1179.04 228.254L1245.06 216.125C1235.11 205.809 1232.15 199.158 1231.11 185.902L1179.04 228.254Z" fill="#DB5E57"/>
<path d="M1179.03 225.994L1245.44 216.266C1239.33 229.233 1238.67 236.481 1241.95 249.367L1179.03 225.994Z" fill="white"/>
<path d="M1181.88 229.031L1169.85 163C1159.52 172.934 1152.86 175.881 1139.61 176.897L1181.88 229.031Z" fill="white"/>
<path d="M1181.46 224.348L1191.3 290.741C1178.32 284.655 1171.07 284.003 1158.19 287.301L1181.46 224.348Z" fill="#DB5E57"/>
<path d="M1178.6 229.225L1230.34 186.468C1216.62 182.307 1210.8 177.941 1203.44 166.87L1178.6 229.225Z" fill="white"/>
<path d="M1178.3 225.217L1241.03 249.08C1229.38 257.428 1225.27 263.434 1221.86 276.284L1178.3 225.217Z" fill="#DB5E57"/>
<path d="M1183.26 225.834L1130.98 268.056C1129.59 253.511 1126.44 246.773 1117 237.053L1183.26 225.834Z" fill="#DB5E57"/>
<circle cx="1180" cy="225.699" r="8.51467" fill="white"/>
</g>
<defs>
<filter id="filter0_d_91_17373" x="224" y="146" width="821" height="679" filterUnits="userSpaceOnUse" color-interpolation-filters="sRGB">
<feFlood flood-opacity="0" result="BackgroundImageFix"/>
<feColorMatrix in="SourceAlpha" type="matrix" values="0 0 0 0 0 0 0 0 0 0 0 0 0 0 0 0 0 0 127 0" result="hardAlpha"/>
<feOffset dx="15" dy="33"/>
<feComposite in2="hardAlpha" operator="out"/>
<feColorMatrix type="matrix" values="0 0 0 0 0 0 0 0 0 0 0 0 0 0 0 0 0 0 0.25 0"/>
<feBlend mode="normal" in2="BackgroundImageFix" result="effect1_dropShadow_91_17373"/>
<feBlend mode="normal" in="SourceGraphic" in2="effect1_dropShadow_91_17373" result="shape"/>
</filter>
<filter id="filter1_d_91_17373" x="342.334" y="183.526" width="4" height="135.474" filterUnits="userSpaceOnUse" color-interpolation-filters="sRGB">
<feFlood flood-opacity="0" result="BackgroundImageFix"/>
<feColorMatrix in="SourceAlpha" type="matrix" values="0 0 0 0 0 0 0 0 0 0 0 0 0 0 0 0 0 0 127 0" result="hardAlpha"/>
<feOffset dx="2" dy="2"/>
<feComposite in2="hardAlpha" operator="out"/>
<feColorMatrix type="matrix" values="0 0 0 0 0.337255 0 0 0 0 0.603922 0 0 0 0 0.670588 0 0 0 1 0"/>
<feBlend mode="normal" in2="BackgroundImageFix" result="effect1_dropShadow_91_17373"/>
<feBlend mode="normal" in="SourceGraphic" in2="effect1_dropShadow_91_17373" result="shape"/>
</filter>
<filter id="filter2_d_91_17373" x="342.889" y="192.972" width="62.666" height="3" filterUnits="userSpaceOnUse" color-interpolation-filters="sRGB">
<feFlood flood-opacity="0" result="BackgroundImageFix"/>
<feColorMatrix in="SourceAlpha" type="matrix" values="0 0 0 0 0 0 0 0 0 0 0 0 0 0 0 0 0 0 127 0" result="hardAlpha"/>
<feOffset dx="2" dy="2"/>
<feComposite in2="hardAlpha" operator="out"/>
<feColorMatrix type="matrix" values="0 0 0 0 0.337255 0 0 0 0 0.603922 0 0 0 0 0.670588 0 0 0 1 0"/>
<feBlend mode="normal" in2="BackgroundImageFix" result="effect1_dropShadow_91_17373"/>
<feBlend mode="normal" in="SourceGraphic" in2="effect1_dropShadow_91_17373" result="shape"/>
</filter>
<filter id="filter3_d_91_17373" x="342.889" y="206.899" width="62.666" height="3" filterUnits="userSpaceOnUse" color-interpolation-filters="sRGB">
<feFlood flood-opacity="0" result="BackgroundImageFix"/>
<feColorMatrix in="SourceAlpha" type="matrix" values="0 0 0 0 0 0 0 0 0 0 0 0 0 0 0 0 0 0 127 0" result="hardAlpha"/>
<feOffset dx="2" dy="2"/>
<feComposite in2="hardAlpha" operator="out"/>
<feColorMatrix type="matrix" values="0 0 0 0 0.337255 0 0 0 0 0.603922 0 0 0 0 0.670588 0 0 0 1 0"/>
<feBlend mode="normal" in2="BackgroundImageFix" result="effect1_dropShadow_91_17373"/>
<feBlend mode="normal" in="SourceGraphic" in2="effect1_dropShadow_91_17373" result="shape"/>
</filter>
<filter id="filter4_d_91_17373" x="342.889" y="220.826" width="62.666" height="3" filterUnits="userSpaceOnUse" color-interpolation-filters="sRGB">
<feFlood flood-opacity="0" result="BackgroundImageFix"/>
<feColorMatrix in="SourceAlpha" type="matrix" values="0 0 0 0 0 0 0 0 0 0 0 0 0 0 0 0 0 0 127 0" result="hardAlpha"/>
<feOffset dx="2" dy="2"/>
<feComposite in2="hardAlpha" operator="out"/>
<feColorMatrix type="matrix" values="0 0 0 0 0.337255 0 0 0 0 0.603922 0 0 0 0 0.670588 0 0 0 1 0"/>
<feBlend mode="normal" in2="BackgroundImageFix" result="effect1_dropShadow_91_17373"/>
<feBlend mode="normal" in="SourceGraphic" in2="effect1_dropShadow_91_17373" result="shape"/>
</filter>
<filter id="filter5_d_91_17373" x="342.889" y="234.753" width="62.666" height="3" filterUnits="userSpaceOnUse" color-interpolation-filters="sRGB">
<feFlood flood-opacity="0" result="BackgroundImageFix"/>
<feColorMatrix in="SourceAlpha" type="matrix" values="0 0 0 0 0 0 0 0 0 0 0 0 0 0 0 0 0 0 127 0" result="hardAlpha"/>
<feOffset dx="2" dy="2"/>
<feComposite in2="hardAlpha" operator="out"/>
<feColorMatrix type="matrix" values="0 0 0 0 0.337255 0 0 0 0 0.603922 0 0 0 0 0.670588 0 0 0 1 0"/>
<feBlend mode="normal" in2="BackgroundImageFix" result="effect1_dropShadow_91_17373"/>
<feBlend mode="normal" in="SourceGraphic" in2="effect1_dropShadow_91_17373" result="shape"/>
</filter>
<filter id="filter6_d_91_17373" x="342.889" y="248.68" width="62.666" height="3" filterUnits="userSpaceOnUse" color-interpolation-filters="sRGB">
<feFlood flood-opacity="0" result="BackgroundImageFix"/>
<feColorMatrix in="SourceAlpha" type="matrix" values="0 0 0 0 0 0 0 0 0 0 0 0 0 0 0 0 0 0 127 0" result="hardAlpha"/>
<feOffset dx="2" dy="2"/>
<feComposite in2="hardAlpha" operator="out"/>
<feColorMatrix type="matrix" values="0 0 0 0 0.337255 0 0 0 0 0.603922 0 0 0 0 0.670588 0 0 0 1 0"/>
<feBlend mode="normal" in2="BackgroundImageFix" result="effect1_dropShadow_91_17373"/>
<feBlend mode="normal" in="SourceGraphic" in2="effect1_dropShadow_91_17373" result="shape"/>
</filter>
<filter id="filter7_d_91_17373" x="342.889" y="262.607" width="62.666" height="3" filterUnits="userSpaceOnUse" color-interpolation-filters="sRGB">
<feFlood flood-opacity="0" result="BackgroundImageFix"/>
<feColorMatrix in="SourceAlpha" type="matrix" values="0 0 0 0 0 0 0 0 0 0 0 0 0 0 0 0 0 0 127 0" result="hardAlpha"/>
<feOffset dx="2" dy="2"/>
<feComposite in2="hardAlpha" operator="out"/>
<feColorMatrix type="matrix" values="0 0 0 0 0.337255 0 0 0 0 0.603922 0 0 0 0 0.670588 0 0 0 1 0"/>
<feBlend mode="normal" in2="BackgroundImageFix" result="effect1_dropShadow_91_17373"/>
<feBlend mode="normal" in="SourceGraphic" in2="effect1_dropShadow_91_17373" result="shape"/>
</filter>
<filter id="filter8_d_91_17373" x="342.889" y="276.535" width="62.666" height="3" filterUnits="userSpaceOnUse" color-interpolation-filters="sRGB">
<feFlood flood-opacity="0" result="BackgroundImageFix"/>
<feColorMatrix in="SourceAlpha" type="matrix" values="0 0 0 0 0 0 0 0 0 0 0 0 0 0 0 0 0 0 127 0" result="hardAlpha"/>
<feOffset dx="2" dy="2"/>
<feComposite in2="hardAlpha" operator="out"/>
<feColorMatrix type="matrix" values="0 0 0 0 0.337255 0 0 0 0 0.603922 0 0 0 0 0.670588 0 0 0 1 0"/>
<feBlend mode="normal" in2="BackgroundImageFix" result="effect1_dropShadow_91_17373"/>
<feBlend mode="normal" in="SourceGraphic" in2="effect1_dropShadow_91_17373" result="shape"/>
</filter>
<filter id="filter9_d_91_17373" x="342.889" y="290.462" width="62.666" height="3" filterUnits="userSpaceOnUse" color-interpolation-filters="sRGB">
<feFlood flood-opacity="0" result="BackgroundImageFix"/>
<feColorMatrix in="SourceAlpha" type="matrix" values="0 0 0 0 0 0 0 0 0 0 0 0 0 0 0 0 0 0 127 0" result="hardAlpha"/>
<feOffset dx="2" dy="2"/>
<feComposite in2="hardAlpha" operator="out"/>
<feColorMatrix type="matrix" values="0 0 0 0 0.337255 0 0 0 0 0.603922 0 0 0 0 0.670588 0 0 0 1 0"/>
<feBlend mode="normal" in2="BackgroundImageFix" result="effect1_dropShadow_91_17373"/>
<feBlend mode="normal" in="SourceGraphic" in2="effect1_dropShadow_91_17373" result="shape"/>
</filter>
<filter id="filter10_d_91_17373" x="342.889" y="304.389" width="62.666" height="3" filterUnits="userSpaceOnUse" color-interpolation-filters="sRGB">
<feFlood flood-opacity="0" result="BackgroundImageFix"/>
<feColorMatrix in="SourceAlpha" type="matrix" values="0 0 0 0 0 0 0 0 0 0 0 0 0 0 0 0 0 0 127 0" result="hardAlpha"/>
<feOffset dx="2" dy="2"/>
<feComposite in2="hardAlpha" operator="out"/>
<feColorMatrix type="matrix" values="0 0 0 0 0.337255 0 0 0 0 0.603922 0 0 0 0 0.670588 0 0 0 1 0"/>
<feBlend mode="normal" in2="BackgroundImageFix" result="effect1_dropShadow_91_17373"/>
<feBlend mode="normal" in="SourceGraphic" in2="effect1_dropShadow_91_17373" result="shape"/>
</filter>
<filter id="filter11_d_91_17373" x="401.555" y="183.526" width="4" height="135.474" filterUnits="userSpaceOnUse" color-interpolation-filters="sRGB">
<feFlood flood-opacity="0" result="BackgroundImageFix"/>
<feColorMatrix in="SourceAlpha" type="matrix" values="0 0 0 0 0 0 0 0 0 0 0 0 0 0 0 0 0 0 127 0" result="hardAlpha"/>
<feOffset dx="2" dy="2"/>
<feComposite in2="hardAlpha" operator="out"/>
<feColorMatrix type="matrix" values="0 0 0 0 0.337255 0 0 0 0 0.603922 0 0 0 0 0.670588 0 0 0 1 0"/>
<feBlend mode="normal" in2="BackgroundImageFix" result="effect1_dropShadow_91_17373"/>
<feBlend mode="normal" in="SourceGraphic" in2="effect1_dropShadow_91_17373" result="shape"/>
</filter>
<filter id="filter12_d_91_17373" x="858.037" y="589.104" width="129.17" height="133.789" filterUnits="userSpaceOnUse" color-interpolation-filters="sRGB">
<feFlood flood-opacity="0" result="BackgroundImageFix"/>
<feColorMatrix in="SourceAlpha" type="matrix" values="0 0 0 0 0 0 0 0 0 0 0 0 0 0 0 0 0 0 127 0" result="hardAlpha"/>
<feOffset dx="1" dy="5"/>
<feComposite in2="hardAlpha" operator="out"/>
<feColorMatrix type="matrix" values="0 0 0 0 0.333333 0 0 0 0 0.6 0 0 0 0 0.666667 0 0 0 0.97 0"/>
<feBlend mode="normal" in2="BackgroundImageFix" result="effect1_dropShadow_91_17373"/>
<feBlend mode="normal" in="SourceGraphic" in2="effect1_dropShadow_91_17373" result="shape"/>
</filter>
<filter id="filter13_d_91_17373" x="935.953" y="589.104" width="52.2539" height="50.0537" filterUnits="userSpaceOnUse" color-interpolation-filters="sRGB">
<feFlood flood-opacity="0" result="BackgroundImageFix"/>
<feColorMatrix in="SourceAlpha" type="matrix" values="0 0 0 0 0 0 0 0 0 0 0 0 0 0 0 0 0 0 127 0" result="hardAlpha"/>
<feOffset dy="2"/>
<feGaussianBlur stdDeviation="1"/>
<feComposite in2="hardAlpha" operator="out"/>
<feColorMatrix type="matrix" values="0 0 0 0 0.0480358 0 0 0 0 0.0737861 0 0 0 0 0.0967773 0 0 0 0.3 0"/>
<feBlend mode="normal" in2="BackgroundImageFix" result="effect1_dropShadow_91_17373"/>
<feBlend mode="normal" in="SourceGraphic" in2="effect1_dropShadow_91_17373" result="shape"/>
</filter>
<filter id="filter14_d_91_17373" x="285.01" y="555.009" width="234.051" height="157.907" filterUnits="userSpaceOnUse" color-interpolation-filters="sRGB">
<feFlood flood-opacity="0" result="BackgroundImageFix"/>
<feColorMatrix in="SourceAlpha" type="matrix" values="0 0 0 0 0 0 0 0 0 0 0 0 0 0 0 0 0 0 127 0" result="hardAlpha"/>
<feOffset dx="7" dy="10"/>
<feComposite in2="hardAlpha" operator="out"/>
<feColorMatrix type="matrix" values="0 0 0 0 0.337255 0 0 0 0 0.603922 0 0 0 0 0.670588 0 0 0 1 0"/>
<feBlend mode="normal" in2="BackgroundImageFix" result="effect1_dropShadow_91_17373"/>
<feBlend mode="normal" in="SourceGraphic" in2="effect1_dropShadow_91_17373" result="shape"/>
</filter>
<filter id="filter15_d_91_17373" x="570.158" y="651.249" width="214.801" height="101.099" filterUnits="userSpaceOnUse" color-interpolation-filters="sRGB">
<feFlood flood-opacity="0" result="BackgroundImageFix"/>
<feColorMatrix in="SourceAlpha" type="matrix" values="0 0 0 0 0 0 0 0 0 0 0 0 0 0 0 0 0 0 127 0" result="hardAlpha"/>
<feOffset dx="4" dy="8"/>
<feComposite in2="hardAlpha" operator="out"/>
<feColorMatrix type="matrix" values="0 0 0 0 0.337255 0 0 0 0 0.603922 0 0 0 0 0.670588 0 0 0 1 0"/>
<feBlend mode="normal" in2="BackgroundImageFix" result="effect1_dropShadow_91_17373"/>
<feBlend mode="normal" in="SourceGraphic" in2="effect1_dropShadow_91_17373" result="shape"/>
</filter>
<filter id="filter16_d_91_17373" x="515.861" y="287.734" width="199.924" height="131.907" filterUnits="userSpaceOnUse" color-interpolation-filters="sRGB">
<feFlood flood-opacity="0" result="BackgroundImageFix"/>
<feColorMatrix in="SourceAlpha" type="matrix" values="0 0 0 0 0 0 0 0 0 0 0 0 0 0 0 0 0 0 127 0" result="hardAlpha"/>
<feOffset dx="-2" dy="7"/>
<feComposite in2="hardAlpha" operator="out"/>
<feColorMatrix type="matrix" values="0 0 0 0 0.337255 0 0 0 0 0.603922 0 0 0 0 0.670588 0 0 0 1 0"/>
<feBlend mode="normal" in2="BackgroundImageFix" result="effect1_dropShadow_91_17373"/>
<feBlend mode="normal" in="SourceGraphic" in2="effect1_dropShadow_91_17373" result="shape"/>
</filter>
<filter id="filter17_d_91_17373" x="1080" y="308" width="159.637" height="72.5332" filterUnits="userSpaceOnUse" color-interpolation-filters="sRGB">
<feFlood flood-opacity="0" result="BackgroundImageFix"/>
<feColorMatrix in="SourceAlpha" type="matrix" values="0 0 0 0 0 0 0 0 0 0 0 0 0 0 0 0 0 0 127 0" result="hardAlpha"/>
<feOffset dx="15" dy="13"/>
<feComposite in2="hardAlpha" operator="out"/>
<feColorMatrix type="matrix" values="0 0 0 0 0.0431373 0 0 0 0 0.129412 0 0 0 0 0.207843 0 0 0 1 0"/>
<feBlend mode="normal" in2="BackgroundImageFix" result="effect1_dropShadow_91_17373"/>
<feBlend mode="normal" in="SourceGraphic" in2="effect1_dropShadow_91_17373" result="shape"/>
</filter>
<filter id="filter18_d_91_17373" x="32" y="308" width="159.637" height="72.5332" filterUnits="userSpaceOnUse" color-interpolation-filters="sRGB">
<feFlood flood-opacity="0" result="BackgroundImageFix"/>
<feColorMatrix in="SourceAlpha" type="matrix" values="0 0 0 0 0 0 0 0 0 0 0 0 0 0 0 0 0 0 127 0" result="hardAlpha"/>
<feOffset dx="15" dy="13"/>
<feComposite in2="hardAlpha" operator="out"/>
<feColorMatrix type="matrix" values="0 0 0 0 0.0431373 0 0 0 0 0.129412 0 0 0 0 0.207843 0 0 0 1 0"/>
<feBlend mode="normal" in2="BackgroundImageFix" result="effect1_dropShadow_91_17373"/>
<feBlend mode="normal" in="SourceGraphic" in2="effect1_dropShadow_91_17373" result="shape"/>
</filter>
<filter id="filter19_d_91_17373" x="1080" y="441.733" width="159.637" height="72.5332" filterUnits="userSpaceOnUse" color-interpolation-filters="sRGB">
<feFlood flood-opacity="0" result="BackgroundImageFix"/>
<feColorMatrix in="SourceAlpha" type="matrix" values="0 0 0 0 0 0 0 0 0 0 0 0 0 0 0 0 0 0 127 0" result="hardAlpha"/>
<feOffset dx="15" dy="13"/>
<feComposite in2="hardAlpha" operator="out"/>
<feColorMatrix type="matrix" values="0 0 0 0 0.0431373 0 0 0 0 0.129412 0 0 0 0 0.207843 0 0 0 1 0"/>
<feBlend mode="normal" in2="BackgroundImageFix" result="effect1_dropShadow_91_17373"/>
<feBlend mode="normal" in="SourceGraphic" in2="effect1_dropShadow_91_17373" result="shape"/>
</filter>
<filter id="filter20_d_91_17373" x="32" y="441.733" width="159.637" height="72.5332" filterUnits="userSpaceOnUse" color-interpolation-filters="sRGB">
<feFlood flood-opacity="0" result="BackgroundImageFix"/>
<feColorMatrix in="SourceAlpha" type="matrix" values="0 0 0 0 0 0 0 0 0 0 0 0 0 0 0 0 0 0 127 0" result="hardAlpha"/>
<feOffset dx="15" dy="13"/>
<feComposite in2="hardAlpha" operator="out"/>
<feColorMatrix type="matrix" values="0 0 0 0 0.0431373 0 0 0 0 0.129412 0 0 0 0 0.207843 0 0 0 1 0"/>
<feBlend mode="normal" in2="BackgroundImageFix" result="effect1_dropShadow_91_17373"/>
<feBlend mode="normal" in="SourceGraphic" in2="effect1_dropShadow_91_17373" result="shape"/>
</filter>
<filter id="filter21_d_91_17373" x="1080" y="575.467" width="159.637" height="72.5332" filterUnits="userSpaceOnUse" color-interpolation-filters="sRGB">
<feFlood flood-opacity="0" result="BackgroundImageFix"/>
<feColorMatrix in="SourceAlpha" type="matrix" values="0 0 0 0 0 0 0 0 0 0 0 0 0 0 0 0 0 0 127 0" result="hardAlpha"/>
<feOffset dx="15" dy="13"/>
<feComposite in2="hardAlpha" operator="out"/>
<feColorMatrix type="matrix" values="0 0 0 0 0.0431373 0 0 0 0 0.129412 0 0 0 0 0.207843 0 0 0 1 0"/>
<feBlend mode="normal" in2="BackgroundImageFix" result="effect1_dropShadow_91_17373"/>
<feBlend mode="normal" in="SourceGraphic" in2="effect1_dropShadow_91_17373" result="shape"/>
</filter>
<filter id="filter22_d_91_17373" x="32" y="575.467" width="159.637" height="72.5332" filterUnits="userSpaceOnUse" color-interpolation-filters="sRGB">
<feFlood flood-opacity="0" result="BackgroundImageFix"/>
<feColorMatrix in="SourceAlpha" type="matrix" values="0 0 0 0 0 0 0 0 0 0 0 0 0 0 0 0 0 0 127 0" result="hardAlpha"/>
<feOffset dx="15" dy="13"/>
<feComposite in2="hardAlpha" operator="out"/>
<feColorMatrix type="matrix" values="0 0 0 0 0.0431373 0 0 0 0 0.129412 0 0 0 0 0.207843 0 0 0 1 0"/>
<feBlend mode="normal" in2="BackgroundImageFix" result="effect1_dropShadow_91_17373"/>
<feBlend mode="normal" in="SourceGraphic" in2="effect1_dropShadow_91_17373" result="shape"/>
</filter>
<filter id="filter23_d_91_17373" x="236.355" y="13.5425" width="105.479" height="113.008" filterUnits="userSpaceOnUse" color-interpolation-filters="sRGB">
<feFlood flood-opacity="0" result="BackgroundImageFix"/>
<feColorMatrix in="SourceAlpha" type="matrix" values="0 0 0 0 0 0 0 0 0 0 0 0 0 0 0 0 0 0 127 0" result="hardAlpha"/>
<feOffset dx="11" dy="6"/>
<feComposite in2="hardAlpha" operator="out"/>
<feColorMatrix type="matrix" values="0 0 0 0 0.0425375 0 0 0 0 0.130841 0 0 0 0 0.209684 0 0 0 1 0"/>
<feBlend mode="normal" in2="BackgroundImageFix" result="effect1_dropShadow_91_17373"/>
<feBlend mode="normal" in="SourceGraphic" in2="effect1_dropShadow_91_17373" result="shape"/>
</filter>
<filter id="filter24_d_91_17373" x="240.803" y="13.5425" width="42.8301" height="37.7686" filterUnits="userSpaceOnUse" color-interpolation-filters="sRGB">
<feFlood flood-opacity="0" result="BackgroundImageFix"/>
<feColorMatrix in="SourceAlpha" type="matrix" values="0 0 0 0 0 0 0 0 0 0 0 0 0 0 0 0 0 0 127 0" result="hardAlpha"/>
<feOffset dy="2"/>
<feGaussianBlur stdDeviation="1"/>
<feComposite in2="hardAlpha" operator="out"/>
<feColorMatrix type="matrix" values="0 0 0 0 0.0480358 0 0 0 0 0.0737861 0 0 0 0 0.0967773 0 0 0 0.3 0"/>
<feBlend mode="normal" in2="BackgroundImageFix" result="effect1_dropShadow_91_17373"/>
<feBlend mode="normal" in="SourceGraphic" in2="effect1_dropShadow_91_17373" result="shape"/>
</filter>
<filter id="filter25_dd_91_17373" x="1119" y="590" width="138.441" height="135.742" filterUnits="userSpaceOnUse" color-interpolation-filters="sRGB">
<feFlood flood-opacity="0" result="BackgroundImageFix"/>
<feColorMatrix in="SourceAlpha" type="matrix" values="0 0 0 0 0 0 0 0 0 0 0 0 0 0 0 0 0 0 127 0" result="hardAlpha"/>
<feOffset dx="6" dy="3"/>
<feComposite in2="hardAlpha" operator="out"/>
<feColorMatrix type="matrix" values="0 0 0 0 0 0 0 0 0 0 0 0 0 0 0 0 0 0 0.25 0"/>
<feBlend mode="normal" in2="BackgroundImageFix" result="effect1_dropShadow_91_17373"/>
<feColorMatrix in="SourceAlpha" type="matrix" values="0 0 0 0 0 0 0 0 0 0 0 0 0 0 0 0 0 0 127 0" result="hardAlpha"/>
<feOffset dy="4"/>
<feGaussianBlur stdDeviation="2"/>
<feComposite in2="hardAlpha" operator="out"/>
<feColorMatrix type="matrix" values="0 0 0 0 0 0 0 0 0 0 0 0 0 0 0 0 0 0 0.25 0"/>
<feBlend mode="normal" in2="effect1_dropShadow_91_17373" result="effect2_dropShadow_91_17373"/>
<feBlend mode="normal" in="SourceGraphic" in2="effect2_dropShadow_91_17373" result="shape"/>
</filter>
<filter id="filter26_dd_91_17373" x="0" y="193" width="138.441" height="135.741" filterUnits="userSpaceOnUse" color-interpolation-filters="sRGB">
<feFlood flood-opacity="0" result="BackgroundImageFix"/>
<feColorMatrix in="SourceAlpha" type="matrix" values="0 0 0 0 0 0 0 0 0 0 0 0 0 0 0 0 0 0 127 0" result="hardAlpha"/>
<feOffset dx="6" dy="3"/>
<feComposite in2="hardAlpha" operator="out"/>
<feColorMatrix type="matrix" values="0 0 0 0 0 0 0 0 0 0 0 0 0 0 0 0 0 0 0.25 0"/>
<feBlend mode="normal" in2="BackgroundImageFix" result="effect1_dropShadow_91_17373"/>
<feColorMatrix in="SourceAlpha" type="matrix" values="0 0 0 0 0 0 0 0 0 0 0 0 0 0 0 0 0 0 127 0" result="hardAlpha"/>
<feOffset dy="4"/>
<feGaussianBlur stdDeviation="2"/>
<feComposite in2="hardAlpha" operator="out"/>
<feColorMatrix type="matrix" values="0 0 0 0 0 0 0 0 0 0 0 0 0 0 0 0 0 0 0.25 0"/>
<feBlend mode="normal" in2="effect1_dropShadow_91_17373" result="effect2_dropShadow_91_17373"/>
<feBlend mode="normal" in="SourceGraphic" in2="effect2_dropShadow_91_17373" result="shape"/>
</filter>
<filter id="filter27_dd_91_17373" x="1113" y="163" width="138.441" height="135.741" filterUnits="userSpaceOnUse" color-interpolation-filters="sRGB">
<feFlood flood-opacity="0" result="BackgroundImageFix"/>
<feColorMatrix in="SourceAlpha" type="matrix" values="0 0 0 0 0 0 0 0 0 0 0 0 0 0 0 0 0 0 127 0" result="hardAlpha"/>
<feOffset dx="6" dy="3"/>
<feComposite in2="hardAlpha" operator="out"/>
<feColorMatrix type="matrix" values="0 0 0 0 0 0 0 0 0 0 0 0 0 0 0 0 0 0 0.25 0"/>
<feBlend mode="normal" in2="BackgroundImageFix" result="effect1_dropShadow_91_17373"/>
<feColorMatrix in="SourceAlpha" type="matrix" values="0 0 0 0 0 0 0 0 0 0 0 0 0 0 0 0 0 0 127 0" result="hardAlpha"/>
<feOffset dy="4"/>
<feGaussianBlur stdDeviation="2"/>
<feComposite in2="hardAlpha" operator="out"/>
<feColorMatrix type="matrix" values="0 0 0 0 0 0 0 0 0 0 0 0 0 0 0 0 0 0 0.25 0"/>
<feBlend mode="normal" in2="effect1_dropShadow_91_17373" result="effect2_dropShadow_91_17373"/>
<feBlend mode="normal" in="SourceGraphic" in2="effect2_dropShadow_91_17373" result="shape"/>
</filter>
<clipPath id="clip0_91_17373">
<rect width="150.78" height="150.78" fill="white" transform="translate(782 227)"/>
</clipPath>
<clipPath id="clip1_91_17373">
<rect width="102.98" height="102.98" fill="white" transform="translate(293 296)"/>
</clipPath>
</defs>
</svg>
