<svg width="1280" height="1182" viewBox="0 0 1280 1182" fill="none" xmlns="http://www.w3.org/2000/svg">
<rect x="94" y="30" width="1049" height="987" fill="#0E253A"/>
<g filter="url(#filter0_d_91_17375)">
<rect width="40" height="407" transform="matrix(-1 0 0 1 1071 649)" fill="#414661"/>
<path d="M1160 1082C1160 1058.8 1141.2 1040 1118 1040H985C961.804 1040 943 1058.8 943 1082V1082H1160V1082Z" fill="#414661"/>
<path d="M1196 92H907V549C907 604.228 951.772 649 1007 649H1096C1151.23 649 1196 604.228 1196 549V92Z" fill="#E68DB1" fill-opacity="0.2"/>
<path d="M1143 262H959V524C959 574.81 1000.19 616 1051 616V616C1101.81 616 1143 574.81 1143 524V262Z" fill="#E58DB1"/>
<rect width="31" height="31" transform="matrix(-0.869374 0.494154 0.494154 0.869374 1109.32 532.365)" fill="#ECF5FF"/>
<rect width="15.5" height="15.5" transform="matrix(-0.869374 0.494154 0.494154 0.869374 1109.16 534.595)" fill="white"/>
<rect x="1037.55" y="556" width="40.7808" height="40.7808" transform="rotate(29.614 1037.55 556)" fill="#ECF5FF"/>
<rect x="1037.76" y="558.934" width="20.3904" height="20.3904" transform="rotate(29.614 1037.76 558.934)" fill="white"/>
<rect width="48.3489" height="48.3489" transform="matrix(-0.48022 -0.877148 -0.877148 0.48022 1031 557.409)" fill="#ECF5FF"/>
<rect width="24.1744" height="24.1744" transform="matrix(-0.48022 -0.877148 -0.877148 0.48022 1027.53 557.105)" fill="white"/>
<rect width="184" height="55" transform="matrix(-1 0 0 1 1143 262)" fill="#FFB2D2"/>
<rect width="184" height="7" transform="matrix(-1 0 0 1 1143 262)" fill="#FFE3EF"/>
<ellipse cx="21" cy="16" rx="21" ry="16" transform="matrix(-1 0 0 1 1030 301)" fill="#FFB2D2"/>
<ellipse cx="13" cy="12" rx="13" ry="12" transform="matrix(-1 0 0 1 1039 323)" fill="#FFB2D2"/>
<ellipse cx="12" cy="10.5" rx="12" ry="10.5" transform="matrix(-1 0 0 1 1121 340)" fill="#FFB2D2"/>
<ellipse cx="8.5" cy="7.5" rx="8.5" ry="7.5" transform="matrix(-1 0 0 1 982 296)" fill="#E58DB1"/>
<ellipse cx="6" cy="5.5" rx="6" ry="5.5" transform="matrix(-1 0 0 1 1015 249)" fill="#E58DB1"/>
<ellipse cx="3" cy="2.5" rx="3" ry="2.5" transform="matrix(-1 0 0 1 1031 246)" fill="#E58DB1"/>
<ellipse cx="3" cy="2.5" rx="3" ry="2.5" transform="matrix(-1 0 0 1 994 218)" fill="#E58DB1"/>
<ellipse cx="4.5" cy="4" rx="4.5" ry="4" transform="matrix(-1 0 0 1 1113 282)" fill="#E58DB1"/>
<ellipse cx="4.5" cy="4" rx="4.5" ry="4" transform="matrix(-1 0 0 1 1097 266)" fill="#FFE3EF"/>
<ellipse cx="8" cy="7" rx="8" ry="7" transform="matrix(-1 0 0 1 989 263)" fill="#FFE3EF"/>
<ellipse cx="8" cy="7" rx="8" ry="7" transform="matrix(-1 0 0 1 1109 347)" fill="#FFE3EF"/>
<ellipse cx="4" cy="3.5" rx="4" ry="3.5" transform="matrix(-1 0 0 1 1032 323)" fill="#FFE3EF"/>
<ellipse cx="4.5" cy="4" rx="4.5" ry="4" transform="matrix(-1 0 0 1 1125 246)" fill="#E58DB1"/>
<ellipse cx="7.5" cy="6.5" rx="7.5" ry="6.5" transform="matrix(-1 0 0 1 1110 224)" fill="#E58DB1"/>
<ellipse cx="12" cy="10.5" rx="12" ry="10.5" transform="matrix(-1 0 0 1 1136 328)" fill="#FFB2D2"/>
<path d="M1105.76 92.0858C1105.84 76.3224 1110.47 60.9182 1119.11 47.7292C1127.74 34.5401 1140 24.1287 1154.42 17.7493C1168.83 11.3699 1184.79 9.29458 1200.35 11.7734C1215.92 14.2522 1230.44 21.1794 1242.16 31.7204C1253.88 42.2614 1262.31 55.9666 1266.42 71.185C1270.53 86.4033 1270.15 102.485 1265.33 117.494C1260.51 132.503 1251.45 145.798 1239.25 155.777C1227.05 165.757 1212.22 171.995 1196.55 173.741L1187.5 92.4999L1105.76 92.0858Z" fill="#FF6E1F"/>
<path d="M1113.38 92.2404C1113.45 77.9234 1117.66 63.9328 1125.5 51.954C1133.34 39.9752 1144.48 30.5192 1157.57 24.7252C1170.66 18.9312 1185.15 17.0463 1199.29 19.2976C1213.43 21.549 1226.62 27.8405 1237.26 37.4143C1247.91 46.988 1255.56 59.4356 1259.29 73.2574C1263.02 87.0793 1262.68 101.686 1258.3 115.317C1253.93 128.949 1245.7 141.024 1234.62 150.087C1223.53 159.151 1210.07 164.817 1195.84 166.402L1187.62 92.6165L1113.38 92.2404Z" fill="#FFA06D"/>
<path d="M1115.88 92.1949C1115.63 78.3299 1119.41 64.6897 1126.77 52.9389C1134.14 41.1881 1144.76 31.8348 1157.35 26.0203C1169.94 20.2057 1183.95 18.1815 1197.67 20.1945C1211.39 22.2076 1224.23 28.1708 1234.62 37.3566C1245.01 46.5424 1252.5 58.5535 1256.18 71.9243C1259.85 85.2951 1259.56 99.4474 1255.33 112.654C1251.1 125.861 1243.12 137.551 1232.36 146.299C1221.6 155.046 1208.53 160.472 1194.73 161.914L1187.3 90.8697L1115.88 92.1949Z" fill="#FF9257"/>
</g>
<g filter="url(#filter1_d_91_17375)">
<rect width="37.0115" height="245" transform="matrix(-1 0 0 1 244.006 824)" fill="#2B4E65"/>
<path d="M326.355 1100C326.355 1076.8 307.551 1058 284.355 1058H167.568C144.372 1058 125.568 1076.8 125.568 1100V1100H326.355V1100Z" fill="#2B4E65"/>
<path d="M225.5 864L16.3549 624.75H434.645L225.5 864Z" fill="#2B4E65"/>
<path d="M245.84 812.701C235.081 825.026 215.92 825.026 205.161 812.701L64.4348 651.5H386.566L245.84 812.701Z" fill="#75B5C5"/>
<rect width="31.1391" height="29.865" transform="matrix(-0.4519 -0.892068 -0.860634 0.509225 269.914 780.778)" fill="#ECF5FF"/>
<rect width="15.5695" height="14.9325" transform="matrix(-0.4519 -0.892068 -0.860634 0.509225 267.809 780.579)" fill="white"/>
<rect width="17.4805" height="16.7653" transform="matrix(0.4519 -0.892068 0.860634 0.509225 165.234 759.594)" fill="#ECF5FF"/>
<rect width="8.74027" height="8.38265" transform="matrix(0.4519 -0.892068 0.860634 0.509225 166.416 759.481)" fill="white"/>
<rect width="26.3929" height="25.313" transform="matrix(-0.4519 0.892068 -0.860634 -0.509225 230.127 790.89)" fill="#ECF5FF"/>
<rect width="13.1964" height="12.6565" transform="matrix(-0.4519 0.892068 -0.860634 -0.509225 228.342 791.06)" fill="white"/>
<path d="M65.8879 652H386.5L333.296 713.5H118.629L65.8879 652Z" fill="#9FD7E5"/>
<ellipse cx="13.4167" cy="14.5" rx="13.4167" ry="14.5" transform="matrix(-1 0 0 1 312.477 703)" fill="#9FD7E5"/>
<ellipse cx="7.4023" cy="8" rx="7.4023" ry="8" transform="matrix(-1 0 0 1 225.5 744)" fill="#9FD7E5"/>
<ellipse cx="4.16379" cy="4.5" rx="4.16379" ry="4.5" transform="matrix(-1 0 0 1 261.586 694)" fill="#75B5C5"/>
<ellipse cx="2.77586" cy="3" rx="2.77586" ry="3" transform="matrix(-1 0 0 1 152.402 688)" fill="#75B5C5"/>
<ellipse cx="7.4023" cy="8" rx="7.4023" ry="8" transform="matrix(-1 0 0 1 327.281 675)" fill="#75B5C5"/>
<ellipse cx="7.4023" cy="8" rx="7.4023" ry="8" transform="matrix(-1 0 0 1 215.322 706)" fill="#75B5C5"/>
<ellipse cx="4.62644" cy="5" rx="4.62644" ry="5" transform="matrix(-1 0 0 1 317.104 665)" fill="#75B5C5"/>
<ellipse cx="7.4023" cy="8" rx="7.4023" ry="8" transform="matrix(-1 0 0 1 152.402 706)" fill="#9FD7E5"/>
<ellipse cx="6.01437" cy="6.5" rx="6.01437" ry="6.5" transform="matrix(-1 0 0 1 158.879 714)" fill="#9FD7E5"/>
<ellipse cx="3.70115" cy="4" rx="3.70115" ry="4" transform="matrix(-1 0 0 1 204.219 766)" fill="#9FD7E5"/>
<ellipse cx="6.01437" cy="6.5" rx="6.01437" ry="6.5" transform="matrix(-1 0 0 1 285.645 719)" fill="#9FD7E5"/>
<ellipse cx="6.93966" cy="7.5" rx="6.93966" ry="7.5" transform="matrix(-1 0 0 1 307.85 709)" fill="#C4F3FF"/>
<ellipse cx="4.16379" cy="4.5" rx="4.16379" ry="4.5" transform="matrix(-1 0 0 1 324.506 678)" fill="#C4F3FF"/>
<ellipse cx="3.23851" cy="3.5" rx="3.23851" ry="3.5" transform="matrix(-1 0 0 1 222.725 749)" fill="#C4F3FF"/>
<ellipse cx="2.31322" cy="2.5" rx="2.31322" ry="2.5" transform="matrix(-1 0 0 1 203.293 767)" fill="#C4F3FF"/>
<ellipse cx="3.23851" cy="3.5" rx="3.23851" ry="3.5" transform="matrix(-1 0 0 1 210.695 712)" fill="#C4F3FF"/>
<ellipse cx="3.23851" cy="3.5" rx="3.23851" ry="3.5" transform="matrix(-1 0 0 1 113.541 661)" fill="#C4F3FF"/>
<ellipse cx="3.23851" cy="3.5" rx="3.23851" ry="3.5" transform="matrix(-1 0 0 1 146.852 710)" fill="#C4F3FF"/>
<path d="M237.772 745.141C220.27 751.525 182.518 748.977 177.677 733.471C172.835 717.964 202.736 695.371 220.238 688.988C237.74 682.605 249.582 692.731 254.424 708.237C259.266 723.743 255.274 738.758 237.772 745.141Z" fill="#EC4846" fill-opacity="0.7"/>
<path d="M233.899 732.16C216.397 738.543 182.145 745.731 177.304 730.225C172.462 714.718 202.363 692.125 219.865 685.742C237.367 679.359 249.209 689.485 254.051 704.991C258.893 720.497 251.401 725.777 233.899 732.16Z" fill="#E06361" fill-opacity="0.7"/>
<ellipse cx="11.2199" cy="3.2023" rx="11.2199" ry="3.2023" transform="matrix(0.248688 1.00366 -0.926887 0.26825 251.881 695.378)" fill="#EC4846" fill-opacity="0.7"/>
<path d="M258.045 701.195C254.991 704.42 250.567 708.295 250.111 707.79C249.654 707.286 253.889 697.191 256.942 693.965C259.996 690.74 267.919 687.992 268.375 688.497C268.831 689.001 261.098 697.97 258.045 701.195Z" fill="#B4CB4B" fill-opacity="0.7"/>
<path d="M260.347 707.164C256.271 708.538 250.7 709.816 250.506 709.143C250.311 708.469 258.328 701.556 262.404 700.182C266.481 698.809 274.693 700.252 274.888 700.926C275.082 701.599 264.423 705.79 260.347 707.164Z" fill="#B4CB4B" fill-opacity="0.7"/>
<path d="M260.602 713.541C256.662 711.762 251.226 709.928 250.975 710.579C250.723 711.23 258.108 718.921 262.048 720.7C265.988 722.478 274.289 721.869 274.541 721.218C274.793 720.568 264.542 715.32 260.602 713.541Z" fill="#B4CB4B" fill-opacity="0.7"/>
<path d="M260.951 705.731C256.725 706.383 251.186 707.815 251.278 708.513C251.37 709.211 261.358 711.732 265.585 711.081C269.811 710.429 276.654 705.313 276.562 704.614C276.47 703.916 265.178 705.08 260.951 705.731Z" fill="#B4CB4B" fill-opacity="0.7"/>
<path d="M254.841 700.872C253.35 705.196 250.873 710.738 250.261 710.491C249.649 710.245 249.503 699.162 250.995 694.838C252.487 690.514 258.573 684.382 259.185 684.629C259.797 684.875 256.333 696.549 254.841 700.872Z" fill="#A8C03C" fill-opacity="0.7"/>
<path d="M259.223 705.631C255.469 707.83 250.232 710.248 249.921 709.627C249.61 709.007 256.24 700.55 259.994 698.351C263.748 696.152 272.064 695.854 272.375 696.474C272.686 697.094 262.977 703.432 259.223 705.631Z" fill="#A8C03C" fill-opacity="0.7"/>
<path d="M259.35 714.952C255.803 712.384 250.797 709.45 250.434 710.036C250.071 710.622 255.942 719.71 259.489 722.278C263.037 724.846 271.291 725.982 271.654 725.396C272.017 724.81 262.898 717.52 259.35 714.952Z" fill="#A8C03C" fill-opacity="0.7"/>
<path d="M259.843 709.058C255.579 708.815 249.889 709.063 249.855 709.768C249.82 710.472 259.169 715.031 263.433 715.274C267.696 715.518 275.325 711.927 275.359 711.222C275.394 710.518 264.107 709.301 259.843 709.058Z" fill="#A8C03C" fill-opacity="0.7"/>
<ellipse cx="1.17322" cy="2.39912" rx="1.17322" ry="2.39912" transform="matrix(0.518097 0.887415 -0.803748 0.548089 221.936 690.77)" fill="#FFEFAE" fill-opacity="0.7"/>
<ellipse cx="1.07905" cy="2.35601" rx="1.07905" ry="2.35601" transform="matrix(0.480824 0.910037 -0.781313 0.582805 205.535 699.662)" fill="#FFEFAE" fill-opacity="0.7"/>
<ellipse cx="1.17688" cy="2.39194" rx="1.17688" ry="2.39194" transform="matrix(0.429589 0.937359 -0.854189 0.457244 229.125 706.959)" fill="#FFEFAE" fill-opacity="0.7"/>
<ellipse cx="1.09359" cy="2.32898" rx="1.09359" ry="2.32898" transform="matrix(0.385454 0.957667 -0.832039 0.499672 211.508 715.043)" fill="#FFEFAE" fill-opacity="0.7"/>
<ellipse cx="1.09359" cy="2.32898" rx="1.09359" ry="2.32898" transform="matrix(0.385454 0.957667 -0.832039 0.499672 194.162 713.095)" fill="#FFEFAE" fill-opacity="0.7"/>
<ellipse cx="1.18224" cy="2.38132" rx="1.18224" ry="2.38132" transform="matrix(0.306948 0.987041 -0.907585 0.329659 237.025 725.477)" fill="#FFEFAE" fill-opacity="0.7"/>
<ellipse cx="1.18224" cy="2.38132" rx="1.18224" ry="2.38132" transform="matrix(0.306948 0.987041 -0.907585 0.329659 240.686 737.72)" fill="#D8C578" fill-opacity="0.7"/>
<ellipse cx="1.19227" cy="2.36121" rx="1.19227" ry="2.36121" transform="matrix(0.0755316 1.02931 -0.962608 0.0825051 221.051 743.563)" fill="#D8C578" fill-opacity="0.7"/>
<ellipse cx="1.19476" cy="2.35615" rx="1.19476" ry="2.35615" transform="matrix(0.0133856 1.03028 -0.967607 0.0146835 202.023 743.211)" fill="#D8C578" fill-opacity="0.7"/>
<ellipse cx="1.11464" cy="2.28865" rx="1.11464" ry="2.28865" transform="matrix(0.257242 1.00149 -0.888781 0.379932 218.041 732.652)" fill="#FFEFAE" fill-opacity="0.7"/>
<ellipse cx="1.11464" cy="2.28865" rx="1.11464" ry="2.28865" transform="matrix(0.257242 1.00149 -0.888781 0.379932 200.693 730.703)" fill="#FFEFAE" fill-opacity="0.7"/>
<ellipse cx="1.11464" cy="2.28865" rx="1.11464" ry="2.28865" transform="matrix(0.257242 1.00149 -0.888781 0.379932 185.891 727.092)" fill="#FFEFAE" fill-opacity="0.7"/>
</g>
<path d="M978.72 486.2V480.12L973.68 477.24V466.12L978.72 463.28V457.24L989.32 451.56L994.68 454.4L999.96 451.56L1010.56 457.24V463.28L1015.52 466.12V477.24L1010.56 480.12V486.2L999.96 491.84L994.68 489L989.32 491.84L978.72 486.2ZM980.32 484.8L989.84 489.84L994.68 487.2L999.4 489.84L1008.92 484.8V479.24L1013.48 476.68V466.72L1008.92 464.08V458.64L999.4 453.6L994.68 456.16L989.84 453.6L980.32 458.64V464.08L975.76 466.72V476.68L980.32 479.24V484.8ZM981.68 483.44V478.6L977.72 476.2V467.2L981.68 464.88V459.96L990.28 455.4L994.68 457.76L998.96 455.4L1007.52 459.96V464.88L1011.52 467.2V476.2L1007.52 478.6V483.44L998.96 488L994.68 485.68L990.28 488L981.68 483.44ZM989.88 482.36H991.6V473.24H1000.72V471.64H991.6V463.96H999.56C1000.01 463.96 1000.32 464.053 1000.48 464.24C1000.64 464.4 1000.72 464.693 1000.72 465.12V466.8H1002.4V464.64C1002.4 463.84 1002.23 463.267 1001.88 462.92C1001.53 462.547 1000.93 462.36 1000.08 462.36H987.28V463.96H989.88V482.36Z" fill="#FFB9D6"/>
<path d="M987.2 364.64C987.413 365.947 987.52 367.053 987.52 367.96V373H983.12V344.6H988.2V356.68C988.2 358.04 988.427 359.08 988.88 359.8C989.333 360.493 990.147 360.84 991.32 360.84C993.107 360.84 994.507 360.173 995.52 358.84C996.533 357.507 997.04 355.88 997.04 353.96V344.6H1002.12V365H997.24V362.52L997.32 361.24H997.2C997.147 361.347 997.067 361.507 996.96 361.72C996.88 361.907 996.64 362.24 996.24 362.72C995.84 363.2 995.4 363.627 994.92 364C994.44 364.373 993.773 364.707 992.92 365C992.067 365.32 991.147 365.48 990.16 365.48C988.907 365.48 987.947 365.2 987.28 364.64H987.2Z" fill="#FFB9D6"/>
<path d="M1057.76 538.24V533.52C1059.89 533.333 1061.41 532.08 1062.32 529.76C1063.25 527.413 1063.72 523.667 1063.72 518.52V509.6H1080.56V520.76H1085.8C1088.49 520.76 1090.67 521.56 1092.32 523.16C1094 524.733 1094.84 526.813 1094.84 529.4C1094.84 531.96 1094 534.04 1092.32 535.64C1090.64 537.213 1088.49 538 1085.88 538H1075.44V514.04H1068.92V518.52C1068.92 521.693 1068.76 524.387 1068.44 526.6C1068.15 528.813 1067.6 530.827 1066.8 532.64C1066 534.427 1064.85 535.787 1063.36 536.72C1061.87 537.627 1060 538.133 1057.76 538.24ZM1080.56 533.56H1085C1086.41 533.56 1087.53 533.187 1088.36 532.44C1089.19 531.693 1089.6 530.68 1089.6 529.4C1089.6 528.12 1089.17 527.107 1088.32 526.36C1087.49 525.587 1086.36 525.2 1084.92 525.2H1080.56V533.56Z" fill="#FFB9D6"/>
<path d="M1033.08 409.4C1033.08 405.24 1034.52 401.72 1037.4 398.84C1040.31 395.933 1043.88 394.48 1048.12 394.48C1051.93 394.48 1054.72 395.293 1056.48 396.92C1058.24 398.547 1059.12 400.64 1059.12 403.2V413.2H1062.04V416.84H1050.96C1048.37 416.84 1046.29 416.107 1044.72 414.64C1043.15 413.173 1042.36 411.427 1042.36 409.4C1042.36 407.4 1043.13 405.68 1044.68 404.24C1046.25 402.8 1048.35 402.08 1050.96 402.08H1054.36C1054.33 401.04 1053.75 400.2 1052.6 399.56C1051.48 398.893 1050.04 398.56 1048.28 398.56C1045.43 398.56 1043.01 399.64 1041.04 401.8C1039.07 403.96 1038.08 406.493 1038.08 409.4C1038.08 412.413 1039.07 414.96 1041.04 417.04C1043.04 419.093 1045.68 420.12 1048.96 420.12V424.08C1044.27 424.08 1040.44 422.68 1037.48 419.88C1034.55 417.08 1033.08 413.587 1033.08 409.4ZM1048.52 406.52C1047.8 407.267 1047.44 408.187 1047.44 409.28C1047.44 410.373 1047.79 411.307 1048.48 412.08C1049.2 412.827 1050.13 413.2 1051.28 413.2H1054.36V405.36H1051.36C1050.19 405.36 1049.24 405.747 1048.52 406.52Z" fill="#FFB9D6"/>
<path d="M1058.56 300.56V297.48H1065.08V296.16L1064.08 294.24H1058.56V291.2H1062.52L1056.36 279.6H1062.24L1065.96 287.2L1067.68 291.76H1067.76C1068.29 290.187 1068.87 288.667 1069.48 287.2L1073.2 279.6H1079.08L1072.92 291.2H1076.84V294.24H1071.36L1070.32 296.16V297.48H1076.84V300.56H1070.32V308H1065.08V300.56H1058.56Z" fill="#DF85AA"/>
<path d="M996.08 319.168C996.08 317.984 996.256 316.888 996.608 315.88C996.976 314.856 997.456 314.008 998.048 313.336C998.64 312.664 999.24 312.112 999.848 311.68C1000.47 311.248 1001.1 310.912 1001.74 310.672L1003.02 313.456C1001.98 313.904 1001.08 314.624 1000.33 315.616C999.576 316.592 999.2 317.816 999.2 319.288C999.2 321 999.704 322.456 1000.71 323.656C1001.72 324.856 1003.16 325.456 1005.03 325.456C1005.66 325.456 1006.31 325.376 1007 325.216C1004.79 323.328 1003.69 320.968 1003.69 318.136C1003.69 315.992 1004.3 314.264 1005.51 312.952C1006.73 311.624 1008.24 310.96 1010.05 310.96C1011.92 310.96 1013.42 311.608 1014.56 312.904C1015.7 314.184 1016.26 315.84 1016.26 317.872C1016.26 319.216 1015.94 320.536 1015.3 321.832C1014.66 323.112 1013.78 324.256 1012.66 325.264C1013.34 325.408 1014.06 325.48 1014.85 325.48H1016.07V328H1014.8C1013.12 328 1011.53 327.688 1010.02 327.064C1008.39 327.88 1006.71 328.288 1004.98 328.288C1002.39 328.288 1000.26 327.456 998.576 325.792C996.912 324.112 996.08 321.904 996.08 319.168ZM1006.88 318.088C1006.88 320.648 1007.82 322.608 1009.71 323.968C1010.74 323.248 1011.55 322.352 1012.16 321.28C1012.77 320.192 1013.07 319.064 1013.07 317.896C1013.07 316.632 1012.79 315.632 1012.23 314.896C1011.67 314.16 1010.94 313.792 1010.02 313.792C1009.16 313.792 1008.42 314.16 1007.79 314.896C1007.18 315.632 1006.88 316.696 1006.88 318.088Z" fill="#DF85AA"/>
<path d="M1130.26 312.288V310.224C1128.74 309.968 1127.51 309.216 1126.57 307.968C1125.64 306.72 1125.18 305.224 1125.18 303.48C1125.18 301.736 1125.64 300.24 1126.57 298.992C1127.51 297.728 1128.74 296.968 1130.26 296.712V294.696H1132.33V296.712C1133.38 296.904 1134.31 297.344 1135.11 298.032C1135.91 298.72 1136.5 299.576 1136.89 300.6L1134.15 301.656C1133.58 300.232 1132.65 299.52 1131.37 299.52C1130.44 299.52 1129.69 299.896 1129.11 300.648C1128.54 301.384 1128.25 302.328 1128.25 303.48C1128.25 304.68 1128.53 305.64 1129.09 306.36C1129.65 307.08 1130.41 307.44 1131.37 307.44C1132.65 307.44 1133.58 306.728 1134.15 305.304L1136.89 306.36C1136.49 307.336 1135.9 308.192 1135.11 308.928C1134.34 309.664 1133.42 310.096 1132.33 310.224V312.288H1130.26Z" fill="#DF85AA"/>
<path d="M1100 591.68C1098.85 591.68 1097.85 591.333 1097 590.64C1096.15 589.92 1095.72 588.96 1095.72 587.76C1095.72 584.827 1098.19 583.36 1103.12 583.36H1103.48V583.08C1103.48 581.693 1102.71 581 1101.16 581C1100.12 581 1099.03 581.36 1097.88 582.08L1096.6 579.72C1097.93 578.707 1099.64 578.2 1101.72 578.2C1103.45 578.2 1104.77 578.667 1105.68 579.6C1106.61 580.507 1107.08 581.773 1107.08 583.4V591.44H1103.72V589.68H1103.64C1103.35 590.267 1102.87 590.747 1102.2 591.12C1101.56 591.493 1100.83 591.68 1100 591.68ZM1100.92 588.88C1101.64 588.88 1102.24 588.587 1102.72 588C1103.2 587.413 1103.44 586.747 1103.44 586V585.72H1103C1100.55 585.72 1099.32 586.32 1099.32 587.52C1099.32 587.92 1099.47 588.253 1099.76 588.52C1100.05 588.76 1100.44 588.88 1100.92 588.88ZM1095.76 596.36V593.64H1107.2V596.36H1095.76Z" fill="#FFB9D6"/>
<path d="M1109.48 439.44V435.52H1129.04V447.28H1124.92V439.44H1109.48Z" fill="#FFB9D6"/>
<path d="M115.12 694.24L123 685.56L115.12 676.92L117.92 674.12L125.68 682.64L133.48 674.12L136.28 676.92L128.36 685.56L136.28 694.24L133.48 697L125.68 688.48L117.92 697L115.12 694.24Z" fill="#68ADBE"/>
<path d="M186.148 681.032L183.52 668.648C183.352 668 183.268 667.316 183.268 666.596C183.268 664.652 183.916 663.068 185.212 661.844C186.532 660.62 188.344 660.008 190.648 660.008C193.048 660.008 195.052 660.752 196.66 662.24L194.608 665.156C193.48 664.22 192.172 663.752 190.684 663.752C189.58 663.752 188.68 664.028 187.984 664.58C187.312 665.132 186.976 665.984 186.976 667.136C186.976 667.688 187.06 668.288 187.228 668.936L189.712 681.032H186.148ZM182.584 686.036L184.528 682.94C185.728 683.996 187.084 684.524 188.596 684.524C189.676 684.524 190.564 684.224 191.26 683.624C191.956 683 192.304 682.088 192.304 680.888C192.304 680.312 192.196 679.628 191.98 678.836L189.568 667.208H193.168L195.724 679.592C195.892 680.264 195.976 680.948 195.976 681.644C195.976 683.588 195.316 685.172 193.996 686.396C192.7 687.62 190.9 688.232 188.596 688.232C186.196 688.232 184.192 687.5 182.584 686.036Z" fill="#68ADBE"/>
<path d="M276.88 703V685.144C276.88 682.888 277.612 681.04 279.076 679.6C280.54 678.16 282.424 677.44 284.728 677.44H296.104V680.644L291.784 687.16L290.956 688.276V688.348L291.64 688.384C293.296 688.6 294.628 689.404 295.636 690.796C296.668 692.188 297.184 693.736 297.184 695.44C297.184 697.552 296.416 699.34 294.88 700.804C293.368 702.268 291.532 703 289.372 703H284.44V699.004H289.012C290.044 699.004 290.872 698.656 291.496 697.96C292.12 697.264 292.432 696.424 292.432 695.44C292.432 694.456 292.12 693.628 291.496 692.956C290.896 692.284 290.08 691.948 289.048 691.948H286.024V688.744L289.228 683.668C289.516 683.188 289.792 682.768 290.056 682.408C290.344 682.024 290.548 681.76 290.668 681.616L290.848 681.436V681.364C290.656 681.412 290.128 681.436 289.264 681.436H284.836C283.9 681.436 283.12 681.784 282.496 682.48C281.896 683.176 281.596 684.04 281.596 685.072V703H276.88Z" fill="#68ADBE"/>
<path d="M155.376 742V730.64H164.576V740.224H166.24V744.24H164.4V742H162.512V732.416H157.44V742H155.376Z" fill="#9FD7E5"/>
<path d="M285.207 738.721L291.146 735.917L295.517 738.507L295.943 745.084L292.33 742.942L292.261 739.135L292.193 739.095L288.82 740.862L285.207 738.721ZM269.681 754.953L270.517 753.542L274.922 756.153L274.249 757.288C273.596 758.389 273.316 759.463 273.409 760.51C273.501 761.557 274.086 762.4 275.165 763.039C276.105 763.596 277.05 763.754 278 763.511C278.95 763.268 279.792 762.527 280.527 761.288L288.419 747.971L282.088 744.219L284.352 740.399L295.088 746.762L284.89 763.967C283.408 766.468 281.523 767.923 279.234 768.333C276.981 768.734 274.823 768.323 272.758 767.099C270.671 765.862 269.269 764.148 268.553 761.956C267.837 759.765 268.213 757.431 269.681 754.953Z" fill="#9FD7E5"/>
<path d="M228.794 808.807C229.283 807.981 230.046 807.348 231.082 806.908C232.14 806.481 233.065 806.255 233.856 806.227L235.098 806.173L237.31 808.089C237.045 808.117 236.707 808.165 236.296 808.231C235.907 808.311 235.332 808.497 234.57 808.789C233.808 809.082 233.318 809.411 233.1 809.778C232.91 810.099 232.891 810.445 233.044 810.814C233.22 811.198 233.432 811.494 233.68 811.703L234.052 812.016L231.068 814.619C230.954 814.551 230.807 814.433 230.627 814.264C230.457 814.133 230.179 813.844 229.793 813.398C229.392 812.974 229.077 812.539 228.846 812.092C228.601 811.668 228.447 811.143 228.385 810.517C228.331 809.927 228.467 809.357 228.794 808.807Z" fill="#9FD7E5"/>
<path d="M340.16 677.48V673.56H345.12V667.56H340.16V663.6H345.12V655.6H350V663.6H355.04V667.56H350V673.56H355.04V677.48H350V686H345.12V677.48H340.16Z" fill="#68ADBE"/>
<g filter="url(#filter2_d_91_17375)">
<path d="M767.5 548.922H528.5L500.748 1007.53C498.174 1050.08 531.986 1086 574.613 1086H721.387C764.014 1086 797.826 1050.08 795.252 1007.53L767.5 548.922Z" fill="#C4DB5B" fill-opacity="0.2"/>
<path d="M736.839 617.811H559.161L539.748 938.641C537.174 981.19 570.986 1017.11 613.613 1017.11H682.387C725.014 1017.11 758.826 981.19 756.252 938.641L736.839 617.811Z" fill="#C4DB5B"/>
<path d="M559.242 617.811H736.919L749 817.461H547.161L559.242 617.811Z" fill="#E8FF80"/>
<rect width="39.525" height="42.9297" transform="matrix(-0.746987 -0.664838 -0.479816 0.877369 741 948.985)" fill="#ECF5FF"/>
<rect width="23.1589" height="25.1538" transform="matrix(-0.746987 -0.664838 -0.479816 0.877369 670 880.697)" fill="#ECF5FF"/>
<rect width="50.5647" height="54.9204" transform="matrix(0.746987 -0.664838 0.479816 0.877369 562.877 956.325)" fill="#ECF5FF"/>
<rect width="19.7625" height="21.4649" transform="matrix(-0.746987 -0.664838 -0.479816 0.877369 739.035 950.348)" fill="white"/>
<rect width="25.2823" height="27.4602" transform="matrix(0.746987 -0.664838 0.479816 0.877369 565.391 958.068)" fill="white"/>
<ellipse cx="14" cy="17.8601" rx="14" ry="17.8601" transform="matrix(-1 0 0 1 749 805.342)" fill="#E8FF80"/>
<ellipse cx="7" cy="8.93004" rx="7" ry="8.93004" transform="matrix(-1 0 0 1 693 571.885)" fill="#E8FF80"/>
<ellipse cx="16" cy="20.4115" rx="16" ry="20.4115" transform="matrix(-1 0 0 1 629 805.342)" fill="#E8FF80"/>
<ellipse cx="9.5" cy="12.1193" rx="9.5" ry="12.1193" transform="matrix(-1 0 0 1 608 827.029)" fill="#E8FF80"/>
<ellipse cx="9.5" cy="12.1193" rx="9.5" ry="12.1193" transform="matrix(-1 0 0 1 693 857.646)" fill="#E8FF80"/>
<ellipse cx="6.5" cy="8.29218" rx="6.5" ry="8.29218" transform="matrix(-1 0 0 1 696 872.955)" fill="#E8FF80"/>
<ellipse cx="5" cy="6.3786" rx="5" ry="6.3786" transform="matrix(-1 0 0 1 690 858.922)" fill="#F1FFB3"/>
<ellipse cx="3.5" cy="4.46502" rx="3.5" ry="4.46502" transform="matrix(-1 0 0 1 695 876.782)" fill="#F1FFB3"/>
<ellipse cx="5.5" cy="7.01646" rx="5.5" ry="7.01646" transform="matrix(-1 0 0 1 736 820.65)" fill="#F1FFB3"/>
<ellipse cx="8" cy="10.2058" rx="8" ry="10.2058" transform="matrix(-1 0 0 1 626 816.823)" fill="#F1FFB3"/>
<ellipse cx="4" cy="5.10288" rx="4" ry="5.10288" transform="matrix(-1 0 0 1 600 835.959)" fill="#F1FFB3"/>
<ellipse cx="4" cy="5.10288" rx="4" ry="5.10288" transform="matrix(-1 0 0 1 708 779.827)" fill="#C4DB5B"/>
<ellipse cx="7.5" cy="9.5679" rx="7.5" ry="9.5679" transform="matrix(-1 0 0 1 695 795.136)" fill="#C4DB5B"/>
<ellipse cx="5" cy="6.3786" rx="5" ry="6.3786" transform="matrix(-1 0 0 1 585 598.675)" fill="#C4DB5B"/>
<ellipse cx="3" cy="3.82716" rx="3" ry="3.82716" transform="matrix(-1 0 0 1 629 736.452)" fill="#C4DB5B"/>
<ellipse cx="3" cy="3.82716" rx="3" ry="3.82716" transform="matrix(-1 0 0 1 661 598.675)" fill="#C4DB5B"/>
<ellipse cx="3" cy="3.82716" rx="3" ry="3.82716" transform="matrix(-1 0 0 1 585 802.79)" fill="#C4DB5B"/>
<ellipse cx="1.5" cy="1.91358" rx="1.5" ry="1.91358" transform="matrix(-1 0 0 1 599 776)" fill="#C4DB5B"/>
<ellipse cx="3" cy="3.82716" rx="3" ry="3.82716" transform="matrix(-1 0 0 1 644 798.963)" fill="#C4DB5B"/>
<ellipse cx="3" cy="3.82716" rx="3" ry="3.82716" transform="matrix(-1 0 0 1 733 598.675)" fill="#C4DB5B"/>
<ellipse cx="3" cy="3.82716" rx="3" ry="3.82716" transform="matrix(-1 0 0 1 719 622.914)" fill="#C4DB5B"/>
<path d="M588.498 547.916C588.442 533.893 585.209 520.19 579.189 508.458C573.169 496.725 564.618 487.464 554.566 481.789C544.514 476.114 533.391 474.268 522.535 476.473C511.68 478.678 501.556 484.84 493.383 494.217C485.21 503.594 479.337 515.786 476.47 529.323C473.604 542.861 473.867 557.167 477.228 570.518C480.589 583.869 486.905 595.696 495.414 604.574C503.923 613.451 514.262 619 525.186 620.553L531.499 548.284L588.498 547.916Z" fill="#B9CC60"/>
<path d="M583.187 548.054C583.136 535.318 580.2 522.873 574.732 512.217C569.264 501.561 561.498 493.149 552.368 487.995C543.239 482.841 533.136 481.164 523.277 483.167C513.418 485.17 504.223 490.766 496.8 499.283C489.377 507.799 484.042 518.872 481.439 531.168C478.836 543.463 479.075 556.456 482.128 568.582C485.18 580.708 490.916 591.45 498.644 599.513C506.372 607.575 515.763 612.615 525.685 614.026L531.418 548.389L583.187 548.054Z" fill="#EFFFA8"/>
<path d="M581.444 546.513C581.396 534.259 578.571 522.285 573.31 512.032C568.049 501.78 560.577 493.686 551.793 488.727C543.009 483.768 533.289 482.155 523.803 484.082C514.317 486.009 505.47 491.394 498.328 499.588C491.186 507.782 486.054 518.436 483.549 530.266C481.044 542.095 481.274 554.597 484.211 566.264C487.148 577.931 492.667 588.266 500.103 596.023C507.538 603.781 516.573 608.63 526.12 609.987L531.635 546.835L581.444 546.513Z" fill="#E8FF80"/>
</g>
<path d="M702.52 703.52C702.52 701.013 703.36 698.867 705.04 697.08C706.747 695.293 709.04 694.4 711.92 694.4C712.667 694.4 713.373 694.507 714.04 694.72C714.733 694.907 715.24 695.093 715.56 695.28L716 695.56H716.08C715.36 693.88 714.107 692.467 712.32 691.32L704.92 694.52L704.68 691.52L709.12 689.56C707.813 688.92 706.28 688.387 704.52 687.96L705.92 683.96C709.227 684.68 712.12 685.787 714.6 687.28L720.48 684.76L720.72 687.72L717.2 689.28C720.853 692.48 722.68 696.68 722.68 701.88C722.68 703.32 722.48 704.707 722.08 706.04C721.707 707.347 721.12 708.573 720.32 709.72C719.547 710.867 718.467 711.787 717.08 712.48C715.693 713.147 714.093 713.48 712.28 713.48C709.32 713.48 706.947 712.493 705.16 710.52C703.4 708.547 702.52 706.213 702.52 703.52ZM707.68 703.64C707.68 705.16 708.08 706.467 708.88 707.56C709.707 708.653 710.88 709.2 712.4 709.2C714.107 709.2 715.387 708.56 716.24 707.28C717.12 706 717.56 704.507 717.56 702.8C717.56 701.493 717.133 700.427 716.28 699.6C715.427 698.773 714.28 698.36 712.84 698.36C711.187 698.36 709.907 698.88 709 699.92C708.12 700.933 707.68 702.173 707.68 703.64Z" fill="#98AF32"/>
<path d="M566.8 789.16L568.32 787C565.76 784.973 564.48 782.24 564.48 778.8C564.48 775.707 565.56 773.16 567.72 771.16C569.88 769.133 572.533 768.12 575.68 768.12C577.573 768.12 579.347 768.533 581 769.36L582.64 767.12L584.84 768.64L583.24 770.8C585.693 772.853 586.92 775.52 586.92 778.8C586.92 781.893 585.84 784.453 583.68 786.48C581.52 788.48 578.853 789.48 575.68 789.48C573.84 789.48 572.16 789.12 570.64 788.4L569 790.72L566.8 789.16ZM571.16 783.04L578.36 773.08C577.507 772.653 576.613 772.44 575.68 772.44C574 772.44 572.573 773.04 571.4 774.24C570.227 775.44 569.64 776.96 569.64 778.8C569.64 780.48 570.147 781.893 571.16 783.04ZM573.32 784.68C574.04 785 574.827 785.16 575.68 785.16C577.387 785.16 578.827 784.573 580 783.4C581.173 782.2 581.76 780.667 581.76 778.8C581.76 777.28 581.307 775.96 580.4 774.84L573.32 784.68Z" fill="#98AF32"/>
<path d="M577.16 677.12C577.16 672.507 581.187 670.2 589.24 670.2H589.92V669.92C589.92 667.52 588.6 666.32 585.96 666.32C584.093 666.32 582.227 666.973 580.36 668.28L578.48 664.68C579.36 663.933 580.52 663.32 581.96 662.84C583.427 662.36 584.88 662.12 586.32 662.12C589.493 662.12 591.707 663.12 592.96 665.12H593.04C594.667 663.12 596.933 662.12 599.84 662.12C602.613 662.12 604.8 663.04 606.4 664.88C608.027 666.72 608.84 669.04 608.84 671.84C608.84 672.08 608.813 672.427 608.76 672.88C608.733 673.333 608.72 673.613 608.72 673.72H594.76C594.92 675.48 595.547 676.827 596.64 677.76C597.76 678.693 599.133 679.16 600.76 679.16C602.893 679.16 604.853 678.427 606.64 676.96L608.6 680.56C607.64 681.44 606.4 682.147 604.88 682.68C603.36 683.213 601.867 683.48 600.4 683.48C596.507 683.48 593.667 681.987 591.88 679H591.8C591.64 679.347 591.4 679.72 591.08 680.12C590.787 680.52 590.333 681 589.72 681.56C589.133 682.093 588.347 682.547 587.36 682.92C586.373 683.267 585.293 683.44 584.12 683.44C582.173 683.44 580.52 682.867 579.16 681.72C577.827 680.573 577.16 679.04 577.16 677.12ZM594.92 670.2H603.72C603.693 668.947 603.293 667.947 602.52 667.2C601.773 666.453 600.867 666.08 599.8 666.08C598.493 666.08 597.413 666.44 596.56 667.16C595.733 667.88 595.187 668.893 594.92 670.2ZM582.28 676.88C582.28 677.627 582.547 678.253 583.08 678.76C583.613 679.267 584.387 679.52 585.4 679.52C586.707 679.52 587.8 678.96 588.68 677.84C589.56 676.693 590 675.453 590 674.12V673.72H588.56C587.493 673.72 586.533 673.8 585.68 673.96C584.827 674.093 584.04 674.413 583.32 674.92C582.627 675.427 582.28 676.08 582.28 676.88Z" fill="#98AF32"/>
<path d="M644.48 757.12L642.48 754.16C644.507 752.133 646.6 751.12 648.76 751.12C650.093 751.12 651.52 751.587 653.04 752.52C654.587 753.453 655.8 753.92 656.68 753.92C658.227 753.92 659.653 753.187 660.96 751.72L662.92 754.72C660.947 756.747 658.867 757.76 656.68 757.76C655.347 757.76 653.907 757.293 652.36 756.36C650.84 755.427 649.64 754.96 648.76 754.96C647.293 754.96 645.867 755.68 644.48 757.12ZM644.48 765.32L642.48 762.32C644.533 760.32 646.627 759.32 648.76 759.32C650.093 759.32 651.52 759.787 653.04 760.72C654.587 761.653 655.8 762.12 656.68 762.12C658.227 762.12 659.653 761.387 660.96 759.92L662.92 762.92C660.92 764.92 658.84 765.92 656.68 765.92C655.347 765.92 653.907 765.453 652.36 764.52C650.84 763.587 649.64 763.12 648.76 763.12C647.32 763.12 645.893 763.853 644.48 765.32Z" fill="#98AF32"/>
<path d="M572.84 906V894.36C570.253 894.36 568.04 893.453 566.2 891.64C564.36 889.8 563.44 887.573 563.44 884.96C563.44 882.347 564.36 880.133 566.2 878.32C568.04 876.507 570.253 875.6 572.84 875.6H585.04V880.04H576.52V906H572.84ZM579 906V882.24H582.72V906H579Z" fill="#EFFFA6"/>
<path d="M653.68 990.24V985.28L656.24 983.84V971.6H661.28V980.92L664.4 979.12V984.08L661.28 985.88V992.88C661.28 993.947 661.44 994.68 661.76 995.08C662.107 995.48 662.64 995.68 663.36 995.68L664.12 995.64V1000.08C663.64 1000.16 663.107 1000.2 662.52 1000.2C661.693 1000.2 660.96 1000.13 660.32 1000C659.68 999.84 659.027 999.56 658.36 999.16C657.693 998.733 657.173 998.053 656.8 997.12C656.427 996.187 656.24 995.027 656.24 993.64V988.8L653.68 990.24Z" fill="#EFFFA6"/>
<path d="M731.6 906.72C730.24 908 728.573 908.64 726.6 908.64C724.627 908.64 722.96 908 721.6 906.72C720.24 905.44 719.56 903.827 719.56 901.88C719.56 899.96 720.24 898.373 721.6 897.12C722.96 895.84 724.613 895.2 726.56 895.2C728.56 895.2 730.24 895.827 731.6 897.08C732.96 898.333 733.64 899.933 733.64 901.88C733.64 903.827 732.96 905.44 731.6 906.72ZM726.6 905.44C727.533 905.44 728.32 905.107 728.96 904.44C729.627 903.773 729.96 902.92 729.96 901.88C729.96 900.867 729.627 900.027 728.96 899.36C728.32 898.693 727.533 898.36 726.6 898.36C725.64 898.36 724.827 898.693 724.16 899.36C723.52 900.027 723.2 900.867 723.2 901.88C723.2 902.92 723.52 903.773 724.16 904.44C724.827 905.107 725.64 905.44 726.6 905.44ZM720.16 913.36V910.64H733.08V913.36H720.16Z" fill="#EFFFA6"/>
<defs>
<filter id="filter0_d_91_17375" x="907" y="10.7568" width="413.244" height="1095.24" filterUnits="userSpaceOnUse" color-interpolation-filters="sRGB">
<feFlood flood-opacity="0" result="BackgroundImageFix"/>
<feColorMatrix in="SourceAlpha" type="matrix" values="0 0 0 0 0 0 0 0 0 0 0 0 0 0 0 0 0 0 127 0" result="hardAlpha"/>
<feOffset dx="51" dy="24"/>
<feComposite in2="hardAlpha" operator="out"/>
<feColorMatrix type="matrix" values="0 0 0 0 0.0745098 0 0 0 0 0.176471 0 0 0 0 0.266667 0 0 0 1 0"/>
<feBlend mode="normal" in2="BackgroundImageFix" result="effect1_dropShadow_91_17375"/>
<feBlend mode="normal" in="SourceGraphic" in2="effect1_dropShadow_91_17375" result="shape"/>
</filter>
<filter id="filter1_d_91_17375" x="16.3555" y="624.75" width="469.289" height="499.25" filterUnits="userSpaceOnUse" color-interpolation-filters="sRGB">
<feFlood flood-opacity="0" result="BackgroundImageFix"/>
<feColorMatrix in="SourceAlpha" type="matrix" values="0 0 0 0 0 0 0 0 0 0 0 0 0 0 0 0 0 0 127 0" result="hardAlpha"/>
<feOffset dx="51" dy="24"/>
<feComposite in2="hardAlpha" operator="out"/>
<feColorMatrix type="matrix" values="0 0 0 0 0.0745098 0 0 0 0 0.176471 0 0 0 0 0.266667 0 0 0 1 0"/>
<feBlend mode="normal" in2="BackgroundImageFix" result="effect1_dropShadow_91_17375"/>
<feBlend mode="normal" in="SourceGraphic" in2="effect1_dropShadow_91_17375" result="shape"/>
</filter>
<filter id="filter2_d_91_17375" x="474.498" y="475.568" width="371.891" height="634.432" filterUnits="userSpaceOnUse" color-interpolation-filters="sRGB">
<feFlood flood-opacity="0" result="BackgroundImageFix"/>
<feColorMatrix in="SourceAlpha" type="matrix" values="0 0 0 0 0 0 0 0 0 0 0 0 0 0 0 0 0 0 127 0" result="hardAlpha"/>
<feOffset dx="51" dy="24"/>
<feComposite in2="hardAlpha" operator="out"/>
<feColorMatrix type="matrix" values="0 0 0 0 0.0745098 0 0 0 0 0.176471 0 0 0 0 0.266667 0 0 0 1 0"/>
<feBlend mode="normal" in2="BackgroundImageFix" result="effect1_dropShadow_91_17375"/>
<feBlend mode="normal" in="SourceGraphic" in2="effect1_dropShadow_91_17375" result="shape"/>
</filter>
</defs>
</svg>
