<svg width="1280" height="1069" viewBox="0 0 1280 1069" fill="none" xmlns="http://www.w3.org/2000/svg">
<rect x="104" y="18" width="1163" height="553" fill="#0E253A"/>
<g filter="url(#filter0_d_91_17324)">
<rect x="614.529" y="350.035" width="98.4163" height="15.6109" transform="rotate(16.9575 614.529 350.035)" fill="#E9B6B6"/>
<rect x="613.109" y="349.716" width="47.276" height="15.6109" transform="rotate(16.9575 613.109 349.716)" fill="#94A934"/>
<path d="M669.488 224.313C676.14 213.396 690.447 226.2 696.588 233.853C684.875 237.286 676.692 239.481 657.805 244.134C649.525 246.558 634.61 240.387 628.367 229.437C622.174 218.573 643.762 206.374 640.916 210.865C634.147 221.548 657.543 243.918 669.488 224.313Z" fill="#E68DB1"/>
<path d="M665.158 234.477C671.81 223.56 686.117 236.364 692.257 244.017C680.545 247.45 672.362 249.645 653.475 254.298C645.195 256.722 630.279 250.551 624.037 239.601C617.844 228.737 639.432 216.538 636.586 221.029C629.817 231.713 653.213 254.082 665.158 234.477Z" fill="#E57AA5"/>
<path d="M689.392 294.002C704.804 297.221 720.124 286.297 723.611 269.601L689.392 294.002Z" fill="#E57AA5"/>
<rect x="672.988" y="278.267" width="16.2896" height="8.14479" transform="rotate(33.6952 672.988 278.267)" fill="#E9B6B6"/>
<circle cx="693.698" cy="261.891" r="28.5068" transform="rotate(33.6952 693.698 261.891)" fill="#E7C5C5"/>
<path d="M668.793 296.795L734.244 304.572C736.913 304.889 738.819 307.309 738.502 309.978V309.978C738.185 312.647 735.764 314.553 733.096 314.236L667.645 306.459L668.793 296.795Z" fill="#E9B6B6"/>
<path d="M712.243 238.362C698.052 228.9 679.468 231.848 670.734 244.947L722.122 279.213C730.857 266.114 726.433 247.824 712.243 238.362Z" fill="#E68DB1"/>
<path d="M667.181 280.823C658.284 267.834 662.48 249.491 676.551 239.853L667.181 280.823Z" fill="#E68DB1"/>
<path d="M653.283 282.128C655.121 279.371 658.846 278.626 661.603 280.464L688.325 298.282C691.082 300.121 691.827 303.846 689.989 306.603L649.638 367.117L612.932 342.642L653.283 282.128Z" fill="#E7C5C5"/>
<path d="M665.08 289.48L632.738 232.049C631.42 229.708 628.452 228.878 626.111 230.197V230.197C623.769 231.516 622.94 234.483 624.258 236.825L656.6 294.256L665.08 289.48Z" fill="#E7C5C5"/>
<rect x="610.109" y="340.759" width="48.8688" height="7.46606" transform="rotate(33.6952 610.109 340.759)" fill="#DFF480"/>
<rect x="607.662" y="348.101" width="98.4163" height="15.6109" transform="rotate(33.6952 607.662 348.101)" fill="#E7C5C5"/>
<rect x="607.662" y="348.101" width="45.4751" height="15.6109" transform="rotate(33.6952 607.662 348.101)" fill="#A8C03C"/>
<rect x="651.717" y="284.478" width="44.1176" height="21.7194" transform="rotate(33.6952 651.717 284.478)" fill="#A8C03C"/>
<path d="M706.677 377.005C707.821 375.29 710.139 374.827 711.854 375.97V375.97C713.569 377.114 714.033 379.432 712.889 381.147L704.417 393.853L698.205 389.711L706.677 377.005Z" fill="#E9B6B6"/>
<path d="M685.404 395.452C686.547 393.736 688.865 393.273 690.58 394.417V394.417C692.296 395.56 692.759 397.878 691.615 399.594L683.143 412.299L676.931 408.157L685.404 395.452Z" fill="#E7C5C5"/>
<ellipse cx="735.765" cy="309.245" rx="4.41176" ry="7.46606" transform="rotate(10.771 735.765 309.245)" fill="#E9B6B6"/>
<ellipse cx="626.932" cy="232.24" rx="4.41176" ry="7.46606" transform="rotate(47.4012 626.932 232.24)" fill="#E7C5C5"/>
</g>
<mask id="mask0_91_17324" style="mask-type:alpha" maskUnits="userSpaceOnUse" x="899" y="279" width="161" height="161">
<circle cx="979.5" cy="359.5" r="80.5" fill="#D9D9D9"/>
<circle cx="979.5" cy="359.5" r="80.5" stroke="#224564"/>
</mask>
<g mask="url(#mask0_91_17324)">
<path d="M919.4 350.4V260H954.4V350.4C954.4 357.733 956.6 363.4 961 367.4C965.533 371.4 971.6 373.4 979.2 373.4C986.8 373.4 992.8 371.4 997.2 367.4C1001.73 363.4 1004 357.733 1004 350.4V260H1039V350.4C1039 366.667 1033.53 379.933 1022.6 390.2C1011.67 400.333 997.267 405.4 979.4 405.4C961.4 405.4 946.867 400.333 935.8 390.2C924.867 379.933 919.4 366.667 919.4 350.4Z" fill="#183956"/>
<circle cx="979.5" cy="357.5" r="77" stroke="#224564" stroke-width="7"/>
</g>
<mask id="mask1_91_17324" style="mask-type:alpha" maskUnits="userSpaceOnUse" x="1081" y="96" width="264" height="264">
<circle cx="1213" cy="228" r="132" fill="#D9D9D9"/>
<circle cx="1213" cy="228" r="132" stroke="#224564"/>
</mask>
<g mask="url(#mask1_91_17324)">
<path d="M1095 408V122H1196.6C1241.93 122 1277.8 134.667 1304.2 160C1330.87 185.067 1344.2 219.867 1344.2 264.4C1344.2 309.2 1330.87 344.4 1304.2 370C1277.8 395.333 1241.93 408 1196.6 408H1095ZM1165 348H1193.8C1218.33 348 1237.4 340.8 1251 326.4C1264.87 312 1271.8 291.333 1271.8 264.4C1271.8 237.733 1264.87 217.333 1251 203.2C1237.13 189.067 1218.07 182 1193.8 182H1165V348Z" fill="#183956"/>
<circle cx="1213" cy="224.721" r="128.5" stroke="#224564" stroke-width="7"/>
</g>
<mask id="mask2_91_17324" style="mask-type:alpha" maskUnits="userSpaceOnUse" x="1081" y="445" width="126" height="126">
<circle cx="1144" cy="508" r="63" fill="#D9D9D9"/>
<circle cx="1144" cy="508" r="63" stroke="#224564"/>
</mask>
<g mask="url(#mask2_91_17324)">
<path d="M1095.6 507V496.6H1130.6V504.2C1130.6 515.667 1134.93 521.4 1143.6 521.4C1147.6 521.4 1150.73 520.133 1153 517.6C1155.27 515.067 1156.4 511.267 1156.4 506.2V438H1118V408H1191.4V507C1191.4 521.8 1186.67 533.267 1177.2 541.4C1167.73 549.4 1156.53 553.4 1143.6 553.4C1130.53 553.4 1119.27 549.333 1109.8 541.2C1100.33 533.067 1095.6 521.667 1095.6 507Z" fill="#183956"/>
<circle cx="1144" cy="506.435" r="59.5" stroke="#224564" stroke-width="7"/>
</g>
<g filter="url(#filter1_d_91_17324)">
<path d="M603.523 390.441C609.332 359.752 522.22 304.385 477.938 280.537C473.763 297.431 469.767 331.903 487.178 334.641C508.941 338.063 588.353 409.451 584.078 443.732C579.804 478.014 585.215 542.052 654.097 540.996C722.979 539.94 596.262 428.802 603.523 390.441Z" fill="#B0ECFB" stroke="#B0ECFB" stroke-width="3"/>
<path d="M606.483 388.83C611.228 358.323 531.597 301.678 491.189 277.169C487.694 293.947 484.65 328.256 500.429 331.272C520.152 335.043 593.087 407.537 589.789 441.652C586.49 475.767 592.434 539.713 654.662 539.794C716.89 539.875 600.553 426.964 606.483 388.83Z" fill="#C4F3FF" stroke="#B0ECFB" stroke-width="3"/>
<path d="M-43 906.702L57.5 740C87.4129 766.333 142.15 783.189 183.5 802.5C224.85 821.811 266.687 829.02 305.398 829.02C336.19 829.02 359.945 822.876 376.661 810.587C394.257 798.299 403.055 782.499 403.055 763.188C403.055 743 392.497 724.567 371.382 707.889C351.147 690.334 325.633 675.851 294.84 664.44C269.151 643.709 234.333 631.757 194.544 620.991C158.472 602.558 125.04 583.247 94.2476 563.058C63.4548 542.87 37.501 515.22 16.386 480.11C-3.84925 444.121 -13.9669 402.867 -13.9669 356.345C-13.9669 270.324 17.7057 200.981 81.0507 148.315C145.276 94.7718 227.536 68 327.832 68C444.845 68 479.939 88.9012 560 160L489 321.5C461.726 297.8 465.96 319.479 428.129 303.679C390.298 287.88 353.346 279.98 317.275 279.98C283.843 279.98 258.769 286.124 242.053 298.413C225.337 310.701 216.979 326.94 216.979 347.129C216.979 367.317 227.096 385.75 247.331 402.428C268.446 419.105 294.4 433.149 325.193 444.56C355.986 455.093 389.418 469.138 425.489 486.693C461.561 503.37 494.993 521.803 525.786 541.992C556.578 561.303 582.092 588.952 602.328 624.94C623.443 660.051 634 700.867 634 747.388C634 830.776 604.087 900.558 544.261 956.735C485.315 1012.91 403.495 1041 298.799 1041C235.454 1041 173.429 1029.59 112.723 1006.77C52.8973 983.945 0.989605 950.591 -43 906.702Z" fill="#A8C03C"/>
<path d="M-56 902.702L65.4113 727.589C95.3242 753.922 130.956 776.743 172.306 796.054C213.656 815.365 253.687 825.02 292.398 825.02C323.19 825.02 346.945 818.876 363.661 806.587C381.257 794.299 390.055 778.499 390.055 759.188C390.055 739 379.497 720.567 358.382 703.889C338.147 686.334 312.633 671.851 281.84 660.44C251.047 649.029 217.615 634.546 181.544 616.991C145.472 598.557 112.04 579.247 81.2476 559.058C50.4549 538.87 24.501 511.22 3.38597 476.11C-16.8493 440.121 -26.9669 398.866 -26.9669 352.345C-26.9669 266.324 4.70565 196.981 68.0507 144.315C132.276 90.7718 214.536 64 314.832 64C431.845 64 530.381 99.5494 610.442 170.648L512.786 358.928C485.512 335.229 452.96 315.479 415.129 299.679C377.298 283.88 340.346 275.98 304.275 275.98C270.843 275.98 245.769 282.124 229.053 294.413C212.337 306.701 203.979 322.94 203.979 343.129C203.979 363.317 214.096 381.75 234.331 398.428C255.446 415.105 281.4 429.149 312.193 440.56C342.986 451.093 376.418 465.138 412.489 482.693C448.561 499.37 481.993 517.803 512.786 537.992C543.578 557.303 569.092 584.952 589.328 620.94C610.443 656.051 621 696.867 621 743.388C621 826.776 591.087 896.558 531.261 952.735C472.315 1008.91 390.495 1037 285.799 1037C222.454 1037 160.429 1025.59 99.7232 1002.77C39.8973 979.945 -12.0104 946.59 -56 902.702Z" fill="#DFF480"/>
<ellipse cx="653.242" cy="510.493" rx="11" ry="22" transform="rotate(-21.3079 653.242 510.493)" fill="#D6F7FF"/>
</g>
<ellipse cx="835" cy="85" rx="93" ry="85" fill="#18344D"/>
<ellipse cx="980" cy="169.5" rx="52" ry="47.5" fill="#18344D"/>
<ellipse cx="52" cy="84.5" rx="52" ry="47.5" fill="#18344D"/>
<defs>
<filter id="filter0_d_91_17324" x="599.002" y="203.909" width="150.316" height="211.778" filterUnits="userSpaceOnUse" color-interpolation-filters="sRGB">
<feFlood flood-opacity="0" result="BackgroundImageFix"/>
<feColorMatrix in="SourceAlpha" type="matrix" values="0 0 0 0 0 0 0 0 0 0 0 0 0 0 0 0 0 0 127 0" result="hardAlpha"/>
<feOffset dx="9" dy="-6"/>
<feComposite in2="hardAlpha" operator="out"/>
<feColorMatrix type="matrix" values="0 0 0 0 0.0941176 0 0 0 0 0.223529 0 0 0 0 0.337255 0 0 0 1 0"/>
<feBlend mode="normal" in2="BackgroundImageFix" result="effect1_dropShadow_91_17324"/>
<feBlend mode="normal" in="SourceGraphic" in2="effect1_dropShadow_91_17324" result="shape"/>
</filter>
<filter id="filter1_d_91_17324" x="-56" y="64" width="752.176" height="1005" filterUnits="userSpaceOnUse" color-interpolation-filters="sRGB">
<feFlood flood-opacity="0" result="BackgroundImageFix"/>
<feColorMatrix in="SourceAlpha" type="matrix" values="0 0 0 0 0 0 0 0 0 0 0 0 0 0 0 0 0 0 127 0" result="hardAlpha"/>
<feOffset dx="20" dy="28"/>
<feComposite in2="hardAlpha" operator="out"/>
<feColorMatrix type="matrix" values="0 0 0 0 0.0941176 0 0 0 0 0.223529 0 0 0 0 0.337255 0 0 0 1 0"/>
<feBlend mode="normal" in2="BackgroundImageFix" result="effect1_dropShadow_91_17324"/>
<feBlend mode="normal" in="SourceGraphic" in2="effect1_dropShadow_91_17324" result="shape"/>
</filter>
</defs>
</svg>
