<svg width="1280" height="1087" viewBox="0 0 1280 1087" fill="none" xmlns="http://www.w3.org/2000/svg">
<rect x="-4" width="1297" height="935" fill="#132D44"/>
<path d="M352.777 118.953C352.898 117.855 353.885 117.063 354.983 117.183V117.183C356.081 117.303 356.874 118.291 356.753 119.389L352.197 160.978L348.221 160.542L352.777 118.953Z" fill="#C86A91"/>
<path d="M418.194 119.988C418.074 118.89 417.086 118.098 415.988 118.218V118.218C414.89 118.338 414.098 119.326 414.218 120.424L418.775 162.013L422.751 161.577L418.194 119.988Z" fill="#C86A91"/>
<g filter="url(#filter0_d_58_1043)">
<rect x="237" y="169" width="806" height="646" rx="63" fill="#5599AA"/>
<rect x="238.5" y="170.5" width="803" height="643" rx="61.5" stroke="#BAD1D7" stroke-width="3"/>
</g>
<rect x="259" y="182" width="762" height="610.802" rx="63" fill="#75B5C5"/>
<path d="M353 118.889C353 117.293 354.293 116 355.889 116V116C357.484 116 358.778 117.293 358.778 118.889V206.526H353V118.889Z" fill="#E68CB1"/>
<path d="M412.223 118.889C412.223 117.293 413.516 116 415.112 116V116C416.707 116 418 117.293 418 118.889V206.526H412.223V118.889Z" fill="#E68CB1"/>
<g filter="url(#filter1_d_58_1043)">
<line x1="356.333" y1="340" x2="356.333" y2="206.526" stroke="white" stroke-width="2"/>
</g>
<g filter="url(#filter2_d_58_1043)">
<line x1="355.889" y1="216.472" x2="416.555" y2="216.472" stroke="white"/>
</g>
<g filter="url(#filter3_d_58_1043)">
<line x1="355.889" y1="230.399" x2="416.555" y2="230.399" stroke="white"/>
</g>
<g filter="url(#filter4_d_58_1043)">
<line x1="355.889" y1="244.326" x2="416.555" y2="244.326" stroke="white"/>
</g>
<g filter="url(#filter5_d_58_1043)">
<line x1="355.889" y1="258.253" x2="416.555" y2="258.253" stroke="white"/>
</g>
<g filter="url(#filter6_d_58_1043)">
<line x1="355.889" y1="272.18" x2="416.555" y2="272.18" stroke="white"/>
</g>
<g filter="url(#filter7_d_58_1043)">
<line x1="355.889" y1="286.107" x2="416.555" y2="286.107" stroke="white"/>
</g>
<g filter="url(#filter8_d_58_1043)">
<line x1="355.889" y1="300.035" x2="416.555" y2="300.035" stroke="white"/>
</g>
<g filter="url(#filter9_d_58_1043)">
<line x1="355.889" y1="313.962" x2="416.555" y2="313.962" stroke="white"/>
</g>
<g filter="url(#filter10_d_58_1043)">
<line x1="355.889" y1="327.889" x2="416.555" y2="327.889" stroke="white"/>
</g>
<g filter="url(#filter11_d_58_1043)">
<line x1="415.556" y1="340" x2="415.556" y2="206.526" stroke="white" stroke-width="2"/>
</g>
<path d="M355 573.361C355.5 562.695 366.9 555.261 382.5 566.861C402 581.361 407 548.861 417.5 562.361C428 575.861 443 556.361 445 566.861" stroke="#B0ECFB" stroke-width="2"/>
<path d="M685 326.361C685.5 315.695 696.9 308.261 712.5 319.861C732 334.361 737 301.861 747.5 315.361C758 328.861 773 309.361 775 319.861" stroke="#B0ECFB" stroke-width="2"/>
<path d="M361.771 287.172C348.951 282.062 348.683 304.923 338 304.923L342.273 325L433.083 322.311C438.247 313.166 447.399 294.878 442.698 294.878C436.822 294.878 434.151 286.271 419.996 283.582C405.84 280.892 399.964 288.248 394.622 290.938C383.405 296.585 374.591 292.282 361.771 287.172Z" fill="#75B5C5" stroke="#B0ECFB" stroke-width="2"/>
<path d="M335 301.05L391.318 309.209L446.295 287L453 350H335V301.05Z" fill="#75B5C5"/>
<g filter="url(#filter12_d_58_1043)">
<path fill-rule="evenodd" clip-rule="evenodd" d="M889.795 724.189C913.983 747.241 952.278 746.321 975.331 722.133C998.383 697.945 997.462 659.65 973.274 636.598C949.087 613.546 910.791 614.466 887.739 638.654C864.687 662.842 865.608 701.137 889.795 724.189ZM904.404 708.416C919.875 723.159 944.368 722.571 959.112 707.1C973.856 691.63 973.267 667.137 957.797 652.393C942.327 637.649 917.833 638.237 903.089 653.708C888.345 669.178 888.934 693.672 904.404 708.416Z" fill="#C4DB5A"/>
<circle cx="890.627" cy="714.621" r="4.5" transform="rotate(43.6229 890.627 714.621)" fill="#B4CB4B"/>
<circle cx="4.5" cy="4.5" r="4.5" transform="matrix(-0.414933 -0.909852 -0.909852 0.414933 889.225 704.792)" fill="#B4CB4B"/>
<circle cx="907.005" cy="719.179" r="4.5" transform="rotate(43.6229 907.005 719.179)" fill="#B4CB4B"/>
<circle cx="4.5" cy="4.5" r="4.5" transform="matrix(-0.414933 -0.909852 -0.909852 0.414933 893.14 692.54)" fill="#B4CB4B"/>
<circle cx="915.103" cy="732.423" r="4.5" transform="rotate(43.6229 915.103 732.423)" fill="#B4CB4B"/>
<circle cx="4.5" cy="4.5" r="4.5" transform="matrix(-0.414933 -0.909852 -0.909852 0.414933 883.275 680.552)" fill="#B4CB4B"/>
<circle cx="930.519" cy="726.393" r="4.5" transform="rotate(43.6229 930.519 726.393)" fill="#B4CB4B"/>
<circle cx="4.5" cy="4.5" r="4.5" transform="matrix(-0.414933 -0.909852 -0.909852 0.414933 894.02 667.959)" fill="#B4CB4B"/>
<circle cx="944.827" cy="733.123" r="4.5" transform="rotate(43.6229 944.827 733.123)" fill="#B4CB4B"/>
<circle cx="4.5" cy="4.5" r="4.5" transform="matrix(-0.414933 -0.909852 -0.909852 0.414933 892.345 652.236)" fill="#B4CB4B"/>
<circle cx="951.589" cy="720.228" r="4.5" transform="rotate(43.6229 951.589 720.228)" fill="#B4CB4B"/>
<circle cx="4.5" cy="4.5" r="4.5" transform="matrix(-0.414933 -0.909852 -0.909852 0.414933 906.742 650.067)" fill="#B4CB4B"/>
<circle cx="969.212" cy="717.683" r="4.5" transform="rotate(43.6229 969.212 717.683)" fill="#B4CB4B"/>
<circle cx="4.5" cy="4.5" r="4.5" transform="matrix(-0.414933 -0.909852 -0.909852 0.414933 914.916 634.25)" fill="#B4CB4B"/>
<circle cx="969.595" cy="704.235" r="4.5" transform="rotate(43.6229 969.595 704.235)" fill="#B4CB4B"/>
<circle cx="4.5" cy="4.5" r="4.5" transform="matrix(-0.414933 -0.909852 -0.909852 0.414933 927.749 638.289)" fill="#B4CB4B"/>
<circle cx="982.908" cy="698.964" r="4.5" transform="rotate(43.6229 982.908 698.964)" fill="#B4CB4B"/>
<circle cx="4.5" cy="4.5" r="4.5" transform="matrix(-0.414933 -0.909852 -0.909852 0.414933 937.087 627.436)" fill="#B4CB4B"/>
<circle cx="975.499" cy="684.995" r="4.5" transform="rotate(43.6229 975.499 684.995)" fill="#B4CB4B"/>
<circle cx="4.5" cy="4.5" r="4.5" transform="matrix(-0.414933 -0.909852 -0.909852 0.414933 947.86 639.009)" fill="#B4CB4B"/>
<circle cx="986.639" cy="677.655" r="4.5" transform="rotate(43.6229 986.639 677.655)" fill="#B4CB4B"/>
<circle cx="4.5" cy="4.5" r="4.5" transform="matrix(-0.414933 -0.909852 -0.909852 0.414933 960.354 633.058)" fill="#B4CB4B"/>
<circle cx="975.125" cy="669.444" r="4.5" transform="rotate(43.6229 975.125 669.444)" fill="#B4CB4B"/>
<circle cx="4.5" cy="4.5" r="4.5" transform="matrix(-0.414933 -0.909852 -0.909852 0.414933 964.935 647.094)" fill="#B4CB4B"/>
<circle cx="4.5" cy="4.5" r="4.5" transform="matrix(-0.414933 -0.909852 -0.909852 0.414933 977.003 648.926)" fill="#B4CB4B"/>
<circle cx="4.5" cy="4.5" r="4.5" transform="matrix(-0.414933 -0.909852 -0.909852 0.414933 987.206 661.412)" fill="#B4CB4B"/>
<circle cx="975.831" cy="669.426" r="3" transform="rotate(43.6229 975.831 669.426)" fill="#9AAF37"/>
<circle cx="975.481" cy="684.288" r="3" transform="rotate(43.6229 975.481 684.288)" fill="#9AAF37"/>
<circle cx="987.346" cy="677.637" r="3" transform="rotate(43.6229 987.346 677.637)" fill="#9AAF37"/>
<circle cx="982.89" cy="698.256" r="3" transform="rotate(43.6229 982.89 698.256)" fill="#9AAF37"/>
<circle cx="968.164" cy="703.561" r="3" transform="rotate(43.6229 968.164 703.561)" fill="#9AAF37"/>
<circle cx="968.539" cy="719.113" r="3" transform="rotate(43.6229 968.539 719.113)" fill="#9AAF37"/>
<circle cx="952.296" cy="720.211" r="3" transform="rotate(43.6229 952.296 720.211)" fill="#9AAF37"/>
<circle cx="944.809" cy="732.415" r="3" transform="rotate(43.6229 944.809 732.415)" fill="#9AAF37"/>
<circle cx="930.501" cy="725.686" r="3" transform="rotate(43.6229 930.501 725.686)" fill="#9AAF37"/>
<circle cx="915.12" cy="733.129" r="3" transform="rotate(43.6229 915.12 733.129)" fill="#9AAF37"/>
<circle cx="906.296" cy="719.195" r="3" transform="rotate(43.6229 906.296 719.195)" fill="#9AAF37"/>
<circle cx="891.332" cy="714.603" r="3" transform="rotate(43.6229 891.332 714.603)" fill="#9AAF37"/>
<circle cx="883.268" cy="702.773" r="3" transform="rotate(43.6229 883.268 702.773)" fill="#9AAF37"/>
<circle cx="887.204" cy="689.947" r="3" transform="rotate(43.6229 887.204 689.947)" fill="#9AAF37"/>
<circle cx="877" cy="677.461" r="3" transform="rotate(43.6229 877 677.461)" fill="#9AAF37"/>
<circle cx="888.039" cy="665.878" r="3" transform="rotate(43.6229 888.039 665.878)" fill="#9AAF37"/>
<circle cx="886.218" cy="648.946" r="3" transform="rotate(43.6229 886.218 648.946)" fill="#9AAF37"/>
<circle cx="901.77" cy="648.572" r="3" transform="rotate(43.6229 901.77 648.572)" fill="#9AAF37"/>
<circle cx="907.741" cy="632.161" r="3" transform="rotate(43.6229 907.741 632.161)" fill="#9AAF37"/>
<circle cx="922.67" cy="635.339" r="3" transform="rotate(43.6229 922.67 635.339)" fill="#9AAF37"/>
<circle cx="931.606" cy="624.514" r="3" transform="rotate(43.6229 931.606 624.514)" fill="#9AAF37"/>
<circle cx="942.532" cy="637.69" r="3" transform="rotate(43.6229 942.532 637.69)" fill="#9AAF37"/>
<circle cx="980.525" cy="658.704" r="3" transform="rotate(43.6229 980.525 658.704)" fill="#9AAF37"/>
<circle cx="970.356" cy="647.631" r="3" transform="rotate(43.6229 970.356 647.631)" fill="#9AAF37"/>
<circle cx="958.944" cy="643.661" r="3" transform="rotate(43.6229 958.944 643.661)" fill="#9AAF37"/>
<circle cx="954.363" cy="629.626" r="3" transform="rotate(43.6229 954.363 629.626)" fill="#9AAF37"/>
<circle cx="932.313" cy="624.498" r="1.5" transform="rotate(43.6229 932.313 624.498)" fill="#FFE888"/>
<circle cx="941.86" cy="639.122" r="1.5" transform="rotate(43.6229 941.86 639.122)" fill="#FFE888"/>
<circle cx="922.689" cy="636.046" r="1.5" transform="rotate(43.6229 922.689 636.046)" fill="#FFE888"/>
<circle cx="907.034" cy="632.178" r="1.5" transform="rotate(43.6229 907.034 632.178)" fill="#FFE888"/>
<circle cx="901.787" cy="649.28" r="1.5" transform="rotate(43.6229 901.787 649.28)" fill="#FFE888"/>
<circle cx="885.512" cy="648.964" r="1.5" transform="rotate(43.6229 885.512 648.964)" fill="#FFE888"/>
<circle cx="888.78" cy="667.276" r="1.5" transform="rotate(43.6229 888.78 667.276)" fill="#FFE888"/>
<circle cx="876.294" cy="677.478" r="1.5" transform="rotate(43.6229 876.294 677.478)" fill="#FFE888"/>
<circle cx="887.945" cy="691.344" r="1.5" transform="rotate(43.6229 887.945 691.344)" fill="#FFE888"/>
<circle cx="883.976" cy="702.756" r="1.5" transform="rotate(43.6229 883.976 702.756)" fill="#FFE888"/>
<circle cx="890.66" cy="716.035" r="1.5" transform="rotate(43.6229 890.66 716.035)" fill="#FFE888"/>
<circle cx="907.695" cy="718.455" r="1.5" transform="rotate(43.6229 907.695 718.455)" fill="#FFE888"/>
<circle cx="915.137" cy="733.837" r="1.5" transform="rotate(43.6229 915.137 733.837)" fill="#FFE888"/>
<circle cx="930.519" cy="726.394" r="1.5" transform="rotate(43.6229 930.519 726.394)" fill="#FFE888"/>
<circle cx="944.827" cy="733.123" r="1.5" transform="rotate(43.6229 944.827 733.123)" fill="#FFE888"/>
<circle cx="952.279" cy="719.505" r="1.5" transform="rotate(43.6229 952.279 719.505)" fill="#FFE888"/>
<circle cx="967.832" cy="719.13" r="1.5" transform="rotate(43.6229 967.832 719.13)" fill="#FFE888"/>
<circle cx="968.182" cy="704.269" r="1.5" transform="rotate(43.6229 968.182 704.269)" fill="#FFE888"/>
<circle cx="975.465" cy="683.582" r="1.5" transform="rotate(43.6229 975.465 683.582)" fill="#FFE888"/>
<circle cx="986.64" cy="677.654" r="1.5" transform="rotate(43.6229 986.64 677.654)" fill="#FFE888"/>
<circle cx="975.125" cy="669.443" r="1.5" transform="rotate(43.6229 975.125 669.443)" fill="#FFE888"/>
<circle cx="979.819" cy="658.721" r="1.5" transform="rotate(43.6229 979.819 658.721)" fill="#FFE888"/>
<circle cx="983.598" cy="698.24" r="1.5" transform="rotate(43.6229 983.598 698.24)" fill="#FFE888"/>
<circle cx="953.656" cy="629.643" r="1.5" transform="rotate(43.6229 953.656 629.643)" fill="#FFE888"/>
<circle cx="959.686" cy="645.059" r="1.5" transform="rotate(43.6229 959.686 645.059)" fill="#FFE888"/>
<circle cx="969.684" cy="649.063" r="1.5" transform="rotate(43.6229 969.684 649.063)" fill="#FFE888"/>
<g filter="url(#filter13_d_58_1043)">
<ellipse cx="970.152" cy="639.149" rx="21" ry="17" transform="rotate(43.6229 970.152 639.149)" fill="#9AAF37"/>
<ellipse cx="964.848" cy="624.423" rx="10" ry="8" transform="rotate(43.6229 964.848 624.423)" fill="#8C9E3A"/>
<ellipse cx="986.564" cy="645.12" rx="10" ry="8" transform="rotate(43.6229 986.564 645.12)" fill="#8C9E3A"/>
<ellipse cx="965.504" cy="622.285" rx="11" ry="9" transform="rotate(43.6229 965.504 622.285)" fill="#9AAF37"/>
<ellipse cx="966.951" cy="623.665" rx="10" ry="8" transform="rotate(43.6229 966.951 623.665)" fill="#FFE888"/>
<ellipse cx="987.944" cy="643.672" rx="11" ry="9" transform="rotate(43.6229 987.944 643.672)" fill="#9AAF37"/>
<ellipse cx="987.22" cy="642.982" rx="10" ry="8" transform="rotate(43.6229 987.22 642.982)" fill="#FFE888"/>
<circle cx="968.433" cy="626.458" r="3" transform="rotate(43.6229 968.433 626.458)" fill="#8C9E3A"/>
<circle cx="984.359" cy="641.636" r="3" transform="rotate(43.6229 984.359 641.636)" fill="#8C9E3A"/>
<path d="M973.126 615.736C968.728 611.545 961.351 610.698 957.54 614.696L974.19 630.564C978 626.566 977.524 619.927 973.126 615.736Z" fill="#8C9E3A"/>
<path d="M995.567 637.123C991.169 632.932 983.791 632.085 979.981 636.083L996.63 651.951C1000.44 647.953 999.964 641.314 995.567 637.123Z" fill="#8C9E3A"/>
<path d="M967.325 639.217L970.945 642.666L968.875 644.838C968.113 645.638 966.847 645.668 966.047 644.906L965.323 644.216C964.524 643.454 964.493 642.188 965.255 641.388L967.325 639.217Z" fill="#D15C5C"/>
<circle cx="957.224" cy="630.972" r="1" transform="rotate(43.6229 957.224 630.972)" fill="#FFE888"/>
<circle cx="955.138" cy="632.436" r="0.5" transform="rotate(43.6229 955.138 632.436)" fill="#FFF5CA"/>
<circle cx="976.855" cy="653.134" r="0.5" transform="rotate(43.6229 976.855 653.134)" fill="#FFF5CA"/>
<circle cx="956.484" cy="629.575" r="0.5" transform="rotate(43.6229 956.484 629.575)" fill="#FFF5CA"/>
<circle cx="978.201" cy="650.272" r="0.5" transform="rotate(43.6229 978.201 650.272)" fill="#FFF5CA"/>
<circle cx="958.689" cy="633.058" r="0.5" transform="rotate(43.6229 958.689 633.058)" fill="#FFF5CA"/>
<circle cx="980.406" cy="653.756" r="0.5" transform="rotate(43.6229 980.406 653.756)" fill="#FFF5CA"/>
<circle cx="978.941" cy="651.669" r="1" transform="rotate(43.6229 978.941 651.669)" fill="#FFE888"/>
<circle cx="954.363" cy="629.626" r="1" transform="rotate(43.6229 954.363 629.626)" fill="#FFE888"/>
<circle cx="976.08" cy="650.323" r="1" transform="rotate(43.6229 976.08 650.323)" fill="#FFE888"/>
<circle cx="957.293" cy="633.8" r="1" transform="rotate(43.6229 957.293 633.8)" fill="#FFE888"/>
<circle cx="979.01" cy="654.497" r="1" transform="rotate(43.6229 979.01 654.497)" fill="#FFE888"/>
</g>
</g>
<g filter="url(#filter14_d_58_1043)">
<rect x="343.719" y="587.467" width="191.973" height="87.5038" rx="8" transform="rotate(17.2363 343.719 587.467)" fill="#FFE888"/>
<path d="M341.348 595.108C342.657 590.888 347.14 588.528 351.359 589.837L519.429 641.98C523.649 643.29 526.009 647.772 524.7 651.992L521.779 661.407L346.068 606.893C341.848 605.584 339.489 601.102 340.798 596.882L341.348 595.108Z" fill="#FFF2BA"/>
<path d="M327.579 639.487L510.93 696.371L503.512 720.284C502.202 724.504 497.72 726.864 493.5 725.554L317.79 671.041L327.579 639.487Z" fill="#FFDF5A"/>
<rect x="324.839" y="576" width="47.3235" height="97.3257" rx="8" transform="rotate(17.2363 324.839 576)" fill="#C579FC"/>
<path d="M304.995 639.96L350.193 653.983L343.568 675.337C342.259 679.557 337.777 681.916 333.557 680.607L303.64 671.326C299.42 670.016 297.061 665.534 298.37 661.314L304.995 639.96Z" fill="#A550E2"/>
<path d="M319.019 594.762L364.217 608.784L367.667 597.663C368.976 593.444 366.617 588.961 362.397 587.652L332.48 578.371C328.26 577.062 323.778 579.421 322.469 583.641L319.019 594.762Z" fill="#DAA6FF"/>
<rect x="392.328" y="602.547" width="14.2863" height="87.5038" transform="rotate(17.2363 392.328 602.547)" fill="#C579FC"/>
<rect x="376.188" y="654.568" width="14.2863" height="33.0372" transform="rotate(17.2363 376.188 654.568)" fill="#A550E2"/>
<rect x="392.328" y="602.547" width="14.2863" height="17.8579" transform="rotate(17.2363 392.328 602.547)" fill="#DAA6FF"/>
<rect x="419.617" y="611.014" width="14.2863" height="87.5038" transform="rotate(17.2363 419.617 611.014)" fill="#C579FC"/>
<rect x="403.479" y="663.035" width="14.2863" height="33.0372" transform="rotate(17.2363 403.479 663.035)" fill="#A550E2"/>
<rect x="419.617" y="611.014" width="14.2863" height="17.8579" transform="rotate(17.2363 419.617 611.014)" fill="#DAA6FF"/>
<rect x="446.907" y="619.48" width="14.2863" height="87.5038" transform="rotate(17.2363 446.907 619.48)" fill="#C579FC"/>
<rect x="430.768" y="671.501" width="14.2863" height="33.0372" transform="rotate(17.2363 430.768 671.501)" fill="#A550E2"/>
<rect x="446.907" y="619.48" width="14.2863" height="17.8579" transform="rotate(17.2363 446.907 619.48)" fill="#DAA6FF"/>
<rect x="474.196" y="627.947" width="14.2863" height="87.5038" transform="rotate(17.2363 474.196 627.947)" fill="#C579FC"/>
<rect x="458.058" y="679.968" width="14.2863" height="33.0372" transform="rotate(17.2363 458.058 679.968)" fill="#A550E2"/>
<rect x="474.196" y="627.947" width="14.2863" height="17.8579" transform="rotate(17.2363 474.196 627.947)" fill="#DAA6FF"/>
<rect x="501.486" y="636.414" width="14.2863" height="87.5038" transform="rotate(17.2363 501.486 636.414)" fill="#C579FC"/>
<rect x="485.347" y="688.434" width="14.2863" height="33.0372" transform="rotate(17.2363 485.347 688.434)" fill="#A550E2"/>
<rect x="501.486" y="636.414" width="14.2863" height="17.8579" transform="rotate(17.2363 501.486 636.414)" fill="#DAA6FF"/>
</g>
<g filter="url(#filter15_d_58_1043)">
<path d="M793.447 678.754C794.556 681.518 793.82 684.705 791.614 686.707C726.871 745.445 681.225 763.346 590.649 767.341C587.619 767.475 584.809 765.672 583.679 762.857V762.857C581.79 758.154 585.258 753.027 590.325 752.925C673.998 751.241 719.367 734.565 781.731 676.226C785.45 672.747 791.549 674.028 793.447 678.754V678.754Z" fill="#5184E3"/>
</g>
<path d="M792.22 675.697C793.263 678.295 792.515 681.292 790.382 683.104C724.364 739.177 678.71 757.121 589.028 763.896C586.192 764.11 583.517 762.456 582.458 759.817V759.817C580.771 755.616 583.761 751.011 588.281 750.776C671.968 746.419 717.443 729.58 781.718 673.234C785.138 670.235 790.525 671.476 792.22 675.697V675.697Z" fill="#79A5F7"/>
<g clip-path="url(#clip0_58_1043)">
<path d="M870.39 400.78C912.027 400.78 945.78 367.027 945.78 325.39C945.78 283.753 912.027 250 870.39 250C828.753 250 795 283.753 795 325.39C795 367.027 828.753 400.78 870.39 400.78Z" fill="#C8DA6D"/>
<path d="M870.39 400.78C912.03 400.78 945.78 367.03 945.78 325.39H795C795 367.03 828.75 400.78 870.39 400.78Z" fill="#A8B85D"/>
<path d="M870.01 393.11C907.74 393.11 938.33 362.52 938.33 324.79H801.69C801.69 362.52 832.28 393.11 870.01 393.11Z" fill="#EBEBEC"/>
<path d="M870.01 256.46C832.28 256.46 801.69 287.05 801.69 324.79H938.34C938.34 287.06 907.75 256.47 870.02 256.47L870.01 256.46Z" fill="white"/>
<path d="M870.39 391.13C907.238 391.13 937.11 361.258 937.11 324.41C937.11 287.562 907.238 257.69 870.39 257.69C833.541 257.69 803.67 287.562 803.67 324.41C803.67 361.258 833.541 391.13 870.39 391.13Z" fill="#DB5E57"/>
<path d="M870.39 392.11C907.24 392.11 937.11 362.24 937.11 325.39H803.67C803.67 362.24 833.54 392.11 870.39 392.11Z" fill="#B84F49"/>
<path d="M803.67 325.39C803.67 362.24 833.54 392.11 870.39 392.11V325.39H803.67Z" fill="#B84F49"/>
<path d="M870.01 325.39V258.67C906.86 258.67 936.73 288.54 936.73 325.39H870.01Z" fill="#E06361"/>
<path d="M906.88 292.45C909.74 288.74 910.58 284.61 908.77 283.21C906.96 281.81 903.17 283.69 900.32 287.39C897.47 291.09 896.22 296.26 897.58 297.34C899.35 298.74 904.02 296.15 906.88 292.44V292.45Z" fill="#2D1311"/>
<path d="M904.72 293.46C906.82 290.73 907.44 287.69 906.11 286.66C904.78 285.63 901.99 287.01 899.89 289.74C897.79 292.47 896.88 296.27 897.88 297.06C899.18 298.09 902.62 296.18 904.72 293.46Z" fill="#3E2220"/>
<path d="M832.94 292.83C830.08 289.12 829.24 284.99 831.05 283.59C832.86 282.19 836.65 284.07 839.5 287.77C842.35 291.47 843.6 296.64 842.24 297.72C840.47 299.12 835.8 296.53 832.94 292.82V292.83Z" fill="#2D1311"/>
<path d="M835.09 293.84C832.99 291.11 832.37 288.07 833.7 287.04C835.03 286.01 837.82 287.39 839.92 290.12C842.02 292.85 842.93 296.65 841.93 297.44C840.63 298.47 837.19 296.56 835.09 293.84Z" fill="#3E2220"/>
<path d="M834.17 359.95C831.31 363.66 830.47 367.79 832.28 369.19C834.09 370.59 837.88 368.71 840.73 365.01C843.58 361.31 844.83 356.14 843.47 355.06C841.7 353.66 837.03 356.25 834.17 359.96V359.95Z" fill="#2D1311"/>
<path d="M836.33 358.95C834.23 361.68 833.61 364.72 834.94 365.75C836.27 366.78 839.06 365.4 841.16 362.67C843.26 359.94 844.17 356.14 843.17 355.35C841.87 354.32 838.43 356.23 836.33 358.95Z" fill="#3E2220"/>
<path d="M911.2 356.74C914.06 360.45 914.9 364.58 913.09 365.98C911.28 367.38 907.49 365.5 904.64 361.8C901.79 358.1 900.54 352.93 901.9 351.85C903.67 350.45 908.34 353.04 911.2 356.75V356.74Z" fill="#2D1311"/>
<path d="M909.04 355.73C911.14 358.46 911.76 361.5 910.43 362.53C909.1 363.56 906.31 362.18 904.21 359.45C902.11 356.72 901.2 352.92 902.2 352.13C903.5 351.1 906.94 353.01 909.04 355.73Z" fill="#3E2220"/>
<path d="M920.34 329.53C925.02 329.43 928.77 327.5 928.72 325.22C928.67 322.94 924.84 321.16 920.17 321.25C915.5 321.34 910.69 323.61 910.7 325.35C910.72 327.61 915.66 329.63 920.34 329.53Z" fill="#2D1311"/>
<path d="M918.2 328.48C921.64 328.41 924.4 326.99 924.37 325.31C924.34 323.63 921.52 322.32 918.08 322.39C914.64 322.46 911.1 324.13 911.11 325.41C911.12 327.07 914.76 328.56 918.2 328.49V328.48Z" fill="#3E2220"/>
<path d="M866.55 277.47C866.86 272.8 868.97 269.14 871.25 269.3C873.53 269.46 875.13 273.36 874.81 278.03C874.49 282.7 872.01 287.39 870.27 287.3C868.01 287.18 866.23 282.14 866.54 277.48L866.55 277.47Z" fill="#2D1311"/>
<path d="M867.5 279.65C867.73 276.22 869.28 273.52 870.96 273.64C872.64 273.76 873.81 276.63 873.58 280.06C873.35 283.49 871.52 286.95 870.24 286.88C868.58 286.79 867.27 283.09 867.5 279.65Z" fill="#3E2220"/>
<path d="M819.69 321.25C815.01 321.35 811.26 323.28 811.31 325.56C811.36 327.84 815.19 329.62 819.86 329.53C824.53 329.44 829.34 327.17 829.33 325.43C829.31 323.17 824.37 321.15 819.69 321.25Z" fill="#2D1311"/>
<path d="M821.83 322.3C818.39 322.37 815.63 323.79 815.66 325.47C815.69 327.15 818.51 328.46 821.95 328.39C825.39 328.32 828.93 326.65 828.92 325.37C828.91 323.71 825.27 322.22 821.83 322.29V322.3Z" fill="#3E2220"/>
<path d="M874.28 374.95C874.28 379.63 872.43 383.42 870.14 383.42C867.85 383.42 866 379.63 866 374.95C866 370.27 868.17 365.42 869.91 365.4C872.17 365.37 874.29 370.27 874.29 374.95H874.28Z" fill="#2D1311"/>
<path d="M873.19 372.83C873.19 376.27 871.83 379.06 870.14 379.06C868.45 379.06 867.09 376.27 867.09 372.83C867.09 369.39 868.69 365.82 869.96 365.8C871.62 365.78 873.18 369.39 873.18 372.83H873.19Z" fill="#3E2220"/>
</g>
<path d="M527 242.288C538.5 238.616 546.094 220.481 555.966 232.534C568.306 247.599 572.425 234.07 579.753 242.288C587.082 250.506 605.131 218.896 617.854 231.491C628.032 241.567 634.836 242.721 643.424 246.075" stroke="#B0ECFB" stroke-width="3"/>
<path d="M305 743.288C316.5 739.616 324.094 721.481 333.966 733.534C346.306 748.599 350.425 735.07 357.753 743.288C365.082 751.506 383.131 719.896 395.854 732.491C406.032 742.567 412.836 743.721 421.424 747.075" stroke="#B0ECFB" stroke-width="3"/>
<path d="M732 629.288C743.5 625.616 751.094 607.481 760.966 619.534C773.306 634.599 777.425 621.07 784.753 629.288C792.082 637.506 810.131 605.896 822.854 618.491C833.032 628.567 839.836 629.721 848.424 633.075" stroke="#B0ECFB" stroke-width="3"/>
<g clip-path="url(#clip1_58_1043)">
<mask id="mask0_58_1043" style="mask-type:luminance" maskUnits="userSpaceOnUse" x="306" y="319" width="103" height="103">
<path d="M357.49 421.98C385.927 421.98 408.98 398.927 408.98 370.49C408.98 342.053 385.927 319 357.49 319C329.053 319 306 342.053 306 370.49C306 398.927 329.053 421.98 357.49 421.98Z" fill="white"/>
</mask>
<g mask="url(#mask0_58_1043)">
<path d="M357.49 422.41C386.165 422.41 409.41 399.164 409.41 370.49C409.41 341.815 386.165 318.57 357.49 318.57C328.816 318.57 305.57 341.815 305.57 370.49C305.57 399.164 328.816 422.41 357.49 422.41Z" fill="#EAF5FD"/>
<path d="M357.49 335.52C335.9 347.89 320.15 367.02 311.17 393.96C319.66 410.85 334.26 420.51 352.95 422.21C342.34 388.63 342.02 359.02 357.49 335.51V335.52Z" fill="#D990B0"/>
<path d="M357.118 335.248C340.208 334.158 324.718 336.448 311.018 346.318C301.748 363.608 304.408 381.058 310.798 393.688C319.488 367.888 332.958 349.908 357.118 335.248Z" fill="#FFDF5A"/>
<path d="M355.58 336.17C335.47 357.45 344.36 395.05 352.95 422.21C372.72 424 388.04 416.55 398.96 401.74C372.63 386.18 355.22 364.74 355.58 336.17Z" fill="#4274D8"/>
<path d="M398.96 401.74C407.71 392.2 410.9 378.99 408.77 362.26C386.94 366.99 369.34 355.28 355.59 336.18C355.5 367.06 373.21 387.33 398.97 401.75L398.96 401.74Z" fill="#FFDF5A"/>
<path d="M356.06 336.84C363.64 357.87 387.84 366.77 408.76 362.26C407.88 350.6 396.78 334.06 394.45 334.48C390.81 351.33 373.58 348.52 356.06 336.84Z" fill="#D990B0"/>
<path d="M355.58 335.27L342.36 320.81C326.19 326.02 317.29 335.44 311.39 346.59C323.19 337.21 341.36 334.41 355.58 335.27Z" fill="#4274D8"/>
<path d="M355.58 335.27C360.13 327.71 368.35 323.98 379.76 323.57C368.24 318.4 355.96 316.65 342.36 320.81C346.65 325.81 351.03 330.67 355.57 335.27H355.58Z" fill="#C47EA0"/>
<path d="M354.99 336.17C366.56 331.29 381.82 329.58 395.03 334.62C393.21 332.12 386.75 327 379.75 323.57C366.76 322.38 356.34 329.18 354.99 336.17Z" fill="#FFDF5A"/>
<path d="M355.58 336.17C369.5 347.99 385.3 349.9 402.49 344.43C399.57 339.26 396.43 334.54 392.31 331.82C376.98 330.38 364.35 331.46 355.58 336.17Z" fill="#4274D8"/>
<path opacity="0.3" d="M305.48 369.45C303.49 401.16 328.89 427.57 358.6 428.76C388.53 429.96 416.59 396.45 410.95 363.95C375.48 402.01 339.66 401.56 305.48 369.45Z" fill="#202B5A"/>
<path d="M355.47 343.47C362.435 343.47 368.08 340.837 368.08 337.59C368.08 334.343 362.435 331.71 355.47 331.71C348.506 331.71 342.86 334.343 342.86 337.59C342.86 340.837 348.506 343.47 355.47 343.47Z" fill="white"/>
</g>
</g>
<path d="M294 400C349.067 394.779 379.815 392.091 428 400L432 434H298L294 400Z" fill="#75B5C5"/>
<path d="M286 404.477C287.667 399.977 293 392.977 301 400.977C311 410.977 318.818 385.812 328.5 393.477C340.5 402.977 365 397.477 368.5 400.977C372 404.477 382.801 401.586 389.5 400.977C395 400.477 398 402.977 404 405.477C410 407.977 412.5 389.977 418 393.477C422.4 396.277 429.167 397.31 432 397.477" stroke="#75B5C5" stroke-width="10"/>
<path d="M286 398C287.667 393.5 293 386.5 301 394.5C311 404.5 318.818 379.335 328.5 387C340.5 396.5 363 393.5 368.5 394.5C373.37 395.386 382.801 395.109 389.5 394.5C395 394 398 396.5 404 399C410 401.5 412.5 383.5 418 387C422.4 389.8 429.167 390.833 432 391" stroke="#B0ECFB" stroke-width="3"/>
<g filter="url(#filter16_d_58_1043)">
<path d="M533.461 314.231C534.981 311.668 537.959 310.315 540.89 310.849C626.89 326.526 668.859 351.877 727.11 421.351C729.059 423.675 729.336 427.003 727.789 429.611V429.611C725.204 433.97 719.025 434.335 715.863 430.375C663.643 364.975 622.816 339.099 538.579 325.068C533.556 324.231 530.864 318.61 533.461 314.231V314.231Z" fill="#FFF1B7"/>
<path d="M531.781 317.064C533.21 314.656 536.043 313.427 538.779 314.018C623.438 332.328 665.446 357.659 725.361 424.733C727.256 426.854 727.569 429.984 726.118 432.429V432.429C723.809 436.323 718.335 436.75 715.4 433.304C661.05 369.519 620.028 343.659 536.212 326.899C531.751 326.007 529.461 320.976 531.781 317.064V317.064Z" fill="#FFDF5A"/>
</g>
<g filter="url(#filter17_d_58_1043)">
<rect x="1095" y="336.177" width="140.636" height="49.1794" rx="23" stroke="white" stroke-width="4"/>
<rect x="1124.33" y="336.177" width="6.03958" height="49.1794" fill="white"/>
<rect x="1133.83" y="336.177" width="6.03958" height="49.1794" fill="white"/>
<rect x="1143.32" y="336.177" width="6.03958" height="49.1794" fill="white"/>
<rect x="1152.81" y="336.177" width="6.03958" height="49.1794" fill="white"/>
<rect x="1162.3" y="336.177" width="6.03958" height="49.1794" fill="white"/>
<rect x="1171.79" y="336.177" width="6.03958" height="49.1794" fill="white"/>
<rect x="1181.28" y="336.177" width="6.03958" height="49.1794" fill="white"/>
<rect x="1190.77" y="336.177" width="6.03958" height="49.1794" fill="white"/>
<rect x="1200.26" y="336.177" width="6.03958" height="49.1794" fill="white"/>
<rect x="1149.36" y="331" width="28.4723" height="5.17678" fill="white"/>
<rect x="1149.36" y="385.356" width="28.4723" height="5.17678" fill="white"/>
</g>
<g filter="url(#filter18_d_58_1043)">
<rect x="47" y="336.177" width="140.636" height="49.1794" rx="23" stroke="white" stroke-width="4"/>
<rect x="76.335" y="336.177" width="6.03958" height="49.1794" fill="white"/>
<rect x="85.8262" y="336.177" width="6.03958" height="49.1794" fill="white"/>
<rect x="95.3164" y="336.177" width="6.03958" height="49.1794" fill="white"/>
<rect x="104.808" y="336.177" width="6.03958" height="49.1794" fill="white"/>
<rect x="114.298" y="336.177" width="6.03958" height="49.1794" fill="white"/>
<rect x="123.789" y="336.177" width="6.03958" height="49.1794" fill="white"/>
<rect x="133.279" y="336.177" width="6.03958" height="49.1794" fill="white"/>
<rect x="142.771" y="336.177" width="6.03958" height="49.1794" fill="white"/>
<rect x="152.261" y="336.177" width="6.03958" height="49.1794" fill="white"/>
<rect x="101.356" y="331" width="28.4723" height="5.17678" fill="white"/>
<rect x="101.356" y="385.356" width="28.4723" height="5.17678" fill="white"/>
</g>
<g filter="url(#filter19_d_58_1043)">
<rect x="1095" y="469.91" width="140.636" height="49.1794" rx="23" stroke="white" stroke-width="4"/>
<rect x="1124.33" y="469.91" width="6.03958" height="49.1794" fill="white"/>
<rect x="1133.83" y="469.91" width="6.03958" height="49.1794" fill="white"/>
<rect x="1143.32" y="469.91" width="6.03958" height="49.1794" fill="white"/>
<rect x="1152.81" y="469.91" width="6.03958" height="49.1794" fill="white"/>
<rect x="1162.3" y="469.91" width="6.03958" height="49.1794" fill="white"/>
<rect x="1171.79" y="469.91" width="6.03958" height="49.1794" fill="white"/>
<rect x="1181.28" y="469.91" width="6.03958" height="49.1794" fill="white"/>
<rect x="1190.77" y="469.91" width="6.03958" height="49.1794" fill="white"/>
<rect x="1200.26" y="469.91" width="6.03958" height="49.1794" fill="white"/>
<rect x="1149.36" y="464.733" width="28.4723" height="5.17678" fill="white"/>
<rect x="1149.36" y="519.09" width="28.4723" height="5.17678" fill="white"/>
</g>
<g filter="url(#filter20_d_58_1043)">
<rect x="47" y="469.91" width="140.636" height="49.1794" rx="23" stroke="white" stroke-width="4"/>
<rect x="76.335" y="469.91" width="6.03958" height="49.1794" fill="white"/>
<rect x="85.8262" y="469.91" width="6.03958" height="49.1794" fill="white"/>
<rect x="95.3164" y="469.91" width="6.03958" height="49.1794" fill="white"/>
<rect x="104.808" y="469.91" width="6.03958" height="49.1794" fill="white"/>
<rect x="114.298" y="469.91" width="6.03958" height="49.1794" fill="white"/>
<rect x="123.789" y="469.91" width="6.03958" height="49.1794" fill="white"/>
<rect x="133.279" y="469.91" width="6.03958" height="49.1794" fill="white"/>
<rect x="142.771" y="469.91" width="6.03958" height="49.1794" fill="white"/>
<rect x="152.261" y="469.91" width="6.03958" height="49.1794" fill="white"/>
<rect x="101.356" y="464.733" width="28.4723" height="5.17678" fill="white"/>
<rect x="101.356" y="519.09" width="28.4723" height="5.17678" fill="white"/>
</g>
<g filter="url(#filter21_d_58_1043)">
<rect x="1095" y="603.644" width="140.636" height="49.1794" rx="23" stroke="white" stroke-width="4"/>
<rect x="1124.33" y="603.644" width="6.03958" height="49.1794" fill="white"/>
<rect x="1133.83" y="603.644" width="6.03958" height="49.1794" fill="white"/>
<rect x="1143.32" y="603.644" width="6.03958" height="49.1794" fill="white"/>
<rect x="1152.81" y="603.644" width="6.03958" height="49.1794" fill="white"/>
<rect x="1162.3" y="603.644" width="6.03958" height="49.1794" fill="white"/>
<rect x="1171.79" y="603.644" width="6.03958" height="49.1794" fill="white"/>
<rect x="1181.28" y="603.644" width="6.03958" height="49.1794" fill="white"/>
<rect x="1190.77" y="603.644" width="6.03958" height="49.1794" fill="white"/>
<rect x="1200.26" y="603.644" width="6.03958" height="49.1794" fill="white"/>
<rect x="1149.36" y="598.467" width="28.4723" height="5.17678" fill="white"/>
<rect x="1149.36" y="652.823" width="28.4723" height="5.17678" fill="white"/>
</g>
<g filter="url(#filter22_d_58_1043)">
<rect x="47" y="603.644" width="140.636" height="49.1794" rx="23" stroke="white" stroke-width="4"/>
<rect x="76.335" y="603.644" width="6.03958" height="49.1794" fill="white"/>
<rect x="85.8262" y="603.644" width="6.03958" height="49.1794" fill="white"/>
<rect x="95.3164" y="603.644" width="6.03958" height="49.1794" fill="white"/>
<rect x="104.808" y="603.644" width="6.03958" height="49.1794" fill="white"/>
<rect x="114.298" y="603.644" width="6.03958" height="49.1794" fill="white"/>
<rect x="123.789" y="603.644" width="6.03958" height="49.1794" fill="white"/>
<rect x="133.279" y="603.644" width="6.03958" height="49.1794" fill="white"/>
<rect x="142.771" y="603.644" width="6.03958" height="49.1794" fill="white"/>
<rect x="152.261" y="603.644" width="6.03958" height="49.1794" fill="white"/>
<rect x="101.356" y="598.467" width="28.4723" height="5.17678" fill="white"/>
<rect x="101.356" y="652.823" width="28.4723" height="5.17678" fill="white"/>
</g>
<g filter="url(#filter23_d_58_1043)">
<path fill-rule="evenodd" clip-rule="evenodd" d="M316.403 139.184C340.081 128.243 350.406 100.18 339.466 76.5018C328.525 52.824 300.461 42.4985 276.784 53.4392C253.106 64.3799 242.78 92.4437 253.721 116.121C264.662 139.799 292.725 150.125 316.403 139.184ZM309.146 124.051C324.291 117.053 330.895 99.1037 323.897 83.9596C316.9 68.8154 298.95 62.2113 283.806 69.2089C268.662 76.2065 262.058 94.1559 269.055 109.3C276.053 124.444 294.002 131.048 309.146 124.051Z" fill="#FFD5E6"/>
<circle cx="309.697" cy="135.834" r="3.51282" transform="rotate(-24.8 309.697 135.834)" fill="#FFB9D6"/>
<circle cx="3.51282" cy="3.51282" r="3.51282" transform="matrix(-0.998686 0.0512543 0.0512543 0.998686 302.158 134.029)" fill="#FFB9D6"/>
<circle cx="317.706" cy="125.253" r="3.51282" transform="rotate(-24.8 317.706 125.253)" fill="#FFB9D6"/>
<circle cx="3.51282" cy="3.51282" r="3.51282" transform="matrix(-0.998686 0.0512543 0.0512543 0.998686 294.389 127.67)" fill="#FFB9D6"/>
<circle cx="329.646" cy="123.176" r="3.51282" transform="rotate(-24.8 329.646 123.176)" fill="#FFB9D6"/>
<circle cx="3.51282" cy="3.51282" r="3.51282" transform="matrix(-0.998686 0.0512543 0.0512543 0.998686 282.854 131.389)" fill="#FFB9D6"/>
<circle cx="329.695" cy="110.254" r="3.51282" transform="rotate(-24.8 329.695 110.254)" fill="#FFB9D6"/>
<circle cx="3.51282" cy="3.51282" r="3.51282" transform="matrix(-0.998686 0.0512543 0.0512543 0.998686 276.797 119.975)" fill="#FFB9D6"/>
<circle cx="338.687" cy="101.8" r="3.51282" transform="rotate(-24.8 338.687 101.8)" fill="#FFB9D6"/>
<circle cx="3.51282" cy="3.51282" r="3.51282" transform="matrix(-0.998686 0.0512543 0.0512543 0.998686 264.903 116.677)" fill="#FFB9D6"/>
<circle cx="331.268" cy="93.1885" r="3.51282" transform="rotate(-24.8 331.268 93.1885)" fill="#FFB9D6"/>
<circle cx="3.51282" cy="3.51282" r="3.51282" transform="matrix(-0.998686 0.0512543 0.0512543 0.998686 267.461 105.603)" fill="#FFB9D6"/>
<circle cx="334.479" cy="79.6661" r="3.51282" transform="rotate(-24.8 334.479 79.6661)" fill="#FFB9D6"/>
<circle cx="3.51282" cy="3.51282" r="3.51282" transform="matrix(-0.998686 0.0512543 0.0512543 0.998686 258.325 95.1289)" fill="#FFB9D6"/>
<circle cx="324.827" cy="75.5264" r="3.51282" transform="rotate(-24.8 324.827 75.5264)" fill="#FFB9D6"/>
<circle cx="3.51282" cy="3.51282" r="3.51282" transform="matrix(-0.998686 0.0512543 0.0512543 0.998686 264.942 86.9727)" fill="#FFB9D6"/>
<circle cx="324.822" cy="64.3497" r="3.51282" transform="rotate(-24.8 324.822 64.3497)" fill="#FFB9D6"/>
<circle cx="3.51282" cy="3.51282" r="3.51282" transform="matrix(-0.998686 0.0512543 0.0512543 0.998686 259.744 77.0781)" fill="#FFB9D6"/>
<circle cx="312.555" cy="65.7183" r="3.51282" transform="rotate(-24.8 312.555 65.7183)" fill="#FFB9D6"/>
<circle cx="3.51282" cy="3.51282" r="3.51282" transform="matrix(-0.998686 0.0512543 0.0512543 0.998686 271.238 72.5796)" fill="#FFB9D6"/>
<circle cx="310.425" cy="55.5235" r="3.51282" transform="rotate(-24.8 310.425 55.5235)" fill="#FFB9D6"/>
<circle cx="3.51282" cy="3.51282" r="3.51282" transform="matrix(-0.998686 0.0512543 0.0512543 0.998686 270.505 61.8022)" fill="#FFB9D6"/>
<circle cx="301.158" cy="61.525" r="3.51282" transform="rotate(-24.8 301.158 61.525)" fill="#FFB9D6"/>
<circle cx="3.51282" cy="3.51282" r="3.51282" transform="matrix(-0.998686 0.0512543 0.0512543 0.998686 282.009 62.5059)" fill="#FFB9D6"/>
<circle cx="3.51282" cy="3.51282" r="3.51282" transform="matrix(-0.998686 0.0512543 0.0512543 0.998686 286.804 54.2715)" fill="#FFB9D6"/>
<circle cx="3.51282" cy="3.51282" r="3.51282" transform="matrix(-0.998686 0.0512543 0.0512543 0.998686 298.796 50.4497)" fill="#FFB9D6"/>
<circle cx="301.348" cy="61.0074" r="2.34188" transform="rotate(-24.8 301.348 61.0074)" fill="#E68CB1"/>
<circle cx="312.037" cy="65.5279" r="2.34188" transform="rotate(-24.8 312.037 65.5279)" fill="#E68CB1"/>
<circle cx="310.614" cy="55.0059" r="2.34188" transform="rotate(-24.8 310.614 55.0059)" fill="#E68CB1"/>
<circle cx="324.304" cy="64.1597" r="2.34188" transform="rotate(-24.8 324.304 64.1597)" fill="#E68CB1"/>
<circle cx="323.927" cy="76.3726" r="2.34188" transform="rotate(-24.8 323.927 76.3726)" fill="#E68CB1"/>
<circle cx="335.323" cy="80.5655" r="2.34188" transform="rotate(-24.8 335.323 80.5655)" fill="#E68CB1"/>
<circle cx="331.458" cy="92.6709" r="2.34188" transform="rotate(-24.8 331.458 92.6709)" fill="#E68CB1"/>
<circle cx="338.168" cy="101.609" r="2.34188" transform="rotate(-24.8 338.168 101.609)" fill="#E68CB1"/>
<circle cx="329.176" cy="110.064" r="2.34188" transform="rotate(-24.8 329.176 110.064)" fill="#E68CB1"/>
<circle cx="330.163" cy="123.367" r="2.34188" transform="rotate(-24.8 330.163 123.367)" fill="#E68CB1"/>
<circle cx="317.514" cy="125.772" r="2.34188" transform="rotate(-24.8 317.514 125.772)" fill="#E68CB1"/>
<circle cx="309.886" cy="135.316" r="2.34188" transform="rotate(-24.8 309.886 135.316)" fill="#E68CB1"/>
<circle cx="298.982" cy="137.774" r="2.34188" transform="rotate(-24.8 298.982 137.774)" fill="#E68CB1"/>
<circle cx="290.802" cy="131.235" r="2.34188" transform="rotate(-24.8 290.802 131.235)" fill="#E68CB1"/>
<circle cx="278.808" cy="135.057" r="2.34188" transform="rotate(-24.8 278.808 135.057)" fill="#E68CB1"/>
<circle cx="273.57" cy="123.719" r="2.34188" transform="rotate(-24.8 273.57 123.719)" fill="#E68CB1"/>
<circle cx="260.756" cy="120.18" r="2.34188" transform="rotate(-24.8 260.756 120.18)" fill="#E68CB1"/>
<circle cx="264.949" cy="108.784" r="2.34188" transform="rotate(-24.8 264.949 108.784)" fill="#E68CB1"/>
<circle cx="254.75" cy="99.7374" r="2.34188" transform="rotate(-24.8 254.75 99.7374)" fill="#E68CB1"/>
<circle cx="261.343" cy="89.8116" r="2.34188" transform="rotate(-24.8 261.343 89.8116)" fill="#E68CB1"/>
<circle cx="256.05" cy="80.2183" r="2.34188" transform="rotate(-24.8 256.05 80.2183)" fill="#E68CB1"/>
<circle cx="268.751" cy="76.0694" r="2.34188" transform="rotate(-24.8 268.751 76.0694)" fill="#E68CB1"/>
<circle cx="294.912" cy="54.522" r="2.34188" transform="rotate(-24.8 294.912 54.522)" fill="#E68CB1"/>
<circle cx="283.955" cy="58.7247" r="2.34188" transform="rotate(-24.8 283.955 58.7247)" fill="#E68CB1"/>
<circle cx="277.798" cy="65.8697" r="2.34188" transform="rotate(-24.8 277.798 65.8697)" fill="#E68CB1"/>
<circle cx="266.293" cy="65.1661" r="2.34188" transform="rotate(-24.8 266.293 65.1661)" fill="#E68CB1"/>
<circle cx="256.241" cy="79.7002" r="1.17094" transform="rotate(-24.8 256.241 79.7002)" fill="#FFD5E6"/>
<circle cx="269.597" cy="76.9683" r="1.17094" transform="rotate(-24.8 269.597 76.9683)" fill="#FFD5E6"/>
<circle cx="261.861" cy="90.0025" r="1.17094" transform="rotate(-24.8 261.861 90.0025)" fill="#FFD5E6"/>
<circle cx="254.56" cy="100.255" r="1.17094" transform="rotate(-24.8 254.56 100.255)" fill="#FFD5E6"/>
<circle cx="265.467" cy="108.974" r="1.17094" transform="rotate(-24.8 265.467 108.974)" fill="#FFD5E6"/>
<circle cx="260.566" cy="120.698" r="1.17094" transform="rotate(-24.8 260.566 120.698)" fill="#FFD5E6"/>
<circle cx="274.797" cy="123.582" r="1.17094" transform="rotate(-24.8 274.797 123.582)" fill="#FFD5E6"/>
<circle cx="278.619" cy="135.575" r="1.17094" transform="rotate(-24.8 278.619 135.575)" fill="#FFD5E6"/>
<circle cx="292.029" cy="131.098" r="1.17094" transform="rotate(-24.8 292.029 131.098)" fill="#FFD5E6"/>
<circle cx="299.174" cy="137.256" r="1.17094" transform="rotate(-24.8 299.174 137.256)" fill="#FFD5E6"/>
<circle cx="310.732" cy="136.215" r="1.17094" transform="rotate(-24.8 310.732 136.215)" fill="#FFD5E6"/>
<circle cx="317.378" cy="124.545" r="1.17094" transform="rotate(-24.8 317.378 124.545)" fill="#FFD5E6"/>
<circle cx="330.681" cy="123.558" r="1.17094" transform="rotate(-24.8 330.681 123.558)" fill="#FFD5E6"/>
<circle cx="329.694" cy="110.255" r="1.17094" transform="rotate(-24.8 329.694 110.255)" fill="#FFD5E6"/>
<circle cx="338.687" cy="101.8" r="1.17094" transform="rotate(-24.8 338.687 101.8)" fill="#FFD5E6"/>
<circle cx="330.941" cy="92.4805" r="1.17094" transform="rotate(-24.8 330.941 92.4805)" fill="#FFD5E6"/>
<circle cx="335.133" cy="81.0835" r="1.17094" transform="rotate(-24.8 335.133 81.0835)" fill="#FFD5E6"/>
<circle cx="324.446" cy="76.563" r="1.17094" transform="rotate(-24.8 324.446 76.563)" fill="#FFD5E6"/>
<circle cx="311.519" cy="65.3369" r="1.17094" transform="rotate(-24.8 311.519 65.3369)" fill="#FFD5E6"/>
<circle cx="310.424" cy="55.5239" r="1.17094" transform="rotate(-24.8 310.424 55.5239)" fill="#FFD5E6"/>
<circle cx="301.159" cy="61.5254" r="1.17094" transform="rotate(-24.8 301.159 61.5254)" fill="#FFD5E6"/>
<circle cx="294.722" cy="55.0401" r="1.17094" transform="rotate(-24.8 294.722 55.0401)" fill="#FFD5E6"/>
<circle cx="324.495" cy="63.6416" r="1.17094" transform="rotate(-24.8 324.495 63.6416)" fill="#FFD5E6"/>
<circle cx="266.103" cy="65.6841" r="1.17094" transform="rotate(-24.8 266.103 65.6841)" fill="#FFD5E6"/>
<circle cx="279.025" cy="65.7329" r="1.17094" transform="rotate(-24.8 279.025 65.7329)" fill="#FFD5E6"/>
<circle cx="284.801" cy="59.624" r="1.17094" transform="rotate(-24.8 284.801 59.624)" fill="#FFD5E6"/>
<g filter="url(#filter24_d_58_1043)">
<ellipse cx="277.74" cy="56.4377" rx="16.3931" ry="13.2706" transform="rotate(-24.8 277.74 56.4377)" fill="#E68CB1"/>
<ellipse cx="265.526" cy="56.0612" rx="7.80626" ry="6.24501" transform="rotate(-24.8 265.526 56.0612)" fill="#BF7292"/>
<ellipse cx="286.786" cy="46.238" rx="7.80626" ry="6.24501" transform="rotate(-24.8 286.786 46.238)" fill="#BF7292"/>
<ellipse cx="264.163" cy="54.9712" rx="8.58689" ry="7.02563" transform="rotate(-24.8 264.163 54.9712)" fill="#E68CB1"/>
<ellipse cx="265.581" cy="54.3166" rx="7.80626" ry="6.24501" transform="rotate(-24.8 265.581 54.3166)" fill="#A7D2DD"/>
<ellipse cx="286.131" cy="44.8209" rx="8.58689" ry="7.02563" transform="rotate(-24.8 286.131 44.8209)" fill="#E68CB1"/>
<ellipse cx="285.422" cy="45.1481" rx="7.80626" ry="6.24501" transform="rotate(-24.8 285.422 45.1481)" fill="#A7D2DD"/>
<circle cx="268.034" cy="54.043" r="2.34188" transform="rotate(-24.8 268.034 54.043)" fill="#BF7292"/>
<circle cx="283.624" cy="46.8394" r="2.34188" transform="rotate(-24.8 283.624 46.8394)" fill="#BF7292"/>
<path d="M261.597 47.5576C257.292 49.5468 254.56 54.6595 256.368 58.5732L272.667 51.0422C270.858 47.1285 265.902 45.5684 261.597 47.5576Z" fill="#BF7292"/>
<path d="M283.565 37.4072C279.26 39.3964 276.527 44.5091 278.336 48.4228L294.634 40.8918C292.826 36.9781 287.87 35.418 283.565 37.4072Z" fill="#BF7292"/>
<path d="M276.978 58.5098L280.521 56.8726L281.339 58.6442C281.791 59.6226 281.365 60.7823 280.386 61.2344V61.2344C279.408 61.6864 278.248 61.2598 277.796 60.2814L276.978 58.5098Z" fill="#A7D2DD"/>
<circle cx="268.093" cy="63.4749" r="0.780626" transform="rotate(-24.8 268.093 63.4749)" fill="#A7D2DD"/>
<circle cx="268.556" cy="65.4103" r="0.390313" transform="rotate(-24.8 268.556 65.4103)" fill="#FFD3E5"/>
<circle cx="289.816" cy="55.5871" r="0.390313" transform="rotate(-24.8 289.816 55.5871)" fill="#FFD3E5"/>
<circle cx="266.866" cy="63.612" r="0.390313" transform="rotate(-24.8 266.866 63.612)" fill="#FFD3E5"/>
<circle cx="288.124" cy="53.7887" r="0.390313" transform="rotate(-24.8 288.124 53.7887)" fill="#FFD3E5"/>
<circle cx="270.028" cy="63.0109" r="0.390313" transform="rotate(-24.8 270.028 63.0109)" fill="#FFD3E5"/>
<circle cx="291.287" cy="53.1877" r="0.390313" transform="rotate(-24.8 291.287 53.1877)" fill="#FFD3E5"/>
<circle cx="289.352" cy="53.6522" r="0.780626" transform="rotate(-24.8 289.352 53.6522)" fill="#A7D2DD"/>
<circle cx="266.294" cy="65.1659" r="0.780626" transform="rotate(-24.8 266.294 65.1659)" fill="#A7D2DD"/>
<circle cx="287.553" cy="55.3431" r="0.780626" transform="rotate(-24.8 287.553 55.3431)" fill="#A7D2DD"/>
<circle cx="270.164" cy="64.2376" r="0.780626" transform="rotate(-24.8 270.164 64.2376)" fill="#A7D2DD"/>
<circle cx="291.424" cy="54.4144" r="0.780626" transform="rotate(-24.8 291.424 54.4144)" fill="#A7D2DD"/>
</g>
</g>
<rect x="1128" y="343" width="74" height="36" fill="#FFDF5A"/>
<rect x="1124" y="344" width="4" height="2" fill="#FFDF5A"/>
<rect width="4" height="2" transform="matrix(-1 0 0 1 1206 344)" fill="#FFDF5A"/>
<rect x="1124" y="348" width="4" height="2" fill="#D990B0"/>
<rect width="4" height="2" transform="matrix(-1 0 0 1 1206 348)" fill="#D990B0"/>
<rect x="1124" y="352" width="4" height="2" fill="#FFDF5A"/>
<rect width="4" height="2" transform="matrix(-1 0 0 1 1206 352)" fill="#FFDF5A"/>
<path d="M1124 356H1128V358H1124V356Z" fill="#D990B0"/>
<rect width="4" height="2" transform="matrix(-1 0 0 1 1206 356)" fill="#D990B0"/>
<rect x="1124" y="360" width="4" height="2" fill="#FFDF5A"/>
<rect width="4" height="2" transform="matrix(-1 0 0 1 1206 360)" fill="#FFDF5A"/>
<rect x="1124" y="364" width="4" height="2" fill="#D990B0"/>
<rect width="4" height="2" transform="matrix(-1 0 0 1 1206 364)" fill="#D990B0"/>
<rect x="1124" y="368" width="4" height="2" fill="#FFDF5A"/>
<rect width="4" height="2" transform="matrix(-1 0 0 1 1206 368)" fill="#FFDF5A"/>
<rect x="1124" y="372" width="4" height="2" fill="#D990B0"/>
<rect width="4" height="2" transform="matrix(-1 0 0 1 1206 372)" fill="#D990B0"/>
<rect x="1124" y="376" width="4" height="2" fill="#FFDF5A"/>
<rect width="4" height="2" transform="matrix(-1 0 0 1 1206 376)" fill="#FFDF5A"/>
<rect x="1132" y="346" width="67" height="30" fill="#D990B0"/>
<circle cx="1166.5" cy="361.5" r="7.5" fill="#FFDF5A"/>
<rect x="87.1709" y="475" width="58.6585" height="40" fill="#C4DC5B"/>
<rect x="84" y="476.111" width="3.17073" height="2.22222" fill="#C4DC5B"/>
<rect width="3.17073" height="2.22222" transform="matrix(-1 0 0 1 149 476.111)" fill="#C4DC5B"/>
<rect x="84" y="480.556" width="3.17073" height="2.22222" fill="#C4DC5B"/>
<rect width="3.17073" height="2.22222" transform="matrix(-1 0 0 1 149 480.556)" fill="#C4DC5B"/>
<rect x="84" y="485" width="3.17073" height="2.22222" fill="#C4DC5B"/>
<rect width="3.17073" height="2.22222" transform="matrix(-1 0 0 1 149 485)" fill="#C4DC5B"/>
<path d="M84 489.444H87.1707V491.667H84V489.444Z" fill="#C4DC5B"/>
<rect width="3.17073" height="2.22222" transform="matrix(-1 0 0 1 149 489.444)" fill="#C4DC5B"/>
<rect x="84" y="493.889" width="3.17073" height="2.22222" fill="#C4DC5B"/>
<rect width="3.17073" height="2.22222" transform="matrix(-1 0 0 1 149 493.889)" fill="#C4DC5B"/>
<rect x="84" y="498.333" width="3.17073" height="2.22222" fill="#C4DC5B"/>
<rect width="3.17073" height="2.22222" transform="matrix(-1 0 0 1 149 498.333)" fill="#C4DC5B"/>
<rect x="84" y="502.778" width="3.17073" height="2.22222" fill="#C4DC5B"/>
<rect width="3.17073" height="2.22222" transform="matrix(-1 0 0 1 149 502.778)" fill="#C4DC5B"/>
<rect x="84" y="507.222" width="3.17073" height="2.22222" fill="#C4DC5B"/>
<rect width="3.17073" height="2.22222" transform="matrix(-1 0 0 1 149 507.222)" fill="#C4DC5B"/>
<rect x="84" y="511.667" width="3.17073" height="2.22222" fill="#C4DC5B"/>
<rect width="3.17073" height="2.22222" transform="matrix(-1 0 0 1 149 511.667)" fill="#C4DC5B"/>
<g filter="url(#filter25_dd_58_1043)">
<path d="M1201.52 678.817L1139.26 653.768C1151.06 645.643 1155.29 639.716 1158.95 626.933L1201.52 678.817Z" fill="#79A5F7"/>
<path d="M1201.15 674.344L1150.23 718.074C1164.02 721.974 1169.93 726.229 1177.5 737.158L1201.15 674.344Z" fill="white"/>
<path d="M1197.57 679.574L1222.08 617.091C1208.06 620.104 1200.85 619.11 1189.05 613L1197.57 679.574Z" fill="#79A5F7"/>
<path d="M1197.16 674.897L1240.45 726.19C1226.21 727.84 1219.7 731.098 1210.48 740.679L1197.16 674.897Z" fill="white"/>
<path d="M1202.55 675.877L1136.3 687.321C1142.19 673.87 1142.73 666.412 1139.24 653.251L1202.55 675.877Z" fill="white"/>
<path d="M1198.05 678.254L1264.06 666.125C1254.11 655.809 1251.15 649.158 1250.11 635.902L1198.05 678.254Z" fill="#79A5F7"/>
<path d="M1198.03 675.994L1264.44 666.266C1258.33 679.233 1257.67 686.481 1260.95 699.367L1198.03 675.994Z" fill="white"/>
<path d="M1200.88 679.031L1188.85 613C1178.52 622.934 1171.86 625.881 1158.61 626.897L1200.88 679.031Z" fill="white"/>
<path d="M1200.46 674.348L1210.3 740.741C1197.32 734.655 1190.07 734.003 1177.19 737.301L1200.46 674.348Z" fill="#79A5F7"/>
<path d="M1197.6 679.225L1249.34 636.468C1235.62 632.307 1229.8 627.941 1222.44 616.87L1197.6 679.225Z" fill="white"/>
<path d="M1197.3 675.217L1260.03 699.08C1248.38 707.428 1244.27 713.434 1240.86 726.284L1197.3 675.217Z" fill="#79A5F7"/>
<path d="M1202.26 675.834L1149.98 718.056C1148.59 703.511 1145.44 696.773 1136 687.053L1202.26 675.834Z" fill="#79A5F7"/>
<circle cx="1199" cy="675.699" r="8.51467" fill="white"/>
</g>
<g filter="url(#filter26_dd_58_1043)">
<path d="M82.5237 281.817L20.2557 256.768C32.0634 248.643 36.2876 242.716 39.9467 229.933L82.5237 281.817Z" fill="#FFDF5A"/>
<path d="M82.1461 277.344L31.2307 321.074C45.0232 324.974 50.9281 329.229 58.501 340.158L82.1461 277.344Z" fill="white"/>
<path d="M78.5709 282.574L103.078 220.091C89.0649 223.104 81.8547 222.11 70.0455 216L78.5709 282.574Z" fill="#FFDF5A"/>
<path d="M78.1596 277.897L121.446 329.19C107.208 330.84 100.7 334.098 91.4806 343.679L78.1596 277.897Z" fill="white"/>
<path d="M83.5473 278.877L17.2967 290.321C23.188 276.87 23.7306 269.412 20.2373 256.251L83.5473 278.877Z" fill="white"/>
<path d="M79.0455 281.254L145.058 269.125C135.107 258.809 132.15 252.158 131.113 238.902L79.0455 281.254Z" fill="#FFDF5A"/>
<path d="M79.0324 278.994L145.441 269.266C139.334 282.233 138.67 289.481 141.948 302.367L79.0324 278.994Z" fill="white"/>
<path d="M81.8763 282.031L69.8518 216C59.5193 225.934 52.8642 228.881 39.6069 229.897L81.8763 282.031Z" fill="white"/>
<path d="M81.4643 277.348L91.2975 343.741C78.3208 337.655 71.0716 337.003 58.1911 340.301L81.4643 277.348Z" fill="#FFDF5A"/>
<path d="M78.6031 282.225L130.339 239.468C116.623 235.307 110.799 230.941 103.435 219.87L78.6031 282.225Z" fill="white"/>
<path d="M78.3021 278.217L141.034 302.08C129.382 310.428 125.271 316.434 121.855 329.284L78.3021 278.217Z" fill="#FFDF5A"/>
<path d="M83.265 278.834L30.9754 321.056C29.5885 306.511 26.4409 299.773 17.0002 290.053L83.265 278.834Z" fill="#FFDF5A"/>
<circle cx="79.9961" cy="278.699" r="8.51467" fill="white"/>
</g>
<g filter="url(#filter27_dd_58_1043)">
<path d="M1195.52 251.817L1133.26 226.768C1145.06 218.643 1149.29 212.716 1152.95 199.933L1195.52 251.817Z" fill="#DB5E57"/>
<path d="M1195.15 247.344L1144.23 291.074C1158.02 294.974 1163.93 299.229 1171.5 310.158L1195.15 247.344Z" fill="white"/>
<path d="M1191.57 252.574L1216.08 190.091C1202.06 193.104 1194.85 192.11 1183.05 186L1191.57 252.574Z" fill="#DB5E57"/>
<path d="M1191.16 247.897L1234.45 299.19C1220.21 300.84 1213.7 304.098 1204.48 313.679L1191.16 247.897Z" fill="white"/>
<path d="M1196.55 248.877L1130.3 260.321C1136.19 246.87 1136.73 239.412 1133.24 226.251L1196.55 248.877Z" fill="white"/>
<path d="M1192.05 251.254L1258.06 239.125C1248.11 228.809 1245.15 222.158 1244.11 208.902L1192.05 251.254Z" fill="#DB5E57"/>
<path d="M1192.03 248.994L1258.44 239.266C1252.33 252.233 1251.67 259.481 1254.95 272.367L1192.03 248.994Z" fill="white"/>
<path d="M1194.88 252.031L1182.85 186C1172.52 195.934 1165.86 198.881 1152.61 199.897L1194.88 252.031Z" fill="white"/>
<path d="M1194.46 247.348L1204.3 313.741C1191.32 307.655 1184.07 307.003 1171.19 310.301L1194.46 247.348Z" fill="#DB5E57"/>
<path d="M1191.6 252.225L1243.34 209.468C1229.62 205.307 1223.8 200.941 1216.44 189.87L1191.6 252.225Z" fill="white"/>
<path d="M1191.3 248.217L1254.03 272.08C1242.38 280.428 1238.27 286.434 1234.86 299.284L1191.3 248.217Z" fill="#DB5E57"/>
<path d="M1196.26 248.834L1143.98 291.056C1142.59 276.511 1139.44 269.773 1130 260.053L1196.26 248.834Z" fill="#DB5E57"/>
<circle cx="1193" cy="248.699" r="8.51467" fill="white"/>
</g>
<ellipse cx="111" cy="900" rx="93" ry="85" fill="#132D44"/>
<ellipse cx="1135" cy="1002" rx="93" ry="85" fill="#18344D"/>
<ellipse cx="1211" cy="867" rx="48" ry="44" fill="#18344D"/>
<defs>
<filter id="filter0_d_58_1043" x="237" y="169" width="821" height="679" filterUnits="userSpaceOnUse" color-interpolation-filters="sRGB">
<feFlood flood-opacity="0" result="BackgroundImageFix"/>
<feColorMatrix in="SourceAlpha" type="matrix" values="0 0 0 0 0 0 0 0 0 0 0 0 0 0 0 0 0 0 127 0" result="hardAlpha"/>
<feOffset dx="15" dy="33"/>
<feComposite in2="hardAlpha" operator="out"/>
<feColorMatrix type="matrix" values="0 0 0 0 0 0 0 0 0 0 0 0 0 0 0 0 0 0 0.25 0"/>
<feBlend mode="normal" in2="BackgroundImageFix" result="effect1_dropShadow_58_1043"/>
<feBlend mode="normal" in="SourceGraphic" in2="effect1_dropShadow_58_1043" result="shape"/>
</filter>
<filter id="filter1_d_58_1043" x="355.333" y="206.526" width="4" height="135.474" filterUnits="userSpaceOnUse" color-interpolation-filters="sRGB">
<feFlood flood-opacity="0" result="BackgroundImageFix"/>
<feColorMatrix in="SourceAlpha" type="matrix" values="0 0 0 0 0 0 0 0 0 0 0 0 0 0 0 0 0 0 127 0" result="hardAlpha"/>
<feOffset dx="2" dy="2"/>
<feComposite in2="hardAlpha" operator="out"/>
<feColorMatrix type="matrix" values="0 0 0 0 0.337255 0 0 0 0 0.603922 0 0 0 0 0.670588 0 0 0 1 0"/>
<feBlend mode="normal" in2="BackgroundImageFix" result="effect1_dropShadow_58_1043"/>
<feBlend mode="normal" in="SourceGraphic" in2="effect1_dropShadow_58_1043" result="shape"/>
</filter>
<filter id="filter2_d_58_1043" x="355.889" y="215.972" width="62.667" height="3" filterUnits="userSpaceOnUse" color-interpolation-filters="sRGB">
<feFlood flood-opacity="0" result="BackgroundImageFix"/>
<feColorMatrix in="SourceAlpha" type="matrix" values="0 0 0 0 0 0 0 0 0 0 0 0 0 0 0 0 0 0 127 0" result="hardAlpha"/>
<feOffset dx="2" dy="2"/>
<feComposite in2="hardAlpha" operator="out"/>
<feColorMatrix type="matrix" values="0 0 0 0 0.337255 0 0 0 0 0.603922 0 0 0 0 0.670588 0 0 0 1 0"/>
<feBlend mode="normal" in2="BackgroundImageFix" result="effect1_dropShadow_58_1043"/>
<feBlend mode="normal" in="SourceGraphic" in2="effect1_dropShadow_58_1043" result="shape"/>
</filter>
<filter id="filter3_d_58_1043" x="355.889" y="229.899" width="62.667" height="3" filterUnits="userSpaceOnUse" color-interpolation-filters="sRGB">
<feFlood flood-opacity="0" result="BackgroundImageFix"/>
<feColorMatrix in="SourceAlpha" type="matrix" values="0 0 0 0 0 0 0 0 0 0 0 0 0 0 0 0 0 0 127 0" result="hardAlpha"/>
<feOffset dx="2" dy="2"/>
<feComposite in2="hardAlpha" operator="out"/>
<feColorMatrix type="matrix" values="0 0 0 0 0.337255 0 0 0 0 0.603922 0 0 0 0 0.670588 0 0 0 1 0"/>
<feBlend mode="normal" in2="BackgroundImageFix" result="effect1_dropShadow_58_1043"/>
<feBlend mode="normal" in="SourceGraphic" in2="effect1_dropShadow_58_1043" result="shape"/>
</filter>
<filter id="filter4_d_58_1043" x="355.889" y="243.826" width="62.667" height="3" filterUnits="userSpaceOnUse" color-interpolation-filters="sRGB">
<feFlood flood-opacity="0" result="BackgroundImageFix"/>
<feColorMatrix in="SourceAlpha" type="matrix" values="0 0 0 0 0 0 0 0 0 0 0 0 0 0 0 0 0 0 127 0" result="hardAlpha"/>
<feOffset dx="2" dy="2"/>
<feComposite in2="hardAlpha" operator="out"/>
<feColorMatrix type="matrix" values="0 0 0 0 0.337255 0 0 0 0 0.603922 0 0 0 0 0.670588 0 0 0 1 0"/>
<feBlend mode="normal" in2="BackgroundImageFix" result="effect1_dropShadow_58_1043"/>
<feBlend mode="normal" in="SourceGraphic" in2="effect1_dropShadow_58_1043" result="shape"/>
</filter>
<filter id="filter5_d_58_1043" x="355.889" y="257.753" width="62.667" height="3" filterUnits="userSpaceOnUse" color-interpolation-filters="sRGB">
<feFlood flood-opacity="0" result="BackgroundImageFix"/>
<feColorMatrix in="SourceAlpha" type="matrix" values="0 0 0 0 0 0 0 0 0 0 0 0 0 0 0 0 0 0 127 0" result="hardAlpha"/>
<feOffset dx="2" dy="2"/>
<feComposite in2="hardAlpha" operator="out"/>
<feColorMatrix type="matrix" values="0 0 0 0 0.337255 0 0 0 0 0.603922 0 0 0 0 0.670588 0 0 0 1 0"/>
<feBlend mode="normal" in2="BackgroundImageFix" result="effect1_dropShadow_58_1043"/>
<feBlend mode="normal" in="SourceGraphic" in2="effect1_dropShadow_58_1043" result="shape"/>
</filter>
<filter id="filter6_d_58_1043" x="355.889" y="271.68" width="62.667" height="3" filterUnits="userSpaceOnUse" color-interpolation-filters="sRGB">
<feFlood flood-opacity="0" result="BackgroundImageFix"/>
<feColorMatrix in="SourceAlpha" type="matrix" values="0 0 0 0 0 0 0 0 0 0 0 0 0 0 0 0 0 0 127 0" result="hardAlpha"/>
<feOffset dx="2" dy="2"/>
<feComposite in2="hardAlpha" operator="out"/>
<feColorMatrix type="matrix" values="0 0 0 0 0.337255 0 0 0 0 0.603922 0 0 0 0 0.670588 0 0 0 1 0"/>
<feBlend mode="normal" in2="BackgroundImageFix" result="effect1_dropShadow_58_1043"/>
<feBlend mode="normal" in="SourceGraphic" in2="effect1_dropShadow_58_1043" result="shape"/>
</filter>
<filter id="filter7_d_58_1043" x="355.889" y="285.607" width="62.667" height="3" filterUnits="userSpaceOnUse" color-interpolation-filters="sRGB">
<feFlood flood-opacity="0" result="BackgroundImageFix"/>
<feColorMatrix in="SourceAlpha" type="matrix" values="0 0 0 0 0 0 0 0 0 0 0 0 0 0 0 0 0 0 127 0" result="hardAlpha"/>
<feOffset dx="2" dy="2"/>
<feComposite in2="hardAlpha" operator="out"/>
<feColorMatrix type="matrix" values="0 0 0 0 0.337255 0 0 0 0 0.603922 0 0 0 0 0.670588 0 0 0 1 0"/>
<feBlend mode="normal" in2="BackgroundImageFix" result="effect1_dropShadow_58_1043"/>
<feBlend mode="normal" in="SourceGraphic" in2="effect1_dropShadow_58_1043" result="shape"/>
</filter>
<filter id="filter8_d_58_1043" x="355.889" y="299.535" width="62.667" height="3" filterUnits="userSpaceOnUse" color-interpolation-filters="sRGB">
<feFlood flood-opacity="0" result="BackgroundImageFix"/>
<feColorMatrix in="SourceAlpha" type="matrix" values="0 0 0 0 0 0 0 0 0 0 0 0 0 0 0 0 0 0 127 0" result="hardAlpha"/>
<feOffset dx="2" dy="2"/>
<feComposite in2="hardAlpha" operator="out"/>
<feColorMatrix type="matrix" values="0 0 0 0 0.337255 0 0 0 0 0.603922 0 0 0 0 0.670588 0 0 0 1 0"/>
<feBlend mode="normal" in2="BackgroundImageFix" result="effect1_dropShadow_58_1043"/>
<feBlend mode="normal" in="SourceGraphic" in2="effect1_dropShadow_58_1043" result="shape"/>
</filter>
<filter id="filter9_d_58_1043" x="355.889" y="313.462" width="62.667" height="3" filterUnits="userSpaceOnUse" color-interpolation-filters="sRGB">
<feFlood flood-opacity="0" result="BackgroundImageFix"/>
<feColorMatrix in="SourceAlpha" type="matrix" values="0 0 0 0 0 0 0 0 0 0 0 0 0 0 0 0 0 0 127 0" result="hardAlpha"/>
<feOffset dx="2" dy="2"/>
<feComposite in2="hardAlpha" operator="out"/>
<feColorMatrix type="matrix" values="0 0 0 0 0.337255 0 0 0 0 0.603922 0 0 0 0 0.670588 0 0 0 1 0"/>
<feBlend mode="normal" in2="BackgroundImageFix" result="effect1_dropShadow_58_1043"/>
<feBlend mode="normal" in="SourceGraphic" in2="effect1_dropShadow_58_1043" result="shape"/>
</filter>
<filter id="filter10_d_58_1043" x="355.889" y="327.389" width="62.667" height="3" filterUnits="userSpaceOnUse" color-interpolation-filters="sRGB">
<feFlood flood-opacity="0" result="BackgroundImageFix"/>
<feColorMatrix in="SourceAlpha" type="matrix" values="0 0 0 0 0 0 0 0 0 0 0 0 0 0 0 0 0 0 127 0" result="hardAlpha"/>
<feOffset dx="2" dy="2"/>
<feComposite in2="hardAlpha" operator="out"/>
<feColorMatrix type="matrix" values="0 0 0 0 0.337255 0 0 0 0 0.603922 0 0 0 0 0.670588 0 0 0 1 0"/>
<feBlend mode="normal" in2="BackgroundImageFix" result="effect1_dropShadow_58_1043"/>
<feBlend mode="normal" in="SourceGraphic" in2="effect1_dropShadow_58_1043" result="shape"/>
</filter>
<filter id="filter11_d_58_1043" x="414.556" y="206.526" width="4" height="135.474" filterUnits="userSpaceOnUse" color-interpolation-filters="sRGB">
<feFlood flood-opacity="0" result="BackgroundImageFix"/>
<feColorMatrix in="SourceAlpha" type="matrix" values="0 0 0 0 0 0 0 0 0 0 0 0 0 0 0 0 0 0 127 0" result="hardAlpha"/>
<feOffset dx="2" dy="2"/>
<feComposite in2="hardAlpha" operator="out"/>
<feColorMatrix type="matrix" values="0 0 0 0 0.337255 0 0 0 0 0.603922 0 0 0 0 0.670588 0 0 0 1 0"/>
<feBlend mode="normal" in2="BackgroundImageFix" result="effect1_dropShadow_58_1043"/>
<feBlend mode="normal" in="SourceGraphic" in2="effect1_dropShadow_58_1043" result="shape"/>
</filter>
<filter id="filter12_d_58_1043" x="871.035" y="612.104" width="129.168" height="133.789" filterUnits="userSpaceOnUse" color-interpolation-filters="sRGB">
<feFlood flood-opacity="0" result="BackgroundImageFix"/>
<feColorMatrix in="SourceAlpha" type="matrix" values="0 0 0 0 0 0 0 0 0 0 0 0 0 0 0 0 0 0 127 0" result="hardAlpha"/>
<feOffset dx="1" dy="5"/>
<feComposite in2="hardAlpha" operator="out"/>
<feColorMatrix type="matrix" values="0 0 0 0 0.333333 0 0 0 0 0.6 0 0 0 0 0.666667 0 0 0 0.97 0"/>
<feBlend mode="normal" in2="BackgroundImageFix" result="effect1_dropShadow_58_1043"/>
<feBlend mode="normal" in="SourceGraphic" in2="effect1_dropShadow_58_1043" result="shape"/>
</filter>
<filter id="filter13_d_58_1043" x="948.951" y="612.104" width="52.252" height="50.0537" filterUnits="userSpaceOnUse" color-interpolation-filters="sRGB">
<feFlood flood-opacity="0" result="BackgroundImageFix"/>
<feColorMatrix in="SourceAlpha" type="matrix" values="0 0 0 0 0 0 0 0 0 0 0 0 0 0 0 0 0 0 127 0" result="hardAlpha"/>
<feOffset dy="2"/>
<feGaussianBlur stdDeviation="1"/>
<feComposite in2="hardAlpha" operator="out"/>
<feColorMatrix type="matrix" values="0 0 0 0 0.0480358 0 0 0 0 0.0737861 0 0 0 0 0.0967773 0 0 0 0.3 0"/>
<feBlend mode="normal" in2="BackgroundImageFix" result="effect1_dropShadow_58_1043"/>
<feBlend mode="normal" in="SourceGraphic" in2="effect1_dropShadow_58_1043" result="shape"/>
</filter>
<filter id="filter14_d_58_1043" x="298.009" y="578.009" width="234.052" height="157.907" filterUnits="userSpaceOnUse" color-interpolation-filters="sRGB">
<feFlood flood-opacity="0" result="BackgroundImageFix"/>
<feColorMatrix in="SourceAlpha" type="matrix" values="0 0 0 0 0 0 0 0 0 0 0 0 0 0 0 0 0 0 127 0" result="hardAlpha"/>
<feOffset dx="7" dy="10"/>
<feComposite in2="hardAlpha" operator="out"/>
<feColorMatrix type="matrix" values="0 0 0 0 0.337255 0 0 0 0 0.603922 0 0 0 0 0.670588 0 0 0 1 0"/>
<feBlend mode="normal" in2="BackgroundImageFix" result="effect1_dropShadow_58_1043"/>
<feBlend mode="normal" in="SourceGraphic" in2="effect1_dropShadow_58_1043" result="shape"/>
</filter>
<filter id="filter15_d_58_1043" x="583.156" y="674.249" width="214.802" height="101.099" filterUnits="userSpaceOnUse" color-interpolation-filters="sRGB">
<feFlood flood-opacity="0" result="BackgroundImageFix"/>
<feColorMatrix in="SourceAlpha" type="matrix" values="0 0 0 0 0 0 0 0 0 0 0 0 0 0 0 0 0 0 127 0" result="hardAlpha"/>
<feOffset dx="4" dy="8"/>
<feComposite in2="hardAlpha" operator="out"/>
<feColorMatrix type="matrix" values="0 0 0 0 0.337255 0 0 0 0 0.603922 0 0 0 0 0.670588 0 0 0 1 0"/>
<feBlend mode="normal" in2="BackgroundImageFix" result="effect1_dropShadow_58_1043"/>
<feBlend mode="normal" in="SourceGraphic" in2="effect1_dropShadow_58_1043" result="shape"/>
</filter>
<filter id="filter16_d_58_1043" x="528.862" y="310.734" width="199.923" height="131.907" filterUnits="userSpaceOnUse" color-interpolation-filters="sRGB">
<feFlood flood-opacity="0" result="BackgroundImageFix"/>
<feColorMatrix in="SourceAlpha" type="matrix" values="0 0 0 0 0 0 0 0 0 0 0 0 0 0 0 0 0 0 127 0" result="hardAlpha"/>
<feOffset dx="-2" dy="7"/>
<feComposite in2="hardAlpha" operator="out"/>
<feColorMatrix type="matrix" values="0 0 0 0 0.337255 0 0 0 0 0.603922 0 0 0 0 0.670588 0 0 0 1 0"/>
<feBlend mode="normal" in2="BackgroundImageFix" result="effect1_dropShadow_58_1043"/>
<feBlend mode="normal" in="SourceGraphic" in2="effect1_dropShadow_58_1043" result="shape"/>
</filter>
<filter id="filter17_d_58_1043" x="1093" y="331" width="159.636" height="72.5332" filterUnits="userSpaceOnUse" color-interpolation-filters="sRGB">
<feFlood flood-opacity="0" result="BackgroundImageFix"/>
<feColorMatrix in="SourceAlpha" type="matrix" values="0 0 0 0 0 0 0 0 0 0 0 0 0 0 0 0 0 0 127 0" result="hardAlpha"/>
<feOffset dx="15" dy="13"/>
<feComposite in2="hardAlpha" operator="out"/>
<feColorMatrix type="matrix" values="0 0 0 0 0.0431373 0 0 0 0 0.129412 0 0 0 0 0.207843 0 0 0 1 0"/>
<feBlend mode="normal" in2="BackgroundImageFix" result="effect1_dropShadow_58_1043"/>
<feBlend mode="normal" in="SourceGraphic" in2="effect1_dropShadow_58_1043" result="shape"/>
</filter>
<filter id="filter18_d_58_1043" x="45" y="331" width="159.636" height="72.5332" filterUnits="userSpaceOnUse" color-interpolation-filters="sRGB">
<feFlood flood-opacity="0" result="BackgroundImageFix"/>
<feColorMatrix in="SourceAlpha" type="matrix" values="0 0 0 0 0 0 0 0 0 0 0 0 0 0 0 0 0 0 127 0" result="hardAlpha"/>
<feOffset dx="15" dy="13"/>
<feComposite in2="hardAlpha" operator="out"/>
<feColorMatrix type="matrix" values="0 0 0 0 0.0431373 0 0 0 0 0.129412 0 0 0 0 0.207843 0 0 0 1 0"/>
<feBlend mode="normal" in2="BackgroundImageFix" result="effect1_dropShadow_58_1043"/>
<feBlend mode="normal" in="SourceGraphic" in2="effect1_dropShadow_58_1043" result="shape"/>
</filter>
<filter id="filter19_d_58_1043" x="1093" y="464.733" width="159.636" height="72.5332" filterUnits="userSpaceOnUse" color-interpolation-filters="sRGB">
<feFlood flood-opacity="0" result="BackgroundImageFix"/>
<feColorMatrix in="SourceAlpha" type="matrix" values="0 0 0 0 0 0 0 0 0 0 0 0 0 0 0 0 0 0 127 0" result="hardAlpha"/>
<feOffset dx="15" dy="13"/>
<feComposite in2="hardAlpha" operator="out"/>
<feColorMatrix type="matrix" values="0 0 0 0 0.0431373 0 0 0 0 0.129412 0 0 0 0 0.207843 0 0 0 1 0"/>
<feBlend mode="normal" in2="BackgroundImageFix" result="effect1_dropShadow_58_1043"/>
<feBlend mode="normal" in="SourceGraphic" in2="effect1_dropShadow_58_1043" result="shape"/>
</filter>
<filter id="filter20_d_58_1043" x="45" y="464.733" width="159.636" height="72.5332" filterUnits="userSpaceOnUse" color-interpolation-filters="sRGB">
<feFlood flood-opacity="0" result="BackgroundImageFix"/>
<feColorMatrix in="SourceAlpha" type="matrix" values="0 0 0 0 0 0 0 0 0 0 0 0 0 0 0 0 0 0 127 0" result="hardAlpha"/>
<feOffset dx="15" dy="13"/>
<feComposite in2="hardAlpha" operator="out"/>
<feColorMatrix type="matrix" values="0 0 0 0 0.0431373 0 0 0 0 0.129412 0 0 0 0 0.207843 0 0 0 1 0"/>
<feBlend mode="normal" in2="BackgroundImageFix" result="effect1_dropShadow_58_1043"/>
<feBlend mode="normal" in="SourceGraphic" in2="effect1_dropShadow_58_1043" result="shape"/>
</filter>
<filter id="filter21_d_58_1043" x="1093" y="598.467" width="159.636" height="72.5332" filterUnits="userSpaceOnUse" color-interpolation-filters="sRGB">
<feFlood flood-opacity="0" result="BackgroundImageFix"/>
<feColorMatrix in="SourceAlpha" type="matrix" values="0 0 0 0 0 0 0 0 0 0 0 0 0 0 0 0 0 0 127 0" result="hardAlpha"/>
<feOffset dx="15" dy="13"/>
<feComposite in2="hardAlpha" operator="out"/>
<feColorMatrix type="matrix" values="0 0 0 0 0.0431373 0 0 0 0 0.129412 0 0 0 0 0.207843 0 0 0 1 0"/>
<feBlend mode="normal" in2="BackgroundImageFix" result="effect1_dropShadow_58_1043"/>
<feBlend mode="normal" in="SourceGraphic" in2="effect1_dropShadow_58_1043" result="shape"/>
</filter>
<filter id="filter22_d_58_1043" x="45" y="598.467" width="159.636" height="72.5332" filterUnits="userSpaceOnUse" color-interpolation-filters="sRGB">
<feFlood flood-opacity="0" result="BackgroundImageFix"/>
<feColorMatrix in="SourceAlpha" type="matrix" values="0 0 0 0 0 0 0 0 0 0 0 0 0 0 0 0 0 0 127 0" result="hardAlpha"/>
<feOffset dx="15" dy="13"/>
<feComposite in2="hardAlpha" operator="out"/>
<feColorMatrix type="matrix" values="0 0 0 0 0.0431373 0 0 0 0 0.129412 0 0 0 0 0.207843 0 0 0 1 0"/>
<feBlend mode="normal" in2="BackgroundImageFix" result="effect1_dropShadow_58_1043"/>
<feBlend mode="normal" in="SourceGraphic" in2="effect1_dropShadow_58_1043" result="shape"/>
</filter>
<filter id="filter23_d_58_1043" x="249.354" y="36.5425" width="105.479" height="113.008" filterUnits="userSpaceOnUse" color-interpolation-filters="sRGB">
<feFlood flood-opacity="0" result="BackgroundImageFix"/>
<feColorMatrix in="SourceAlpha" type="matrix" values="0 0 0 0 0 0 0 0 0 0 0 0 0 0 0 0 0 0 127 0" result="hardAlpha"/>
<feOffset dx="11" dy="6"/>
<feComposite in2="hardAlpha" operator="out"/>
<feColorMatrix type="matrix" values="0 0 0 0 0.0425375 0 0 0 0 0.130841 0 0 0 0 0.209684 0 0 0 1 0"/>
<feBlend mode="normal" in2="BackgroundImageFix" result="effect1_dropShadow_58_1043"/>
<feBlend mode="normal" in="SourceGraphic" in2="effect1_dropShadow_58_1043" result="shape"/>
</filter>
<filter id="filter24_d_58_1043" x="253.802" y="36.5425" width="42.833" height="37.7686" filterUnits="userSpaceOnUse" color-interpolation-filters="sRGB">
<feFlood flood-opacity="0" result="BackgroundImageFix"/>
<feColorMatrix in="SourceAlpha" type="matrix" values="0 0 0 0 0 0 0 0 0 0 0 0 0 0 0 0 0 0 127 0" result="hardAlpha"/>
<feOffset dy="2"/>
<feGaussianBlur stdDeviation="1"/>
<feComposite in2="hardAlpha" operator="out"/>
<feColorMatrix type="matrix" values="0 0 0 0 0.0480358 0 0 0 0 0.0737861 0 0 0 0 0.0967773 0 0 0 0.3 0"/>
<feBlend mode="normal" in2="BackgroundImageFix" result="effect1_dropShadow_58_1043"/>
<feBlend mode="normal" in="SourceGraphic" in2="effect1_dropShadow_58_1043" result="shape"/>
</filter>
<filter id="filter25_dd_58_1043" x="1132" y="613" width="138.44" height="135.741" filterUnits="userSpaceOnUse" color-interpolation-filters="sRGB">
<feFlood flood-opacity="0" result="BackgroundImageFix"/>
<feColorMatrix in="SourceAlpha" type="matrix" values="0 0 0 0 0 0 0 0 0 0 0 0 0 0 0 0 0 0 127 0" result="hardAlpha"/>
<feOffset dx="6" dy="3"/>
<feComposite in2="hardAlpha" operator="out"/>
<feColorMatrix type="matrix" values="0 0 0 0 0 0 0 0 0 0 0 0 0 0 0 0 0 0 0.25 0"/>
<feBlend mode="normal" in2="BackgroundImageFix" result="effect1_dropShadow_58_1043"/>
<feColorMatrix in="SourceAlpha" type="matrix" values="0 0 0 0 0 0 0 0 0 0 0 0 0 0 0 0 0 0 127 0" result="hardAlpha"/>
<feOffset dy="4"/>
<feGaussianBlur stdDeviation="2"/>
<feComposite in2="hardAlpha" operator="out"/>
<feColorMatrix type="matrix" values="0 0 0 0 0 0 0 0 0 0 0 0 0 0 0 0 0 0 0.25 0"/>
<feBlend mode="normal" in2="effect1_dropShadow_58_1043" result="effect2_dropShadow_58_1043"/>
<feBlend mode="normal" in="SourceGraphic" in2="effect2_dropShadow_58_1043" result="shape"/>
</filter>
<filter id="filter26_dd_58_1043" x="13" y="216" width="138.44" height="135.741" filterUnits="userSpaceOnUse" color-interpolation-filters="sRGB">
<feFlood flood-opacity="0" result="BackgroundImageFix"/>
<feColorMatrix in="SourceAlpha" type="matrix" values="0 0 0 0 0 0 0 0 0 0 0 0 0 0 0 0 0 0 127 0" result="hardAlpha"/>
<feOffset dx="6" dy="3"/>
<feComposite in2="hardAlpha" operator="out"/>
<feColorMatrix type="matrix" values="0 0 0 0 0 0 0 0 0 0 0 0 0 0 0 0 0 0 0.25 0"/>
<feBlend mode="normal" in2="BackgroundImageFix" result="effect1_dropShadow_58_1043"/>
<feColorMatrix in="SourceAlpha" type="matrix" values="0 0 0 0 0 0 0 0 0 0 0 0 0 0 0 0 0 0 127 0" result="hardAlpha"/>
<feOffset dy="4"/>
<feGaussianBlur stdDeviation="2"/>
<feComposite in2="hardAlpha" operator="out"/>
<feColorMatrix type="matrix" values="0 0 0 0 0 0 0 0 0 0 0 0 0 0 0 0 0 0 0.25 0"/>
<feBlend mode="normal" in2="effect1_dropShadow_58_1043" result="effect2_dropShadow_58_1043"/>
<feBlend mode="normal" in="SourceGraphic" in2="effect2_dropShadow_58_1043" result="shape"/>
</filter>
<filter id="filter27_dd_58_1043" x="1126" y="186" width="138.44" height="135.741" filterUnits="userSpaceOnUse" color-interpolation-filters="sRGB">
<feFlood flood-opacity="0" result="BackgroundImageFix"/>
<feColorMatrix in="SourceAlpha" type="matrix" values="0 0 0 0 0 0 0 0 0 0 0 0 0 0 0 0 0 0 127 0" result="hardAlpha"/>
<feOffset dx="6" dy="3"/>
<feComposite in2="hardAlpha" operator="out"/>
<feColorMatrix type="matrix" values="0 0 0 0 0 0 0 0 0 0 0 0 0 0 0 0 0 0 0.25 0"/>
<feBlend mode="normal" in2="BackgroundImageFix" result="effect1_dropShadow_58_1043"/>
<feColorMatrix in="SourceAlpha" type="matrix" values="0 0 0 0 0 0 0 0 0 0 0 0 0 0 0 0 0 0 127 0" result="hardAlpha"/>
<feOffset dy="4"/>
<feGaussianBlur stdDeviation="2"/>
<feComposite in2="hardAlpha" operator="out"/>
<feColorMatrix type="matrix" values="0 0 0 0 0 0 0 0 0 0 0 0 0 0 0 0 0 0 0.25 0"/>
<feBlend mode="normal" in2="effect1_dropShadow_58_1043" result="effect2_dropShadow_58_1043"/>
<feBlend mode="normal" in="SourceGraphic" in2="effect2_dropShadow_58_1043" result="shape"/>
</filter>
<clipPath id="clip0_58_1043">
<rect width="150.78" height="150.78" fill="white" transform="translate(795 250)"/>
</clipPath>
<clipPath id="clip1_58_1043">
<rect width="102.98" height="102.98" fill="white" transform="translate(306 319)"/>
</clipPath>
</defs>
</svg>
