<svg width="1280" height="963" viewBox="0 0 1280 963" fill="none" xmlns="http://www.w3.org/2000/svg">
<rect x="27" y="106" width="1226" height="857" fill="#0E253A"/>
<g filter="url(#filter0_d_3_2073)">
<mask id="mask0_3_2073" style="mask-type:alpha" maskUnits="userSpaceOnUse" x="445" y="744" width="196" height="196">
<circle cx="543" cy="842" r="98" fill="#D9D9D9"/>
<circle cx="543" cy="842" r="98" stroke="#224564"/>
</mask>
<g mask="url(#mask0_3_2073)">
<circle cx="543" cy="839.565" r="92" fill="#21415E" stroke="#132D44" stroke-width="12"/>
</g>
</g>
<g filter="url(#filter1_d_3_2073)">
<mask id="mask1_3_2073" style="mask-type:alpha" maskUnits="userSpaceOnUse" x="912" y="683" width="245" height="245">
<circle cx="1034.5" cy="805.5" r="122.5" fill="#D9D9D9"/>
<circle cx="1034.5" cy="805.5" r="122.5" stroke="#224564"/>
</mask>
<g mask="url(#mask1_3_2073)">
<circle cx="1034.5" cy="802.456" r="116.5" fill="#21415E" stroke="#132D44" stroke-width="12"/>
</g>
</g>
<g filter="url(#filter2_d_3_2073)">
<mask id="mask2_3_2073" style="mask-type:alpha" maskUnits="userSpaceOnUse" x="76" y="766" width="151" height="151">
<circle cx="151.5" cy="841.5" r="75.5" fill="#D9D9D9"/>
<circle cx="151.5" cy="841.5" r="75.5" stroke="#224564"/>
</mask>
<g mask="url(#mask2_3_2073)">
<circle cx="151.5" cy="839.624" r="69.5" fill="#21415E" stroke="#132D44" stroke-width="12"/>
</g>
</g>
<g filter="url(#filter3_d_3_2073)">
<path d="M262.051 0C246.185 0 236.076 17.0176 243.262 31.162C359.565 260.088 356.136 397.874 243.605 615.708C236.294 629.86 246.397 647 262.326 647H363.883C371.771 647 379.05 642.494 382.588 635.444C498.557 404.333 502.405 264.131 382.483 11.9767C379.025 4.70643 371.621 0 363.57 0L262.051 0Z" fill="#588F9C"/>
<path d="M758.224 13C742.194 13 732.102 30.3473 739.592 44.5203C855.234 263.349 851.847 395.692 739.951 603.93C732.332 618.108 742.419 635.578 758.515 635.578H860.169C867.925 635.578 875.108 631.218 878.705 624.346C995.046 402.066 998.907 267.17 878.607 24.6584C875.086 17.5604 867.774 13 859.851 13L758.224 13Z" fill="#BF6F8F"/>
<path d="M507.189 12C491.065 12 480.984 29.5346 488.656 43.7172C607.025 262.528 603.561 394.933 489.025 603.155C481.222 617.341 491.297 635 507.488 635H612.57C620.251 635 627.38 630.721 631.009 623.951C750.355 401.35 754.321 266.342 630.916 23.4795C627.36 16.4806 620.1 12 612.25 12L507.189 12Z" fill="#A7BD41"/>
<rect x="1253.05" y="82.4385" width="482.912" height="1253.05" transform="rotate(90 1253.05 82.4385)" fill="#E7C5C5"/>
<path d="M861.626 13C866.206 13 869.044 18.0271 866.836 22.0401C734.55 262.514 738.806 397.799 866.737 626.509C868.982 630.523 866.142 635.578 861.543 635.578H725.13C722.914 635.578 720.854 634.311 719.815 632.353C598.012 402.725 593.849 267.043 719.843 16.3479C720.86 14.3252 722.957 13 725.221 13L861.626 13Z" fill="#E68DB1"/>
<path d="M365.986 0C370.518 0 373.363 4.93592 371.247 8.94491C239.146 259.292 243.403 399.929 371.153 638.027C373.304 642.038 370.458 647 365.907 647H229.937C227.684 647 225.596 645.691 224.574 643.683C103.219 405.014 99.0716 264.006 224.604 3.43917C225.603 1.36693 227.726 0 230.027 0L365.986 0Z" fill="#75B5C5"/>
<path d="M194.158 196L239 203.8L235.312 220.166C234.451 223.986 232.313 226.821 228.899 228.67C225.476 230.556 221.506 231.106 216.991 230.321C212.433 229.528 208.96 227.683 206.572 224.786C204.216 221.933 203.469 218.597 204.33 214.776L205.845 208.054L191.985 205.643L194.158 196ZM215.253 209.69L214.185 214.429C213.82 216.045 214.108 217.374 215.046 218.415C215.976 219.493 217.361 220.192 219.201 220.512C221.041 220.832 222.599 220.665 223.877 220.009C225.154 219.353 225.967 218.254 226.314 216.711L227.42 211.807L215.253 209.69Z" fill="#F7D440"/>
<path d="M188.606 235.029C192.258 232.293 196.597 231.227 201.623 231.831C206.648 232.436 210.522 234.489 213.246 237.991C215.97 241.494 216.977 245.527 216.266 250.09C215.55 254.691 213.344 258.356 209.649 261.087C205.991 263.86 201.628 264.942 196.56 264.333C191.535 263.728 187.682 261.678 185 258.18C182.36 254.688 181.399 250.642 182.115 246.041C182.832 241.44 184.995 237.77 188.606 235.029ZM200.106 241.571C197.741 241.286 195.742 241.689 194.11 242.777C192.478 243.866 191.52 245.32 191.237 247.138C190.954 248.956 191.432 250.582 192.671 252.016C193.91 253.45 195.712 254.309 198.077 254.593C200.484 254.883 202.525 254.486 204.2 253.402C205.874 252.318 206.853 250.867 207.136 249.049C207.419 247.231 206.92 245.603 205.639 244.163C204.357 242.724 202.513 241.86 200.106 241.571Z" fill="#F7D440"/>
<path d="M181.994 271.606C185.436 268.666 189.686 267.354 194.745 267.669C199.805 267.984 203.824 269.81 206.802 273.149C209.78 276.488 211.085 280.454 210.714 285.049C210.341 289.681 208.412 293.465 204.928 296.402C201.484 299.379 197.21 300.708 192.108 300.391C187.049 300.076 183.051 298.251 180.116 294.915C177.222 291.581 175.962 287.599 176.335 282.967C176.709 278.335 178.595 274.548 181.994 271.606ZM193.955 277.474C191.574 277.326 189.61 277.842 188.062 279.022C186.514 280.202 185.666 281.708 185.519 283.538C185.371 285.368 185.969 286.963 187.312 288.323C188.656 289.683 190.518 290.437 192.899 290.586C195.322 290.736 197.329 290.223 198.919 289.045C200.51 287.868 201.379 286.364 201.526 284.534C201.674 282.703 201.055 281.107 199.669 279.744C198.283 278.382 196.379 277.625 193.955 277.474Z" fill="#F7D440"/>
<path d="M187.231 304.852L220.776 305.882L220.39 315.593L188.315 314.609C186.696 314.559 185.582 314.694 184.972 315.012C184.361 315.368 184.034 316.089 183.99 317.174C183.971 317.661 183.977 318.054 184.007 318.355L174.423 318.061C174.349 316.71 174.324 315.735 174.348 315.136C174.407 313.639 174.587 312.333 174.887 311.218C175.228 310.142 175.826 309.055 176.68 307.957C177.533 306.897 178.844 306.094 180.614 305.548C182.384 305.003 184.59 304.771 187.231 304.852Z" fill="#F7D440"/>
<path d="M173 339.3L218.625 336.811L219.801 353.462C220.076 357.349 218.83 360.569 216.064 363.121C213.3 365.711 209.621 367.131 205.027 367.381C200.39 367.634 196.497 366.627 193.347 364.36C190.243 362.128 188.553 359.069 188.279 355.182L187.795 348.342L173.693 349.111L173 339.3ZM197.367 347.82L197.708 352.641C197.824 354.286 198.487 355.507 199.696 356.304C200.908 357.138 202.45 357.504 204.322 357.402C206.194 357.3 207.652 356.789 208.697 355.869C209.743 354.949 210.21 353.704 210.099 352.134L209.746 347.145L197.367 347.82Z" fill="#F7D440"/>
<path d="M183.47 371.547C185.541 371.313 187.411 371.611 189.08 372.442C190.749 373.272 192.104 374.459 193.147 376.003C194.195 377.583 195.019 379.246 195.618 380.99C196.26 382.73 196.722 384.566 197.005 386.497L197.127 387.333L197.698 387.268C200.108 386.996 201.114 385.504 200.717 382.792C200.347 380.267 198.925 377.747 196.451 375.233L203.697 371.015C205.029 372.186 206.283 373.856 207.461 376.026C208.644 378.234 209.398 380.451 209.725 382.68C210.307 386.654 209.58 389.908 207.545 392.441C205.515 395.012 202.429 396.531 198.286 396.999L178.185 399.273L176.895 390.47L178.861 390.248L180.906 390.13L180.89 390.018C179.274 389.257 177.929 388.144 176.855 386.68C175.787 385.253 175.13 383.704 174.885 382.032C174.483 379.284 175.105 376.929 176.751 374.968C178.398 373.008 180.637 371.867 183.47 371.547ZM185.88 380.959C185.077 381.05 184.436 381.368 183.957 381.913C183.52 382.453 183.365 383.15 183.49 384.004C183.686 385.341 184.467 386.423 185.835 387.25C187.202 388.077 188.583 388.412 189.978 388.254L190.866 388.154L190.735 387.263C190.474 385.48 189.926 383.937 189.091 382.635C188.303 381.364 187.233 380.806 185.88 380.959Z" fill="#F7D440"/>
<path d="M178.756 406.273L211.191 401.294L213.017 410.479L207.538 411.321L205.501 411.519L205.523 411.63C207.915 411.909 210.052 412.759 211.936 414.181C213.827 415.639 214.978 417.401 215.389 419.467C215.447 419.762 215.479 420.138 215.483 420.593L204.776 422.237C204.836 421.885 204.771 421.23 204.58 420.271C204.066 417.689 202.817 415.866 200.831 414.802C198.846 413.738 196.321 413.441 193.256 413.912L180.66 415.845L178.756 406.273Z" fill="#F7D440"/>
<path d="M195.615 430.688L206.911 428.478L205.993 424.86L214.418 423.211L215.405 427.104L224.641 425.297L226.976 434.508L217.74 436.315L219.24 442.237L210.816 443.885L209.315 437.964L199.455 439.893C196.709 440.43 195.762 442.38 196.615 445.743C196.726 446.182 196.853 446.598 196.997 446.992L187.636 448.823C187.15 447.422 186.87 446.575 186.796 446.283C186.573 445.406 186.418 444.535 186.33 443.669C186.209 442.849 186.155 441.862 186.169 440.709C186.191 439.592 186.382 438.537 186.743 437.546C187.112 436.592 187.615 435.649 188.253 434.719C188.932 433.78 189.902 432.957 191.164 432.25C192.426 431.543 193.91 431.022 195.615 430.688Z" fill="#F7D440"/>
<path d="M185.19 453.859C184.728 455.06 184.64 456.111 184.925 457.013C185.631 459.25 187.172 460.488 189.546 460.725L191.196 460.906L218.567 441.472L221.915 452.081L208.613 459.752L204.009 461.981L204.043 462.09C206.169 461.96 207.847 461.882 209.077 461.854L224.974 461.77L228.203 472L189.481 469.135C185.853 468.853 182.944 467.833 180.752 466.074C178.531 464.361 177.033 462.278 176.258 459.824C175.916 458.742 175.76 457.614 175.787 456.441C175.815 455.269 175.929 454.367 176.128 453.735L176.426 452.788L185.19 453.859Z" fill="#F7D440"/>
<path d="M688.945 214.642L734.401 221.523L732.37 230.961L708.864 238.305C707.882 238.597 706.677 238.91 705.248 239.245C703.862 239.585 702.711 239.851 701.794 240.043L700.419 240.331L700.397 240.437C703.721 240.647 706.337 240.896 708.244 241.185L729.478 244.399L727.47 253.731L682.015 246.85L684.034 237.465L707.488 230.058C708.469 229.766 709.654 229.45 711.04 229.109C712.468 228.775 713.641 228.512 714.557 228.32L715.932 228.033L715.955 227.926C712.63 227.716 710.015 227.467 708.107 227.178L686.937 223.973L688.945 214.642ZM710.259 254.705C713.183 255.147 715.496 256.397 717.198 258.453C718.9 260.509 719.472 262.835 718.913 265.43C718.37 267.954 716.873 269.93 714.421 271.358C711.962 272.821 709.27 273.331 706.346 272.888C703.379 272.439 701.066 271.19 699.406 269.14C697.747 267.09 697.192 264.785 697.743 262.225C698.302 259.63 699.785 257.616 702.195 256.182C704.604 254.748 707.292 254.255 710.259 254.705ZM708.922 261.22C707.99 261.079 707.156 261.191 706.421 261.557C705.721 261.965 705.286 262.56 705.118 263.342C704.95 264.124 705.112 264.791 705.606 265.343C706.135 265.937 706.865 266.304 707.798 266.446C708.688 266.58 709.483 266.444 710.184 266.036C710.926 265.634 711.378 265.06 711.539 264.314C711.699 263.567 711.515 262.897 710.987 262.303C710.501 261.716 709.812 261.354 708.922 261.22ZM689.557 252.066L696.868 253.173L693.208 270.184L685.897 269.077L689.557 252.066Z" fill="#17334D"/>
<path d="M676.584 277.307L686.231 278.073L685.305 286.272L704.471 287.794L708.002 288.129L708.014 288.021C707.193 287.63 706.435 287.061 705.74 286.317L703.494 283.798L711.055 278.901L721.521 290.237L720.601 298.383L684.264 295.497L683.332 303.751L673.685 302.984L676.584 277.307Z" fill="#17334D"/>
<path d="M673.254 308.425C675.202 308.186 676.865 308.084 678.242 308.12C680.911 308.189 683.371 308.669 685.622 309.558C687.873 310.448 689.707 311.525 691.126 312.791C692.544 314.056 693.894 315.429 695.175 316.907C696.455 318.422 697.525 319.805 698.383 321.056C699.285 322.309 700.237 323.363 701.24 324.221C702.286 325.079 703.325 325.521 704.358 325.548C705.865 325.587 707.021 325.202 707.826 324.391C708.632 323.581 709.055 322.616 709.096 321.497C709.14 320.305 708.707 319.192 707.797 318.156C706.887 317.12 705.755 316.278 704.4 315.628L710.277 308.733C713.158 310.073 715.482 311.904 717.249 314.227C719.015 316.585 719.838 319.39 719.718 322.639C719.588 326.178 718.248 329.233 715.697 331.805C713.189 334.379 709.654 335.606 705.091 335.488C702.422 335.419 700.01 334.814 697.854 333.674C695.699 332.534 693.939 331.169 692.576 329.58C691.255 327.992 690.043 326.406 688.938 324.823C687.876 323.242 686.806 321.859 685.73 320.674C684.696 319.491 683.642 318.849 682.569 318.749L681.953 335.485L672.267 335.234L673.254 308.425Z" fill="#17334D"/>
<path d="M677.531 341.253L686.451 345.526C683.803 347.995 682.546 350.692 682.677 353.616C682.754 355.313 683.244 356.635 684.149 357.582C685.098 358.564 686.218 359.035 687.51 358.994C690.909 358.886 692.501 356.432 692.285 351.631L692.163 348.924L697.56 346.746L705.084 351.605C705.883 352.122 706.661 352.64 707.417 353.158C708.174 353.712 708.71 354.129 709.025 354.408L709.561 354.825L709.69 354.821C709.437 353.998 709.274 352.774 709.201 351.149L708.784 341.89L718.467 341.583L719.567 366.004L712.531 366.227L701.396 358.717C700.793 361.592 699.303 363.917 696.926 365.691C694.55 367.465 691.726 368.404 688.455 368.508C684.151 368.644 680.393 367.498 677.181 365.069C673.97 362.677 672.262 359.206 672.057 354.658C671.812 349.207 673.636 344.739 677.531 341.253Z" fill="#17334D"/>
<path d="M684.755 371.542L691.564 370.93L721.469 383.284L722.942 394.814L697.441 397.105L698.025 401.685L688.712 402.522L688.127 397.942L677.014 398.94L675.824 389.619L686.936 388.621L684.755 371.542ZM695.294 380.295L696.25 387.784L706.528 386.861L711.708 386.722L711.694 386.615C709.741 386.245 708.076 385.759 706.7 385.156L695.422 380.284L695.294 380.295Z" fill="#17334D"/>
<path d="M683.554 407.206L693.083 410.424C690.875 413.243 690.057 416.023 690.631 418.762C690.922 420.15 691.666 421.306 692.865 422.229C694.114 423.182 695.609 423.531 697.348 423.274C699.087 423.018 700.346 422.246 701.126 420.957C701.906 419.669 702.109 418.135 701.737 416.356C701.379 414.648 700.512 413.015 699.137 411.457L700.324 406.166L724.445 404.208L728.915 425.556L719.371 426.962L716.6 413.726L712.356 414.131L710.529 414.18L710.552 414.287C710.99 414.919 711.332 415.823 711.578 416.997C712.487 421.337 711.77 424.909 709.427 427.712C707.127 430.508 703.813 432.225 699.487 432.862C694.778 433.556 690.621 432.811 687.016 430.628C683.41 428.445 681.172 425.272 680.3 421.109C679.212 415.915 680.297 411.28 683.554 407.206Z" fill="#17334D"/>
<path d="M616.66 13C621.267 13 624.1 18.081 621.839 22.0951C486.321 262.685 490.681 398.056 621.737 626.877C624.036 630.891 621.201 636 616.575 636H476.53C474.335 636 472.29 634.757 471.242 632.828C346.391 402.994 342.123 267.216 471.269 16.2963C472.295 14.3019 474.378 13 476.621 13L616.66 13Z" fill="#C4DB5B"/>
<path d="M442.27 205L488.367 211.889L486.307 221.338L462.47 228.69C461.474 228.982 460.252 229.296 458.803 229.63C457.397 229.972 456.23 230.238 455.3 230.43L453.906 230.718L453.883 230.824C457.254 231.034 459.907 231.284 461.841 231.573L483.375 234.791L481.339 244.133L435.242 237.244L437.29 227.848L461.074 220.433C462.07 220.141 463.27 219.825 464.676 219.483C466.125 219.149 467.314 218.885 468.244 218.694L469.638 218.406L469.661 218.299C466.289 218.089 463.637 217.84 461.702 217.551L440.233 214.342L442.27 205ZM463.884 245.108C466.85 245.551 469.196 246.802 470.922 248.86C472.648 250.919 473.227 253.247 472.661 255.845C472.11 258.372 470.592 260.35 468.106 261.779C465.612 263.244 462.882 263.755 459.916 263.312C456.908 262.862 454.562 261.611 452.879 259.559C451.196 257.507 450.634 255.199 451.192 252.637C451.758 250.039 453.263 248.022 455.706 246.586C458.15 245.151 460.875 244.658 463.884 245.108ZM462.529 251.63C461.583 251.489 460.738 251.601 459.992 251.968C459.282 252.376 458.841 252.972 458.671 253.755C458.5 254.538 458.665 255.205 459.166 255.758C459.702 256.352 460.443 256.72 461.389 256.862C462.291 256.997 463.098 256.86 463.808 256.452C464.561 256.05 465.019 255.475 465.182 254.728C465.345 253.98 465.159 253.309 464.623 252.715C464.129 252.127 463.432 251.765 462.529 251.63ZM442.891 242.466L450.305 243.574L446.593 260.604L439.179 259.496L442.891 242.466Z" fill="#E6FB88"/>
<path d="M435.384 265.498L443.671 270.725C440.608 272.955 438.918 275.456 438.601 278.228C438.441 279.632 438.799 280.914 439.675 282.072C440.591 283.27 441.94 283.939 443.723 284.079C445.506 284.219 446.985 283.753 448.16 282.683C449.335 281.613 450.026 280.177 450.232 278.377C450.429 276.649 450.105 274.88 449.259 273.07L452.116 268.227L476.33 271.705L473.86 293.307L464.077 292.54L465.608 279.147L461.328 278.593L459.527 278.234L459.514 278.342C459.74 279.05 459.786 279.998 459.65 281.186C459.148 285.579 457.302 288.867 454.113 291.051C450.967 293.238 447.177 294.158 442.742 293.81C437.916 293.432 434.089 291.788 431.263 288.878C428.437 285.968 427.265 282.407 427.747 278.195C428.348 272.938 430.894 268.706 435.384 265.498Z" fill="#E6FB88"/>
<path d="M447.938 298.784C451.169 298.859 454.299 299.33 457.328 300.196C460.356 301.098 463.089 302.32 465.527 303.86C467.964 305.436 469.884 307.434 471.288 309.854C472.734 312.312 473.408 314.987 473.31 317.879C473.196 321.241 472.423 324.081 470.99 326.399L461.253 323.622C461.574 323.16 461.907 322.371 462.25 321.258C462.594 320.144 462.78 319.172 462.808 318.34C462.949 314.183 460.467 311.34 455.364 309.81L455.36 309.919C455.737 310.398 456.082 311.183 456.394 312.276C456.707 313.369 456.848 314.367 456.817 315.271C456.687 319.103 454.968 322.138 451.659 324.376C448.393 326.616 444.621 327.686 440.343 327.587C436.108 327.488 432.46 326.192 429.398 323.696C426.336 321.237 424.873 318.002 425.009 313.989C425.153 309.723 427.221 306.081 431.212 303.062C435.203 300.044 440.778 298.618 447.938 298.784ZM435.487 314.232C435.447 315.389 435.918 316.341 436.897 317.087C437.921 317.834 439.153 318.225 440.593 318.258C442.471 318.302 444.102 317.851 445.489 316.907C446.875 315.962 447.602 314.514 447.668 312.562C447.759 309.887 446.865 308.527 444.988 308.484C442.368 308.423 440.142 309.004 438.309 310.228C436.477 311.452 435.536 312.786 435.487 314.232Z" fill="#E6FB88"/>
<path d="M425.384 334.196L458.852 346.805C459.831 347.171 460.679 347.522 461.395 347.86C462.113 348.234 462.585 348.508 462.812 348.681L463.218 348.939L463.349 348.934C463.208 348.722 463.105 347.965 463.041 346.664L462.288 331.325L472.107 330.995L473.472 358.8L465.486 359.069L425.871 344.115L425.384 334.196Z" fill="#E6FB88"/>
<path d="M440.956 366.624C442.692 366.462 444.456 366.661 446.246 367.222C448.08 367.778 449.478 368.357 450.439 368.959C451.405 369.597 452.262 370.244 453.011 370.902C455.21 368.331 458.023 366.885 461.452 366.565C465.184 366.216 468.502 367.016 471.405 368.965C474.308 370.913 476.048 374.008 476.626 378.248C477.136 381.986 476.344 385.208 474.252 387.915C472.203 390.617 469.095 392.163 464.929 392.553C461.5 392.873 457.77 391.948 453.738 389.777C451.632 393.031 448.583 394.845 444.59 395.218C440.728 395.579 437.215 394.634 434.051 392.382C430.93 390.126 429.064 386.752 428.451 382.26C427.844 377.804 428.777 374.168 431.25 371.353C433.772 368.57 437.007 366.993 440.956 366.624ZM456.906 382.548C458.856 383.312 460.83 383.601 462.826 383.414C464.128 383.293 465.121 382.836 465.804 382.044C466.487 381.252 466.743 380.228 466.571 378.97C466.415 377.82 465.947 376.972 465.17 376.426C464.44 375.912 463.533 375.705 462.448 375.807C461.059 375.937 459.978 376.547 459.204 377.639C458.434 378.766 457.668 380.402 456.906 382.548ZM443.248 376.182C441.729 376.324 440.51 376.893 439.591 377.889C438.672 378.884 438.3 380.029 438.477 381.323C438.673 382.76 439.239 383.854 440.177 384.603C441.114 385.353 442.342 385.656 443.861 385.514C444.165 385.486 444.442 385.424 444.693 385.327C444.943 385.231 445.186 385.081 445.422 384.877C445.658 384.673 445.872 384.471 446.065 384.271C446.262 384.107 446.467 383.833 446.678 383.45C446.894 383.102 447.072 382.794 447.212 382.526C447.356 382.294 447.526 381.933 447.723 381.441C447.925 380.986 448.093 380.606 448.227 380.302C448.366 380.035 448.529 379.619 448.716 379.056C448.947 378.488 449.129 378.053 449.263 377.749C447.293 376.514 445.288 375.991 443.248 376.182Z" fill="#E6FB88"/>
<path d="M433.383 401.82L443.601 402.877C443.081 404.756 443.011 406.568 443.393 408.311C444.289 412.403 447.424 414.763 452.799 415.39L452.775 415.283C452.252 414.92 451.702 414.231 451.124 413.215C450.59 412.193 450.221 411.219 450.019 410.294C449.193 406.522 450.099 403.262 452.738 400.513C455.42 397.759 458.866 396.065 463.078 395.433C467.246 394.807 471.135 395.437 474.743 397.321C478.359 399.241 480.6 402.175 481.464 406.125C482.383 410.324 481.266 414.241 478.111 417.875C474.956 421.51 469.855 423.856 462.807 424.914C459.627 425.391 456.443 425.446 453.255 425.079C450.076 424.748 447.098 424.019 444.321 422.892C441.552 421.8 439.154 420.176 437.128 418.017C435.153 415.888 433.854 413.4 433.231 410.553C432.506 407.244 432.557 404.333 433.383 401.82ZM459.645 411.385C460.222 414.018 461.434 415.196 463.282 414.919C465.86 414.532 467.894 413.583 469.384 412.073C470.873 410.563 471.462 409.097 471.15 407.673C470.901 406.535 470.183 405.687 468.996 405.13C467.851 404.567 466.57 404.391 465.152 404.604C463.304 404.882 461.819 405.601 460.697 406.761C459.575 407.922 459.225 409.463 459.645 411.385Z" fill="#E6FB88"/>
<path d="M447.174 456.854C445.426 455.24 444.161 453.135 443.377 450.539C442.593 447.943 442.509 445.574 443.123 443.434C443.791 441.32 445.067 439.509 446.953 438.001C448.838 436.492 451.084 435.207 453.69 434.146C456.296 433.085 459.294 432.204 462.684 431.502C466.073 430.8 469.198 430.415 472.058 430.345C474.961 430.266 477.651 430.529 480.13 431.134C482.651 431.731 484.785 432.836 486.533 434.45C488.291 436.099 489.562 438.222 490.346 440.818C491.13 443.415 491.209 445.765 490.584 447.87C489.969 450.01 488.719 451.835 486.834 453.343C484.99 454.843 482.766 456.124 480.16 457.185C477.596 458.237 474.62 459.114 471.23 459.816C467.84 460.517 464.694 460.907 461.792 460.986C458.889 461.065 456.178 460.806 453.657 460.21C451.135 459.613 448.975 458.495 447.174 456.854ZM465.543 440.975C456.603 442.825 452.604 445.312 453.546 448.434C454.489 451.557 459.43 452.193 468.371 450.343C477.184 448.519 481.119 446.045 480.177 442.923C479.234 439.8 474.356 439.151 465.543 440.975Z" fill="#E6FB88"/>
<ellipse cx="1170.5" cy="324" rx="303" ry="203.5" transform="rotate(90 1170.5 324)" fill="#E7C5C5"/>
</g>
<defs>
<filter id="filter0_d_3_2073" x="445" y="744" width="205" height="205.565" filterUnits="userSpaceOnUse" color-interpolation-filters="sRGB">
<feFlood flood-opacity="0" result="BackgroundImageFix"/>
<feColorMatrix in="SourceAlpha" type="matrix" values="0 0 0 0 0 0 0 0 0 0 0 0 0 0 0 0 0 0 127 0" result="hardAlpha"/>
<feOffset dx="9" dy="12"/>
<feComposite in2="hardAlpha" operator="out"/>
<feColorMatrix type="matrix" values="0 0 0 0 0.0583545 0 0 0 0 0.150095 0 0 0 0 0.23125 0 0 0 1 0"/>
<feBlend mode="normal" in2="BackgroundImageFix" result="effect1_dropShadow_3_2073"/>
<feBlend mode="normal" in="SourceGraphic" in2="effect1_dropShadow_3_2073" result="shape"/>
</filter>
<filter id="filter1_d_3_2073" x="912" y="683" width="254" height="253.956" filterUnits="userSpaceOnUse" color-interpolation-filters="sRGB">
<feFlood flood-opacity="0" result="BackgroundImageFix"/>
<feColorMatrix in="SourceAlpha" type="matrix" values="0 0 0 0 0 0 0 0 0 0 0 0 0 0 0 0 0 0 127 0" result="hardAlpha"/>
<feOffset dx="9" dy="12"/>
<feComposite in2="hardAlpha" operator="out"/>
<feColorMatrix type="matrix" values="0 0 0 0 0.0583545 0 0 0 0 0.150095 0 0 0 0 0.23125 0 0 0 1 0"/>
<feBlend mode="normal" in2="BackgroundImageFix" result="effect1_dropShadow_3_2073"/>
<feBlend mode="normal" in="SourceGraphic" in2="effect1_dropShadow_3_2073" result="shape"/>
</filter>
<filter id="filter2_d_3_2073" x="76" y="766" width="160" height="161.124" filterUnits="userSpaceOnUse" color-interpolation-filters="sRGB">
<feFlood flood-opacity="0" result="BackgroundImageFix"/>
<feColorMatrix in="SourceAlpha" type="matrix" values="0 0 0 0 0 0 0 0 0 0 0 0 0 0 0 0 0 0 127 0" result="hardAlpha"/>
<feOffset dx="9" dy="12"/>
<feComposite in2="hardAlpha" operator="out"/>
<feColorMatrix type="matrix" values="0 0 0 0 0.0583545 0 0 0 0 0.150095 0 0 0 0 0.23125 0 0 0 1 0"/>
<feBlend mode="normal" in2="BackgroundImageFix" result="effect1_dropShadow_3_2073"/>
<feBlend mode="normal" in="SourceGraphic" in2="effect1_dropShadow_3_2073" result="shape"/>
</filter>
<filter id="filter3_d_3_2073" x="0" y="0" width="1396" height="678" filterUnits="userSpaceOnUse" color-interpolation-filters="sRGB">
<feFlood flood-opacity="0" result="BackgroundImageFix"/>
<feColorMatrix in="SourceAlpha" type="matrix" values="0 0 0 0 0 0 0 0 0 0 0 0 0 0 0 0 0 0 127 0" result="hardAlpha"/>
<feOffset dx="22" dy="31"/>
<feComposite in2="hardAlpha" operator="out"/>
<feColorMatrix type="matrix" values="0 0 0 0 0.0745098 0 0 0 0 0.176471 0 0 0 0 0.266667 0 0 0 1 0"/>
<feBlend mode="normal" in2="BackgroundImageFix" result="effect1_dropShadow_3_2073"/>
<feBlend mode="normal" in="SourceGraphic" in2="effect1_dropShadow_3_2073" result="shape"/>
</filter>
</defs>
</svg>
