<svg width="615" height="858" viewBox="0 0 615 858" fill="none" xmlns="http://www.w3.org/2000/svg">
<rect x="7" y="10" width="601" height="837" rx="9" stroke="#E68DB1" stroke-width="3"/>
<mask id="mask0_58_887" style="mask-type:alpha" maskUnits="userSpaceOnUse" x="24" y="26" width="567" height="805">
<rect x="25.7705" y="28" width="563.46" height="801" rx="9" fill="#18344D" stroke="#E58DB1" stroke-width="3"/>
</mask>
<g mask="url(#mask0_58_887)">
<rect x="25.7705" y="28" width="563.46" height="801" rx="9" fill="#E68DB1"/>
<path d="M650.898 752C650.898 822.043 591.027 879 516.949 879C442.871 879 383 822.043 383 752C383 681.957 442.871 625 516.949 625C591.027 625 650.898 681.957 650.898 752Z" fill="#E68DB1" stroke="#102334" stroke-width="4"/>
<path d="M673.029 578C673.029 631.474 627.314 675 570.696 675C514.079 675 468.363 631.474 468.363 578C468.363 524.526 514.079 481 570.696 481C627.314 481 673.029 524.526 673.029 578Z" fill="#E68DB1" stroke="#102334" stroke-width="4"/>
<path d="M587.667 751.5C587.667 788.682 555.87 819 516.423 819C476.976 819 445.179 788.682 445.179 751.5C445.179 714.318 476.976 684 516.423 684C555.87 684 587.667 714.318 587.667 751.5Z" stroke="#102334" stroke-width="4"/>
<path d="M624.552 578C624.552 606.069 600.54 629 570.697 629C540.853 629 516.842 606.069 516.842 578C516.842 549.931 540.853 527 570.697 527C600.54 527 624.552 549.931 624.552 578Z" stroke="#102334" stroke-width="4"/>
</g>
<path d="M569.246 496.986L568.472 491.336C567.999 487.879 563.001 487.879 562.528 491.336L561.754 496.986C561.677 497.551 561.144 497.936 560.583 497.834L554.545 496.728C551.241 496.122 549.591 500.575 552.492 502.269L558.532 505.796C558.972 506.053 559.149 506.6 558.942 507.066L556.209 513.213C554.808 516.362 558.955 519.001 561.215 516.399L564.745 512.334C565.144 511.875 565.856 511.875 566.255 512.334L569.785 516.399C572.045 519.001 576.192 516.362 574.791 513.213L572.058 507.066C571.851 506.6 572.028 506.053 572.468 505.796L578.508 502.269C581.409 500.575 579.759 496.122 576.455 496.728L570.417 497.834C569.856 497.936 569.323 497.551 569.246 496.986Z" stroke="#18344D" stroke-width="2"/>
<path d="M602.636 36.7896L602.833 36.7505C603.932 36.5321 604.497 38.0161 603.531 38.5845L602.799 39.0148C601.501 39.7787 600.98 41.3943 601.588 42.7728L602.036 43.7885C602.418 44.6526 601.269 45.364 600.665 44.6373C599.54 43.282 597.46 43.282 596.335 44.6373C595.731 45.364 594.582 44.6526 594.964 43.7885L595.412 42.7728C596.02 41.3943 595.499 39.7787 594.201 39.0148L593.469 38.5845C592.503 38.0161 593.068 36.5321 594.167 36.7505L594.364 36.7896C595.962 37.1071 597.494 36.0023 597.698 34.3856C597.817 33.4422 599.183 33.4422 599.302 34.3856C599.506 36.0023 601.038 37.1071 602.636 36.7896Z" stroke="#E68DB1" stroke-width="2"/>
<path d="M588.636 16.7896L588.833 16.7505C589.932 16.5321 590.497 18.0161 589.531 18.5845L588.799 19.0148C587.501 19.7787 586.98 21.3943 587.588 22.7728L588.036 23.7885C588.418 24.6526 587.269 25.364 586.665 24.6373C585.54 23.282 583.46 23.282 582.335 24.6373C581.731 25.364 580.582 24.6526 580.964 23.7885L581.412 22.7728C582.02 21.3943 581.499 19.7787 580.201 19.0148L579.469 18.5845C578.503 18.0161 579.068 16.5321 580.167 16.7505L580.364 16.7896C581.962 17.1071 583.494 16.0023 583.698 14.3856C583.817 13.4422 585.183 13.4422 585.302 14.3856C585.506 16.0023 587.038 17.1071 588.636 16.7896Z" stroke="#E68DB1" stroke-width="2"/>
<path d="M568.636 16.7896L568.833 16.7505C569.932 16.5321 570.497 18.0161 569.531 18.5845L568.799 19.0148C567.501 19.7787 566.98 21.3943 567.588 22.7728L568.036 23.7885C568.418 24.6526 567.269 25.364 566.665 24.6373C565.54 23.282 563.46 23.282 562.335 24.6373C561.731 25.364 560.582 24.6526 560.964 23.7885L561.412 22.7728C562.02 21.3943 561.499 19.7787 560.201 19.0148L559.469 18.5845C558.503 18.0161 559.068 16.5321 560.167 16.7505L560.364 16.7896C561.962 17.1071 563.494 16.0023 563.698 14.3856C563.817 13.4422 565.183 13.4422 565.302 14.3856C565.506 16.0023 567.038 17.1071 568.636 16.7896Z" stroke="#E68DB1" stroke-width="2"/>
<path d="M547.636 16.7896L547.833 16.7505C548.932 16.5321 549.497 18.0161 548.531 18.5845L547.799 19.0148C546.501 19.7787 545.98 21.3943 546.588 22.7728L547.036 23.7885C547.418 24.6526 546.269 25.364 545.665 24.6373C544.54 23.282 542.46 23.282 541.335 24.6373C540.731 25.364 539.582 24.6526 539.964 23.7885L540.412 22.7728C541.02 21.3943 540.499 19.7787 539.201 19.0148L538.469 18.5845C537.503 18.0161 538.068 16.5321 539.167 16.7505L539.364 16.7896C540.962 17.1071 542.494 16.0023 542.698 14.3856C542.817 13.4422 544.183 13.4422 544.302 14.3856C544.506 16.0023 546.038 17.1071 547.636 16.7896Z" stroke="#E68DB1" stroke-width="2"/>
<path d="M526.636 16.7896L526.833 16.7505C527.932 16.5321 528.497 18.0161 527.531 18.5845L526.799 19.0148C525.501 19.7787 524.98 21.3943 525.588 22.7728L526.036 23.7885C526.418 24.6526 525.269 25.364 524.665 24.6373C523.54 23.282 521.46 23.282 520.335 24.6373C519.731 25.364 518.582 24.6526 518.964 23.7885L519.412 22.7728C520.02 21.3943 519.499 19.7787 518.201 19.0148L517.469 18.5845C516.503 18.0161 517.068 16.5321 518.167 16.7505L518.364 16.7896C519.962 17.1071 521.494 16.0023 521.698 14.3856C521.817 13.4422 523.183 13.4422 523.302 14.3856C523.506 16.0023 525.038 17.1071 526.636 16.7896Z" stroke="#E68DB1" stroke-width="2"/>
<path d="M505.636 16.7896L505.833 16.7505C506.932 16.5321 507.497 18.0161 506.531 18.5845L505.799 19.0148C504.501 19.7787 503.98 21.3943 504.588 22.7728L505.036 23.7885C505.418 24.6526 504.269 25.364 503.665 24.6373C502.54 23.282 500.46 23.282 499.335 24.6373C498.731 25.364 497.582 24.6526 497.964 23.7885L498.412 22.7728C499.02 21.3943 498.499 19.7787 497.201 19.0148L496.469 18.5845C495.503 18.0161 496.068 16.5321 497.167 16.7505L497.364 16.7896C498.962 17.1071 500.494 16.0023 500.698 14.3856C500.817 13.4422 502.183 13.4422 502.302 14.3856C502.506 16.0023 504.038 17.1071 505.636 16.7896Z" stroke="#E68DB1" stroke-width="2"/>
<path d="M484.636 16.7896L484.833 16.7505C485.932 16.5321 486.497 18.0161 485.531 18.5845L484.799 19.0148C483.501 19.7787 482.98 21.3943 483.588 22.7728L484.036 23.7885C484.418 24.6526 483.269 25.364 482.665 24.6373C481.54 23.282 479.46 23.282 478.335 24.6373C477.731 25.364 476.582 24.6526 476.964 23.7885L477.412 22.7728C478.02 21.3943 477.499 19.7787 476.201 19.0148L475.469 18.5845C474.503 18.0161 475.068 16.5321 476.167 16.7505L476.364 16.7896C477.962 17.1071 479.494 16.0023 479.698 14.3856C479.817 13.4422 481.183 13.4422 481.302 14.3856C481.506 16.0023 483.038 17.1071 484.636 16.7896Z" stroke="#E68DB1" stroke-width="2"/>
<path d="M463.636 16.7896L463.833 16.7505C464.932 16.5321 465.497 18.0161 464.531 18.5845L463.799 19.0148C462.501 19.7787 461.98 21.3943 462.588 22.7728L463.036 23.7885C463.418 24.6526 462.269 25.364 461.665 24.6373C460.54 23.282 458.46 23.282 457.335 24.6373C456.731 25.364 455.582 24.6526 455.964 23.7885L456.412 22.7728C457.02 21.3943 456.499 19.7787 455.201 19.0148L454.469 18.5845C453.503 18.0161 454.068 16.5321 455.167 16.7505L455.364 16.7896C456.962 17.1071 458.494 16.0023 458.698 14.3856C458.817 13.4422 460.183 13.4422 460.302 14.3856C460.506 16.0023 462.038 17.1071 463.636 16.7896Z" stroke="#E68DB1" stroke-width="2"/>
<path d="M442.636 16.7896L442.833 16.7505C443.932 16.5321 444.497 18.0161 443.531 18.5845L442.799 19.0148C441.501 19.7787 440.98 21.3943 441.588 22.7728L442.036 23.7885C442.418 24.6526 441.269 25.364 440.665 24.6373C439.54 23.282 437.46 23.282 436.335 24.6373C435.731 25.364 434.582 24.6526 434.964 23.7885L435.412 22.7728C436.02 21.3943 435.499 19.7787 434.201 19.0148L433.469 18.5845C432.503 18.0161 433.068 16.5321 434.167 16.7505L434.364 16.7896C435.962 17.1071 437.494 16.0023 437.698 14.3856C437.817 13.4422 439.183 13.4422 439.302 14.3856C439.506 16.0023 441.038 17.1071 442.636 16.7896Z" stroke="#E68DB1" stroke-width="2"/>
<path d="M421.636 16.7896L421.833 16.7505C422.932 16.5321 423.497 18.0161 422.531 18.5845L421.799 19.0148C420.501 19.7787 419.98 21.3943 420.588 22.7728L421.036 23.7885C421.418 24.6526 420.269 25.364 419.665 24.6373C418.54 23.282 416.46 23.282 415.335 24.6373C414.731 25.364 413.582 24.6526 413.964 23.7885L414.412 22.7728C415.02 21.3943 414.499 19.7787 413.201 19.0148L412.469 18.5845C411.503 18.0161 412.068 16.5321 413.167 16.7505L413.364 16.7896C414.962 17.1071 416.494 16.0023 416.698 14.3856C416.817 13.4422 418.183 13.4422 418.302 14.3856C418.506 16.0023 420.038 17.1071 421.636 16.7896Z" stroke="#E68DB1" stroke-width="2"/>
<path d="M400.636 16.7896L400.833 16.7505C401.932 16.5321 402.497 18.0161 401.531 18.5845L400.799 19.0148C399.501 19.7787 398.98 21.3943 399.588 22.7728L400.036 23.7885C400.418 24.6526 399.269 25.364 398.665 24.6373C397.54 23.282 395.46 23.282 394.335 24.6373C393.731 25.364 392.582 24.6526 392.964 23.7885L393.412 22.7728C394.02 21.3943 393.499 19.7787 392.201 19.0148L391.469 18.5845C390.503 18.0161 391.068 16.5321 392.167 16.7505L392.364 16.7896C393.962 17.1071 395.494 16.0023 395.698 14.3856C395.817 13.4422 397.183 13.4422 397.302 14.3856C397.506 16.0023 399.038 17.1071 400.636 16.7896Z" stroke="#E68DB1" stroke-width="2"/>
<path d="M379.636 16.7896L379.833 16.7505C380.932 16.5321 381.497 18.0161 380.531 18.5845L379.799 19.0148C378.501 19.7787 377.98 21.3943 378.588 22.7728L379.036 23.7885C379.418 24.6526 378.269 25.364 377.665 24.6373C376.54 23.282 374.46 23.282 373.335 24.6373C372.731 25.364 371.582 24.6526 371.964 23.7885L372.412 22.7728C373.02 21.3943 372.499 19.7787 371.201 19.0148L370.469 18.5845C369.503 18.0161 370.068 16.5321 371.167 16.7505L371.364 16.7896C372.962 17.1071 374.494 16.0023 374.698 14.3856C374.817 13.4422 376.183 13.4422 376.302 14.3856C376.506 16.0023 378.038 17.1071 379.636 16.7896Z" stroke="#E68DB1" stroke-width="2"/>
<path d="M358.636 16.7896L358.833 16.7505C359.932 16.5321 360.497 18.0161 359.531 18.5845L358.799 19.0148C357.501 19.7787 356.98 21.3943 357.588 22.7728L358.036 23.7885C358.418 24.6526 357.269 25.364 356.665 24.6373C355.54 23.282 353.46 23.282 352.335 24.6373C351.731 25.364 350.582 24.6526 350.964 23.7885L351.412 22.7728C352.02 21.3943 351.499 19.7787 350.201 19.0148L349.469 18.5845C348.503 18.0161 349.068 16.5321 350.167 16.7505L350.364 16.7896C351.962 17.1071 353.494 16.0023 353.698 14.3856C353.817 13.4422 355.183 13.4422 355.302 14.3856C355.506 16.0023 357.038 17.1071 358.636 16.7896Z" stroke="#E68DB1" stroke-width="2"/>
<path d="M337.636 16.7896L337.833 16.7505C338.932 16.5321 339.497 18.0161 338.531 18.5845L337.799 19.0148C336.501 19.7787 335.98 21.3943 336.588 22.7728L337.036 23.7885C337.418 24.6526 336.269 25.364 335.665 24.6373C334.54 23.282 332.46 23.282 331.335 24.6373C330.731 25.364 329.582 24.6526 329.964 23.7885L330.412 22.7728C331.02 21.3943 330.499 19.7787 329.201 19.0148L328.469 18.5845C327.503 18.0161 328.068 16.5321 329.167 16.7505L329.364 16.7896C330.962 17.1071 332.494 16.0023 332.698 14.3856C332.817 13.4422 334.183 13.4422 334.302 14.3856C334.506 16.0023 336.038 17.1071 337.636 16.7896Z" stroke="#E68DB1" stroke-width="2"/>
<path d="M316.636 16.7896L316.833 16.7505C317.932 16.5321 318.497 18.0161 317.531 18.5845L316.799 19.0148C315.501 19.7787 314.98 21.3943 315.588 22.7728L316.036 23.7885C316.418 24.6526 315.269 25.364 314.665 24.6373C313.54 23.282 311.46 23.282 310.335 24.6373C309.731 25.364 308.582 24.6526 308.964 23.7885L309.412 22.7728C310.02 21.3943 309.499 19.7787 308.201 19.0148L307.469 18.5845C306.503 18.0161 307.068 16.5321 308.167 16.7505L308.364 16.7896C309.962 17.1071 311.494 16.0023 311.698 14.3856C311.817 13.4422 313.183 13.4422 313.302 14.3856C313.506 16.0023 315.038 17.1071 316.636 16.7896Z" stroke="#E68DB1" stroke-width="2"/>
<path d="M295.636 16.7896L295.833 16.7505C296.932 16.5321 297.497 18.0161 296.531 18.5845L295.799 19.0148C294.501 19.7787 293.98 21.3943 294.588 22.7728L295.036 23.7885C295.418 24.6526 294.269 25.364 293.665 24.6373C292.54 23.282 290.46 23.282 289.335 24.6373C288.731 25.364 287.582 24.6526 287.964 23.7885L288.412 22.7728C289.02 21.3943 288.499 19.7787 287.201 19.0148L286.469 18.5845C285.503 18.0161 286.068 16.5321 287.167 16.7505L287.364 16.7896C288.962 17.1071 290.494 16.0023 290.698 14.3856C290.817 13.4422 292.183 13.4422 292.302 14.3856C292.506 16.0023 294.038 17.1071 295.636 16.7896Z" stroke="#E68DB1" stroke-width="2"/>
<path d="M274.636 16.7896L274.833 16.7505C275.932 16.5321 276.497 18.0161 275.531 18.5845L274.799 19.0148C273.501 19.7787 272.98 21.3943 273.588 22.7728L274.036 23.7885C274.418 24.6526 273.269 25.364 272.665 24.6373C271.54 23.282 269.46 23.282 268.335 24.6373C267.731 25.364 266.582 24.6526 266.964 23.7885L267.412 22.7728C268.02 21.3943 267.499 19.7787 266.201 19.0148L265.469 18.5845C264.503 18.0161 265.068 16.5321 266.167 16.7505L266.364 16.7896C267.962 17.1071 269.494 16.0023 269.698 14.3856C269.817 13.4422 271.183 13.4422 271.302 14.3856C271.506 16.0023 273.038 17.1071 274.636 16.7896Z" stroke="#E68DB1" stroke-width="2"/>
<path d="M253.636 16.7896L253.833 16.7505C254.932 16.5321 255.497 18.0161 254.531 18.5845L253.799 19.0148C252.501 19.7787 251.98 21.3943 252.588 22.7728L253.036 23.7885C253.418 24.6526 252.269 25.364 251.665 24.6373C250.54 23.282 248.46 23.282 247.335 24.6373C246.731 25.364 245.582 24.6526 245.964 23.7885L246.412 22.7728C247.02 21.3943 246.499 19.7787 245.201 19.0148L244.469 18.5845C243.503 18.0161 244.068 16.5321 245.167 16.7505L245.364 16.7896C246.962 17.1071 248.494 16.0023 248.698 14.3856C248.817 13.4422 250.183 13.4422 250.302 14.3856C250.506 16.0023 252.038 17.1071 253.636 16.7896Z" stroke="#E68DB1" stroke-width="2"/>
<path d="M232.636 16.7896L232.833 16.7505C233.932 16.5321 234.497 18.0161 233.531 18.5845L232.799 19.0148C231.501 19.7787 230.98 21.3943 231.588 22.7728L232.036 23.7885C232.418 24.6526 231.269 25.364 230.665 24.6373C229.54 23.282 227.46 23.282 226.335 24.6373C225.731 25.364 224.582 24.6526 224.964 23.7885L225.412 22.7728C226.02 21.3943 225.499 19.7787 224.201 19.0148L223.469 18.5845C222.503 18.0161 223.068 16.5321 224.167 16.7505L224.364 16.7896C225.962 17.1071 227.494 16.0023 227.698 14.3856C227.817 13.4422 229.183 13.4422 229.302 14.3856C229.506 16.0023 231.038 17.1071 232.636 16.7896Z" stroke="#E68DB1" stroke-width="2"/>
<path d="M211.636 16.7896L211.833 16.7505C212.932 16.5321 213.497 18.0161 212.531 18.5845L211.799 19.0148C210.501 19.7787 209.98 21.3943 210.588 22.7728L211.036 23.7885C211.418 24.6526 210.269 25.364 209.665 24.6373C208.54 23.282 206.46 23.282 205.335 24.6373C204.731 25.364 203.582 24.6526 203.964 23.7885L204.412 22.7728C205.02 21.3943 204.499 19.7787 203.201 19.0148L202.469 18.5845C201.503 18.0161 202.068 16.5321 203.167 16.7505L203.364 16.7896C204.962 17.1071 206.494 16.0023 206.698 14.3856C206.817 13.4422 208.183 13.4422 208.302 14.3856C208.506 16.0023 210.038 17.1071 211.636 16.7896Z" stroke="#E68DB1" stroke-width="2"/>
<path d="M190.636 16.7896L190.833 16.7505C191.932 16.5321 192.497 18.0161 191.531 18.5845L190.799 19.0148C189.501 19.7787 188.98 21.3943 189.588 22.7728L190.036 23.7885C190.418 24.6526 189.269 25.364 188.665 24.6373C187.54 23.282 185.46 23.282 184.335 24.6373C183.731 25.364 182.582 24.6526 182.964 23.7885L183.412 22.7728C184.02 21.3943 183.499 19.7787 182.201 19.0148L181.469 18.5845C180.503 18.0161 181.068 16.5321 182.167 16.7505L182.364 16.7896C183.962 17.1071 185.494 16.0023 185.698 14.3856C185.817 13.4422 187.183 13.4422 187.302 14.3856C187.506 16.0023 189.038 17.1071 190.636 16.7896Z" stroke="#E68DB1" stroke-width="2"/>
<path d="M169.636 16.7896L169.833 16.7505C170.932 16.5321 171.497 18.0161 170.531 18.5845L169.799 19.0148C168.501 19.7787 167.98 21.3943 168.588 22.7728L169.036 23.7885C169.418 24.6526 168.269 25.364 167.665 24.6373C166.54 23.282 164.46 23.282 163.335 24.6373C162.731 25.364 161.582 24.6526 161.964 23.7885L162.412 22.7728C163.02 21.3943 162.499 19.7787 161.201 19.0148L160.469 18.5845C159.503 18.0161 160.068 16.5321 161.167 16.7505L161.364 16.7896C162.962 17.1071 164.494 16.0023 164.698 14.3856C164.817 13.4422 166.183 13.4422 166.302 14.3856C166.506 16.0023 168.038 17.1071 169.636 16.7896Z" stroke="#E68DB1" stroke-width="2"/>
<path d="M148.636 16.7896L148.833 16.7505C149.932 16.5321 150.497 18.0161 149.531 18.5845L148.799 19.0148C147.501 19.7787 146.98 21.3943 147.588 22.7728L148.036 23.7885C148.418 24.6526 147.269 25.364 146.665 24.6373C145.54 23.282 143.46 23.282 142.335 24.6373C141.731 25.364 140.582 24.6526 140.964 23.7885L141.412 22.7728C142.02 21.3943 141.499 19.7787 140.201 19.0148L139.469 18.5845C138.503 18.0161 139.068 16.5321 140.167 16.7505L140.364 16.7896C141.962 17.1071 143.494 16.0023 143.698 14.3856C143.817 13.4422 145.183 13.4422 145.302 14.3856C145.506 16.0023 147.038 17.1071 148.636 16.7896Z" stroke="#E68DB1" stroke-width="2"/>
<path d="M127.636 16.7896L127.833 16.7505C128.932 16.5321 129.497 18.0161 128.531 18.5845L127.799 19.0148C126.501 19.7787 125.98 21.3943 126.588 22.7728L127.036 23.7885C127.418 24.6526 126.269 25.364 125.665 24.6373C124.54 23.282 122.46 23.282 121.335 24.6373C120.731 25.364 119.582 24.6526 119.964 23.7885L120.412 22.7728C121.02 21.3943 120.499 19.7787 119.201 19.0148L118.469 18.5845C117.503 18.0161 118.068 16.5321 119.167 16.7505L119.364 16.7896C120.962 17.1071 122.494 16.0023 122.698 14.3856C122.817 13.4422 124.183 13.4422 124.302 14.3856C124.506 16.0023 126.038 17.1071 127.636 16.7896Z" stroke="#E68DB1" stroke-width="2"/>
<path d="M106.636 16.7896L106.833 16.7505C107.932 16.5321 108.497 18.0161 107.531 18.5845L106.799 19.0148C105.501 19.7787 104.98 21.3943 105.588 22.7728L106.036 23.7885C106.418 24.6526 105.269 25.364 104.665 24.6373C103.54 23.282 101.46 23.282 100.335 24.6373C99.7315 25.364 98.5823 24.6526 98.9636 23.7885L99.4118 22.7728C100.02 21.3943 99.4994 19.7787 98.2007 19.0148L97.469 18.5845C96.5026 18.0161 97.0679 16.5321 98.1675 16.7505L98.3642 16.7896C99.9624 17.1071 101.494 16.0023 101.698 14.3856C101.817 13.4422 103.183 13.4422 103.302 14.3856C103.506 16.0023 105.038 17.1071 106.636 16.7896Z" stroke="#E68DB1" stroke-width="2"/>
<path d="M85.6358 16.7896L85.8325 16.7505C86.9321 16.5321 87.4974 18.0161 86.531 18.5845L85.7993 19.0148C84.5006 19.7787 83.9799 21.3943 84.5882 22.7728L85.0364 23.7885C85.4177 24.6526 84.2685 25.364 83.6651 24.6373C82.5398 23.282 80.4602 23.282 79.3349 24.6373C78.7315 25.364 77.5823 24.6526 77.9636 23.7885L78.4118 22.7728C79.0201 21.3943 78.4994 19.7787 77.2007 19.0148L76.469 18.5845C75.5026 18.0161 76.0679 16.5321 77.1675 16.7505L77.3642 16.7896C78.9624 17.1071 80.4945 16.0023 80.6979 14.3856C80.8166 13.4422 82.1834 13.4422 82.3021 14.3856C82.5055 16.0023 84.0376 17.1071 85.6358 16.7896Z" stroke="#E68DB1" stroke-width="2"/>
<path d="M64.6358 16.7896L64.8325 16.7505C65.9321 16.5321 66.4974 18.0161 65.531 18.5845L64.7993 19.0148C63.5006 19.7787 62.9799 21.3943 63.5882 22.7728L64.0364 23.7885C64.4177 24.6526 63.2685 25.364 62.6651 24.6373C61.5398 23.282 59.4602 23.282 58.3349 24.6373C57.7315 25.364 56.5823 24.6526 56.9636 23.7885L57.4118 22.7728C58.0201 21.3943 57.4994 19.7787 56.2007 19.0148L55.469 18.5845C54.5026 18.0161 55.0679 16.5321 56.1675 16.7505L56.3642 16.7896C57.9624 17.1071 59.4945 16.0023 59.6979 14.3856C59.8166 13.4422 61.1834 13.4422 61.3021 14.3856C61.5055 16.0023 63.0376 17.1071 64.6358 16.7896Z" stroke="#E68DB1" stroke-width="2"/>
<path d="M43.6358 16.7896L43.8325 16.7505C44.9321 16.5321 45.4974 18.0161 44.531 18.5845L43.7993 19.0148C42.5006 19.7787 41.9799 21.3943 42.5882 22.7728L43.0364 23.7885C43.4177 24.6526 42.2685 25.364 41.6651 24.6373C40.5398 23.282 38.4602 23.282 37.3349 24.6373C36.7315 25.364 35.5823 24.6526 35.9636 23.7885L36.4118 22.7728C37.0201 21.3943 36.4994 19.7787 35.2007 19.0148L34.469 18.5845C33.5026 18.0161 34.0679 16.5321 35.1675 16.7505L35.3642 16.7896C36.9624 17.1071 38.4945 16.0023 38.6979 14.3856C38.8166 13.4422 40.1834 13.4422 40.3021 14.3856C40.5055 16.0023 42.0376 17.1071 43.6358 16.7896Z" stroke="#E68DB1" stroke-width="2"/>
<path d="M602.636 57.7896L602.833 57.7505C603.932 57.5321 604.497 59.0161 603.531 59.5845L602.799 60.0148C601.501 60.7787 600.98 62.3943 601.588 63.7728L602.036 64.7885C602.418 65.6526 601.269 66.364 600.665 65.6373C599.54 64.282 597.46 64.282 596.335 65.6373C595.731 66.364 594.582 65.6526 594.964 64.7885L595.412 63.7728C596.02 62.3943 595.499 60.7787 594.201 60.0148L593.469 59.5845C592.503 59.0161 593.068 57.5321 594.167 57.7505L594.364 57.7896C595.962 58.1071 597.494 57.0023 597.698 55.3856C597.817 54.4422 599.183 54.4422 599.302 55.3856C599.506 57.0023 601.038 58.1071 602.636 57.7896Z" stroke="#E68DB1" stroke-width="2"/>
<path d="M602.636 78.7896L602.833 78.7505C603.932 78.5321 604.497 80.0161 603.531 80.5845L602.799 81.0148C601.501 81.7787 600.98 83.3943 601.588 84.7728L602.036 85.7885C602.418 86.6526 601.269 87.364 600.665 86.6373C599.54 85.282 597.46 85.282 596.335 86.6373C595.731 87.364 594.582 86.6526 594.964 85.7885L595.412 84.7728C596.02 83.3943 595.499 81.7787 594.201 81.0148L593.469 80.5845C592.503 80.0161 593.068 78.5321 594.167 78.7505L594.364 78.7896C595.962 79.1071 597.494 78.0023 597.698 76.3856C597.817 75.4422 599.183 75.4422 599.302 76.3856C599.506 78.0023 601.038 79.1071 602.636 78.7896Z" stroke="#E68DB1" stroke-width="2"/>
<path d="M602.636 99.7896L602.833 99.7505C603.932 99.5321 604.497 101.016 603.531 101.585L602.799 102.015C601.501 102.779 600.98 104.394 601.588 105.773L602.036 106.788C602.418 107.653 601.269 108.364 600.665 107.637C599.54 106.282 597.46 106.282 596.335 107.637C595.731 108.364 594.582 107.653 594.964 106.788L595.412 105.773C596.02 104.394 595.499 102.779 594.201 102.015L593.469 101.585C592.503 101.016 593.068 99.5321 594.167 99.7505L594.364 99.7896C595.962 100.107 597.494 99.0023 597.698 97.3856C597.817 96.4422 599.183 96.4422 599.302 97.3856C599.506 99.0023 601.038 100.107 602.636 99.7896Z" stroke="#E68DB1" stroke-width="2"/>
<path d="M602.636 120.79L602.833 120.751C603.932 120.532 604.497 122.016 603.531 122.585L602.799 123.015C601.501 123.779 600.98 125.394 601.588 126.773L602.036 127.788C602.418 128.653 601.269 129.364 600.665 128.637C599.54 127.282 597.46 127.282 596.335 128.637C595.731 129.364 594.582 128.653 594.964 127.788L595.412 126.773C596.02 125.394 595.499 123.779 594.201 123.015L593.469 122.585C592.503 122.016 593.068 120.532 594.167 120.751L594.364 120.79C595.962 121.107 597.494 120.002 597.698 118.386C597.817 117.442 599.183 117.442 599.302 118.386C599.506 120.002 601.038 121.107 602.636 120.79Z" stroke="#E68DB1" stroke-width="2"/>
<path d="M602.636 141.79L602.833 141.751C603.932 141.532 604.497 143.016 603.531 143.585L602.799 144.015C601.501 144.779 600.98 146.394 601.588 147.773L602.036 148.788C602.418 149.653 601.269 150.364 600.665 149.637C599.54 148.282 597.46 148.282 596.335 149.637C595.731 150.364 594.582 149.653 594.964 148.788L595.412 147.773C596.02 146.394 595.499 144.779 594.201 144.015L593.469 143.585C592.503 143.016 593.068 141.532 594.167 141.751L594.364 141.79C595.962 142.107 597.494 141.002 597.698 139.386C597.817 138.442 599.183 138.442 599.302 139.386C599.506 141.002 601.038 142.107 602.636 141.79Z" stroke="#E68DB1" stroke-width="2"/>
<path d="M602.636 162.79L602.833 162.751C603.932 162.532 604.497 164.016 603.531 164.585L602.799 165.015C601.501 165.779 600.98 167.394 601.588 168.773L602.036 169.788C602.418 170.653 601.269 171.364 600.665 170.637C599.54 169.282 597.46 169.282 596.335 170.637C595.731 171.364 594.582 170.653 594.964 169.788L595.412 168.773C596.02 167.394 595.499 165.779 594.201 165.015L593.469 164.585C592.503 164.016 593.068 162.532 594.167 162.751L594.364 162.79C595.962 163.107 597.494 162.002 597.698 160.386C597.817 159.442 599.183 159.442 599.302 160.386C599.506 162.002 601.038 163.107 602.636 162.79Z" stroke="#E68DB1" stroke-width="2"/>
<path d="M602.636 183.79L602.833 183.751C603.932 183.532 604.497 185.016 603.531 185.585L602.799 186.015C601.501 186.779 600.98 188.394 601.588 189.773L602.036 190.788C602.418 191.653 601.269 192.364 600.665 191.637C599.54 190.282 597.46 190.282 596.335 191.637C595.731 192.364 594.582 191.653 594.964 190.788L595.412 189.773C596.02 188.394 595.499 186.779 594.201 186.015L593.469 185.585C592.503 185.016 593.068 183.532 594.167 183.751L594.364 183.79C595.962 184.107 597.494 183.002 597.698 181.386C597.817 180.442 599.183 180.442 599.302 181.386C599.506 183.002 601.038 184.107 602.636 183.79Z" stroke="#E68DB1" stroke-width="2"/>
<path d="M602.636 204.79L602.833 204.751C603.932 204.532 604.497 206.016 603.531 206.585L602.799 207.015C601.501 207.779 600.98 209.394 601.588 210.773L602.036 211.788C602.418 212.653 601.269 213.364 600.665 212.637C599.54 211.282 597.46 211.282 596.335 212.637C595.731 213.364 594.582 212.653 594.964 211.788L595.412 210.773C596.02 209.394 595.499 207.779 594.201 207.015L593.469 206.585C592.503 206.016 593.068 204.532 594.167 204.751L594.364 204.79C595.962 205.107 597.494 204.002 597.698 202.386C597.817 201.442 599.183 201.442 599.302 202.386C599.506 204.002 601.038 205.107 602.636 204.79Z" stroke="#E68DB1" stroke-width="2"/>
<path d="M602.636 225.79L602.833 225.751C603.932 225.532 604.497 227.016 603.531 227.585L602.799 228.015C601.501 228.779 600.98 230.394 601.588 231.773L602.036 232.788C602.418 233.653 601.269 234.364 600.665 233.637C599.54 232.282 597.46 232.282 596.335 233.637C595.731 234.364 594.582 233.653 594.964 232.788L595.412 231.773C596.02 230.394 595.499 228.779 594.201 228.015L593.469 227.585C592.503 227.016 593.068 225.532 594.167 225.751L594.364 225.79C595.962 226.107 597.494 225.002 597.698 223.386C597.817 222.442 599.183 222.442 599.302 223.386C599.506 225.002 601.038 226.107 602.636 225.79Z" stroke="#E68DB1" stroke-width="2"/>
<path d="M602.636 246.79L602.833 246.751C603.932 246.532 604.497 248.016 603.531 248.585L602.799 249.015C601.501 249.779 600.98 251.394 601.588 252.773L602.036 253.788C602.418 254.653 601.269 255.364 600.665 254.637C599.54 253.282 597.46 253.282 596.335 254.637C595.731 255.364 594.582 254.653 594.964 253.788L595.412 252.773C596.02 251.394 595.499 249.779 594.201 249.015L593.469 248.585C592.503 248.016 593.068 246.532 594.167 246.751L594.364 246.79C595.962 247.107 597.494 246.002 597.698 244.386C597.817 243.442 599.183 243.442 599.302 244.386C599.506 246.002 601.038 247.107 602.636 246.79Z" stroke="#E68DB1" stroke-width="2"/>
<path d="M602.636 267.79L602.833 267.751C603.932 267.532 604.497 269.016 603.531 269.585L602.799 270.015C601.501 270.779 600.98 272.394 601.588 273.773L602.036 274.788C602.418 275.653 601.269 276.364 600.665 275.637C599.54 274.282 597.46 274.282 596.335 275.637C595.731 276.364 594.582 275.653 594.964 274.788L595.412 273.773C596.02 272.394 595.499 270.779 594.201 270.015L593.469 269.585C592.503 269.016 593.068 267.532 594.167 267.751L594.364 267.79C595.962 268.107 597.494 267.002 597.698 265.386C597.817 264.442 599.183 264.442 599.302 265.386C599.506 267.002 601.038 268.107 602.636 267.79Z" stroke="#E68DB1" stroke-width="2"/>
<path d="M602.636 288.79L602.833 288.751C603.932 288.532 604.497 290.016 603.531 290.585L602.799 291.015C601.501 291.779 600.98 293.394 601.588 294.773L602.036 295.788C602.418 296.653 601.269 297.364 600.665 296.637C599.54 295.282 597.46 295.282 596.335 296.637C595.731 297.364 594.582 296.653 594.964 295.788L595.412 294.773C596.02 293.394 595.499 291.779 594.201 291.015L593.469 290.585C592.503 290.016 593.068 288.532 594.167 288.751L594.364 288.79C595.962 289.107 597.494 288.002 597.698 286.386C597.817 285.442 599.183 285.442 599.302 286.386C599.506 288.002 601.038 289.107 602.636 288.79Z" stroke="#E68DB1" stroke-width="2"/>
<path d="M602.636 309.79L602.833 309.751C603.932 309.532 604.497 311.016 603.531 311.585L602.799 312.015C601.501 312.779 600.98 314.394 601.588 315.773L602.036 316.788C602.418 317.653 601.269 318.364 600.665 317.637C599.54 316.282 597.46 316.282 596.335 317.637C595.731 318.364 594.582 317.653 594.964 316.788L595.412 315.773C596.02 314.394 595.499 312.779 594.201 312.015L593.469 311.585C592.503 311.016 593.068 309.532 594.167 309.751L594.364 309.79C595.962 310.107 597.494 309.002 597.698 307.386C597.817 306.442 599.183 306.442 599.302 307.386C599.506 309.002 601.038 310.107 602.636 309.79Z" stroke="#E68DB1" stroke-width="2"/>
<path d="M602.636 330.79L602.833 330.751C603.932 330.532 604.497 332.016 603.531 332.585L602.799 333.015C601.501 333.779 600.98 335.394 601.588 336.773L602.036 337.788C602.418 338.653 601.269 339.364 600.665 338.637C599.54 337.282 597.46 337.282 596.335 338.637C595.731 339.364 594.582 338.653 594.964 337.788L595.412 336.773C596.02 335.394 595.499 333.779 594.201 333.015L593.469 332.585C592.503 332.016 593.068 330.532 594.167 330.751L594.364 330.79C595.962 331.107 597.494 330.002 597.698 328.386C597.817 327.442 599.183 327.442 599.302 328.386C599.506 330.002 601.038 331.107 602.636 330.79Z" stroke="#E68DB1" stroke-width="2"/>
<path d="M602.636 351.79L602.833 351.751C603.932 351.532 604.497 353.016 603.531 353.585L602.799 354.015C601.501 354.779 600.98 356.394 601.588 357.773L602.036 358.788C602.418 359.653 601.269 360.364 600.665 359.637C599.54 358.282 597.46 358.282 596.335 359.637C595.731 360.364 594.582 359.653 594.964 358.788L595.412 357.773C596.02 356.394 595.499 354.779 594.201 354.015L593.469 353.585C592.503 353.016 593.068 351.532 594.167 351.751L594.364 351.79C595.962 352.107 597.494 351.002 597.698 349.386C597.817 348.442 599.183 348.442 599.302 349.386C599.506 351.002 601.038 352.107 602.636 351.79Z" stroke="#E68DB1" stroke-width="2"/>
<path d="M602.636 372.79L602.833 372.751C603.932 372.532 604.497 374.016 603.531 374.585L602.799 375.015C601.501 375.779 600.98 377.394 601.588 378.773L602.036 379.788C602.418 380.653 601.269 381.364 600.665 380.637C599.54 379.282 597.46 379.282 596.335 380.637C595.731 381.364 594.582 380.653 594.964 379.788L595.412 378.773C596.02 377.394 595.499 375.779 594.201 375.015L593.469 374.585C592.503 374.016 593.068 372.532 594.167 372.751L594.364 372.79C595.962 373.107 597.494 372.002 597.698 370.386C597.817 369.442 599.183 369.442 599.302 370.386C599.506 372.002 601.038 373.107 602.636 372.79Z" stroke="#E68DB1" stroke-width="2"/>
<path d="M602.636 393.79L602.833 393.751C603.932 393.532 604.497 395.016 603.531 395.585L602.799 396.015C601.501 396.779 600.98 398.394 601.588 399.773L602.036 400.788C602.418 401.653 601.269 402.364 600.665 401.637C599.54 400.282 597.46 400.282 596.335 401.637C595.731 402.364 594.582 401.653 594.964 400.788L595.412 399.773C596.02 398.394 595.499 396.779 594.201 396.015L593.469 395.585C592.503 395.016 593.068 393.532 594.167 393.751L594.364 393.79C595.962 394.107 597.494 393.002 597.698 391.386C597.817 390.442 599.183 390.442 599.302 391.386C599.506 393.002 601.038 394.107 602.636 393.79Z" stroke="#E68DB1" stroke-width="2"/>
<path d="M602.636 414.79L602.833 414.751C603.932 414.532 604.497 416.016 603.531 416.585L602.799 417.015C601.501 417.779 600.98 419.394 601.588 420.773L602.036 421.788C602.418 422.653 601.269 423.364 600.665 422.637C599.54 421.282 597.46 421.282 596.335 422.637C595.731 423.364 594.582 422.653 594.964 421.788L595.412 420.773C596.02 419.394 595.499 417.779 594.201 417.015L593.469 416.585C592.503 416.016 593.068 414.532 594.167 414.751L594.364 414.79C595.962 415.107 597.494 414.002 597.698 412.386C597.817 411.442 599.183 411.442 599.302 412.386C599.506 414.002 601.038 415.107 602.636 414.79Z" stroke="#E68DB1" stroke-width="2"/>
<path d="M602.636 435.79L602.833 435.751C603.932 435.532 604.497 437.016 603.531 437.585L602.799 438.015C601.501 438.779 600.98 440.394 601.588 441.773L602.036 442.788C602.418 443.653 601.269 444.364 600.665 443.637C599.54 442.282 597.46 442.282 596.335 443.637C595.731 444.364 594.582 443.653 594.964 442.788L595.412 441.773C596.02 440.394 595.499 438.779 594.201 438.015L593.469 437.585C592.503 437.016 593.068 435.532 594.167 435.751L594.364 435.79C595.962 436.107 597.494 435.002 597.698 433.386C597.817 432.442 599.183 432.442 599.302 433.386C599.506 435.002 601.038 436.107 602.636 435.79Z" stroke="#E68DB1" stroke-width="2"/>
<path d="M602.636 456.79L602.833 456.751C603.932 456.532 604.497 458.016 603.531 458.585L602.799 459.015C601.501 459.779 600.98 461.394 601.588 462.773L602.036 463.788C602.418 464.653 601.269 465.364 600.665 464.637C599.54 463.282 597.46 463.282 596.335 464.637C595.731 465.364 594.582 464.653 594.964 463.788L595.412 462.773C596.02 461.394 595.499 459.779 594.201 459.015L593.469 458.585C592.503 458.016 593.068 456.532 594.167 456.751L594.364 456.79C595.962 457.107 597.494 456.002 597.698 454.386C597.817 453.442 599.183 453.442 599.302 454.386C599.506 456.002 601.038 457.107 602.636 456.79Z" stroke="#E68DB1" stroke-width="2"/>
<path d="M602.636 477.79L602.833 477.751C603.932 477.532 604.497 479.016 603.531 479.585L602.799 480.015C601.501 480.779 600.98 482.394 601.588 483.773L602.036 484.788C602.418 485.653 601.269 486.364 600.665 485.637C599.54 484.282 597.46 484.282 596.335 485.637C595.731 486.364 594.582 485.653 594.964 484.788L595.412 483.773C596.02 482.394 595.499 480.779 594.201 480.015L593.469 479.585C592.503 479.016 593.068 477.532 594.167 477.751L594.364 477.79C595.962 478.107 597.494 477.002 597.698 475.386C597.817 474.442 599.183 474.442 599.302 475.386C599.506 477.002 601.038 478.107 602.636 477.79Z" stroke="#E68DB1" stroke-width="2"/>
<path d="M602.636 498.79L602.833 498.751C603.932 498.532 604.497 500.016 603.531 500.585L602.799 501.015C601.501 501.779 600.98 503.394 601.588 504.773L602.036 505.788C602.418 506.653 601.269 507.364 600.665 506.637C599.54 505.282 597.46 505.282 596.335 506.637C595.731 507.364 594.582 506.653 594.964 505.788L595.412 504.773C596.02 503.394 595.499 501.779 594.201 501.015L593.469 500.585C592.503 500.016 593.068 498.532 594.167 498.751L594.364 498.79C595.962 499.107 597.494 498.002 597.698 496.386C597.817 495.442 599.183 495.442 599.302 496.386C599.506 498.002 601.038 499.107 602.636 498.79Z" stroke="#E68DB1" stroke-width="2"/>
<path d="M602.636 519.79L602.833 519.751C603.932 519.532 604.497 521.016 603.531 521.585L602.799 522.015C601.501 522.779 600.98 524.394 601.588 525.773L602.036 526.788C602.418 527.653 601.269 528.364 600.665 527.637C599.54 526.282 597.46 526.282 596.335 527.637C595.731 528.364 594.582 527.653 594.964 526.788L595.412 525.773C596.02 524.394 595.499 522.779 594.201 522.015L593.469 521.585C592.503 521.016 593.068 519.532 594.167 519.751L594.364 519.79C595.962 520.107 597.494 519.002 597.698 517.386C597.817 516.442 599.183 516.442 599.302 517.386C599.506 519.002 601.038 520.107 602.636 519.79Z" stroke="#E68DB1" stroke-width="2"/>
<path d="M602.636 540.79L602.833 540.751C603.932 540.532 604.497 542.016 603.531 542.585L602.799 543.015C601.501 543.779 600.98 545.394 601.588 546.773L602.036 547.788C602.418 548.653 601.269 549.364 600.665 548.637C599.54 547.282 597.46 547.282 596.335 548.637C595.731 549.364 594.582 548.653 594.964 547.788L595.412 546.773C596.02 545.394 595.499 543.779 594.201 543.015L593.469 542.585C592.503 542.016 593.068 540.532 594.167 540.751L594.364 540.79C595.962 541.107 597.494 540.002 597.698 538.386C597.817 537.442 599.183 537.442 599.302 538.386C599.506 540.002 601.038 541.107 602.636 540.79Z" stroke="#E68DB1" stroke-width="2"/>
<path d="M602.636 561.79L602.833 561.751C603.932 561.532 604.497 563.016 603.531 563.585L602.799 564.015C601.501 564.779 600.98 566.394 601.588 567.773L602.036 568.788C602.418 569.653 601.269 570.364 600.665 569.637C599.54 568.282 597.46 568.282 596.335 569.637C595.731 570.364 594.582 569.653 594.964 568.788L595.412 567.773C596.02 566.394 595.499 564.779 594.201 564.015L593.469 563.585C592.503 563.016 593.068 561.532 594.167 561.751L594.364 561.79C595.962 562.107 597.494 561.002 597.698 559.386C597.817 558.442 599.183 558.442 599.302 559.386C599.506 561.002 601.038 562.107 602.636 561.79Z" stroke="#E68DB1" stroke-width="2"/>
<path d="M602.636 582.79L602.833 582.751C603.932 582.532 604.497 584.016 603.531 584.585L602.799 585.015C601.501 585.779 600.98 587.394 601.588 588.773L602.036 589.788C602.418 590.653 601.269 591.364 600.665 590.637C599.54 589.282 597.46 589.282 596.335 590.637C595.731 591.364 594.582 590.653 594.964 589.788L595.412 588.773C596.02 587.394 595.499 585.779 594.201 585.015L593.469 584.585C592.503 584.016 593.068 582.532 594.167 582.751L594.364 582.79C595.962 583.107 597.494 582.002 597.698 580.386C597.817 579.442 599.183 579.442 599.302 580.386C599.506 582.002 601.038 583.107 602.636 582.79Z" stroke="#E68DB1" stroke-width="2"/>
<path d="M602.636 603.79L602.833 603.751C603.932 603.532 604.497 605.016 603.531 605.585L602.799 606.015C601.501 606.779 600.98 608.394 601.588 609.773L602.036 610.788C602.418 611.653 601.269 612.364 600.665 611.637C599.54 610.282 597.46 610.282 596.335 611.637C595.731 612.364 594.582 611.653 594.964 610.788L595.412 609.773C596.02 608.394 595.499 606.779 594.201 606.015L593.469 605.585C592.503 605.016 593.068 603.532 594.167 603.751L594.364 603.79C595.962 604.107 597.494 603.002 597.698 601.386C597.817 600.442 599.183 600.442 599.302 601.386C599.506 603.002 601.038 604.107 602.636 603.79Z" stroke="#E68DB1" stroke-width="2"/>
<path d="M602.636 624.79L602.833 624.751C603.932 624.532 604.497 626.016 603.531 626.585L602.799 627.015C601.501 627.779 600.98 629.394 601.588 630.773L602.036 631.788C602.418 632.653 601.269 633.364 600.665 632.637C599.54 631.282 597.46 631.282 596.335 632.637C595.731 633.364 594.582 632.653 594.964 631.788L595.412 630.773C596.02 629.394 595.499 627.779 594.201 627.015L593.469 626.585C592.503 626.016 593.068 624.532 594.167 624.751L594.364 624.79C595.962 625.107 597.494 624.002 597.698 622.386C597.817 621.442 599.183 621.442 599.302 622.386C599.506 624.002 601.038 625.107 602.636 624.79Z" stroke="#E68DB1" stroke-width="2"/>
<path d="M602.636 645.79L602.833 645.751C603.932 645.532 604.497 647.016 603.531 647.585L602.799 648.015C601.501 648.779 600.98 650.394 601.588 651.773L602.036 652.788C602.418 653.653 601.269 654.364 600.665 653.637C599.54 652.282 597.46 652.282 596.335 653.637C595.731 654.364 594.582 653.653 594.964 652.788L595.412 651.773C596.02 650.394 595.499 648.779 594.201 648.015L593.469 647.585C592.503 647.016 593.068 645.532 594.167 645.751L594.364 645.79C595.962 646.107 597.494 645.002 597.698 643.386C597.817 642.442 599.183 642.442 599.302 643.386C599.506 645.002 601.038 646.107 602.636 645.79Z" stroke="#E68DB1" stroke-width="2"/>
<path d="M602.636 666.79L602.833 666.751C603.932 666.532 604.497 668.016 603.531 668.585L602.799 669.015C601.501 669.779 600.98 671.394 601.588 672.773L602.036 673.788C602.418 674.653 601.269 675.364 600.665 674.637C599.54 673.282 597.46 673.282 596.335 674.637C595.731 675.364 594.582 674.653 594.964 673.788L595.412 672.773C596.02 671.394 595.499 669.779 594.201 669.015L593.469 668.585C592.503 668.016 593.068 666.532 594.167 666.751L594.364 666.79C595.962 667.107 597.494 666.002 597.698 664.386C597.817 663.442 599.183 663.442 599.302 664.386C599.506 666.002 601.038 667.107 602.636 666.79Z" stroke="#E68DB1" stroke-width="2"/>
<path d="M602.636 687.79L602.833 687.751C603.932 687.532 604.497 689.016 603.531 689.585L602.799 690.015C601.501 690.779 600.98 692.394 601.588 693.773L602.036 694.788C602.418 695.653 601.269 696.364 600.665 695.637C599.54 694.282 597.46 694.282 596.335 695.637C595.731 696.364 594.582 695.653 594.964 694.788L595.412 693.773C596.02 692.394 595.499 690.779 594.201 690.015L593.469 689.585C592.503 689.016 593.068 687.532 594.167 687.751L594.364 687.79C595.962 688.107 597.494 687.002 597.698 685.386C597.817 684.442 599.183 684.442 599.302 685.386C599.506 687.002 601.038 688.107 602.636 687.79Z" stroke="#E68DB1" stroke-width="2"/>
<path d="M602.636 708.79L602.833 708.751C603.932 708.532 604.497 710.016 603.531 710.585L602.799 711.015C601.501 711.779 600.98 713.394 601.588 714.773L602.036 715.788C602.418 716.653 601.269 717.364 600.665 716.637C599.54 715.282 597.46 715.282 596.335 716.637C595.731 717.364 594.582 716.653 594.964 715.788L595.412 714.773C596.02 713.394 595.499 711.779 594.201 711.015L593.469 710.585C592.503 710.016 593.068 708.532 594.167 708.751L594.364 708.79C595.962 709.107 597.494 708.002 597.698 706.386C597.817 705.442 599.183 705.442 599.302 706.386C599.506 708.002 601.038 709.107 602.636 708.79Z" stroke="#E68DB1" stroke-width="2"/>
<path d="M602.636 729.79L602.833 729.751C603.932 729.532 604.497 731.016 603.531 731.585L602.799 732.015C601.501 732.779 600.98 734.394 601.588 735.773L602.036 736.788C602.418 737.653 601.269 738.364 600.665 737.637C599.54 736.282 597.46 736.282 596.335 737.637C595.731 738.364 594.582 737.653 594.964 736.788L595.412 735.773C596.02 734.394 595.499 732.779 594.201 732.015L593.469 731.585C592.503 731.016 593.068 729.532 594.167 729.751L594.364 729.79C595.962 730.107 597.494 729.002 597.698 727.386C597.817 726.442 599.183 726.442 599.302 727.386C599.506 729.002 601.038 730.107 602.636 729.79Z" stroke="#E68DB1" stroke-width="2"/>
<path d="M602.636 750.79L602.833 750.751C603.932 750.532 604.497 752.016 603.531 752.585L602.799 753.015C601.501 753.779 600.98 755.394 601.588 756.773L602.036 757.788C602.418 758.653 601.269 759.364 600.665 758.637C599.54 757.282 597.46 757.282 596.335 758.637C595.731 759.364 594.582 758.653 594.964 757.788L595.412 756.773C596.02 755.394 595.499 753.779 594.201 753.015L593.469 752.585C592.503 752.016 593.068 750.532 594.167 750.751L594.364 750.79C595.962 751.107 597.494 750.002 597.698 748.386C597.817 747.442 599.183 747.442 599.302 748.386C599.506 750.002 601.038 751.107 602.636 750.79Z" stroke="#E68DB1" stroke-width="2"/>
<path d="M602.636 771.79L602.833 771.751C603.932 771.532 604.497 773.016 603.531 773.585L602.799 774.015C601.501 774.779 600.98 776.394 601.588 777.773L602.036 778.788C602.418 779.653 601.269 780.364 600.665 779.637C599.54 778.282 597.46 778.282 596.335 779.637C595.731 780.364 594.582 779.653 594.964 778.788L595.412 777.773C596.02 776.394 595.499 774.779 594.201 774.015L593.469 773.585C592.503 773.016 593.068 771.532 594.167 771.751L594.364 771.79C595.962 772.107 597.494 771.002 597.698 769.386C597.817 768.442 599.183 768.442 599.302 769.386C599.506 771.002 601.038 772.107 602.636 771.79Z" stroke="#E68DB1" stroke-width="2"/>
<path d="M602.636 792.79L602.833 792.751C603.932 792.532 604.497 794.016 603.531 794.585L602.799 795.015C601.501 795.779 600.98 797.394 601.588 798.773L602.036 799.788C602.418 800.653 601.269 801.364 600.665 800.637C599.54 799.282 597.46 799.282 596.335 800.637C595.731 801.364 594.582 800.653 594.964 799.788L595.412 798.773C596.02 797.394 595.499 795.779 594.201 795.015L593.469 794.585C592.503 794.016 593.068 792.532 594.167 792.751L594.364 792.79C595.962 793.107 597.494 792.002 597.698 790.386C597.817 789.442 599.183 789.442 599.302 790.386C599.506 792.002 601.038 793.107 602.636 792.79Z" stroke="#E68DB1" stroke-width="2"/>
<path d="M602.636 813.79L602.833 813.751C603.932 813.532 604.497 815.016 603.531 815.585L602.799 816.015C601.501 816.779 600.98 818.394 601.588 819.773L602.036 820.788C602.418 821.653 601.269 822.364 600.665 821.637C599.54 820.282 597.46 820.282 596.335 821.637C595.731 822.364 594.582 821.653 594.964 820.788L595.412 819.773C596.02 818.394 595.499 816.779 594.201 816.015L593.469 815.585C592.503 815.016 593.068 813.532 594.167 813.751L594.364 813.79C595.962 814.107 597.494 813.002 597.698 811.386C597.817 810.442 599.183 810.442 599.302 811.386C599.506 813.002 601.038 814.107 602.636 813.79Z" stroke="#E68DB1" stroke-width="2"/>
<path d="M37.6358 835.79L37.8325 835.751C38.9321 835.532 39.4974 837.016 38.531 837.585L37.7993 838.015C36.5006 838.779 35.9799 840.394 36.5882 841.773L37.0364 842.788C37.4177 843.653 36.2685 844.364 35.6651 843.637C34.5398 842.282 32.4602 842.282 31.3349 843.637C30.7315 844.364 29.5823 843.653 29.9636 842.788L30.4118 841.773C31.0201 840.394 30.4994 838.779 29.2007 838.015L28.469 837.585C27.5026 837.016 28.0679 835.532 29.1675 835.751L29.3642 835.79C30.9624 836.107 32.4945 835.002 32.6979 833.386C32.8166 832.442 34.1834 832.442 34.3021 833.386C34.5055 835.002 36.0376 836.107 37.6358 835.79Z" stroke="#E68DB1" stroke-width="2"/>
<path d="M20.6358 818.79L20.8325 818.751C21.9321 818.532 22.4974 820.016 21.531 820.585L20.7993 821.015C19.5006 821.779 18.9799 823.394 19.5882 824.773L20.0364 825.788C20.4177 826.653 19.2685 827.364 18.6651 826.637C17.5398 825.282 15.4602 825.282 14.3349 826.637C13.7315 827.364 12.5823 826.653 12.9636 825.788L13.4118 824.773C14.0201 823.394 13.4994 821.779 12.2007 821.015L11.469 820.585C10.5026 820.016 11.0679 818.532 12.1675 818.751L12.3642 818.79C13.9624 819.107 15.4945 818.002 15.6979 816.386C15.8166 815.442 17.1834 815.442 17.3021 816.386C17.5055 818.002 19.0376 819.107 20.6358 818.79Z" stroke="#E68DB1" stroke-width="2"/>
<path d="M20.6358 797.79L20.8325 797.751C21.9321 797.532 22.4974 799.016 21.531 799.585L20.7993 800.015C19.5006 800.779 18.9799 802.394 19.5882 803.773L20.0364 804.788C20.4177 805.653 19.2685 806.364 18.6651 805.637C17.5398 804.282 15.4602 804.282 14.3349 805.637C13.7315 806.364 12.5823 805.653 12.9636 804.788L13.4118 803.773C14.0201 802.394 13.4994 800.779 12.2007 800.015L11.469 799.585C10.5026 799.016 11.0679 797.532 12.1675 797.751L12.3642 797.79C13.9624 798.107 15.4945 797.002 15.6979 795.386C15.8166 794.442 17.1834 794.442 17.3021 795.386C17.5055 797.002 19.0376 798.107 20.6358 797.79Z" stroke="#E68DB1" stroke-width="2"/>
<path d="M20.6358 776.79L20.8325 776.751C21.9321 776.532 22.4974 778.016 21.531 778.585L20.7993 779.015C19.5006 779.779 18.9799 781.394 19.5882 782.773L20.0364 783.788C20.4177 784.653 19.2685 785.364 18.6651 784.637C17.5398 783.282 15.4602 783.282 14.3349 784.637C13.7315 785.364 12.5823 784.653 12.9636 783.788L13.4118 782.773C14.0201 781.394 13.4994 779.779 12.2007 779.015L11.469 778.585C10.5026 778.016 11.0679 776.532 12.1675 776.751L12.3642 776.79C13.9624 777.107 15.4945 776.002 15.6979 774.386C15.8166 773.442 17.1834 773.442 17.3021 774.386C17.5055 776.002 19.0376 777.107 20.6358 776.79Z" stroke="#E68DB1" stroke-width="2"/>
<path d="M20.6358 755.79L20.8325 755.751C21.9321 755.532 22.4974 757.016 21.531 757.585L20.7993 758.015C19.5006 758.779 18.9799 760.394 19.5882 761.773L20.0364 762.788C20.4177 763.653 19.2685 764.364 18.6651 763.637C17.5398 762.282 15.4602 762.282 14.3349 763.637C13.7315 764.364 12.5823 763.653 12.9636 762.788L13.4118 761.773C14.0201 760.394 13.4994 758.779 12.2007 758.015L11.469 757.585C10.5026 757.016 11.0679 755.532 12.1675 755.751L12.3642 755.79C13.9624 756.107 15.4945 755.002 15.6979 753.386C15.8166 752.442 17.1834 752.442 17.3021 753.386C17.5055 755.002 19.0376 756.107 20.6358 755.79Z" stroke="#E68DB1" stroke-width="2"/>
<path d="M20.6358 734.79L20.8325 734.751C21.9321 734.532 22.4974 736.016 21.531 736.585L20.7993 737.015C19.5006 737.779 18.9799 739.394 19.5882 740.773L20.0364 741.788C20.4177 742.653 19.2685 743.364 18.6651 742.637C17.5398 741.282 15.4602 741.282 14.3349 742.637C13.7315 743.364 12.5823 742.653 12.9636 741.788L13.4118 740.773C14.0201 739.394 13.4994 737.779 12.2007 737.015L11.469 736.585C10.5026 736.016 11.0679 734.532 12.1675 734.751L12.3642 734.79C13.9624 735.107 15.4945 734.002 15.6979 732.386C15.8166 731.442 17.1834 731.442 17.3021 732.386C17.5055 734.002 19.0376 735.107 20.6358 734.79Z" stroke="#E68DB1" stroke-width="2"/>
<path d="M20.6358 713.79L20.8325 713.751C21.9321 713.532 22.4974 715.016 21.531 715.585L20.7993 716.015C19.5006 716.779 18.9799 718.394 19.5882 719.773L20.0364 720.788C20.4177 721.653 19.2685 722.364 18.6651 721.637C17.5398 720.282 15.4602 720.282 14.3349 721.637C13.7315 722.364 12.5823 721.653 12.9636 720.788L13.4118 719.773C14.0201 718.394 13.4994 716.779 12.2007 716.015L11.469 715.585C10.5026 715.016 11.0679 713.532 12.1675 713.751L12.3642 713.79C13.9624 714.107 15.4945 713.002 15.6979 711.386C15.8166 710.442 17.1834 710.442 17.3021 711.386C17.5055 713.002 19.0376 714.107 20.6358 713.79Z" stroke="#E68DB1" stroke-width="2"/>
<path d="M20.6358 692.79L20.8325 692.751C21.9321 692.532 22.4974 694.016 21.531 694.585L20.7993 695.015C19.5006 695.779 18.9799 697.394 19.5882 698.773L20.0364 699.788C20.4177 700.653 19.2685 701.364 18.6651 700.637C17.5398 699.282 15.4602 699.282 14.3349 700.637C13.7315 701.364 12.5823 700.653 12.9636 699.788L13.4118 698.773C14.0201 697.394 13.4994 695.779 12.2007 695.015L11.469 694.585C10.5026 694.016 11.0679 692.532 12.1675 692.751L12.3642 692.79C13.9624 693.107 15.4945 692.002 15.6979 690.386C15.8166 689.442 17.1834 689.442 17.3021 690.386C17.5055 692.002 19.0376 693.107 20.6358 692.79Z" stroke="#E68DB1" stroke-width="2"/>
<path d="M20.6358 671.79L20.8325 671.751C21.9321 671.532 22.4974 673.016 21.531 673.585L20.7993 674.015C19.5006 674.779 18.9799 676.394 19.5882 677.773L20.0364 678.788C20.4177 679.653 19.2685 680.364 18.6651 679.637C17.5398 678.282 15.4602 678.282 14.3349 679.637C13.7315 680.364 12.5823 679.653 12.9636 678.788L13.4118 677.773C14.0201 676.394 13.4994 674.779 12.2007 674.015L11.469 673.585C10.5026 673.016 11.0679 671.532 12.1675 671.751L12.3642 671.79C13.9624 672.107 15.4945 671.002 15.6979 669.386C15.8166 668.442 17.1834 668.442 17.3021 669.386C17.5055 671.002 19.0376 672.107 20.6358 671.79Z" stroke="#E68DB1" stroke-width="2"/>
<path d="M20.6358 650.79L20.8325 650.751C21.9321 650.532 22.4974 652.016 21.531 652.585L20.7993 653.015C19.5006 653.779 18.9799 655.394 19.5882 656.773L20.0364 657.788C20.4177 658.653 19.2685 659.364 18.6651 658.637C17.5398 657.282 15.4602 657.282 14.3349 658.637C13.7315 659.364 12.5823 658.653 12.9636 657.788L13.4118 656.773C14.0201 655.394 13.4994 653.779 12.2007 653.015L11.469 652.585C10.5026 652.016 11.0679 650.532 12.1675 650.751L12.3642 650.79C13.9624 651.107 15.4945 650.002 15.6979 648.386C15.8166 647.442 17.1834 647.442 17.3021 648.386C17.5055 650.002 19.0376 651.107 20.6358 650.79Z" stroke="#E68DB1" stroke-width="2"/>
<path d="M20.6358 629.79L20.8325 629.751C21.9321 629.532 22.4974 631.016 21.531 631.585L20.7993 632.015C19.5006 632.779 18.9799 634.394 19.5882 635.773L20.0364 636.788C20.4177 637.653 19.2685 638.364 18.6651 637.637C17.5398 636.282 15.4602 636.282 14.3349 637.637C13.7315 638.364 12.5823 637.653 12.9636 636.788L13.4118 635.773C14.0201 634.394 13.4994 632.779 12.2007 632.015L11.469 631.585C10.5026 631.016 11.0679 629.532 12.1675 629.751L12.3642 629.79C13.9624 630.107 15.4945 629.002 15.6979 627.386C15.8166 626.442 17.1834 626.442 17.3021 627.386C17.5055 629.002 19.0376 630.107 20.6358 629.79Z" stroke="#E68DB1" stroke-width="2"/>
<path d="M20.6358 608.79L20.8325 608.751C21.9321 608.532 22.4974 610.016 21.531 610.585L20.7993 611.015C19.5006 611.779 18.9799 613.394 19.5882 614.773L20.0364 615.788C20.4177 616.653 19.2685 617.364 18.6651 616.637C17.5398 615.282 15.4602 615.282 14.3349 616.637C13.7315 617.364 12.5823 616.653 12.9636 615.788L13.4118 614.773C14.0201 613.394 13.4994 611.779 12.2007 611.015L11.469 610.585C10.5026 610.016 11.0679 608.532 12.1675 608.751L12.3642 608.79C13.9624 609.107 15.4945 608.002 15.6979 606.386C15.8166 605.442 17.1834 605.442 17.3021 606.386C17.5055 608.002 19.0376 609.107 20.6358 608.79Z" stroke="#E68DB1" stroke-width="2"/>
<path d="M20.6358 587.79L20.8325 587.751C21.9321 587.532 22.4974 589.016 21.531 589.585L20.7993 590.015C19.5006 590.779 18.9799 592.394 19.5882 593.773L20.0364 594.788C20.4177 595.653 19.2685 596.364 18.6651 595.637C17.5398 594.282 15.4602 594.282 14.3349 595.637C13.7315 596.364 12.5823 595.653 12.9636 594.788L13.4118 593.773C14.0201 592.394 13.4994 590.779 12.2007 590.015L11.469 589.585C10.5026 589.016 11.0679 587.532 12.1675 587.751L12.3642 587.79C13.9624 588.107 15.4945 587.002 15.6979 585.386C15.8166 584.442 17.1834 584.442 17.3021 585.386C17.5055 587.002 19.0376 588.107 20.6358 587.79Z" stroke="#E68DB1" stroke-width="2"/>
<path d="M20.6358 566.79L20.8325 566.751C21.9321 566.532 22.4974 568.016 21.531 568.585L20.7993 569.015C19.5006 569.779 18.9799 571.394 19.5882 572.773L20.0364 573.788C20.4177 574.653 19.2685 575.364 18.6651 574.637C17.5398 573.282 15.4602 573.282 14.3349 574.637C13.7315 575.364 12.5823 574.653 12.9636 573.788L13.4118 572.773C14.0201 571.394 13.4994 569.779 12.2007 569.015L11.469 568.585C10.5026 568.016 11.0679 566.532 12.1675 566.751L12.3642 566.79C13.9624 567.107 15.4945 566.002 15.6979 564.386C15.8166 563.442 17.1834 563.442 17.3021 564.386C17.5055 566.002 19.0376 567.107 20.6358 566.79Z" stroke="#E68DB1" stroke-width="2"/>
<path d="M20.6358 545.79L20.8325 545.751C21.9321 545.532 22.4974 547.016 21.531 547.585L20.7993 548.015C19.5006 548.779 18.9799 550.394 19.5882 551.773L20.0364 552.788C20.4177 553.653 19.2685 554.364 18.6651 553.637C17.5398 552.282 15.4602 552.282 14.3349 553.637C13.7315 554.364 12.5823 553.653 12.9636 552.788L13.4118 551.773C14.0201 550.394 13.4994 548.779 12.2007 548.015L11.469 547.585C10.5026 547.016 11.0679 545.532 12.1675 545.751L12.3642 545.79C13.9624 546.107 15.4945 545.002 15.6979 543.386C15.8166 542.442 17.1834 542.442 17.3021 543.386C17.5055 545.002 19.0376 546.107 20.6358 545.79Z" stroke="#E68DB1" stroke-width="2"/>
<path d="M20.6358 524.79L20.8325 524.751C21.9321 524.532 22.4974 526.016 21.531 526.585L20.7993 527.015C19.5006 527.779 18.9799 529.394 19.5882 530.773L20.0364 531.788C20.4177 532.653 19.2685 533.364 18.6651 532.637C17.5398 531.282 15.4602 531.282 14.3349 532.637C13.7315 533.364 12.5823 532.653 12.9636 531.788L13.4118 530.773C14.0201 529.394 13.4994 527.779 12.2007 527.015L11.469 526.585C10.5026 526.016 11.0679 524.532 12.1675 524.751L12.3642 524.79C13.9624 525.107 15.4945 524.002 15.6979 522.386C15.8166 521.442 17.1834 521.442 17.3021 522.386C17.5055 524.002 19.0376 525.107 20.6358 524.79Z" stroke="#E68DB1" stroke-width="2"/>
<path d="M20.6358 503.79L20.8325 503.751C21.9321 503.532 22.4974 505.016 21.531 505.585L20.7993 506.015C19.5006 506.779 18.9799 508.394 19.5882 509.773L20.0364 510.788C20.4177 511.653 19.2685 512.364 18.6651 511.637C17.5398 510.282 15.4602 510.282 14.3349 511.637C13.7315 512.364 12.5823 511.653 12.9636 510.788L13.4118 509.773C14.0201 508.394 13.4994 506.779 12.2007 506.015L11.469 505.585C10.5026 505.016 11.0679 503.532 12.1675 503.751L12.3642 503.79C13.9624 504.107 15.4945 503.002 15.6979 501.386C15.8166 500.442 17.1834 500.442 17.3021 501.386C17.5055 503.002 19.0376 504.107 20.6358 503.79Z" stroke="#E68DB1" stroke-width="2"/>
<path d="M20.6358 482.79L20.8325 482.751C21.9321 482.532 22.4974 484.016 21.531 484.585L20.7993 485.015C19.5006 485.779 18.9799 487.394 19.5882 488.773L20.0364 489.788C20.4177 490.653 19.2685 491.364 18.6651 490.637C17.5398 489.282 15.4602 489.282 14.3349 490.637C13.7315 491.364 12.5823 490.653 12.9636 489.788L13.4118 488.773C14.0201 487.394 13.4994 485.779 12.2007 485.015L11.469 484.585C10.5026 484.016 11.0679 482.532 12.1675 482.751L12.3642 482.79C13.9624 483.107 15.4945 482.002 15.6979 480.386C15.8166 479.442 17.1834 479.442 17.3021 480.386C17.5055 482.002 19.0376 483.107 20.6358 482.79Z" stroke="#E68DB1" stroke-width="2"/>
<path d="M20.6358 461.79L20.8325 461.751C21.9321 461.532 22.4974 463.016 21.531 463.585L20.7993 464.015C19.5006 464.779 18.9799 466.394 19.5882 467.773L20.0364 468.788C20.4177 469.653 19.2685 470.364 18.6651 469.637C17.5398 468.282 15.4602 468.282 14.3349 469.637C13.7315 470.364 12.5823 469.653 12.9636 468.788L13.4118 467.773C14.0201 466.394 13.4994 464.779 12.2007 464.015L11.469 463.585C10.5026 463.016 11.0679 461.532 12.1675 461.751L12.3642 461.79C13.9624 462.107 15.4945 461.002 15.6979 459.386C15.8166 458.442 17.1834 458.442 17.3021 459.386C17.5055 461.002 19.0376 462.107 20.6358 461.79Z" stroke="#E68DB1" stroke-width="2"/>
<path d="M20.6358 440.79L20.8325 440.751C21.9321 440.532 22.4974 442.016 21.531 442.585L20.7993 443.015C19.5006 443.779 18.9799 445.394 19.5882 446.773L20.0364 447.788C20.4177 448.653 19.2685 449.364 18.6651 448.637C17.5398 447.282 15.4602 447.282 14.3349 448.637C13.7315 449.364 12.5823 448.653 12.9636 447.788L13.4118 446.773C14.0201 445.394 13.4994 443.779 12.2007 443.015L11.469 442.585C10.5026 442.016 11.0679 440.532 12.1675 440.751L12.3642 440.79C13.9624 441.107 15.4945 440.002 15.6979 438.386C15.8166 437.442 17.1834 437.442 17.3021 438.386C17.5055 440.002 19.0376 441.107 20.6358 440.79Z" stroke="#E68DB1" stroke-width="2"/>
<path d="M20.6358 419.79L20.8325 419.751C21.9321 419.532 22.4974 421.016 21.531 421.585L20.7993 422.015C19.5006 422.779 18.9799 424.394 19.5882 425.773L20.0364 426.788C20.4177 427.653 19.2685 428.364 18.6651 427.637C17.5398 426.282 15.4602 426.282 14.3349 427.637C13.7315 428.364 12.5823 427.653 12.9636 426.788L13.4118 425.773C14.0201 424.394 13.4994 422.779 12.2007 422.015L11.469 421.585C10.5026 421.016 11.0679 419.532 12.1675 419.751L12.3642 419.79C13.9624 420.107 15.4945 419.002 15.6979 417.386C15.8166 416.442 17.1834 416.442 17.3021 417.386C17.5055 419.002 19.0376 420.107 20.6358 419.79Z" stroke="#E68DB1" stroke-width="2"/>
<path d="M20.6358 398.79L20.8325 398.751C21.9321 398.532 22.4974 400.016 21.531 400.585L20.7993 401.015C19.5006 401.779 18.9799 403.394 19.5882 404.773L20.0364 405.788C20.4177 406.653 19.2685 407.364 18.6651 406.637C17.5398 405.282 15.4602 405.282 14.3349 406.637C13.7315 407.364 12.5823 406.653 12.9636 405.788L13.4118 404.773C14.0201 403.394 13.4994 401.779 12.2007 401.015L11.469 400.585C10.5026 400.016 11.0679 398.532 12.1675 398.751L12.3642 398.79C13.9624 399.107 15.4945 398.002 15.6979 396.386C15.8166 395.442 17.1834 395.442 17.3021 396.386C17.5055 398.002 19.0376 399.107 20.6358 398.79Z" stroke="#E68DB1" stroke-width="2"/>
<path d="M20.6358 377.79L20.8325 377.751C21.9321 377.532 22.4974 379.016 21.531 379.585L20.7993 380.015C19.5006 380.779 18.9799 382.394 19.5882 383.773L20.0364 384.788C20.4177 385.653 19.2685 386.364 18.6651 385.637C17.5398 384.282 15.4602 384.282 14.3349 385.637C13.7315 386.364 12.5823 385.653 12.9636 384.788L13.4118 383.773C14.0201 382.394 13.4994 380.779 12.2007 380.015L11.469 379.585C10.5026 379.016 11.0679 377.532 12.1675 377.751L12.3642 377.79C13.9624 378.107 15.4945 377.002 15.6979 375.386C15.8166 374.442 17.1834 374.442 17.3021 375.386C17.5055 377.002 19.0376 378.107 20.6358 377.79Z" stroke="#E68DB1" stroke-width="2"/>
<path d="M20.6358 356.79L20.8325 356.751C21.9321 356.532 22.4974 358.016 21.531 358.585L20.7993 359.015C19.5006 359.779 18.9799 361.394 19.5882 362.773L20.0364 363.788C20.4177 364.653 19.2685 365.364 18.6651 364.637C17.5398 363.282 15.4602 363.282 14.3349 364.637C13.7315 365.364 12.5823 364.653 12.9636 363.788L13.4118 362.773C14.0201 361.394 13.4994 359.779 12.2007 359.015L11.469 358.585C10.5026 358.016 11.0679 356.532 12.1675 356.751L12.3642 356.79C13.9624 357.107 15.4945 356.002 15.6979 354.386C15.8166 353.442 17.1834 353.442 17.3021 354.386C17.5055 356.002 19.0376 357.107 20.6358 356.79Z" stroke="#E68DB1" stroke-width="2"/>
<path d="M20.6358 335.79L20.8325 335.751C21.9321 335.532 22.4974 337.016 21.531 337.585L20.7993 338.015C19.5006 338.779 18.9799 340.394 19.5882 341.773L20.0364 342.788C20.4177 343.653 19.2685 344.364 18.6651 343.637C17.5398 342.282 15.4602 342.282 14.3349 343.637C13.7315 344.364 12.5823 343.653 12.9636 342.788L13.4118 341.773C14.0201 340.394 13.4994 338.779 12.2007 338.015L11.469 337.585C10.5026 337.016 11.0679 335.532 12.1675 335.751L12.3642 335.79C13.9624 336.107 15.4945 335.002 15.6979 333.386C15.8166 332.442 17.1834 332.442 17.3021 333.386C17.5055 335.002 19.0376 336.107 20.6358 335.79Z" stroke="#E68DB1" stroke-width="2"/>
<path d="M20.6358 314.79L20.8325 314.751C21.9321 314.532 22.4974 316.016 21.531 316.585L20.7993 317.015C19.5006 317.779 18.9799 319.394 19.5882 320.773L20.0364 321.788C20.4177 322.653 19.2685 323.364 18.6651 322.637C17.5398 321.282 15.4602 321.282 14.3349 322.637C13.7315 323.364 12.5823 322.653 12.9636 321.788L13.4118 320.773C14.0201 319.394 13.4994 317.779 12.2007 317.015L11.469 316.585C10.5026 316.016 11.0679 314.532 12.1675 314.751L12.3642 314.79C13.9624 315.107 15.4945 314.002 15.6979 312.386C15.8166 311.442 17.1834 311.442 17.3021 312.386C17.5055 314.002 19.0376 315.107 20.6358 314.79Z" stroke="#E68DB1" stroke-width="2"/>
<path d="M20.6358 293.79L20.8325 293.751C21.9321 293.532 22.4974 295.016 21.531 295.585L20.7993 296.015C19.5006 296.779 18.9799 298.394 19.5882 299.773L20.0364 300.788C20.4177 301.653 19.2685 302.364 18.6651 301.637C17.5398 300.282 15.4602 300.282 14.3349 301.637C13.7315 302.364 12.5823 301.653 12.9636 300.788L13.4118 299.773C14.0201 298.394 13.4994 296.779 12.2007 296.015L11.469 295.585C10.5026 295.016 11.0679 293.532 12.1675 293.751L12.3642 293.79C13.9624 294.107 15.4945 293.002 15.6979 291.386C15.8166 290.442 17.1834 290.442 17.3021 291.386C17.5055 293.002 19.0376 294.107 20.6358 293.79Z" stroke="#E68DB1" stroke-width="2"/>
<path d="M20.6358 272.79L20.8325 272.751C21.9321 272.532 22.4974 274.016 21.531 274.585L20.7993 275.015C19.5006 275.779 18.9799 277.394 19.5882 278.773L20.0364 279.788C20.4177 280.653 19.2685 281.364 18.6651 280.637C17.5398 279.282 15.4602 279.282 14.3349 280.637C13.7315 281.364 12.5823 280.653 12.9636 279.788L13.4118 278.773C14.0201 277.394 13.4994 275.779 12.2007 275.015L11.469 274.585C10.5026 274.016 11.0679 272.532 12.1675 272.751L12.3642 272.79C13.9624 273.107 15.4945 272.002 15.6979 270.386C15.8166 269.442 17.1834 269.442 17.3021 270.386C17.5055 272.002 19.0376 273.107 20.6358 272.79Z" stroke="#E68DB1" stroke-width="2"/>
<path d="M20.6358 251.79L20.8325 251.751C21.9321 251.532 22.4974 253.016 21.531 253.585L20.7993 254.015C19.5006 254.779 18.9799 256.394 19.5882 257.773L20.0364 258.788C20.4177 259.653 19.2685 260.364 18.6651 259.637C17.5398 258.282 15.4602 258.282 14.3349 259.637C13.7315 260.364 12.5823 259.653 12.9636 258.788L13.4118 257.773C14.0201 256.394 13.4994 254.779 12.2007 254.015L11.469 253.585C10.5026 253.016 11.0679 251.532 12.1675 251.751L12.3642 251.79C13.9624 252.107 15.4945 251.002 15.6979 249.386C15.8166 248.442 17.1834 248.442 17.3021 249.386C17.5055 251.002 19.0376 252.107 20.6358 251.79Z" stroke="#E68DB1" stroke-width="2"/>
<path d="M20.6358 230.79L20.8325 230.751C21.9321 230.532 22.4974 232.016 21.531 232.585L20.7993 233.015C19.5006 233.779 18.9799 235.394 19.5882 236.773L20.0364 237.788C20.4177 238.653 19.2685 239.364 18.6651 238.637C17.5398 237.282 15.4602 237.282 14.3349 238.637C13.7315 239.364 12.5823 238.653 12.9636 237.788L13.4118 236.773C14.0201 235.394 13.4994 233.779 12.2007 233.015L11.469 232.585C10.5026 232.016 11.0679 230.532 12.1675 230.751L12.3642 230.79C13.9624 231.107 15.4945 230.002 15.6979 228.386C15.8166 227.442 17.1834 227.442 17.3021 228.386C17.5055 230.002 19.0376 231.107 20.6358 230.79Z" stroke="#E68DB1" stroke-width="2"/>
<path d="M20.6358 209.79L20.8325 209.751C21.9321 209.532 22.4974 211.016 21.531 211.585L20.7993 212.015C19.5006 212.779 18.9799 214.394 19.5882 215.773L20.0364 216.788C20.4177 217.653 19.2685 218.364 18.6651 217.637C17.5398 216.282 15.4602 216.282 14.3349 217.637C13.7315 218.364 12.5823 217.653 12.9636 216.788L13.4118 215.773C14.0201 214.394 13.4994 212.779 12.2007 212.015L11.469 211.585C10.5026 211.016 11.0679 209.532 12.1675 209.751L12.3642 209.79C13.9624 210.107 15.4945 209.002 15.6979 207.386C15.8166 206.442 17.1834 206.442 17.3021 207.386C17.5055 209.002 19.0376 210.107 20.6358 209.79Z" stroke="#E68DB1" stroke-width="2"/>
<path d="M20.6358 188.79L20.8325 188.751C21.9321 188.532 22.4974 190.016 21.531 190.585L20.7993 191.015C19.5006 191.779 18.9799 193.394 19.5882 194.773L20.0364 195.788C20.4177 196.653 19.2685 197.364 18.6651 196.637C17.5398 195.282 15.4602 195.282 14.3349 196.637C13.7315 197.364 12.5823 196.653 12.9636 195.788L13.4118 194.773C14.0201 193.394 13.4994 191.779 12.2007 191.015L11.469 190.585C10.5026 190.016 11.0679 188.532 12.1675 188.751L12.3642 188.79C13.9624 189.107 15.4945 188.002 15.6979 186.386C15.8166 185.442 17.1834 185.442 17.3021 186.386C17.5055 188.002 19.0376 189.107 20.6358 188.79Z" stroke="#E68DB1" stroke-width="2"/>
<path d="M20.6358 167.79L20.8325 167.751C21.9321 167.532 22.4974 169.016 21.531 169.585L20.7993 170.015C19.5006 170.779 18.9799 172.394 19.5882 173.773L20.0364 174.788C20.4177 175.653 19.2685 176.364 18.6651 175.637C17.5398 174.282 15.4602 174.282 14.3349 175.637C13.7315 176.364 12.5823 175.653 12.9636 174.788L13.4118 173.773C14.0201 172.394 13.4994 170.779 12.2007 170.015L11.469 169.585C10.5026 169.016 11.0679 167.532 12.1675 167.751L12.3642 167.79C13.9624 168.107 15.4945 167.002 15.6979 165.386C15.8166 164.442 17.1834 164.442 17.3021 165.386C17.5055 167.002 19.0376 168.107 20.6358 167.79Z" stroke="#E68DB1" stroke-width="2"/>
<path d="M20.6358 146.79L20.8325 146.751C21.9321 146.532 22.4974 148.016 21.531 148.585L20.7993 149.015C19.5006 149.779 18.9799 151.394 19.5882 152.773L20.0364 153.788C20.4177 154.653 19.2685 155.364 18.6651 154.637C17.5398 153.282 15.4602 153.282 14.3349 154.637C13.7315 155.364 12.5823 154.653 12.9636 153.788L13.4118 152.773C14.0201 151.394 13.4994 149.779 12.2007 149.015L11.469 148.585C10.5026 148.016 11.0679 146.532 12.1675 146.751L12.3642 146.79C13.9624 147.107 15.4945 146.002 15.6979 144.386C15.8166 143.442 17.1834 143.442 17.3021 144.386C17.5055 146.002 19.0376 147.107 20.6358 146.79Z" stroke="#E68DB1" stroke-width="2"/>
<path d="M20.6358 125.79L20.8325 125.751C21.9321 125.532 22.4974 127.016 21.531 127.585L20.7993 128.015C19.5006 128.779 18.9799 130.394 19.5882 131.773L20.0364 132.788C20.4177 133.653 19.2685 134.364 18.6651 133.637C17.5398 132.282 15.4602 132.282 14.3349 133.637C13.7315 134.364 12.5823 133.653 12.9636 132.788L13.4118 131.773C14.0201 130.394 13.4994 128.779 12.2007 128.015L11.469 127.585C10.5026 127.016 11.0679 125.532 12.1675 125.751L12.3642 125.79C13.9624 126.107 15.4945 125.002 15.6979 123.386C15.8166 122.442 17.1834 122.442 17.3021 123.386C17.5055 125.002 19.0376 126.107 20.6358 125.79Z" stroke="#E68DB1" stroke-width="2"/>
<path d="M20.6358 104.79L20.8325 104.751C21.9321 104.532 22.4974 106.016 21.531 106.585L20.7993 107.015C19.5006 107.779 18.9799 109.394 19.5882 110.773L20.0364 111.788C20.4177 112.653 19.2685 113.364 18.6651 112.637C17.5398 111.282 15.4602 111.282 14.3349 112.637C13.7315 113.364 12.5823 112.653 12.9636 111.788L13.4118 110.773C14.0201 109.394 13.4994 107.779 12.2007 107.015L11.469 106.585C10.5026 106.016 11.0679 104.532 12.1675 104.751L12.3642 104.79C13.9624 105.107 15.4945 104.002 15.6979 102.386C15.8166 101.442 17.1834 101.442 17.3021 102.386C17.5055 104.002 19.0376 105.107 20.6358 104.79Z" stroke="#E68DB1" stroke-width="2"/>
<path d="M20.6358 83.7896L20.8325 83.7505C21.9321 83.5321 22.4974 85.0161 21.531 85.5845L20.7993 86.0148C19.5006 86.7787 18.9799 88.3943 19.5882 89.7728L20.0364 90.7885C20.4177 91.6526 19.2685 92.364 18.6651 91.6373C17.5398 90.282 15.4602 90.282 14.3349 91.6373C13.7315 92.364 12.5823 91.6526 12.9636 90.7885L13.4118 89.7728C14.0201 88.3943 13.4994 86.7787 12.2007 86.0148L11.469 85.5845C10.5026 85.0161 11.0679 83.5321 12.1675 83.7505L12.3642 83.7896C13.9624 84.1071 15.4945 83.0023 15.6979 81.3856C15.8166 80.4422 17.1834 80.4422 17.3021 81.3856C17.5055 83.0023 19.0376 84.1071 20.6358 83.7896Z" stroke="#E68DB1" stroke-width="2"/>
<path d="M20.6358 62.7896L20.8325 62.7505C21.9321 62.5321 22.4974 64.0161 21.531 64.5845L20.7993 65.0148C19.5006 65.7787 18.9799 67.3943 19.5882 68.7728L20.0364 69.7885C20.4177 70.6526 19.2685 71.364 18.6651 70.6373C17.5398 69.282 15.4602 69.282 14.3349 70.6373C13.7315 71.364 12.5823 70.6526 12.9636 69.7885L13.4118 68.7728C14.0201 67.3943 13.4994 65.7787 12.2007 65.0148L11.469 64.5845C10.5026 64.0161 11.0679 62.5321 12.1675 62.7505L12.3642 62.7896C13.9624 63.1071 15.4945 62.0023 15.6979 60.3856C15.8166 59.4422 17.1834 59.4422 17.3021 60.3856C17.5055 62.0023 19.0376 63.1071 20.6358 62.7896Z" stroke="#E68DB1" stroke-width="2"/>
<path d="M20.6358 41.7896L20.8325 41.7505C21.9321 41.5321 22.4974 43.0161 21.531 43.5845L20.7993 44.0148C19.5006 44.7787 18.9799 46.3943 19.5882 47.7728L20.0364 48.7885C20.4177 49.6526 19.2685 50.364 18.6651 49.6373C17.5398 48.282 15.4602 48.282 14.3349 49.6373C13.7315 50.364 12.5823 49.6526 12.9636 48.7885L13.4118 47.7728C14.0201 46.3943 13.4994 44.7787 12.2007 44.0148L11.469 43.5845C10.5026 43.0161 11.0679 41.5321 12.1675 41.7505L12.3642 41.7896C13.9624 42.1071 15.4945 41.0023 15.6979 39.3856C15.8166 38.4422 17.1834 38.4422 17.3021 39.3856C17.5055 41.0023 19.0376 42.1071 20.6358 41.7896Z" stroke="#E68DB1" stroke-width="2"/>
<path d="M58.6358 835.79L58.8325 835.751C59.9321 835.532 60.4974 837.016 59.531 837.585L58.7993 838.015C57.5006 838.779 56.9799 840.394 57.5882 841.773L58.0364 842.788C58.4177 843.653 57.2685 844.364 56.6651 843.637C55.5398 842.282 53.4602 842.282 52.3349 843.637C51.7315 844.364 50.5823 843.653 50.9636 842.788L51.4118 841.773C52.0201 840.394 51.4994 838.779 50.2007 838.015L49.469 837.585C48.5026 837.016 49.0679 835.532 50.1675 835.751L50.3642 835.79C51.9624 836.107 53.4945 835.002 53.6979 833.386C53.8166 832.442 55.1834 832.442 55.3021 833.386C55.5055 835.002 57.0376 836.107 58.6358 835.79Z" stroke="#E68DB1" stroke-width="2"/>
<path d="M79.6358 835.79L79.8325 835.751C80.9321 835.532 81.4974 837.016 80.531 837.585L79.7993 838.015C78.5006 838.779 77.9799 840.394 78.5882 841.773L79.0364 842.788C79.4177 843.653 78.2685 844.364 77.6651 843.637C76.5398 842.282 74.4602 842.282 73.3349 843.637C72.7315 844.364 71.5823 843.653 71.9636 842.788L72.4118 841.773C73.0201 840.394 72.4994 838.779 71.2007 838.015L70.469 837.585C69.5026 837.016 70.0679 835.532 71.1675 835.751L71.3642 835.79C72.9624 836.107 74.4945 835.002 74.6979 833.386C74.8166 832.442 76.1834 832.442 76.3021 833.386C76.5055 835.002 78.0376 836.107 79.6358 835.79Z" stroke="#E68DB1" stroke-width="2"/>
<path d="M100.636 835.79L100.833 835.751C101.932 835.532 102.497 837.016 101.531 837.585L100.799 838.015C99.5006 838.779 98.9799 840.394 99.5882 841.773L100.036 842.788C100.418 843.653 99.2685 844.364 98.6651 843.637C97.5398 842.282 95.4602 842.282 94.3349 843.637C93.7315 844.364 92.5823 843.653 92.9636 842.788L93.4118 841.773C94.0201 840.394 93.4994 838.779 92.2007 838.015L91.469 837.585C90.5026 837.016 91.0679 835.532 92.1675 835.751L92.3642 835.79C93.9624 836.107 95.4945 835.002 95.6979 833.386C95.8166 832.442 97.1834 832.442 97.3021 833.386C97.5055 835.002 99.0376 836.107 100.636 835.79Z" stroke="#E68DB1" stroke-width="2"/>
<path d="M121.636 835.79L121.833 835.751C122.932 835.532 123.497 837.016 122.531 837.585L121.799 838.015C120.501 838.779 119.98 840.394 120.588 841.773L121.036 842.788C121.418 843.653 120.269 844.364 119.665 843.637C118.54 842.282 116.46 842.282 115.335 843.637C114.731 844.364 113.582 843.653 113.964 842.788L114.412 841.773C115.02 840.394 114.499 838.779 113.201 838.015L112.469 837.585C111.503 837.016 112.068 835.532 113.167 835.751L113.364 835.79C114.962 836.107 116.494 835.002 116.698 833.386C116.817 832.442 118.183 832.442 118.302 833.386C118.506 835.002 120.038 836.107 121.636 835.79Z" stroke="#E68DB1" stroke-width="2"/>
<path d="M142.636 835.79L142.833 835.751C143.932 835.532 144.497 837.016 143.531 837.585L142.799 838.015C141.501 838.779 140.98 840.394 141.588 841.773L142.036 842.788C142.418 843.653 141.269 844.364 140.665 843.637C139.54 842.282 137.46 842.282 136.335 843.637C135.731 844.364 134.582 843.653 134.964 842.788L135.412 841.773C136.02 840.394 135.499 838.779 134.201 838.015L133.469 837.585C132.503 837.016 133.068 835.532 134.167 835.751L134.364 835.79C135.962 836.107 137.494 835.002 137.698 833.386C137.817 832.442 139.183 832.442 139.302 833.386C139.506 835.002 141.038 836.107 142.636 835.79Z" stroke="#E68DB1" stroke-width="2"/>
<path d="M163.636 835.79L163.833 835.751C164.932 835.532 165.497 837.016 164.531 837.585L163.799 838.015C162.501 838.779 161.98 840.394 162.588 841.773L163.036 842.788C163.418 843.653 162.269 844.364 161.665 843.637C160.54 842.282 158.46 842.282 157.335 843.637C156.731 844.364 155.582 843.653 155.964 842.788L156.412 841.773C157.02 840.394 156.499 838.779 155.201 838.015L154.469 837.585C153.503 837.016 154.068 835.532 155.167 835.751L155.364 835.79C156.962 836.107 158.494 835.002 158.698 833.386C158.817 832.442 160.183 832.442 160.302 833.386C160.506 835.002 162.038 836.107 163.636 835.79Z" stroke="#E68DB1" stroke-width="2"/>
<path d="M184.636 835.79L184.833 835.751C185.932 835.532 186.497 837.016 185.531 837.585L184.799 838.015C183.501 838.779 182.98 840.394 183.588 841.773L184.036 842.788C184.418 843.653 183.269 844.364 182.665 843.637C181.54 842.282 179.46 842.282 178.335 843.637C177.731 844.364 176.582 843.653 176.964 842.788L177.412 841.773C178.02 840.394 177.499 838.779 176.201 838.015L175.469 837.585C174.503 837.016 175.068 835.532 176.167 835.751L176.364 835.79C177.962 836.107 179.494 835.002 179.698 833.386C179.817 832.442 181.183 832.442 181.302 833.386C181.506 835.002 183.038 836.107 184.636 835.79Z" stroke="#E68DB1" stroke-width="2"/>
<path d="M205.636 835.79L205.833 835.751C206.932 835.532 207.497 837.016 206.531 837.585L205.799 838.015C204.501 838.779 203.98 840.394 204.588 841.773L205.036 842.788C205.418 843.653 204.269 844.364 203.665 843.637C202.54 842.282 200.46 842.282 199.335 843.637C198.731 844.364 197.582 843.653 197.964 842.788L198.412 841.773C199.02 840.394 198.499 838.779 197.201 838.015L196.469 837.585C195.503 837.016 196.068 835.532 197.167 835.751L197.364 835.79C198.962 836.107 200.494 835.002 200.698 833.386C200.817 832.442 202.183 832.442 202.302 833.386C202.506 835.002 204.038 836.107 205.636 835.79Z" stroke="#E68DB1" stroke-width="2"/>
<path d="M226.636 835.79L226.833 835.751C227.932 835.532 228.497 837.016 227.531 837.585L226.799 838.015C225.501 838.779 224.98 840.394 225.588 841.773L226.036 842.788C226.418 843.653 225.269 844.364 224.665 843.637C223.54 842.282 221.46 842.282 220.335 843.637C219.731 844.364 218.582 843.653 218.964 842.788L219.412 841.773C220.02 840.394 219.499 838.779 218.201 838.015L217.469 837.585C216.503 837.016 217.068 835.532 218.167 835.751L218.364 835.79C219.962 836.107 221.494 835.002 221.698 833.386C221.817 832.442 223.183 832.442 223.302 833.386C223.506 835.002 225.038 836.107 226.636 835.79Z" stroke="#E68DB1" stroke-width="2"/>
<path d="M247.636 835.79L247.833 835.751C248.932 835.532 249.497 837.016 248.531 837.585L247.799 838.015C246.501 838.779 245.98 840.394 246.588 841.773L247.036 842.788C247.418 843.653 246.269 844.364 245.665 843.637C244.54 842.282 242.46 842.282 241.335 843.637C240.731 844.364 239.582 843.653 239.964 842.788L240.412 841.773C241.02 840.394 240.499 838.779 239.201 838.015L238.469 837.585C237.503 837.016 238.068 835.532 239.167 835.751L239.364 835.79C240.962 836.107 242.494 835.002 242.698 833.386C242.817 832.442 244.183 832.442 244.302 833.386C244.506 835.002 246.038 836.107 247.636 835.79Z" stroke="#E68DB1" stroke-width="2"/>
<path d="M268.636 835.79L268.833 835.751C269.932 835.532 270.497 837.016 269.531 837.585L268.799 838.015C267.501 838.779 266.98 840.394 267.588 841.773L268.036 842.788C268.418 843.653 267.269 844.364 266.665 843.637C265.54 842.282 263.46 842.282 262.335 843.637C261.731 844.364 260.582 843.653 260.964 842.788L261.412 841.773C262.02 840.394 261.499 838.779 260.201 838.015L259.469 837.585C258.503 837.016 259.068 835.532 260.167 835.751L260.364 835.79C261.962 836.107 263.494 835.002 263.698 833.386C263.817 832.442 265.183 832.442 265.302 833.386C265.506 835.002 267.038 836.107 268.636 835.79Z" stroke="#E68DB1" stroke-width="2"/>
<path d="M289.636 835.79L289.833 835.751C290.932 835.532 291.497 837.016 290.531 837.585L289.799 838.015C288.501 838.779 287.98 840.394 288.588 841.773L289.036 842.788C289.418 843.653 288.269 844.364 287.665 843.637C286.54 842.282 284.46 842.282 283.335 843.637C282.731 844.364 281.582 843.653 281.964 842.788L282.412 841.773C283.02 840.394 282.499 838.779 281.201 838.015L280.469 837.585C279.503 837.016 280.068 835.532 281.167 835.751L281.364 835.79C282.962 836.107 284.494 835.002 284.698 833.386C284.817 832.442 286.183 832.442 286.302 833.386C286.506 835.002 288.038 836.107 289.636 835.79Z" stroke="#E68DB1" stroke-width="2"/>
<path d="M310.636 835.79L310.833 835.751C311.932 835.532 312.497 837.016 311.531 837.585L310.799 838.015C309.501 838.779 308.98 840.394 309.588 841.773L310.036 842.788C310.418 843.653 309.269 844.364 308.665 843.637C307.54 842.282 305.46 842.282 304.335 843.637C303.731 844.364 302.582 843.653 302.964 842.788L303.412 841.773C304.02 840.394 303.499 838.779 302.201 838.015L301.469 837.585C300.503 837.016 301.068 835.532 302.167 835.751L302.364 835.79C303.962 836.107 305.494 835.002 305.698 833.386C305.817 832.442 307.183 832.442 307.302 833.386C307.506 835.002 309.038 836.107 310.636 835.79Z" stroke="#E68DB1" stroke-width="2"/>
<path d="M331.636 835.79L331.833 835.751C332.932 835.532 333.497 837.016 332.531 837.585L331.799 838.015C330.501 838.779 329.98 840.394 330.588 841.773L331.036 842.788C331.418 843.653 330.269 844.364 329.665 843.637C328.54 842.282 326.46 842.282 325.335 843.637C324.731 844.364 323.582 843.653 323.964 842.788L324.412 841.773C325.02 840.394 324.499 838.779 323.201 838.015L322.469 837.585C321.503 837.016 322.068 835.532 323.167 835.751L323.364 835.79C324.962 836.107 326.494 835.002 326.698 833.386C326.817 832.442 328.183 832.442 328.302 833.386C328.506 835.002 330.038 836.107 331.636 835.79Z" stroke="#E68DB1" stroke-width="2"/>
<path d="M352.636 835.79L352.833 835.751C353.932 835.532 354.497 837.016 353.531 837.585L352.799 838.015C351.501 838.779 350.98 840.394 351.588 841.773L352.036 842.788C352.418 843.653 351.269 844.364 350.665 843.637C349.54 842.282 347.46 842.282 346.335 843.637C345.731 844.364 344.582 843.653 344.964 842.788L345.412 841.773C346.02 840.394 345.499 838.779 344.201 838.015L343.469 837.585C342.503 837.016 343.068 835.532 344.167 835.751L344.364 835.79C345.962 836.107 347.494 835.002 347.698 833.386C347.817 832.442 349.183 832.442 349.302 833.386C349.506 835.002 351.038 836.107 352.636 835.79Z" stroke="#E68DB1" stroke-width="2"/>
<path d="M373.636 835.79L373.833 835.751C374.932 835.532 375.497 837.016 374.531 837.585L373.799 838.015C372.501 838.779 371.98 840.394 372.588 841.773L373.036 842.788C373.418 843.653 372.269 844.364 371.665 843.637C370.54 842.282 368.46 842.282 367.335 843.637C366.731 844.364 365.582 843.653 365.964 842.788L366.412 841.773C367.02 840.394 366.499 838.779 365.201 838.015L364.469 837.585C363.503 837.016 364.068 835.532 365.167 835.751L365.364 835.79C366.962 836.107 368.494 835.002 368.698 833.386C368.817 832.442 370.183 832.442 370.302 833.386C370.506 835.002 372.038 836.107 373.636 835.79Z" stroke="#E68DB1" stroke-width="2"/>
<path d="M394.636 835.79L394.833 835.751C395.932 835.532 396.497 837.016 395.531 837.585L394.799 838.015C393.501 838.779 392.98 840.394 393.588 841.773L394.036 842.788C394.418 843.653 393.269 844.364 392.665 843.637C391.54 842.282 389.46 842.282 388.335 843.637C387.731 844.364 386.582 843.653 386.964 842.788L387.412 841.773C388.02 840.394 387.499 838.779 386.201 838.015L385.469 837.585C384.503 837.016 385.068 835.532 386.167 835.751L386.364 835.79C387.962 836.107 389.494 835.002 389.698 833.386C389.817 832.442 391.183 832.442 391.302 833.386C391.506 835.002 393.038 836.107 394.636 835.79Z" stroke="#E68DB1" stroke-width="2"/>
<path d="M415.636 835.79L415.833 835.751C416.932 835.532 417.497 837.016 416.531 837.585L415.799 838.015C414.501 838.779 413.98 840.394 414.588 841.773L415.036 842.788C415.418 843.653 414.269 844.364 413.665 843.637C412.54 842.282 410.46 842.282 409.335 843.637C408.731 844.364 407.582 843.653 407.964 842.788L408.412 841.773C409.02 840.394 408.499 838.779 407.201 838.015L406.469 837.585C405.503 837.016 406.068 835.532 407.167 835.751L407.364 835.79C408.962 836.107 410.494 835.002 410.698 833.386C410.817 832.442 412.183 832.442 412.302 833.386C412.506 835.002 414.038 836.107 415.636 835.79Z" stroke="#E68DB1" stroke-width="2"/>
<path d="M436.636 835.79L436.833 835.751C437.932 835.532 438.497 837.016 437.531 837.585L436.799 838.015C435.501 838.779 434.98 840.394 435.588 841.773L436.036 842.788C436.418 843.653 435.269 844.364 434.665 843.637C433.54 842.282 431.46 842.282 430.335 843.637C429.731 844.364 428.582 843.653 428.964 842.788L429.412 841.773C430.02 840.394 429.499 838.779 428.201 838.015L427.469 837.585C426.503 837.016 427.068 835.532 428.167 835.751L428.364 835.79C429.962 836.107 431.494 835.002 431.698 833.386C431.817 832.442 433.183 832.442 433.302 833.386C433.506 835.002 435.038 836.107 436.636 835.79Z" stroke="#E68DB1" stroke-width="2"/>
<path d="M457.636 835.79L457.833 835.751C458.932 835.532 459.497 837.016 458.531 837.585L457.799 838.015C456.501 838.779 455.98 840.394 456.588 841.773L457.036 842.788C457.418 843.653 456.269 844.364 455.665 843.637C454.54 842.282 452.46 842.282 451.335 843.637C450.731 844.364 449.582 843.653 449.964 842.788L450.412 841.773C451.02 840.394 450.499 838.779 449.201 838.015L448.469 837.585C447.503 837.016 448.068 835.532 449.167 835.751L449.364 835.79C450.962 836.107 452.494 835.002 452.698 833.386C452.817 832.442 454.183 832.442 454.302 833.386C454.506 835.002 456.038 836.107 457.636 835.79Z" stroke="#E68DB1" stroke-width="2"/>
<path d="M478.636 835.79L478.833 835.751C479.932 835.532 480.497 837.016 479.531 837.585L478.799 838.015C477.501 838.779 476.98 840.394 477.588 841.773L478.036 842.788C478.418 843.653 477.269 844.364 476.665 843.637C475.54 842.282 473.46 842.282 472.335 843.637C471.731 844.364 470.582 843.653 470.964 842.788L471.412 841.773C472.02 840.394 471.499 838.779 470.201 838.015L469.469 837.585C468.503 837.016 469.068 835.532 470.167 835.751L470.364 835.79C471.962 836.107 473.494 835.002 473.698 833.386C473.817 832.442 475.183 832.442 475.302 833.386C475.506 835.002 477.038 836.107 478.636 835.79Z" stroke="#E68DB1" stroke-width="2"/>
<path d="M499.636 835.79L499.833 835.751C500.932 835.532 501.497 837.016 500.531 837.585L499.799 838.015C498.501 838.779 497.98 840.394 498.588 841.773L499.036 842.788C499.418 843.653 498.269 844.364 497.665 843.637C496.54 842.282 494.46 842.282 493.335 843.637C492.731 844.364 491.582 843.653 491.964 842.788L492.412 841.773C493.02 840.394 492.499 838.779 491.201 838.015L490.469 837.585C489.503 837.016 490.068 835.532 491.167 835.751L491.364 835.79C492.962 836.107 494.494 835.002 494.698 833.386C494.817 832.442 496.183 832.442 496.302 833.386C496.506 835.002 498.038 836.107 499.636 835.79Z" stroke="#E68DB1" stroke-width="2"/>
<path d="M520.636 835.79L520.833 835.751C521.932 835.532 522.497 837.016 521.531 837.585L520.799 838.015C519.501 838.779 518.98 840.394 519.588 841.773L520.036 842.788C520.418 843.653 519.269 844.364 518.665 843.637C517.54 842.282 515.46 842.282 514.335 843.637C513.731 844.364 512.582 843.653 512.964 842.788L513.412 841.773C514.02 840.394 513.499 838.779 512.201 838.015L511.469 837.585C510.503 837.016 511.068 835.532 512.167 835.751L512.364 835.79C513.962 836.107 515.494 835.002 515.698 833.386C515.817 832.442 517.183 832.442 517.302 833.386C517.506 835.002 519.038 836.107 520.636 835.79Z" stroke="#E68DB1" stroke-width="2"/>
<path d="M541.636 835.79L541.833 835.751C542.932 835.532 543.497 837.016 542.531 837.585L541.799 838.015C540.501 838.779 539.98 840.394 540.588 841.773L541.036 842.788C541.418 843.653 540.269 844.364 539.665 843.637C538.54 842.282 536.46 842.282 535.335 843.637C534.731 844.364 533.582 843.653 533.964 842.788L534.412 841.773C535.02 840.394 534.499 838.779 533.201 838.015L532.469 837.585C531.503 837.016 532.068 835.532 533.167 835.751L533.364 835.79C534.962 836.107 536.494 835.002 536.698 833.386C536.817 832.442 538.183 832.442 538.302 833.386C538.506 835.002 540.038 836.107 541.636 835.79Z" stroke="#E68DB1" stroke-width="2"/>
<path d="M562.636 835.79L562.833 835.751C563.932 835.532 564.497 837.016 563.531 837.585L562.799 838.015C561.501 838.779 560.98 840.394 561.588 841.773L562.036 842.788C562.418 843.653 561.269 844.364 560.665 843.637C559.54 842.282 557.46 842.282 556.335 843.637C555.731 844.364 554.582 843.653 554.964 842.788L555.412 841.773C556.02 840.394 555.499 838.779 554.201 838.015L553.469 837.585C552.503 837.016 553.068 835.532 554.167 835.751L554.364 835.79C555.962 836.107 557.494 835.002 557.698 833.386C557.817 832.442 559.183 832.442 559.302 833.386C559.506 835.002 561.038 836.107 562.636 835.79Z" stroke="#E68DB1" stroke-width="2"/>
<path d="M583.636 835.79L583.833 835.751C584.932 835.532 585.497 837.016 584.531 837.585L583.799 838.015C582.501 838.779 581.98 840.394 582.588 841.773L583.036 842.788C583.418 843.653 582.269 844.364 581.665 843.637C580.54 842.282 578.46 842.282 577.335 843.637C576.731 844.364 575.582 843.653 575.964 842.788L576.412 841.773C577.02 840.394 576.499 838.779 575.201 838.015L574.469 837.585C573.503 837.016 574.068 835.532 575.167 835.751L575.364 835.79C576.962 836.107 578.494 835.002 578.698 833.386C578.817 832.442 580.183 832.442 580.302 833.386C580.506 835.002 582.038 836.107 583.636 835.79Z" stroke="#E68DB1" stroke-width="2"/>
<path d="M563.246 643.986L562.472 638.336C561.999 634.879 557.001 634.879 556.528 638.336L555.754 643.986C555.677 644.551 555.144 644.936 554.583 644.834L548.545 643.728C545.241 643.122 543.591 647.575 546.492 649.269L552.532 652.796C552.972 653.053 553.149 653.6 552.942 654.066L550.209 660.213C548.808 663.362 552.955 666.001 555.215 663.399L558.745 659.334C559.144 658.875 559.856 658.875 560.255 659.334L563.785 663.399C566.045 666.001 570.192 663.362 568.791 660.213L566.058 654.066C565.851 653.6 566.028 653.053 566.468 652.796L572.508 649.269C575.409 647.575 573.759 643.122 570.455 643.728L564.417 644.834C563.856 644.936 563.323 644.551 563.246 643.986Z" stroke="#18344D" stroke-width="2"/>
<path d="M431.246 703.986L430.472 698.336C429.999 694.879 425.001 694.879 424.528 698.336L423.754 703.986C423.677 704.551 423.144 704.936 422.583 704.834L416.545 703.728C413.241 703.122 411.591 707.575 414.492 709.269L420.532 712.796C420.972 713.053 421.149 713.6 420.942 714.066L418.209 720.213C416.808 723.362 420.955 726.001 423.215 723.399L426.745 719.334C427.144 718.875 427.856 718.875 428.255 719.334L431.785 723.399C434.045 726.001 438.192 723.362 436.791 720.213L434.058 714.066C433.851 713.6 434.028 713.053 434.468 712.796L440.508 709.269C443.409 707.575 441.759 703.122 438.455 703.728L432.417 704.834C431.856 704.936 431.323 704.551 431.246 703.986Z" stroke="#18344D" stroke-width="2"/>
<path d="M422.246 758.986L421.472 753.336C420.999 749.879 416.001 749.879 415.528 753.336L414.754 758.986C414.677 759.551 414.144 759.936 413.583 759.834L407.545 758.728C404.241 758.122 402.591 762.575 405.492 764.269L411.532 767.796C411.972 768.053 412.149 768.6 411.942 769.066L409.209 775.213C407.808 778.362 411.955 781.001 414.215 778.399L417.745 774.334C418.144 773.875 418.856 773.875 419.255 774.334L422.785 778.399C425.045 781.001 429.192 778.362 427.791 775.213L425.058 769.066C424.851 768.6 425.028 768.053 425.468 767.796L431.508 764.269C434.409 762.575 432.759 758.122 429.455 758.728L423.417 759.834C422.856 759.936 422.323 759.551 422.246 758.986Z" stroke="#18344D" stroke-width="2"/>
<path d="M447.246 804.986L446.472 799.336C445.999 795.879 441.001 795.879 440.528 799.336L439.754 804.986C439.677 805.551 439.144 805.936 438.583 805.834L432.545 804.728C429.241 804.122 427.591 808.575 430.492 810.269L436.532 813.796C436.972 814.053 437.149 814.6 436.942 815.066L434.209 821.213C432.808 824.362 436.955 827.001 439.215 824.399L442.745 820.334C443.144 819.875 443.856 819.875 444.255 820.334L447.785 824.399C450.045 827.001 454.192 824.362 452.791 821.213L450.058 815.066C449.851 814.6 450.028 814.053 450.468 813.796L456.508 810.269C459.409 808.575 457.759 804.122 454.455 804.728L448.417 805.834C447.856 805.936 447.323 805.551 447.246 804.986Z" stroke="#18344D" stroke-width="2"/>
<path d="M471.246 662.986L470.472 657.336C469.999 653.879 465.001 653.879 464.528 657.336L463.754 662.986C463.677 663.551 463.144 663.936 462.583 663.834L456.545 662.728C453.241 662.122 451.591 666.575 454.492 668.269L460.532 671.796C460.972 672.053 461.149 672.6 460.942 673.066L458.209 679.213C456.808 682.362 460.955 685.001 463.215 682.399L466.745 678.334C467.144 677.875 467.856 677.875 468.255 678.334L471.785 682.399C474.045 685.001 478.192 682.362 476.791 679.213L474.058 673.066C473.851 672.6 474.028 672.053 474.468 671.796L480.508 668.269C483.409 666.575 481.759 662.122 478.455 662.728L472.417 663.834C471.856 663.936 471.323 663.551 471.246 662.986Z" stroke="#18344D" stroke-width="2"/>
<path d="M499.246 560.986L498.472 555.336C497.999 551.879 493.001 551.879 492.528 555.336L491.754 560.986C491.677 561.551 491.144 561.936 490.583 561.834L484.545 560.728C481.241 560.122 479.591 564.575 482.492 566.269L488.532 569.796C488.972 570.053 489.149 570.6 488.942 571.066L486.209 577.213C484.808 580.362 488.955 583.001 491.215 580.399L494.745 576.334C495.144 575.875 495.856 575.875 496.255 576.334L499.785 580.399C502.045 583.001 506.192 580.362 504.791 577.213L502.058 571.066C501.851 570.6 502.028 570.053 502.468 569.796L508.508 566.269C511.409 564.575 509.759 560.122 506.455 560.728L500.417 561.834C499.856 561.936 499.323 561.551 499.246 560.986Z" stroke="#18344D" stroke-width="2"/>
<path d="M523.246 515.986L522.472 510.336C521.999 506.879 517.001 506.879 516.528 510.336L515.754 515.986C515.677 516.551 515.144 516.936 514.583 516.834L508.545 515.728C505.241 515.122 503.591 519.575 506.492 521.269L512.532 524.796C512.972 525.053 513.149 525.6 512.942 526.066L510.209 532.213C508.808 535.362 512.955 538.001 515.215 535.399L518.745 531.334C519.144 530.875 519.856 530.875 520.255 531.334L523.785 535.399C526.045 538.001 530.192 535.362 528.791 532.213L526.058 526.066C525.851 525.6 526.028 525.053 526.468 524.796L532.508 521.269C535.409 519.575 533.759 515.122 530.455 515.728L524.417 516.834C523.856 516.936 523.323 516.551 523.246 515.986Z" stroke="#18344D" stroke-width="2"/>
<path d="M513.246 614.986L512.472 609.336C511.999 605.879 507.001 605.879 506.528 609.336L505.754 614.986C505.677 615.551 505.144 615.936 504.583 615.834L498.545 614.728C495.241 614.122 493.591 618.575 496.492 620.269L502.532 623.796C502.972 624.053 503.149 624.6 502.942 625.066L500.209 631.213C498.808 634.362 502.955 637.001 505.215 634.399L508.745 630.334C509.144 629.875 509.856 629.875 510.255 630.334L513.785 634.399C516.045 637.001 520.192 634.362 518.791 631.213L516.058 625.066C515.851 624.6 516.028 624.053 516.468 623.796L522.508 620.269C525.409 618.575 523.759 614.122 520.455 614.728L514.417 615.834C513.856 615.936 513.323 615.551 513.246 614.986Z" stroke="#18344D" stroke-width="2"/>
</svg>
