<svg width="2210" height="950" viewBox="0 0 2210 950" fill="none" xmlns="http://www.w3.org/2000/svg">
<g filter="url(#filter0_d_76_5378)">
<mask id="mask0_76_5378" style="mask-type:alpha" maskUnits="userSpaceOnUse" x="914" y="744" width="197" height="196">
<circle cx="1013" cy="842" r="98" fill="#D9D9D9"/>
<circle cx="1013" cy="842" r="98" stroke="#224564"/>
</mask>
<g mask="url(#mask0_76_5378)">
<circle cx="1013" cy="839.565" r="92" fill="#21415E" stroke="#132D44" stroke-width="12"/>
</g>
</g>
<g filter="url(#filter1_d_76_5378)">
<mask id="mask1_76_5378" style="mask-type:alpha" maskUnits="userSpaceOnUse" x="1382" y="683" width="245" height="245">
<circle cx="1504.5" cy="805.5" r="122.5" fill="#D9D9D9"/>
<circle cx="1504.5" cy="805.5" r="122.5" stroke="#224564"/>
</mask>
<g mask="url(#mask1_76_5378)">
<circle cx="1504.5" cy="802.457" r="116.5" fill="#21415E" stroke="#132D44" stroke-width="12"/>
</g>
</g>
<g filter="url(#filter2_d_76_5378)">
<mask id="mask2_76_5378" style="mask-type:alpha" maskUnits="userSpaceOnUse" x="545" y="766" width="152" height="151">
<circle cx="621.498" cy="841.5" r="75.5" fill="#D9D9D9"/>
<circle cx="621.498" cy="841.5" r="75.5" stroke="#224564"/>
</mask>
<g mask="url(#mask2_76_5378)">
<circle cx="621.498" cy="839.624" r="69.5" fill="#21415E" stroke="#132D44" stroke-width="12"/>
</g>
</g>
<g filter="url(#filter3_d_76_5378)">
<path d="M732.05 0C716.184 0 706.075 17.0176 713.261 31.162C829.564 260.088 826.135 397.874 713.604 615.708C706.293 629.86 716.396 647 732.325 647H833.882C841.77 647 849.049 642.494 852.587 635.444C968.556 404.333 972.404 264.131 852.482 11.9767C849.024 4.70643 841.62 0 833.569 0L732.05 0Z" fill="#588F9C"/>
<path d="M1228.22 13C1212.19 13 1202.1 30.3473 1209.59 44.5203C1325.23 263.349 1321.85 395.692 1209.95 603.93C1202.33 618.108 1212.42 635.578 1228.51 635.578H1330.17C1337.92 635.578 1345.11 631.218 1348.7 624.346C1465.05 402.066 1468.91 267.17 1348.61 24.6584C1345.09 17.5604 1337.77 13 1329.85 13L1228.22 13Z" fill="#BF6F8F"/>
<path d="M977.188 12C961.064 12 950.983 29.5346 958.655 43.7172C1077.02 262.528 1073.56 394.933 959.025 603.155C951.221 617.341 961.296 635 977.488 635H1082.57C1090.25 635 1097.38 630.721 1101.01 623.951C1220.35 401.35 1224.32 266.342 1100.92 23.4795C1097.36 16.4806 1090.1 12 1082.25 12L977.188 12Z" fill="#A7BD41"/>
<rect x="1803" y="82" width="483" height="1803" transform="rotate(90 1803 82)" fill="#E7C5C5"/>
<path d="M1331.62 13C1336.2 13 1339.04 18.0271 1336.83 22.0401C1204.55 262.514 1208.8 397.799 1336.73 626.509C1338.98 630.523 1336.14 635.578 1331.54 635.578H1195.13C1192.91 635.578 1190.85 634.311 1189.81 632.353C1068.01 402.725 1063.85 267.043 1189.84 16.3479C1190.86 14.3252 1192.96 13 1195.22 13L1331.62 13Z" fill="#E68DB1"/>
<path d="M835.985 0C840.517 0 843.362 4.93592 841.246 8.94491C709.145 259.292 713.402 399.929 841.152 638.027C843.303 642.038 840.457 647 835.906 647H699.936C697.683 647 695.595 645.691 694.573 643.683C573.218 405.014 569.071 264.006 694.603 3.43917C695.602 1.36693 697.725 0 700.026 0L835.985 0Z" fill="#75B5C5"/>
<path d="M1086.66 13C1091.27 13 1094.1 18.081 1091.84 22.0951C956.32 262.685 960.68 398.056 1091.74 626.877C1094.03 630.891 1091.2 636 1086.57 636H946.529C944.334 636 942.289 634.757 941.241 632.828C816.39 402.994 812.122 267.216 941.268 16.2963C942.294 14.3019 944.377 13 946.62 13L1086.66 13Z" fill="#C4DB5B"/>
<ellipse cx="1880.5" cy="316" rx="303" ry="307.5" transform="rotate(90 1880.5 316)" fill="#E7C5C5"/>
</g>
<defs>
<filter id="filter0_d_76_5378" x="914.998" y="744" width="205" height="205.565" filterUnits="userSpaceOnUse" color-interpolation-filters="sRGB">
<feFlood flood-opacity="0" result="BackgroundImageFix"/>
<feColorMatrix in="SourceAlpha" type="matrix" values="0 0 0 0 0 0 0 0 0 0 0 0 0 0 0 0 0 0 127 0" result="hardAlpha"/>
<feOffset dx="9" dy="12"/>
<feComposite in2="hardAlpha" operator="out"/>
<feColorMatrix type="matrix" values="0 0 0 0 0.0583545 0 0 0 0 0.150095 0 0 0 0 0.23125 0 0 0 1 0"/>
<feBlend mode="normal" in2="BackgroundImageFix" result="effect1_dropShadow_76_5378"/>
<feBlend mode="normal" in="SourceGraphic" in2="effect1_dropShadow_76_5378" result="shape"/>
</filter>
<filter id="filter1_d_76_5378" x="1382" y="683" width="254" height="253.957" filterUnits="userSpaceOnUse" color-interpolation-filters="sRGB">
<feFlood flood-opacity="0" result="BackgroundImageFix"/>
<feColorMatrix in="SourceAlpha" type="matrix" values="0 0 0 0 0 0 0 0 0 0 0 0 0 0 0 0 0 0 127 0" result="hardAlpha"/>
<feOffset dx="9" dy="12"/>
<feComposite in2="hardAlpha" operator="out"/>
<feColorMatrix type="matrix" values="0 0 0 0 0.0583545 0 0 0 0 0.150095 0 0 0 0 0.23125 0 0 0 1 0"/>
<feBlend mode="normal" in2="BackgroundImageFix" result="effect1_dropShadow_76_5378"/>
<feBlend mode="normal" in="SourceGraphic" in2="effect1_dropShadow_76_5378" result="shape"/>
</filter>
<filter id="filter2_d_76_5378" x="545.998" y="766" width="160" height="161.124" filterUnits="userSpaceOnUse" color-interpolation-filters="sRGB">
<feFlood flood-opacity="0" result="BackgroundImageFix"/>
<feColorMatrix in="SourceAlpha" type="matrix" values="0 0 0 0 0 0 0 0 0 0 0 0 0 0 0 0 0 0 127 0" result="hardAlpha"/>
<feOffset dx="9" dy="12"/>
<feComposite in2="hardAlpha" operator="out"/>
<feColorMatrix type="matrix" values="0 0 0 0 0.0583545 0 0 0 0 0.150095 0 0 0 0 0.23125 0 0 0 1 0"/>
<feBlend mode="normal" in2="BackgroundImageFix" result="effect1_dropShadow_76_5378"/>
<feBlend mode="normal" in="SourceGraphic" in2="effect1_dropShadow_76_5378" result="shape"/>
</filter>
<filter id="filter3_d_76_5378" x="0" y="0" width="2210" height="678" filterUnits="userSpaceOnUse" color-interpolation-filters="sRGB">
<feFlood flood-opacity="0" result="BackgroundImageFix"/>
<feColorMatrix in="SourceAlpha" type="matrix" values="0 0 0 0 0 0 0 0 0 0 0 0 0 0 0 0 0 0 127 0" result="hardAlpha"/>
<feOffset dx="22" dy="31"/>
<feComposite in2="hardAlpha" operator="out"/>
<feColorMatrix type="matrix" values="0 0 0 0 0.0745098 0 0 0 0 0.176471 0 0 0 0 0.266667 0 0 0 1 0"/>
<feBlend mode="normal" in2="BackgroundImageFix" result="effect1_dropShadow_76_5378"/>
<feBlend mode="normal" in="SourceGraphic" in2="effect1_dropShadow_76_5378" result="shape"/>
</filter>
</defs>
</svg>
