<svg width="3039" height="950" viewBox="0 0 3039 950" fill="none" xmlns="http://www.w3.org/2000/svg">
<g filter="url(#filter0_d_94_17405)">
<mask id="mask0_94_17405" style="mask-type:alpha" maskUnits="userSpaceOnUse" x="1613" y="744" width="196" height="196">
<circle cx="1711" cy="842" r="98" fill="#D9D9D9"/>
<circle cx="1711" cy="842" r="98" stroke="#224564"/>
</mask>
<g mask="url(#mask0_94_17405)">
<circle cx="1711" cy="839.565" r="92" fill="#21415E" stroke="#132D44" stroke-width="12"/>
</g>
</g>
<g filter="url(#filter1_d_94_17405)">
<mask id="mask1_94_17405" style="mask-type:alpha" maskUnits="userSpaceOnUse" x="2080" y="683" width="245" height="245">
<circle cx="2202.5" cy="805.5" r="122.5" fill="#D9D9D9"/>
<circle cx="2202.5" cy="805.5" r="122.5" stroke="#224564"/>
</mask>
<g mask="url(#mask1_94_17405)">
<circle cx="2202.5" cy="802.457" r="116.5" fill="#21415E" stroke="#132D44" stroke-width="12"/>
</g>
</g>
<g filter="url(#filter2_d_94_17405)">
<mask id="mask2_94_17405" style="mask-type:alpha" maskUnits="userSpaceOnUse" x="1244" y="766" width="151" height="151">
<circle cx="1319.5" cy="841.5" r="75.5" fill="#D9D9D9"/>
<circle cx="1319.5" cy="841.5" r="75.5" stroke="#224564"/>
</mask>
<g mask="url(#mask2_94_17405)">
<circle cx="1319.5" cy="839.624" r="69.5" fill="#21415E" stroke="#132D44" stroke-width="12"/>
</g>
</g>
<g filter="url(#filter3_d_94_17405)">
<path d="M1430.05 0C1414.19 0 1404.08 17.0176 1411.26 31.162C1527.57 260.088 1524.14 397.874 1411.6 615.708C1404.29 629.86 1414.4 647 1430.33 647H1531.88C1539.77 647 1547.05 642.494 1550.59 635.444C1666.56 404.333 1670.4 264.131 1550.48 11.9767C1547.02 4.70643 1539.62 0 1531.57 0L1430.05 0Z" fill="#588F9C"/>
<path d="M1926.22 13C1910.19 13 1900.1 30.3473 1907.59 44.5203C2023.23 263.349 2019.84 395.692 1907.95 603.93C1900.33 618.108 1910.42 635.578 1926.51 635.578H2028.17C2035.92 635.578 2043.11 631.218 2046.7 624.346C2163.04 402.066 2166.91 267.17 2046.61 24.6584C2043.08 17.5604 2035.77 13 2027.85 13L1926.22 13Z" fill="#BF6F8F"/>
<path d="M1675.19 12C1659.06 12 1648.98 29.5346 1656.66 43.7172C1775.02 262.528 1771.56 394.933 1657.03 603.155C1649.22 617.341 1659.3 635 1675.49 635H1780.57C1788.25 635 1795.38 630.721 1799.01 623.951C1918.36 401.35 1922.32 266.342 1798.92 23.4795C1795.36 16.4806 1788.1 12 1780.25 12L1675.19 12Z" fill="#A7BD41"/>
<rect x="2754" y="82" width="483" height="2754" transform="rotate(90 2754 82)" fill="#E7C5C5"/>
<path d="M2029.62 13C2034.2 13 2037.04 18.0271 2034.83 22.0401C1902.55 262.514 1906.8 397.799 2034.73 626.509C2036.98 630.523 2034.14 635.578 2029.54 635.578H1893.13C1890.91 635.578 1888.85 634.311 1887.81 632.353C1766.01 402.725 1761.85 267.043 1887.84 16.3479C1888.86 14.3252 1890.96 13 1893.22 13L2029.62 13Z" fill="#E68DB1"/>
<path d="M1533.99 0C1538.52 0 1541.36 4.93592 1539.25 8.94491C1407.15 259.292 1411.4 399.929 1539.15 638.027C1541.3 642.038 1538.46 647 1533.91 647H1397.94C1395.68 647 1393.6 645.691 1392.57 643.683C1271.22 405.014 1267.07 264.006 1392.6 3.43917C1393.6 1.36693 1395.73 0 1398.03 0L1533.99 0Z" fill="#75B5C5"/>
<path d="M1362.16 196L1407 203.8L1403.31 220.166C1402.45 223.986 1400.31 226.821 1396.9 228.67C1393.48 230.556 1389.51 231.106 1384.99 230.321C1380.43 229.528 1376.96 227.683 1374.57 224.786C1372.22 221.933 1371.47 218.597 1372.33 214.776L1373.85 208.054L1359.98 205.643L1362.16 196ZM1383.25 209.69L1382.18 214.429C1381.82 216.045 1382.11 217.374 1383.05 218.415C1383.98 219.493 1385.36 220.192 1387.2 220.512C1389.04 220.832 1390.6 220.665 1391.88 220.009C1393.15 219.353 1393.97 218.254 1394.31 216.711L1395.42 211.807L1383.25 209.69Z" fill="#F7D440"/>
<path d="M1356.61 235.029C1360.26 232.293 1364.6 231.227 1369.62 231.831C1374.65 232.436 1378.52 234.489 1381.25 237.991C1383.97 241.494 1384.98 245.527 1384.27 250.09C1383.55 254.691 1381.34 258.356 1377.65 261.087C1373.99 263.86 1369.63 264.942 1364.56 264.333C1359.54 263.728 1355.68 261.678 1353 258.18C1350.36 254.688 1349.4 250.642 1350.12 246.041C1350.83 241.44 1353 237.77 1356.61 235.029ZM1368.11 241.571C1365.74 241.286 1363.74 241.689 1362.11 242.777C1360.48 243.866 1359.52 245.32 1359.24 247.138C1358.95 248.956 1359.43 250.582 1360.67 252.016C1361.91 253.45 1363.71 254.309 1366.08 254.593C1368.48 254.883 1370.53 254.486 1372.2 253.402C1373.87 252.318 1374.85 250.867 1375.14 249.049C1375.42 247.231 1374.92 245.603 1373.64 244.163C1372.36 242.724 1370.51 241.86 1368.11 241.571Z" fill="#F7D440"/>
<path d="M1349.99 271.606C1353.44 268.666 1357.69 267.354 1362.75 267.669C1367.8 267.984 1371.82 269.81 1374.8 273.149C1377.78 276.488 1379.08 280.454 1378.71 285.049C1378.34 289.681 1376.41 293.465 1372.93 296.402C1369.48 299.379 1365.21 300.708 1360.11 300.391C1355.05 300.076 1351.05 298.251 1348.12 294.915C1345.22 291.581 1343.96 287.599 1344.34 282.967C1344.71 278.335 1346.59 274.548 1349.99 271.606ZM1361.96 277.474C1359.57 277.326 1357.61 277.842 1356.06 279.022C1354.51 280.202 1353.67 281.708 1353.52 283.538C1353.37 285.368 1353.97 286.963 1355.31 288.323C1356.66 289.683 1358.52 290.437 1360.9 290.586C1363.32 290.736 1365.33 290.223 1366.92 289.045C1368.51 287.868 1369.38 286.364 1369.53 284.534C1369.67 282.703 1369.05 281.107 1367.67 279.744C1366.28 278.382 1364.38 277.625 1361.96 277.474Z" fill="#F7D440"/>
<path d="M1355.23 304.852L1388.78 305.882L1388.39 315.593L1356.31 314.609C1354.7 314.559 1353.58 314.694 1352.97 315.012C1352.36 315.368 1352.03 316.089 1351.99 317.174C1351.97 317.661 1351.98 318.054 1352.01 318.355L1342.42 318.061C1342.35 316.71 1342.32 315.735 1342.35 315.136C1342.41 313.639 1342.59 312.333 1342.89 311.218C1343.23 310.142 1343.83 309.055 1344.68 307.957C1345.53 306.897 1346.84 306.094 1348.61 305.548C1350.38 305.003 1352.59 304.771 1355.23 304.852Z" fill="#F7D440"/>
<path d="M1341 339.3L1386.62 336.811L1387.8 353.462C1388.08 357.349 1386.83 360.569 1384.06 363.121C1381.3 365.711 1377.62 367.131 1373.03 367.381C1368.39 367.634 1364.5 366.627 1361.35 364.36C1358.24 362.128 1356.55 359.069 1356.28 355.182L1355.8 348.342L1341.69 349.111L1341 339.3ZM1365.37 347.82L1365.71 352.641C1365.82 354.286 1366.49 355.507 1367.7 356.304C1368.91 357.138 1370.45 357.504 1372.32 357.402C1374.19 357.3 1375.65 356.789 1376.7 355.869C1377.74 354.949 1378.21 353.704 1378.1 352.134L1377.75 347.145L1365.37 347.82Z" fill="#F7D440"/>
<path d="M1351.47 371.547C1353.54 371.313 1355.41 371.611 1357.08 372.442C1358.75 373.272 1360.1 374.459 1361.15 376.003C1362.2 377.583 1363.02 379.246 1363.62 380.99C1364.26 382.73 1364.72 384.566 1365 386.497L1365.13 387.333L1365.7 387.268C1368.11 386.996 1369.11 385.504 1368.72 382.792C1368.35 380.267 1366.92 377.747 1364.45 375.233L1371.7 371.015C1373.03 372.186 1374.28 373.856 1375.46 376.026C1376.64 378.234 1377.4 380.451 1377.72 382.68C1378.31 386.654 1377.58 389.908 1375.54 392.441C1373.51 395.012 1370.43 396.531 1366.29 396.999L1346.18 399.273L1344.89 390.47L1346.86 390.248L1348.91 390.13L1348.89 390.018C1347.27 389.257 1345.93 388.144 1344.86 386.68C1343.79 385.253 1343.13 383.704 1342.89 382.032C1342.48 379.284 1343.1 376.929 1344.75 374.968C1346.4 373.008 1348.64 371.867 1351.47 371.547ZM1353.88 380.959C1353.08 381.05 1352.44 381.368 1351.96 381.913C1351.52 382.453 1351.36 383.15 1351.49 384.004C1351.69 385.341 1352.47 386.423 1353.83 387.25C1355.2 388.077 1356.58 388.412 1357.98 388.254L1358.87 388.154L1358.74 387.263C1358.47 385.48 1357.93 383.937 1357.09 382.635C1356.3 381.364 1355.23 380.806 1353.88 380.959Z" fill="#F7D440"/>
<path d="M1346.76 406.273L1379.19 401.294L1381.02 410.479L1375.54 411.321L1373.5 411.519L1373.52 411.63C1375.91 411.909 1378.05 412.759 1379.94 414.181C1381.83 415.639 1382.98 417.401 1383.39 419.467C1383.45 419.762 1383.48 420.138 1383.48 420.593L1372.78 422.237C1372.84 421.885 1372.77 421.23 1372.58 420.271C1372.07 417.689 1370.82 415.866 1368.83 414.802C1366.85 413.738 1364.32 413.441 1361.26 413.912L1348.66 415.845L1346.76 406.273Z" fill="#F7D440"/>
<path d="M1363.62 430.688L1374.91 428.478L1373.99 424.86L1382.42 423.211L1383.4 427.104L1392.64 425.297L1394.98 434.508L1385.74 436.315L1387.24 442.237L1378.82 443.885L1377.31 437.964L1367.45 439.893C1364.71 440.43 1363.76 442.38 1364.61 445.743C1364.73 446.182 1364.85 446.598 1365 446.992L1355.64 448.823C1355.15 447.422 1354.87 446.575 1354.8 446.283C1354.57 445.406 1354.42 444.535 1354.33 443.669C1354.21 442.849 1354.16 441.862 1354.17 440.709C1354.19 439.592 1354.38 438.537 1354.74 437.546C1355.11 436.592 1355.62 435.649 1356.25 434.719C1356.93 433.78 1357.9 432.957 1359.16 432.25C1360.43 431.543 1361.91 431.022 1363.62 430.688Z" fill="#F7D440"/>
<path d="M1353.19 453.859C1352.73 455.06 1352.64 456.111 1352.92 457.013C1353.63 459.25 1355.17 460.488 1357.55 460.725L1359.2 460.906L1386.57 441.472L1389.92 452.081L1376.61 459.752L1372.01 461.981L1372.04 462.09C1374.17 461.96 1375.85 461.882 1377.08 461.854L1392.97 461.77L1396.2 472L1357.48 469.135C1353.85 468.853 1350.94 467.833 1348.75 466.074C1346.53 464.361 1345.03 462.278 1344.26 459.824C1343.92 458.742 1343.76 457.614 1343.79 456.441C1343.82 455.269 1343.93 454.367 1344.13 453.735L1344.43 452.788L1353.19 453.859Z" fill="#F7D440"/>
<path d="M1856.94 214.642L1902.4 221.523L1900.37 230.962L1876.86 238.306C1875.88 238.598 1874.68 238.911 1873.25 239.245C1871.86 239.586 1870.71 239.852 1869.79 240.044L1868.42 240.331L1868.4 240.438C1871.72 240.647 1874.34 240.897 1876.24 241.185L1897.48 244.4L1895.47 253.732L1850.01 246.85L1852.03 237.465L1875.49 230.058C1876.47 229.766 1877.65 229.45 1879.04 229.109C1880.47 228.775 1881.64 228.512 1882.56 228.32L1883.93 228.033L1883.95 227.926C1880.63 227.717 1878.01 227.468 1876.11 227.179L1854.94 223.974L1856.94 214.642ZM1878.26 254.705C1881.18 255.148 1883.5 256.397 1885.2 258.454C1886.9 260.51 1887.47 262.836 1886.91 265.431C1886.37 267.955 1884.87 269.931 1882.42 271.358C1879.96 272.821 1877.27 273.331 1874.35 272.889C1871.38 272.44 1869.07 271.19 1867.41 269.14C1865.75 267.09 1865.19 264.785 1865.74 262.226C1866.3 259.631 1867.79 257.616 1870.19 256.182C1872.6 254.748 1875.29 254.256 1878.26 254.705ZM1876.92 261.22C1875.99 261.079 1875.16 261.191 1874.42 261.557C1873.72 261.965 1873.29 262.56 1873.12 263.342C1872.95 264.124 1873.11 264.791 1873.61 265.343C1874.13 265.937 1874.87 266.305 1875.8 266.446C1876.69 266.581 1877.48 266.444 1878.18 266.036C1878.93 265.635 1879.38 265.061 1879.54 264.314C1879.7 263.568 1879.52 262.898 1878.99 262.304C1878.5 261.716 1877.81 261.355 1876.92 261.22ZM1857.56 252.067L1864.87 253.173L1861.21 270.184L1853.9 269.077L1857.56 252.067Z" fill="#17334D"/>
<path d="M1844.58 277.307L1854.23 278.073L1853.3 286.273L1872.47 287.795L1876 288.13L1876.01 288.022C1875.19 287.63 1874.43 287.062 1873.74 286.317L1871.49 283.799L1879.05 278.902L1889.52 290.238L1888.6 298.383L1852.26 295.498L1851.33 303.751L1841.68 302.985L1844.58 277.307Z" fill="#17334D"/>
<path d="M1841.25 308.425C1843.2 308.186 1844.86 308.085 1846.24 308.121C1848.91 308.19 1851.37 308.669 1853.62 309.559C1855.87 310.448 1857.71 311.526 1859.13 312.791C1860.54 314.057 1861.89 315.429 1863.18 316.908C1864.46 318.423 1865.52 319.806 1866.38 321.057C1867.29 322.309 1868.24 323.364 1869.24 324.221C1870.29 325.079 1871.32 325.522 1872.36 325.549C1873.86 325.588 1875.02 325.202 1875.83 324.392C1876.63 323.581 1877.05 322.616 1877.1 321.497C1877.14 320.306 1876.71 319.192 1875.8 318.157C1874.89 317.121 1873.75 316.278 1872.4 315.629L1878.28 308.734C1881.16 310.073 1883.48 311.904 1885.25 314.227C1887.01 316.586 1887.84 319.39 1887.72 322.64C1887.59 326.178 1886.25 329.234 1883.7 331.806C1881.19 334.379 1877.65 335.607 1873.09 335.488C1870.42 335.419 1868.01 334.815 1865.85 333.675C1863.7 332.535 1861.94 331.17 1860.58 329.58C1859.26 327.992 1858.04 326.407 1856.94 324.824C1855.88 323.242 1854.81 321.859 1853.73 320.675C1852.7 319.492 1851.64 318.85 1850.57 318.75L1849.95 335.485L1840.27 335.234L1841.25 308.425Z" fill="#17334D"/>
<path d="M1845.53 341.254L1854.45 345.526C1851.8 347.996 1850.55 350.693 1850.68 353.617C1850.75 355.313 1851.24 356.635 1852.15 357.583C1853.1 358.565 1854.22 359.036 1855.51 358.995C1858.91 358.887 1860.5 356.433 1860.28 351.631L1860.16 348.924L1865.56 346.747L1873.08 351.606C1873.88 352.123 1874.66 352.64 1875.42 353.158C1876.17 353.713 1876.71 354.13 1877.02 354.409L1877.56 354.826L1877.69 354.822C1877.44 353.998 1877.27 352.774 1877.2 351.15L1876.78 341.891L1886.47 341.584L1887.57 366.004L1880.53 366.227L1869.4 358.717C1868.79 361.592 1867.3 363.917 1864.93 365.691C1862.55 367.466 1859.73 368.405 1856.45 368.508C1852.15 368.645 1848.39 367.498 1845.18 365.07C1841.97 362.677 1840.26 359.207 1840.06 354.658C1839.81 349.207 1841.64 344.739 1845.53 341.254Z" fill="#17334D"/>
<path d="M1852.76 371.542L1859.56 370.93L1889.47 383.285L1890.94 394.815L1865.44 397.106L1866.03 401.685L1856.71 402.522L1856.13 397.942L1845.01 398.941L1843.82 389.62L1854.94 388.621L1852.76 371.542ZM1863.29 380.296L1864.25 387.785L1874.53 386.861L1879.71 386.723L1879.69 386.615C1877.74 386.246 1876.08 385.759 1874.7 385.156L1863.42 380.284L1863.29 380.296Z" fill="#17334D"/>
<path d="M1851.55 407.207L1861.08 410.424C1858.87 413.244 1858.06 416.023 1858.63 418.763C1858.92 420.15 1859.67 421.306 1860.87 422.23C1862.11 423.183 1863.61 423.531 1865.35 423.275C1867.09 423.019 1868.35 422.246 1869.13 420.958C1869.91 419.669 1870.11 418.135 1869.74 416.356C1869.38 414.649 1868.51 413.016 1867.14 411.458L1868.32 406.167L1892.44 404.209L1896.91 425.556L1887.37 426.962L1884.6 413.727L1880.36 414.132L1878.53 414.181L1878.55 414.288C1878.99 414.92 1879.33 415.823 1879.58 416.997C1880.49 421.338 1879.77 424.91 1877.43 427.712C1875.13 430.508 1871.81 432.225 1867.49 432.863C1862.78 433.556 1858.62 432.812 1855.02 430.629C1851.41 428.446 1849.17 425.273 1848.3 421.11C1847.21 415.915 1848.3 411.281 1851.55 407.207Z" fill="#17334D"/>
<path d="M1784.66 13C1789.27 13 1792.1 18.081 1789.84 22.0951C1654.32 262.685 1658.68 398.056 1789.74 626.877C1792.04 630.891 1789.2 636 1784.57 636H1644.53C1642.34 636 1640.29 634.757 1639.24 632.828C1514.39 402.994 1510.12 267.216 1639.27 16.2963C1640.3 14.3019 1642.38 13 1644.62 13L1784.66 13Z" fill="#C4DB5B"/>
<path d="M1610.27 205L1656.37 211.889L1654.31 221.338L1630.47 228.69C1629.47 228.982 1628.25 229.296 1626.8 229.63C1625.4 229.972 1624.23 230.238 1623.3 230.43L1621.91 230.718L1621.88 230.824C1625.25 231.034 1627.91 231.284 1629.84 231.573L1651.37 234.791L1649.34 244.133L1603.24 237.244L1605.29 227.848L1629.07 220.433C1630.07 220.141 1631.27 219.825 1632.68 219.483C1634.13 219.149 1635.31 218.885 1636.24 218.694L1637.64 218.406L1637.66 218.299C1634.29 218.089 1631.64 217.84 1629.7 217.551L1608.23 214.342L1610.27 205ZM1631.88 245.108C1634.85 245.551 1637.2 246.802 1638.92 248.86C1640.65 250.919 1641.23 253.247 1640.66 255.845C1640.11 258.372 1638.59 260.35 1636.11 261.779C1633.61 263.244 1630.88 263.755 1627.92 263.312C1624.91 262.862 1622.56 261.611 1620.88 259.559C1619.2 257.507 1618.63 255.199 1619.19 252.637C1619.76 250.039 1621.26 248.022 1623.71 246.586C1626.15 245.151 1628.88 244.658 1631.88 245.108ZM1630.53 251.63C1629.58 251.489 1628.74 251.601 1627.99 251.968C1627.28 252.376 1626.84 252.972 1626.67 253.755C1626.5 254.538 1626.67 255.205 1627.17 255.758C1627.7 256.352 1628.44 256.72 1629.39 256.862C1630.29 256.997 1631.1 256.86 1631.81 256.452C1632.56 256.05 1633.02 255.475 1633.18 254.728C1633.35 253.98 1633.16 253.309 1632.62 252.715C1632.13 252.127 1631.43 251.765 1630.53 251.63ZM1610.89 242.466L1618.3 243.574L1614.59 260.604L1607.18 259.496L1610.89 242.466Z" fill="#E6FB88"/>
<path d="M1603.38 265.498L1611.67 270.725C1608.61 272.955 1606.92 275.456 1606.6 278.228C1606.44 279.632 1606.8 280.914 1607.68 282.072C1608.59 283.27 1609.94 283.939 1611.72 284.079C1613.51 284.219 1614.98 283.753 1616.16 282.683C1617.34 281.613 1618.03 280.177 1618.23 278.377C1618.43 276.649 1618.11 274.88 1617.26 273.07L1620.12 268.227L1644.33 271.705L1641.86 293.307L1632.08 292.54L1633.61 279.147L1629.33 278.593L1627.53 278.234L1627.51 278.342C1627.74 279.05 1627.79 279.998 1627.65 281.186C1627.15 285.579 1625.3 288.867 1622.11 291.051C1618.97 293.238 1615.18 294.158 1610.74 293.81C1605.92 293.432 1602.09 291.788 1599.26 288.878C1596.44 285.968 1595.27 282.407 1595.75 278.195C1596.35 272.938 1598.89 268.706 1603.38 265.498Z" fill="#E6FB88"/>
<path d="M1615.94 298.784C1619.17 298.859 1622.3 299.33 1625.33 300.196C1628.36 301.098 1631.09 302.32 1633.53 303.86C1635.96 305.436 1637.88 307.434 1639.29 309.854C1640.73 312.312 1641.41 314.987 1641.31 317.879C1641.2 321.241 1640.42 324.081 1638.99 326.399L1629.25 323.622C1629.57 323.16 1629.91 322.371 1630.25 321.258C1630.59 320.144 1630.78 319.172 1630.81 318.34C1630.95 314.183 1628.47 311.34 1623.36 309.81L1623.36 309.919C1623.74 310.398 1624.08 311.183 1624.39 312.276C1624.71 313.369 1624.85 314.367 1624.82 315.271C1624.69 319.103 1622.97 322.138 1619.66 324.376C1616.39 326.616 1612.62 327.686 1608.34 327.587C1604.11 327.488 1600.46 326.192 1597.4 323.696C1594.34 321.237 1592.87 318.002 1593.01 313.989C1593.15 309.723 1595.22 306.081 1599.21 303.062C1603.2 300.044 1608.78 298.618 1615.94 298.784ZM1603.49 314.232C1603.45 315.389 1603.92 316.341 1604.9 317.087C1605.92 317.834 1607.15 318.225 1608.59 318.258C1610.47 318.302 1612.1 317.851 1613.49 316.907C1614.88 315.962 1615.6 314.514 1615.67 312.562C1615.76 309.887 1614.87 308.527 1612.99 308.484C1610.37 308.423 1608.14 309.004 1606.31 310.228C1604.48 311.452 1603.54 312.786 1603.49 314.232Z" fill="#E6FB88"/>
<path d="M1593.38 334.196L1626.85 346.805C1627.83 347.171 1628.68 347.522 1629.4 347.86C1630.11 348.234 1630.59 348.508 1630.81 348.681L1631.22 348.939L1631.35 348.934C1631.21 348.722 1631.11 347.965 1631.04 346.664L1630.29 331.325L1640.11 330.995L1641.47 358.8L1633.49 359.069L1593.87 344.115L1593.38 334.196Z" fill="#E6FB88"/>
<path d="M1608.96 366.624C1610.69 366.462 1612.46 366.661 1614.25 367.222C1616.08 367.778 1617.48 368.357 1618.44 368.959C1619.4 369.597 1620.26 370.244 1621.01 370.902C1623.21 368.331 1626.02 366.885 1629.45 366.565C1633.18 366.216 1636.5 367.016 1639.4 368.965C1642.31 370.913 1644.05 374.008 1644.63 378.248C1645.14 381.986 1644.34 385.208 1642.25 387.915C1640.2 390.617 1637.1 392.163 1632.93 392.553C1629.5 392.873 1625.77 391.948 1621.74 389.777C1619.63 393.031 1616.58 394.845 1612.59 395.218C1608.73 395.579 1605.21 394.634 1602.05 392.382C1598.93 390.126 1597.06 386.752 1596.45 382.26C1595.84 377.804 1596.78 374.168 1599.25 371.353C1601.77 368.57 1605.01 366.993 1608.96 366.624ZM1624.91 382.548C1626.86 383.312 1628.83 383.601 1630.83 383.414C1632.13 383.293 1633.12 382.836 1633.8 382.044C1634.49 381.252 1634.74 380.228 1634.57 378.97C1634.41 377.82 1633.95 376.972 1633.17 376.426C1632.44 375.912 1631.53 375.705 1630.45 375.807C1629.06 375.937 1627.98 376.547 1627.2 377.639C1626.43 378.766 1625.67 380.402 1624.91 382.548ZM1611.25 376.182C1609.73 376.324 1608.51 376.893 1607.59 377.889C1606.67 378.884 1606.3 380.029 1606.48 381.323C1606.67 382.76 1607.24 383.854 1608.18 384.603C1609.11 385.353 1610.34 385.656 1611.86 385.514C1612.16 385.486 1612.44 385.424 1612.69 385.327C1612.94 385.231 1613.19 385.081 1613.42 384.877C1613.66 384.673 1613.87 384.471 1614.06 384.271C1614.26 384.107 1614.47 383.833 1614.68 383.45C1614.89 383.102 1615.07 382.794 1615.21 382.526C1615.36 382.294 1615.53 381.933 1615.72 381.441C1615.92 380.986 1616.09 380.606 1616.23 380.302C1616.37 380.035 1616.53 379.619 1616.72 379.056C1616.95 378.488 1617.13 378.053 1617.26 377.749C1615.29 376.514 1613.29 375.991 1611.25 376.182Z" fill="#E6FB88"/>
<path d="M1601.38 401.82L1611.6 402.877C1611.08 404.756 1611.01 406.568 1611.39 408.311C1612.29 412.403 1615.42 414.763 1620.8 415.39L1620.78 415.283C1620.25 414.92 1619.7 414.231 1619.12 413.215C1618.59 412.193 1618.22 411.219 1618.02 410.294C1617.19 406.522 1618.1 403.262 1620.74 400.513C1623.42 397.759 1626.87 396.065 1631.08 395.433C1635.25 394.807 1639.13 395.437 1642.74 397.321C1646.36 399.241 1648.6 402.175 1649.46 406.125C1650.38 410.324 1649.27 414.241 1646.11 417.875C1642.96 421.51 1637.85 423.856 1630.81 424.914C1627.63 425.391 1624.44 425.446 1621.26 425.079C1618.08 424.748 1615.1 424.019 1612.32 422.892C1609.55 421.8 1607.15 420.176 1605.13 418.017C1603.15 415.888 1601.85 413.4 1601.23 410.553C1600.51 407.244 1600.56 404.333 1601.38 401.82ZM1627.65 411.385C1628.22 414.018 1629.43 415.196 1631.28 414.919C1633.86 414.532 1635.89 413.583 1637.38 412.073C1638.87 410.563 1639.46 409.097 1639.15 407.673C1638.9 406.535 1638.18 405.687 1637 405.13C1635.85 404.567 1634.57 404.391 1633.15 404.604C1631.3 404.882 1629.82 405.601 1628.7 406.761C1627.58 407.922 1627.22 409.463 1627.65 411.385Z" fill="#E6FB88"/>
<path d="M1615.17 456.854C1613.43 455.24 1612.16 453.135 1611.38 450.539C1610.59 447.943 1610.51 445.574 1611.12 443.434C1611.79 441.32 1613.07 439.509 1614.95 438.001C1616.84 436.492 1619.08 435.207 1621.69 434.146C1624.3 433.085 1627.29 432.204 1630.68 431.502C1634.07 430.8 1637.2 430.415 1640.06 430.345C1642.96 430.266 1645.65 430.529 1648.13 431.134C1650.65 431.731 1652.79 432.836 1654.53 434.45C1656.29 436.099 1657.56 438.222 1658.35 440.818C1659.13 443.415 1659.21 445.765 1658.58 447.87C1657.97 450.01 1656.72 451.835 1654.83 453.343C1652.99 454.843 1650.77 456.124 1648.16 457.185C1645.6 458.237 1642.62 459.114 1639.23 459.816C1635.84 460.517 1632.69 460.907 1629.79 460.986C1626.89 461.065 1624.18 460.806 1621.66 460.21C1619.14 459.613 1616.97 458.495 1615.17 456.854ZM1633.54 440.975C1624.6 442.825 1620.6 445.312 1621.55 448.434C1622.49 451.557 1627.43 452.193 1636.37 450.343C1645.18 448.519 1649.12 446.045 1648.18 442.923C1647.23 439.8 1642.36 439.151 1633.54 440.975Z" fill="#E6FB88"/>
<ellipse cx="2709.5" cy="303" rx="303" ry="307.5" transform="rotate(90 2709.5 303)" fill="#E7C5C5"/>
</g>
<defs>
<filter id="filter0_d_94_17405" x="1613" y="744" width="205" height="205.565" filterUnits="userSpaceOnUse" color-interpolation-filters="sRGB">
<feFlood flood-opacity="0" result="BackgroundImageFix"/>
<feColorMatrix in="SourceAlpha" type="matrix" values="0 0 0 0 0 0 0 0 0 0 0 0 0 0 0 0 0 0 127 0" result="hardAlpha"/>
<feOffset dx="9" dy="12"/>
<feComposite in2="hardAlpha" operator="out"/>
<feColorMatrix type="matrix" values="0 0 0 0 0.0583545 0 0 0 0 0.150095 0 0 0 0 0.23125 0 0 0 1 0"/>
<feBlend mode="normal" in2="BackgroundImageFix" result="effect1_dropShadow_94_17405"/>
<feBlend mode="normal" in="SourceGraphic" in2="effect1_dropShadow_94_17405" result="shape"/>
</filter>
<filter id="filter1_d_94_17405" x="2080" y="683" width="254" height="253.957" filterUnits="userSpaceOnUse" color-interpolation-filters="sRGB">
<feFlood flood-opacity="0" result="BackgroundImageFix"/>
<feColorMatrix in="SourceAlpha" type="matrix" values="0 0 0 0 0 0 0 0 0 0 0 0 0 0 0 0 0 0 127 0" result="hardAlpha"/>
<feOffset dx="9" dy="12"/>
<feComposite in2="hardAlpha" operator="out"/>
<feColorMatrix type="matrix" values="0 0 0 0 0.0583545 0 0 0 0 0.150095 0 0 0 0 0.23125 0 0 0 1 0"/>
<feBlend mode="normal" in2="BackgroundImageFix" result="effect1_dropShadow_94_17405"/>
<feBlend mode="normal" in="SourceGraphic" in2="effect1_dropShadow_94_17405" result="shape"/>
</filter>
<filter id="filter2_d_94_17405" x="1244" y="766" width="160" height="161.124" filterUnits="userSpaceOnUse" color-interpolation-filters="sRGB">
<feFlood flood-opacity="0" result="BackgroundImageFix"/>
<feColorMatrix in="SourceAlpha" type="matrix" values="0 0 0 0 0 0 0 0 0 0 0 0 0 0 0 0 0 0 127 0" result="hardAlpha"/>
<feOffset dx="9" dy="12"/>
<feComposite in2="hardAlpha" operator="out"/>
<feColorMatrix type="matrix" values="0 0 0 0 0.0583545 0 0 0 0 0.150095 0 0 0 0 0.23125 0 0 0 1 0"/>
<feBlend mode="normal" in2="BackgroundImageFix" result="effect1_dropShadow_94_17405"/>
<feBlend mode="normal" in="SourceGraphic" in2="effect1_dropShadow_94_17405" result="shape"/>
</filter>
<filter id="filter3_d_94_17405" x="0" y="0" width="3039" height="678" filterUnits="userSpaceOnUse" color-interpolation-filters="sRGB">
<feFlood flood-opacity="0" result="BackgroundImageFix"/>
<feColorMatrix in="SourceAlpha" type="matrix" values="0 0 0 0 0 0 0 0 0 0 0 0 0 0 0 0 0 0 127 0" result="hardAlpha"/>
<feOffset dx="22" dy="31"/>
<feComposite in2="hardAlpha" operator="out"/>
<feColorMatrix type="matrix" values="0 0 0 0 0.0745098 0 0 0 0 0.176471 0 0 0 0 0.266667 0 0 0 1 0"/>
<feBlend mode="normal" in2="BackgroundImageFix" result="effect1_dropShadow_94_17405"/>
<feBlend mode="normal" in="SourceGraphic" in2="effect1_dropShadow_94_17405" result="shape"/>
</filter>
</defs>
</svg>
