<svg width="1269" height="1044" viewBox="0 0 1269 1044" fill="none" xmlns="http://www.w3.org/2000/svg">
<rect x="45" width="1171" height="725" fill="#0E253A"/>
<g filter="url(#filter0_d_3_2069)">
<rect x="655" y="281" width="45" height="28" fill="#835959"/>
<circle cx="676" cy="190" r="101" fill="#A37777"/>
<path d="M676 84C620.219 84 575 129.219 575 185H777C777 129.219 731.781 84 676 84Z" fill="#C4DB5B"/>
<path d="M676 106C632.37 106 597 141.37 597 185H755C755 141.37 719.63 106 676 106Z" fill="#A37777"/>
<path d="M579.816 301.733C576.527 301.328 573.532 303.666 573.128 306.955L533.414 629.625C533.009 632.914 535.347 635.909 538.636 636.313L562.196 639.213C565.485 639.618 568.479 637.28 568.884 633.991L608.597 311.321C609.002 308.032 606.664 305.037 603.375 304.633L579.816 301.733Z" fill="#A37777"/>
<path d="M773.515 301.733C776.804 301.328 779.798 303.666 780.203 306.955L819.916 629.625C820.321 632.914 817.983 635.909 814.694 636.313L791.135 639.213C787.846 639.618 784.851 637.28 784.447 633.991L744.733 311.321C744.328 308.032 746.666 305.037 749.955 304.633L773.515 301.733Z" fill="#A37777"/>
<ellipse cx="548.165" cy="637.503" rx="16.2006" ry="27.4164" transform="rotate(-87.238 548.165 637.503)" fill="#A37777"/>
<ellipse cx="16.2006" cy="27.4164" rx="16.2006" ry="27.4164" transform="matrix(-0.0481872 -0.998838 -0.998838 0.0481872 833.331 652.363)" fill="#A37777"/>
<path d="M602 314C602 310.686 604.686 308 608 308H747C750.314 308 753 310.686 753 314V577H602V314Z" fill="#A37777"/>
<rect x="596" y="595" width="160" height="38" fill="#75B5C5"/>
<rect x="744" y="640" width="317" height="40" transform="rotate(90 744 640)" fill="#A37777"/>
<rect x="650" y="640" width="317" height="40" transform="rotate(90 650 640)" fill="#A37777"/>
<path d="M743 957C746.314 957 749 959.686 749 963V970C749 973.314 746.314 976 743 976H706C702.686 976 700 973.314 700 970V963C700 959.686 702.686 957 706 957H743Z" fill="#A37777"/>
<path d="M649 957C652.314 957 655 959.686 655 963V970C655 973.314 652.314 976 649 976H612C608.686 976 606 973.314 606 970V963C606 959.686 608.686 957 612 957H649Z" fill="#A37777"/>
<rect x="689" y="614" width="67" height="147" fill="#75B5C5"/>
<rect x="596" y="614" width="67" height="147" fill="#75B5C5"/>
<rect x="589" y="569" width="175" height="26" fill="#5694A4"/>
</g>
<g filter="url(#filter1_d_3_2069)">
<path d="M267.957 269.145C318.937 255.853 243.579 241.151 305 234.499C283.545 277.044 392.788 307.355 353.5 374.498C338.321 404.571 235.116 405.526 155.853 407.04C77.2109 408.543 85.3045 342.609 99.5002 359C133.272 397.993 234 277.998 267.957 269.145Z" fill="#E57AA5"/>
<rect x="201" y="354" width="45" height="28" fill="#E9B6B6"/>
<path d="M347.111 238.499C370.526 199.803 306.988 175.785 272.943 169C281.279 211.368 287.743 240.636 303.959 307.515C309.859 337.463 353.571 374.214 398.13 375.939C442.339 377.652 445.405 289.98 435.952 306.241C413.461 344.924 305.064 307.988 347.111 238.499Z" fill="#E68DB1"/>
<path d="M107.23 238.499C83.8152 199.803 147.354 175.785 181.398 169C173.062 211.368 166.598 240.636 150.382 307.515C144.483 337.463 100.771 374.214 56.2119 375.939C12.0022 377.652 8.93638 289.98 18.3899 306.241C40.8802 344.924 149.278 307.988 107.23 238.499Z" fill="#E68DB1"/>
<path d="M322.27 268.68C345.685 229.983 282.147 205.966 248.102 199.181C256.438 241.549 262.902 270.816 279.118 337.695C285.018 367.643 328.73 404.394 373.289 406.12C417.498 407.832 420.564 320.161 411.111 336.421C388.62 375.105 280.223 338.168 322.27 268.68Z" fill="#E57AA5"/>
<path d="M132.071 268.68C108.656 229.983 172.195 205.966 206.239 199.181C197.903 241.549 191.439 270.816 175.223 337.695C169.323 367.643 125.612 404.394 81.0527 406.12C36.8431 407.832 33.7772 320.161 43.2308 336.421C65.721 375.105 174.118 338.168 132.071 268.68Z" fill="#E57AA5"/>
<circle cx="222" cy="263" r="101" fill="#E7C5C5"/>
<path d="M272.502 366.05C324.183 345.278 347.836 283.051 325.333 227.063L272.502 366.05Z" fill="#E68DB1"/>
<path d="M230.5 157C170.025 157 121 202.219 121 258H340C340 202.219 290.975 157 230.5 157Z" fill="#E68DB1"/>
<path d="M181.258 370.853C129.577 350.08 105.923 287.854 128.426 231.866L181.258 370.853Z" fill="#E68DB1"/>
<path d="M319.515 374.733C322.804 374.328 325.798 376.666 326.203 379.955L342.025 508.506C342.429 511.795 340.091 514.789 336.802 515.194L313.243 518.094C309.954 518.498 306.959 516.16 306.555 512.871L290.733 384.321C290.328 381.032 292.666 378.037 295.955 377.633L319.515 374.733Z" fill="#E7C5C5"/>
<path d="M449.446 500.776C450.282 503.983 448.36 507.259 445.153 508.095L319.819 540.759C316.612 541.595 313.335 539.673 312.5 536.466L306.513 513.496C305.678 510.289 307.6 507.012 310.806 506.177L436.141 473.513C439.347 472.677 442.624 474.599 443.46 477.806L449.446 500.776Z" fill="#E7C5C5"/>
<path d="M125.816 374.733C122.527 374.328 119.533 376.666 119.128 379.955L88.8446 626.004C88.4398 629.292 90.7779 632.287 94.0667 632.692L117.626 635.591C120.915 635.996 123.91 633.658 124.314 630.369L154.598 384.321C155.003 381.032 152.664 378.037 149.376 377.633L125.816 374.733Z" fill="#E7C5C5"/>
<ellipse cx="105.165" cy="634.503" rx="16.2006" ry="27.4164" transform="rotate(-87.238 105.165 634.503)" fill="#E7C5C5"/>
<path d="M148 387C148 383.686 150.686 381 154 381H293C296.314 381 299 383.686 299 387V650H148V387Z" fill="#E7C5C5"/>
<rect x="148" y="411" width="151" height="74" fill="#A8C03C"/>
<rect x="142" y="668" width="160" height="38" fill="#A8C03C"/>
<rect x="290" y="713" width="254" height="40" transform="rotate(90 290 713)" fill="#E7C5C5"/>
<rect x="196" y="713" width="254" height="40" transform="rotate(90 196 713)" fill="#E7C5C5"/>
<path d="M289 957C292.314 957 295 959.686 295 963V970C295 973.314 292.314 976 289 976H252C248.686 976 246 973.314 246 970V963C246 959.686 248.686 957 252 957H289Z" fill="#DFF480"/>
<path d="M195 957C198.314 957 201 959.686 201 963V970C201 973.314 198.314 976 195 976H158C154.686 976 152 973.314 152 970V963C152 959.686 154.686 957 158 957H195Z" fill="#DFF480"/>
<rect x="235" y="687" width="67" height="38" fill="#A8C03C"/>
<rect x="142" y="687" width="67" height="38" fill="#A8C03C"/>
<rect x="135" y="642" width="175" height="26" fill="#DFF480"/>
<rect x="445.674" y="459.109" width="6.01439" height="55.223" transform="rotate(-13.8736 445.674 459.109)" fill="#607A45"/>
<path d="M447.359 519.518C446.562 516.293 448.531 513.033 451.755 512.237L470.865 507.517C474.089 506.721 477.349 508.689 478.146 511.914V511.914L447.359 519.518V519.518Z" fill="#607A45"/>
<path d="M450.035 464.227L473.626 422.497L409.728 438.279L450.035 464.227Z" fill="#A8C03C" fill-opacity="0.5"/>
<path d="M446.938 459.072C448.394 460.015 450.345 459.529 451.189 458.013L464 435L418.457 440.636L446.938 459.072Z" fill="#E68DB1"/>
<rect x="437" y="451.453" width="4.61078" height="4.61078" transform="rotate(-75.1738 437 451.453)" fill="#ECF5FF"/>
<rect x="437.315" y="451.345" width="2.30539" height="2.30539" transform="rotate(-75.1738 437.315 451.345)" fill="white"/>
<ellipse cx="16.2006" cy="22.2236" rx="16.2006" ry="22.2236" transform="matrix(0.989148 -0.146924 -0.146924 -0.989148 440.53 508.721)" fill="#E7C5C5"/>
<rect width="2.58835" height="2.58835" transform="matrix(-0.676534 -0.736411 -0.736411 0.676534 447.657 449.902)" fill="#ECF5FF"/>
<rect width="1.29418" height="1.29418" transform="matrix(-0.676534 -0.736411 -0.736411 0.676534 447.473 449.932)" fill="white"/>
<rect width="3.908" height="3.908" transform="matrix(0.676534 0.736411 0.736411 -0.676534 443 454.64)" fill="#ECF5FF"/>
<rect width="1.954" height="1.954" transform="matrix(0.676534 0.736411 0.736411 -0.676534 443.279 454.597)" fill="white"/>
</g>
<g filter="url(#filter2_d_3_2069)">
<rect width="183" height="485" transform="matrix(-1 0 0 1 1173 223)" fill="#5AA6B9"/>
<rect width="39.1122" height="29.0346" transform="matrix(-1 0 0 1 1102.17 331.018)" fill="#CCB78B"/>
<ellipse cx="87.7851" cy="104.732" rx="87.7851" ry="104.732" transform="matrix(-1 0 0 1 1171.71 131.924)" fill="#E9D1A0"/>
<path d="M1196.01 322.05C1207.53 223.557 1165.64 142.715 1085.23 129.331C1115.53 242.294 1128.92 277.068 1196.01 322.05Z" fill="#75B5C5"/>
<path d="M973.499 322.05C961.982 223.558 1005.21 142.197 1085.63 128.813C1055.32 241.775 1040.59 277.068 973.499 322.05Z" fill="#75B5C5"/>
<path d="M1020.74 358.004C1019.09 355.127 1015.68 354.488 1013.11 356.578L920.759 431.627C918.187 433.717 917.434 437.744 919.077 440.622L930.615 460.828C932.258 463.705 935.674 464.344 938.246 462.254L1030.59 387.205C1033.16 385.115 1033.92 381.088 1032.27 378.21L1020.74 358.004Z" fill="#E9D1A0"/>
<path d="M1166.76 352.629C1170.04 352.147 1172.97 354.429 1173.31 357.725L1199.68 613.278C1200.02 616.575 1197.63 619.637 1194.36 620.118L1175.4 622.902C1172.12 623.383 1169.19 621.101 1168.85 617.805L1142.48 362.252C1142.14 358.956 1144.53 355.893 1147.8 355.412L1166.76 352.629Z" fill="#E9D1A0"/>
<ellipse cx="16.7934" cy="23.841" rx="16.7934" ry="23.841" transform="matrix(-0.040404 -0.999183 -0.998348 0.0574614 1209.95 637.294)" fill="#E9D1A0"/>
<path d="M1148.24 365.015C1148.24 361.702 1145.55 359.015 1142.24 359.015H1023C1019.68 359.015 1017 361.702 1017 365.015V637.955H1148.24V365.015Z" fill="#E9D1A0"/>
<rect width="131.243" height="44.5888" transform="matrix(-1 0 0 1 1148.24 390.124)" fill="#E58DB1"/>
<rect width="139.065" height="147.247" transform="matrix(-1 0 0 1 1153.45 548.777)" fill="#E58DB1"/>
<rect width="270.644" height="34.7664" transform="matrix(0 1 1 0 1106.52 696.024)" fill="#E9D1A0"/>
<rect width="270.644" height="34.7664" transform="matrix(0 1 1 0 1029.16 696.024)" fill="#E9D1A0"/>
<rect width="144.136" height="34.7664" transform="matrix(0 1 1 0 1106.52 817.347)" fill="#E58DB1"/>
<rect width="96.4362" height="34.7664" transform="matrix(0 1 1 0 1029.16 865.046)" fill="#E58DB1"/>
<path d="M1108.17 956.298C1104.86 956.298 1102.17 958.984 1102.17 962.298V970C1102.17 973.314 1104.86 976 1108.17 976H1138.76C1142.08 976 1144.76 973.314 1144.76 970V962.298C1144.76 958.984 1142.08 956.298 1138.76 956.298H1108.17Z" fill="#C75483"/>
<path d="M1030.82 956.298C1027.51 956.298 1024.82 958.984 1024.82 962.298V970C1024.82 973.314 1027.51 976 1030.82 976H1061.41C1064.72 976 1067.41 973.314 1067.41 970V962.298C1067.41 958.984 1064.72 956.298 1061.41 956.298H1030.82Z" fill="#C75483"/>
<rect width="58.2337" height="19.702" transform="matrix(-1 0 0 1 1072.62 676.322)" fill="#E58DB1"/>
<rect width="58.2337" height="19.702" transform="matrix(-1 0 0 1 1153.45 676.322)" fill="#E58DB1"/>
<rect width="152.103" height="14.5173" transform="matrix(-1 0 0 1 1160.41 544.629)" fill="#C75483"/>
<path d="M1085.23 106C1137.79 106 1180.4 152.89 1180.4 210.732H990.053C990.053 152.89 1032.66 106 1085.23 106Z" fill="#E58DB1"/>
<path d="M907.441 455.487C905.934 458.503 906.86 462.474 909.508 464.357L1005.58 532.675C1008.22 534.558 1011.59 533.64 1013.1 530.625L1023.55 509.713C1025.05 506.698 1024.13 502.726 1021.48 500.843L925.412 432.525C922.764 430.642 919.395 431.56 917.889 434.576L907.441 455.487Z" fill="#E9D1A0"/>
<ellipse cx="14.9323" cy="22.0131" rx="14.9323" ry="22.0131" transform="matrix(-0.845746 -0.49756 0.388075 -0.938915 1027.64 551.376)" fill="#E9D1A0"/>
</g>
<defs>
<filter id="filter0_d_3_2069" x="520.769" y="84" width="370.792" height="960" filterUnits="userSpaceOnUse" color-interpolation-filters="sRGB">
<feFlood flood-opacity="0" result="BackgroundImageFix"/>
<feColorMatrix in="SourceAlpha" type="matrix" values="0 0 0 0 0 0 0 0 0 0 0 0 0 0 0 0 0 0 127 0" result="hardAlpha"/>
<feOffset dx="59" dy="68"/>
<feComposite in2="hardAlpha" operator="out"/>
<feColorMatrix type="matrix" values="0 0 0 0 0.0745098 0 0 0 0 0.176471 0 0 0 0 0.266667 0 0 0 1 0"/>
<feBlend mode="normal" in2="BackgroundImageFix" result="effect1_dropShadow_3_2069"/>
<feBlend mode="normal" in="SourceGraphic" in2="effect1_dropShadow_3_2069" result="shape"/>
</filter>
<filter id="filter1_d_3_2069" x="14.0205" y="157" width="523.125" height="887" filterUnits="userSpaceOnUse" color-interpolation-filters="sRGB">
<feFlood flood-opacity="0" result="BackgroundImageFix"/>
<feColorMatrix in="SourceAlpha" type="matrix" values="0 0 0 0 0 0 0 0 0 0 0 0 0 0 0 0 0 0 127 0" result="hardAlpha"/>
<feOffset dx="59" dy="68"/>
<feComposite in2="hardAlpha" operator="out"/>
<feColorMatrix type="matrix" values="0 0 0 0 0.0745098 0 0 0 0 0.176471 0 0 0 0 0.266667 0 0 0 1 0"/>
<feBlend mode="normal" in2="BackgroundImageFix" result="effect1_dropShadow_3_2069"/>
<feBlend mode="normal" in="SourceGraphic" in2="effect1_dropShadow_3_2069" result="shape"/>
</filter>
<filter id="filter2_d_3_2069" x="906.718" y="106" width="361.563" height="938" filterUnits="userSpaceOnUse" color-interpolation-filters="sRGB">
<feFlood flood-opacity="0" result="BackgroundImageFix"/>
<feColorMatrix in="SourceAlpha" type="matrix" values="0 0 0 0 0 0 0 0 0 0 0 0 0 0 0 0 0 0 127 0" result="hardAlpha"/>
<feOffset dx="59" dy="68"/>
<feComposite in2="hardAlpha" operator="out"/>
<feColorMatrix type="matrix" values="0 0 0 0 0.0745098 0 0 0 0 0.176471 0 0 0 0 0.266667 0 0 0 1 0"/>
<feBlend mode="normal" in2="BackgroundImageFix" result="effect1_dropShadow_3_2069"/>
<feBlend mode="normal" in="SourceGraphic" in2="effect1_dropShadow_3_2069" result="shape"/>
</filter>
</defs>
</svg>
